M48
METRIC,LZ,000.000
;FILE_FORMAT=3:3
;TYPE=PLATED
;Layer: PTH_Through
;EasyEDA v6.5.40, 2024-02-04 04:02:13
;e3b7e928b75e4f6ab1737eb406526b54,153482dac41149f1974aef67bcea995d,10
;Gerber Generator version 0.2
;Holesize 1 = 0.306 mm
T01C0.306
;Holesize 2 = 0.901 mm
T02C0.901
;Holesize 3 = 0.915 mm
T03C0.915
;Holesize 4 = 1.000 mm
T04C1.000
;Holesize 5 = 1.016 mm
T05C1.016
;Holesize 6 = 1.118 mm
T06C1.118
%
G05
G90
T01
X034918Y049431
X026187Y041766
X026073Y030864
X019992Y052431
T02
X033020Y063119
X033020Y065659
T03
X035941Y045382
X035941Y034882
X002159Y001969
X002159Y004509
X002159Y007049
X002159Y009589
X002159Y012129
X002159Y014669
X002159Y017209
X002159Y019749
X002159Y022289
X002159Y024829
X002159Y027369
X002159Y029909
X002159Y032449
X002159Y034989
X002159Y037529
X002159Y040069
X002159Y042609
X002159Y045149
X002159Y047689
X025019Y001969
X025019Y004509
X025019Y007049
X025019Y009589
X025019Y012129
X025019Y014669
X025019Y017209
X025019Y019749
X025019Y022289
X025019Y024829
X025019Y027369
X025019Y029909
X025019Y032449
X025019Y034989
X025019Y037529
X025019Y040069
X025019Y042609
X025019Y045149
X025019Y047689
X033753Y053170
X030751Y053172
X027751Y053172
X033250Y078172
X028250Y078172
T04
X029337Y026289G85X029337Y026289
X029337Y023749G85X029337Y023749
X029337Y021209G85X029337Y021209
X029337Y018669G85X029337Y018669
X029337Y016129G85X029337Y016129
X029337Y013589G85X029337Y013589
X029337Y011049G85X029337Y011049
X029337Y008509G85X029337Y008509
X029337Y005969G85X029337Y005969
X029337Y003429G85X029337Y003429
X035393Y031623
X030393Y031623
X029210Y034855
X029210Y045155
X024765Y087376
X009555Y087376
X014605Y087376
X029845Y087376
X028829Y066886
X028829Y061886
X032512Y045155
X032512Y034855
X022860Y070739G85X022860Y070739
X022860Y073279G85X022860Y073279
X022860Y075819G85X022860Y075819
T05
X018415Y054864
X018415Y057404
X018415Y059944
X018415Y062484
X018415Y065024
X018415Y052324
T06
X013805Y075264G85X013805Y073080
X007805Y075264G85X007805Y073080
X009713Y069472G85X011897Y069472
M30
