G04 Layer: BottomLayer*
G04 EasyEDA v6.5.40, 2024-02-04 04:02:13*
G04 e3b7e928b75e4f6ab1737eb406526b54,153482dac41149f1974aef67bcea995d,10*
G04 Gerber Generator version 0.2*
G04 Scale: 100 percent, Rotated: No, Reflected: No *
G04 Dimensions in millimeters *
G04 leading zeros omitted , absolute positions ,4 integer and 5 decimal *
%FSLAX45Y45*%
%MOMM*%

%ADD10C,0.2540*%
%ADD11C,1.0160*%
%ADD12R,1.7780X1.7780*%
%ADD13C,1.9304*%
%ADD14C,1.6000*%
%ADD15C,1.5240*%
%ADD16C,2.0000*%
%ADD17O,2.499868X4.9999899999999995*%
%ADD18O,2.2499320000000003X4.4998640000000005*%
%ADD19O,4.4998640000000005X2.2499320000000003*%
%ADD20C,1.5000*%
%ADD21R,1.5080X1.5080*%
%ADD22C,1.5080*%
%ADD23C,0.6100*%
%ADD24C,0.0170*%

%LPD*%
G36*
X3283965Y3368141D02*
G01*
X3280003Y3368954D01*
X3276701Y3371240D01*
X3274517Y3374644D01*
X3273806Y3378657D01*
X3274771Y3382568D01*
X3277158Y3385820D01*
X3280664Y3387902D01*
X3291078Y3391509D01*
X3303219Y3397656D01*
X3314446Y3405378D01*
X3324606Y3414522D01*
X3333394Y3424936D01*
X3340709Y3436416D01*
X3346450Y3448812D01*
X3350514Y3461816D01*
X3352901Y3476040D01*
X3353866Y3478987D01*
X3355746Y3481527D01*
X3449675Y3575558D01*
X3455415Y3582466D01*
X3456838Y3584498D01*
X3461512Y3592220D01*
X3462629Y3594455D01*
X3466846Y3605072D01*
X3468979Y3613810D01*
X3469386Y3616248D01*
X3470249Y3625189D01*
X3470300Y4515815D01*
X3471164Y4519980D01*
X3473704Y4523435D01*
X3477361Y4525518D01*
X3481578Y4525924D01*
X3485642Y4524603D01*
X3488740Y4521708D01*
X3490417Y4517847D01*
X3491839Y4510786D01*
X3496259Y4497679D01*
X3502406Y4485284D01*
X3510076Y4473752D01*
X3519220Y4463338D01*
X3529634Y4454194D01*
X3541166Y4446524D01*
X3553561Y4440377D01*
X3566718Y4435906D01*
X3580282Y4433214D01*
X3594100Y4432300D01*
X3607917Y4433214D01*
X3621481Y4435906D01*
X3634638Y4440377D01*
X3647033Y4446524D01*
X3653536Y4450842D01*
X3657600Y4452416D01*
X3661918Y4452162D01*
X3665778Y4450130D01*
X3668420Y4446625D01*
X3669334Y4442409D01*
X3669334Y3584041D01*
X3668420Y3579774D01*
X3665778Y3576269D01*
X3661918Y3574237D01*
X3657600Y3573983D01*
X3653536Y3575558D01*
X3647033Y3579926D01*
X3640429Y3583178D01*
X3640429Y3534562D01*
X3659174Y3534562D01*
X3663086Y3533800D01*
X3666337Y3531565D01*
X3668572Y3528263D01*
X3669334Y3524402D01*
X3669334Y3452114D01*
X3668572Y3448253D01*
X3666236Y3444849D01*
X3662934Y3442614D01*
X3659073Y3441852D01*
X3640429Y3441852D01*
X3640429Y3423259D01*
X3639667Y3419348D01*
X3637483Y3416046D01*
X3592525Y3371138D01*
X3589223Y3368903D01*
X3585362Y3368141D01*
G37*

%LPC*%
G36*
X3547770Y3393236D02*
G01*
X3547770Y3441852D01*
X3499154Y3441852D01*
X3502406Y3435248D01*
X3510076Y3423767D01*
X3519220Y3413353D01*
X3529634Y3404209D01*
X3541166Y3396487D01*
G37*
G36*
X3499154Y3534562D02*
G01*
X3547770Y3534562D01*
X3547770Y3583178D01*
X3541166Y3579926D01*
X3529634Y3572205D01*
X3519220Y3563061D01*
X3510076Y3552647D01*
X3502406Y3541166D01*
G37*

%LPD*%
G36*
X3097174Y3368141D02*
G01*
X3093262Y3368903D01*
X3089960Y3371138D01*
X3019653Y3441446D01*
X3017469Y3444646D01*
X3016656Y3448456D01*
X3017367Y3452266D01*
X3018485Y3455263D01*
X3021685Y3468522D01*
X3023006Y3482086D01*
X3022600Y3495700D01*
X3020314Y3509162D01*
X3016250Y3522167D01*
X3010509Y3534562D01*
X3003194Y3546043D01*
X2994406Y3556457D01*
X2984246Y3565601D01*
X2973019Y3573322D01*
X2960878Y3579469D01*
X2947974Y3583940D01*
X2934614Y3586683D01*
X2921000Y3587597D01*
X2907385Y3586683D01*
X2894025Y3583940D01*
X2881172Y3579469D01*
X2868980Y3573322D01*
X2857754Y3565601D01*
X2847644Y3556457D01*
X2838805Y3546043D01*
X2831490Y3534562D01*
X2825750Y3522167D01*
X2821686Y3509162D01*
X2821127Y3505809D01*
X2819450Y3501745D01*
X2816250Y3498748D01*
X2812034Y3497376D01*
X2807665Y3497935D01*
X2803906Y3500323D01*
X2660294Y3643985D01*
X2658059Y3647287D01*
X2657297Y3651148D01*
X2657297Y4131564D01*
X2658059Y4135424D01*
X2660294Y4138726D01*
X2661869Y4140352D01*
X2667508Y4148378D01*
X2671673Y4157319D01*
X2674213Y4166768D01*
X2675077Y4176572D01*
X2674213Y4186377D01*
X2671673Y4195876D01*
X2667508Y4204766D01*
X2661869Y4212793D01*
X2654909Y4219752D01*
X2646883Y4225391D01*
X2637993Y4229557D01*
X2628493Y4232097D01*
X2618689Y4232960D01*
X2613406Y4232503D01*
X2609646Y4232859D01*
X2606294Y4234535D01*
X2603804Y4237329D01*
X2602484Y4240885D01*
X2602534Y4244644D01*
X2603093Y4247235D01*
X2604008Y4260850D01*
X2603093Y4274464D01*
X2600350Y4287824D01*
X2595880Y4300728D01*
X2589733Y4312869D01*
X2582011Y4324096D01*
X2572867Y4334256D01*
X2562453Y4343044D01*
X2550972Y4350359D01*
X2538577Y4356100D01*
X2525572Y4360164D01*
X2512110Y4362399D01*
X2498496Y4362856D01*
X2484932Y4361535D01*
X2471674Y4358335D01*
X2458923Y4353458D01*
X2446578Y4346651D01*
X2442565Y4345482D01*
X2438400Y4345940D01*
X2434793Y4348073D01*
X2432354Y4351477D01*
X2431542Y4355592D01*
X2431542Y4420108D01*
X2432354Y4424222D01*
X2434793Y4427626D01*
X2438400Y4429760D01*
X2442565Y4430217D01*
X2446578Y4429048D01*
X2458923Y4422241D01*
X2471674Y4417364D01*
X2484932Y4414164D01*
X2498496Y4412843D01*
X2512110Y4413300D01*
X2525572Y4415536D01*
X2538577Y4419600D01*
X2550972Y4425340D01*
X2562453Y4432655D01*
X2572867Y4441444D01*
X2582011Y4451604D01*
X2589733Y4462830D01*
X2595880Y4474972D01*
X2600350Y4487875D01*
X2603093Y4501235D01*
X2604008Y4514850D01*
X2603093Y4528464D01*
X2600350Y4541824D01*
X2598115Y4548327D01*
X2597556Y4552086D01*
X2598369Y4555744D01*
X2600502Y4558842D01*
X2641092Y4599482D01*
X2646222Y4605680D01*
X2649778Y4612386D01*
X2651963Y4619599D01*
X2652776Y4627626D01*
X2652776Y5221224D01*
X2651963Y5229250D01*
X2649778Y5236514D01*
X2646222Y5243169D01*
X2641092Y5249367D01*
X1958441Y5932068D01*
X1956206Y5935472D01*
X1955444Y5939434D01*
X1956358Y5943396D01*
X1959203Y5949746D01*
X1963724Y5964275D01*
X1966468Y5979210D01*
X1967382Y5994400D01*
X1966468Y6009589D01*
X1963724Y6024524D01*
X1959203Y6039053D01*
X1952955Y6052921D01*
X1945081Y6065926D01*
X1935734Y6077864D01*
X1924964Y6088634D01*
X1913026Y6097981D01*
X1900021Y6105855D01*
X1886102Y6112154D01*
X1882902Y6114338D01*
X1880819Y6117590D01*
X1880107Y6121400D01*
X1880819Y6125210D01*
X1882902Y6128461D01*
X1886102Y6130645D01*
X1900021Y6136944D01*
X1913026Y6144818D01*
X1924964Y6154166D01*
X1935734Y6164935D01*
X1945081Y6176873D01*
X1952955Y6189878D01*
X1959203Y6203746D01*
X1963724Y6218275D01*
X1966468Y6233210D01*
X1967382Y6248400D01*
X1966468Y6263589D01*
X1963724Y6278524D01*
X1959203Y6293053D01*
X1952955Y6306921D01*
X1945081Y6319926D01*
X1935734Y6331864D01*
X1924964Y6342634D01*
X1913026Y6351981D01*
X1900021Y6359855D01*
X1886051Y6366154D01*
X1882902Y6368389D01*
X1880768Y6371640D01*
X1880057Y6375400D01*
X1880768Y6379210D01*
X1882902Y6382461D01*
X1886051Y6384696D01*
X1899970Y6390944D01*
X1912975Y6398818D01*
X1924964Y6408216D01*
X1935683Y6418935D01*
X1945081Y6430924D01*
X1952955Y6443929D01*
X1959203Y6457797D01*
X1963724Y6472275D01*
X1966468Y6487261D01*
X1967382Y6502400D01*
X1966468Y6517589D01*
X1963724Y6532575D01*
X1959203Y6547053D01*
X1952955Y6560921D01*
X1945081Y6573926D01*
X1935683Y6585915D01*
X1924964Y6596634D01*
X1912975Y6606031D01*
X1899970Y6613906D01*
X1886102Y6620154D01*
X1871624Y6624675D01*
X1856638Y6627418D01*
X1841500Y6628333D01*
X1826310Y6627418D01*
X1811324Y6624675D01*
X1796846Y6620154D01*
X1782978Y6613906D01*
X1769973Y6606031D01*
X1757984Y6596634D01*
X1755190Y6593840D01*
X1751787Y6591604D01*
X1747774Y6590842D01*
X1743811Y6591757D01*
X1740509Y6594144D01*
X1738426Y6597650D01*
X1737868Y6601663D01*
X1738934Y6605625D01*
X1743862Y6615430D01*
X1748282Y6628130D01*
X1750974Y6641338D01*
X1751888Y6654800D01*
X1750974Y6668262D01*
X1748282Y6681470D01*
X1743862Y6694170D01*
X1737817Y6706209D01*
X1730197Y6717334D01*
X1721154Y6727342D01*
X1710842Y6736029D01*
X1699463Y6743293D01*
X1687271Y6748932D01*
X1674672Y6752844D01*
X1671066Y6754875D01*
X1668525Y6758178D01*
X1667510Y6762191D01*
X1668221Y6766255D01*
X1670507Y6769760D01*
X2181656Y7280909D01*
X2184755Y7283043D01*
X2188413Y7283907D01*
X2192121Y7283348D01*
X2195372Y7281519D01*
X2197760Y7278624D01*
X2200605Y7273391D01*
X2208631Y7262520D01*
X2218080Y7252766D01*
X2228697Y7244384D01*
X2240330Y7237475D01*
X2252776Y7232243D01*
X2265832Y7228636D01*
X2279243Y7226858D01*
X2292756Y7226858D01*
X2306167Y7228636D01*
X2319223Y7232243D01*
X2331669Y7237475D01*
X2343302Y7244384D01*
X2353919Y7252766D01*
X2363368Y7262520D01*
X2371394Y7273391D01*
X2377897Y7285278D01*
X2382723Y7297877D01*
X2385872Y7311034D01*
X2387244Y7324496D01*
X2386787Y7338059D01*
X2384501Y7351369D01*
X2380538Y7364323D01*
X2374798Y7376566D01*
X2367534Y7387996D01*
X2358796Y7398308D01*
X2348788Y7407402D01*
X2337612Y7415022D01*
X2325522Y7421168D01*
X2312771Y7425588D01*
X2299512Y7428280D01*
X2286000Y7429195D01*
X2272487Y7428280D01*
X2259228Y7425588D01*
X2246477Y7421168D01*
X2234387Y7415022D01*
X2223211Y7407402D01*
X2213203Y7398308D01*
X2204466Y7387996D01*
X2197201Y7376566D01*
X2195220Y7372400D01*
X2192985Y7369302D01*
X2189784Y7367219D01*
X2186025Y7366508D01*
X2174544Y7366508D01*
X2166518Y7365695D01*
X2159304Y7363510D01*
X2152650Y7359954D01*
X2146401Y7354874D01*
X1520952Y6729374D01*
X1515821Y6723176D01*
X1512265Y6716522D01*
X1510080Y6709257D01*
X1509318Y6701231D01*
X1509318Y6608470D01*
X1510080Y6600444D01*
X1512265Y6593230D01*
X1515821Y6586575D01*
X1520952Y6580327D01*
X1591665Y6509613D01*
X1593900Y6506311D01*
X1594662Y6502450D01*
X1593900Y6498539D01*
X1591665Y6495237D01*
X188976Y5092496D01*
X183845Y5086299D01*
X180289Y5079644D01*
X178104Y5072380D01*
X177292Y5064353D01*
X177292Y4869840D01*
X176631Y4866335D01*
X174802Y4863236D01*
X172008Y4860950D01*
X160985Y4854905D01*
X150012Y4846828D01*
X140208Y4837328D01*
X131724Y4826609D01*
X124764Y4814874D01*
X119481Y4802327D01*
X115874Y4789170D01*
X114046Y4775657D01*
X114046Y4762042D01*
X115874Y4748530D01*
X119735Y4734560D01*
X120040Y4731004D01*
X119126Y4727549D01*
X117094Y4724654D01*
X77571Y4685131D01*
X72440Y4678883D01*
X69138Y4672634D01*
X66192Y4669282D01*
X62128Y4667453D01*
X57708Y4667605D01*
X53695Y4669586D01*
X50952Y4673092D01*
X49987Y4677460D01*
X49987Y8939834D01*
X50749Y8943695D01*
X52984Y8946997D01*
X56286Y8949232D01*
X60147Y8949994D01*
X3739845Y8949994D01*
X3743706Y8949232D01*
X3747008Y8946997D01*
X3749243Y8943695D01*
X3750005Y8939834D01*
X3750005Y4763973D01*
X3749243Y4760112D01*
X3747008Y4756810D01*
X3743706Y4754626D01*
X3739845Y4753813D01*
X3735933Y4754626D01*
X3732631Y4756810D01*
X3550920Y4938522D01*
X3548938Y4941417D01*
X3548024Y4944821D01*
X3547313Y4952847D01*
X3544773Y4962347D01*
X3540607Y4971237D01*
X3534968Y4979314D01*
X3528009Y4986274D01*
X3519982Y4991912D01*
X3511092Y4996027D01*
X3501593Y4998567D01*
X3491788Y4999431D01*
X3481324Y4998516D01*
X3477209Y4999024D01*
X3473602Y5001158D01*
X3471164Y5004562D01*
X3470300Y5008626D01*
X3470300Y5051501D01*
X3471062Y5055412D01*
X3473297Y5058714D01*
X3580282Y5165801D01*
X3586022Y5172710D01*
X3592118Y5182412D01*
X3593236Y5184648D01*
X3597452Y5195316D01*
X3599586Y5204053D01*
X3599992Y5206492D01*
X3600856Y5215432D01*
X3600856Y6547815D01*
X3599992Y6556756D01*
X3599586Y6559194D01*
X3597452Y6567931D01*
X3593236Y6578600D01*
X3592118Y6580784D01*
X3587445Y6588506D01*
X3586022Y6590538D01*
X3580282Y6597446D01*
X2904286Y7273544D01*
X2902051Y7276846D01*
X2901289Y7280706D01*
X2902051Y7284618D01*
X2904286Y7287920D01*
X3329279Y7712913D01*
X3332073Y7714894D01*
X3335426Y7715808D01*
X3342030Y7716469D01*
X3355289Y7719669D01*
X3367989Y7724546D01*
X3379978Y7731099D01*
X3390950Y7739176D01*
X3400755Y7748676D01*
X3409187Y7759395D01*
X3416147Y7771130D01*
X3421481Y7783677D01*
X3425088Y7796834D01*
X3426917Y7810347D01*
X3426917Y7823962D01*
X3425088Y7837474D01*
X3421481Y7850631D01*
X3416147Y7863179D01*
X3409187Y7874914D01*
X3400755Y7885633D01*
X3390950Y7895132D01*
X3379978Y7903209D01*
X3367989Y7909763D01*
X3355289Y7914640D01*
X3342030Y7917840D01*
X3335426Y7918500D01*
X3332124Y7919415D01*
X3329279Y7921396D01*
X3064205Y8186470D01*
X3061970Y8189772D01*
X3061208Y8193684D01*
X3061208Y8633104D01*
X3061665Y8636152D01*
X3062986Y8638895D01*
X3065119Y8641130D01*
X3067964Y8643366D01*
X3078734Y8654135D01*
X3088081Y8666073D01*
X3095955Y8679078D01*
X3102203Y8692946D01*
X3106724Y8707475D01*
X3109468Y8722410D01*
X3110382Y8737600D01*
X3109468Y8752789D01*
X3106724Y8767724D01*
X3102203Y8782253D01*
X3095955Y8796121D01*
X3088081Y8809126D01*
X3078734Y8821064D01*
X3067964Y8831834D01*
X3056026Y8841181D01*
X3043021Y8849055D01*
X3029153Y8855303D01*
X3014624Y8859824D01*
X2999689Y8862568D01*
X2984500Y8863482D01*
X2969310Y8862568D01*
X2954375Y8859824D01*
X2939846Y8855303D01*
X2925978Y8849055D01*
X2912973Y8841181D01*
X2901035Y8831834D01*
X2890266Y8821064D01*
X2880918Y8809126D01*
X2873044Y8796121D01*
X2866796Y8782253D01*
X2862275Y8767724D01*
X2859532Y8752789D01*
X2858617Y8737600D01*
X2859532Y8722410D01*
X2862275Y8707475D01*
X2866796Y8692946D01*
X2873044Y8679078D01*
X2880918Y8666073D01*
X2890266Y8654135D01*
X2901035Y8643366D01*
X2903880Y8641130D01*
X2906014Y8638895D01*
X2907334Y8636152D01*
X2907792Y8633104D01*
X2907842Y8155025D01*
X2908706Y8146084D01*
X2909112Y8143646D01*
X2911246Y8134908D01*
X2915462Y8124240D01*
X2916580Y8122005D01*
X2922676Y8112302D01*
X2928416Y8105394D01*
X3209391Y7824317D01*
X3211576Y7821066D01*
X3212338Y7817154D01*
X3211576Y7813294D01*
X3209391Y7809992D01*
X2768498Y7368997D01*
X2762758Y7362088D01*
X2756662Y7352385D01*
X2755544Y7350150D01*
X2752140Y7341870D01*
X2751378Y7339584D01*
X2748991Y7329322D01*
X2747010Y7325258D01*
X2743504Y7322464D01*
X2739085Y7321448D01*
X2595575Y7321397D01*
X2586634Y7320584D01*
X2575458Y7317994D01*
X2564841Y7313777D01*
X2562606Y7312659D01*
X2554884Y7307986D01*
X2552852Y7306564D01*
X2545943Y7300823D01*
X2401519Y7156500D01*
X2398115Y7154214D01*
X2394102Y7153503D01*
X2390140Y7154418D01*
X2386838Y7156805D01*
X2381605Y7165390D01*
X2377490Y7169505D01*
X2372614Y7172604D01*
X2367127Y7174484D01*
X2360828Y7175195D01*
X2211171Y7175195D01*
X2204872Y7174484D01*
X2199386Y7172604D01*
X2194509Y7169505D01*
X2190394Y7165390D01*
X2187295Y7160514D01*
X2185416Y7155027D01*
X2184704Y7148728D01*
X2184704Y6999071D01*
X2185416Y6992772D01*
X2187295Y6987286D01*
X2190394Y6982409D01*
X2194509Y6978294D01*
X2199386Y6975195D01*
X2204872Y6973316D01*
X2211171Y6972604D01*
X2360828Y6972604D01*
X2367127Y6973316D01*
X2372614Y6975195D01*
X2377490Y6978294D01*
X2381605Y6982409D01*
X2384704Y6987286D01*
X2385771Y6990384D01*
X2387904Y6993940D01*
X2391308Y6996328D01*
X2395372Y6997192D01*
X2430119Y6997242D01*
X2439060Y6998106D01*
X2441498Y6998512D01*
X2450236Y7000646D01*
X2460853Y7004862D01*
X2463088Y7005980D01*
X2470810Y7010653D01*
X2472842Y7012076D01*
X2479751Y7017816D01*
X2627071Y7165035D01*
X2630373Y7167270D01*
X2634234Y7168032D01*
X2788615Y7168032D01*
X2792476Y7167270D01*
X2795778Y7165035D01*
X3280511Y6680301D01*
X3282899Y6676644D01*
X3283458Y6672325D01*
X3282238Y6668160D01*
X3279343Y6664909D01*
X3275329Y6663181D01*
X3262629Y6658762D01*
X3250590Y6652666D01*
X3239465Y6645046D01*
X3229457Y6636003D01*
X3220770Y6625691D01*
X3213506Y6614363D01*
X3207867Y6602120D01*
X3203854Y6589268D01*
X3201619Y6575958D01*
X3201162Y6562496D01*
X3202533Y6549085D01*
X3205632Y6535978D01*
X3210509Y6523380D01*
X3216960Y6511594D01*
X3224936Y6500723D01*
X3234334Y6491020D01*
X3244900Y6482689D01*
X3256483Y6475831D01*
X3268929Y6470548D01*
X3281883Y6466992D01*
X3295243Y6465214D01*
X3308756Y6465214D01*
X3322116Y6466992D01*
X3335375Y6470650D01*
X3338880Y6470954D01*
X3342335Y6470040D01*
X3345230Y6468008D01*
X3363620Y6449618D01*
X3365804Y6446316D01*
X3366566Y6442456D01*
X3366566Y6408521D01*
X3365754Y6404508D01*
X3363417Y6401104D01*
X3359912Y6398971D01*
X3355797Y6398361D01*
X3351834Y6399479D01*
X3341370Y6404762D01*
X3328670Y6409182D01*
X3315462Y6411874D01*
X3302000Y6412738D01*
X3288537Y6411874D01*
X3275329Y6409182D01*
X3262629Y6404762D01*
X3250590Y6398666D01*
X3239465Y6391046D01*
X3229457Y6382004D01*
X3220770Y6371691D01*
X3213506Y6360363D01*
X3211677Y6356350D01*
X3209442Y6353251D01*
X3206191Y6351168D01*
X3202432Y6350457D01*
X3006648Y6350457D01*
X2998622Y6349644D01*
X2991408Y6347460D01*
X2984754Y6343904D01*
X2978505Y6338824D01*
X2929940Y6290208D01*
X2926842Y6288125D01*
X2923184Y6287262D01*
X2919476Y6287770D01*
X2910281Y6290919D01*
X2896717Y6293612D01*
X2882900Y6294526D01*
X2869082Y6293612D01*
X2855518Y6290919D01*
X2842361Y6286449D01*
X2829966Y6280302D01*
X2818434Y6272631D01*
X2808020Y6263487D01*
X2798876Y6253073D01*
X2791206Y6241542D01*
X2785059Y6229146D01*
X2780639Y6216040D01*
X2777896Y6202426D01*
X2777032Y6188608D01*
X2777896Y6174790D01*
X2780639Y6161227D01*
X2785059Y6148120D01*
X2791206Y6135674D01*
X2798876Y6124143D01*
X2808020Y6113729D01*
X2818434Y6104636D01*
X2829966Y6096914D01*
X2842361Y6090818D01*
X2855518Y6086348D01*
X2869082Y6083655D01*
X2882900Y6082741D01*
X2896717Y6083655D01*
X2910281Y6086348D01*
X2923438Y6090818D01*
X2935833Y6096914D01*
X2947365Y6104636D01*
X2957779Y6113729D01*
X2966923Y6124143D01*
X2974594Y6135674D01*
X2980740Y6148120D01*
X2985160Y6161227D01*
X2987903Y6174790D01*
X2988767Y6188608D01*
X2987903Y6202426D01*
X2985160Y6216040D01*
X2982061Y6225133D01*
X2981553Y6228842D01*
X2982417Y6232499D01*
X2984500Y6235598D01*
X3019196Y6270244D01*
X3022498Y6272479D01*
X3026359Y6273241D01*
X3202381Y6273241D01*
X3205886Y6272580D01*
X3208985Y6270752D01*
X3211271Y6267958D01*
X3216960Y6257594D01*
X3224936Y6246723D01*
X3234334Y6237020D01*
X3244900Y6228689D01*
X3256483Y6221831D01*
X3268929Y6216548D01*
X3281883Y6212992D01*
X3295243Y6211214D01*
X3308756Y6211214D01*
X3322116Y6212992D01*
X3335070Y6216548D01*
X3347516Y6221831D01*
X3351276Y6224066D01*
X3355289Y6225387D01*
X3359505Y6224981D01*
X3363214Y6222898D01*
X3365703Y6219444D01*
X3366566Y6215329D01*
X3366566Y5967526D01*
X3365804Y5963615D01*
X3363620Y5960313D01*
X2819095Y5415838D01*
X2815894Y5413654D01*
X2812084Y5412841D01*
X2808274Y5413502D01*
X2805277Y5414670D01*
X2792018Y5417820D01*
X2778455Y5419191D01*
X2764840Y5418734D01*
X2751378Y5416448D01*
X2738374Y5412435D01*
X2725978Y5406694D01*
X2714498Y5399328D01*
X2704084Y5390540D01*
X2694940Y5380431D01*
X2687218Y5369204D01*
X2681071Y5357012D01*
X2676601Y5344109D01*
X2673858Y5330748D01*
X2672943Y5317134D01*
X2673858Y5303570D01*
X2676601Y5290210D01*
X2681071Y5277307D01*
X2687218Y5265115D01*
X2694940Y5253888D01*
X2704084Y5243779D01*
X2714498Y5234990D01*
X2725978Y5227624D01*
X2738374Y5221884D01*
X2751378Y5217871D01*
X2764840Y5215585D01*
X2778455Y5215128D01*
X2792018Y5216499D01*
X2805277Y5219649D01*
X2818028Y5224576D01*
X2829966Y5231130D01*
X2840939Y5239207D01*
X2850743Y5248706D01*
X2859227Y5259374D01*
X2866186Y5271109D01*
X2871470Y5283657D01*
X2875076Y5296814D01*
X2876905Y5310327D01*
X2876905Y5323992D01*
X2875076Y5337505D01*
X2871216Y5351475D01*
X2870911Y5355031D01*
X2871825Y5358434D01*
X2873857Y5361330D01*
X3430168Y5917641D01*
X3433419Y5919876D01*
X3437331Y5920638D01*
X3441242Y5919876D01*
X3444494Y5917641D01*
X3446729Y5914339D01*
X3447491Y5910478D01*
X3447491Y5410403D01*
X3446526Y5406085D01*
X3443782Y5402580D01*
X3439820Y5400548D01*
X3435350Y5400446D01*
X3431286Y5402224D01*
X3430168Y5403037D01*
X3418230Y5409590D01*
X3405479Y5414518D01*
X3392220Y5417667D01*
X3378657Y5419039D01*
X3365042Y5418582D01*
X3351580Y5416296D01*
X3338576Y5412282D01*
X3326180Y5406542D01*
X3314700Y5399176D01*
X3304286Y5390388D01*
X3295142Y5380278D01*
X3287420Y5369052D01*
X3281273Y5356860D01*
X3276803Y5343956D01*
X3274060Y5330596D01*
X3273145Y5316982D01*
X3274060Y5303418D01*
X3276803Y5290058D01*
X3281273Y5277154D01*
X3287420Y5264962D01*
X3295142Y5253736D01*
X3304286Y5243626D01*
X3314700Y5234838D01*
X3326180Y5227472D01*
X3338576Y5221732D01*
X3351580Y5217718D01*
X3365042Y5215432D01*
X3378657Y5214975D01*
X3388055Y5215940D01*
X3392170Y5215483D01*
X3395726Y5213451D01*
X3398215Y5210149D01*
X3399231Y5206136D01*
X3398520Y5202072D01*
X3396234Y5198618D01*
X3337509Y5139791D01*
X3331768Y5132882D01*
X3325672Y5123180D01*
X3324555Y5120944D01*
X3320338Y5110276D01*
X3318205Y5101590D01*
X3317798Y5099100D01*
X3316935Y5090160D01*
X3316884Y4612792D01*
X3316020Y4608626D01*
X3313480Y4605223D01*
X3309823Y4603140D01*
X3305556Y4602734D01*
X3301542Y4604054D01*
X3297224Y4606594D01*
X3284677Y4611928D01*
X3271520Y4615535D01*
X3258007Y4617364D01*
X3244392Y4617364D01*
X3230880Y4615535D01*
X3217722Y4611928D01*
X3205175Y4606594D01*
X3193440Y4599686D01*
X3182721Y4591202D01*
X3173222Y4581398D01*
X3165144Y4570425D01*
X3158591Y4558487D01*
X3153714Y4545736D01*
X3150514Y4532477D01*
X3149193Y4518914D01*
X3149650Y4505299D01*
X3151886Y4491837D01*
X3155950Y4478832D01*
X3161690Y4466437D01*
X3169005Y4454956D01*
X3177794Y4444542D01*
X3187954Y4435398D01*
X3199180Y4427677D01*
X3211322Y4421530D01*
X3224225Y4417060D01*
X3237585Y4414316D01*
X3251200Y4413402D01*
X3264814Y4414316D01*
X3278174Y4417060D01*
X3291078Y4421530D01*
X3302152Y4427118D01*
X3306114Y4428185D01*
X3310178Y4427626D01*
X3313684Y4425442D01*
X3316071Y4422089D01*
X3316884Y4418076D01*
X3316884Y3663848D01*
X3316122Y3659987D01*
X3313887Y3656685D01*
X3247034Y3589832D01*
X3244342Y3587902D01*
X3241192Y3586937D01*
X3230880Y3585514D01*
X3217722Y3581958D01*
X3205175Y3576624D01*
X3193440Y3569665D01*
X3182721Y3561232D01*
X3173222Y3551428D01*
X3165144Y3540455D01*
X3158591Y3528466D01*
X3153714Y3515766D01*
X3150514Y3502456D01*
X3149193Y3488893D01*
X3149650Y3475278D01*
X3151886Y3461816D01*
X3155950Y3448812D01*
X3161690Y3436416D01*
X3169005Y3424936D01*
X3177794Y3414522D01*
X3187954Y3405378D01*
X3199180Y3397656D01*
X3211322Y3391509D01*
X3221736Y3387902D01*
X3225241Y3385820D01*
X3227628Y3382568D01*
X3228594Y3378657D01*
X3227882Y3374644D01*
X3225698Y3371240D01*
X3222396Y3368954D01*
X3218434Y3368141D01*
G37*

%LPC*%
G36*
X2914192Y4413656D02*
G01*
X2927807Y4413656D01*
X2941320Y4415485D01*
X2954477Y4419041D01*
X2967024Y4424375D01*
X2978759Y4431334D01*
X2989478Y4439767D01*
X2998978Y4449572D01*
X3007055Y4460544D01*
X3013608Y4472533D01*
X3018485Y4485233D01*
X3021685Y4498543D01*
X3023006Y4512106D01*
X3022600Y4525721D01*
X3020314Y4539183D01*
X3016250Y4552188D01*
X3010509Y4564583D01*
X3003194Y4576064D01*
X2994406Y4586478D01*
X2984246Y4595622D01*
X2973019Y4603343D01*
X2960878Y4609490D01*
X2947974Y4613960D01*
X2934614Y4616653D01*
X2921000Y4617567D01*
X2907385Y4616653D01*
X2894025Y4613960D01*
X2881172Y4609490D01*
X2868980Y4603343D01*
X2857754Y4595622D01*
X2847644Y4586478D01*
X2838805Y4576064D01*
X2831490Y4564583D01*
X2825750Y4552188D01*
X2821686Y4539183D01*
X2819450Y4525721D01*
X2818993Y4512106D01*
X2820314Y4498543D01*
X2823514Y4485233D01*
X2828391Y4472533D01*
X2834944Y4460544D01*
X2843022Y4449572D01*
X2852521Y4439767D01*
X2863240Y4431334D01*
X2874975Y4424375D01*
X2887522Y4419041D01*
X2900680Y4415485D01*
G37*
G36*
X3078480Y5215128D02*
G01*
X3092043Y5216499D01*
X3105302Y5219649D01*
X3118002Y5224576D01*
X3129991Y5231130D01*
X3140964Y5239207D01*
X3150768Y5248706D01*
X3159201Y5259374D01*
X3166160Y5271109D01*
X3171494Y5283657D01*
X3175101Y5296814D01*
X3176930Y5310327D01*
X3176930Y5323992D01*
X3175101Y5337505D01*
X3171494Y5350662D01*
X3166160Y5363210D01*
X3159201Y5374944D01*
X3150768Y5385612D01*
X3140964Y5395112D01*
X3129991Y5403189D01*
X3118002Y5409742D01*
X3105302Y5414670D01*
X3092043Y5417820D01*
X3078480Y5419191D01*
X3064814Y5418734D01*
X3051403Y5416448D01*
X3038348Y5412435D01*
X3026003Y5406694D01*
X3014472Y5399328D01*
X3004058Y5390540D01*
X2994914Y5380431D01*
X2987192Y5369204D01*
X2981045Y5357012D01*
X2976575Y5344109D01*
X2973882Y5330748D01*
X2972968Y5317134D01*
X2973882Y5303570D01*
X2976575Y5290210D01*
X2981045Y5277307D01*
X2987192Y5265115D01*
X2994914Y5253888D01*
X3004058Y5243779D01*
X3014472Y5234990D01*
X3026003Y5227624D01*
X3038348Y5221884D01*
X3051403Y5217871D01*
X3064814Y5215585D01*
G37*
G36*
X2882900Y6582714D02*
G01*
X2896717Y6583629D01*
X2910281Y6586321D01*
X2923438Y6590792D01*
X2935833Y6596938D01*
X2947365Y6604609D01*
X2957779Y6613753D01*
X2966923Y6624167D01*
X2974594Y6635699D01*
X2980740Y6648094D01*
X2985160Y6661200D01*
X2987903Y6674815D01*
X2988767Y6688632D01*
X2987903Y6702450D01*
X2985160Y6716014D01*
X2980740Y6729120D01*
X2974594Y6741566D01*
X2966923Y6753098D01*
X2957779Y6763512D01*
X2947365Y6772605D01*
X2935833Y6780326D01*
X2923438Y6786422D01*
X2910281Y6790893D01*
X2896717Y6793585D01*
X2882900Y6794500D01*
X2869082Y6793585D01*
X2855518Y6790893D01*
X2842361Y6786422D01*
X2829966Y6780326D01*
X2818434Y6772605D01*
X2808020Y6763512D01*
X2798876Y6753098D01*
X2791206Y6741566D01*
X2785059Y6729120D01*
X2780639Y6716014D01*
X2777896Y6702450D01*
X2777032Y6688632D01*
X2777896Y6674815D01*
X2780639Y6661200D01*
X2785059Y6648094D01*
X2791206Y6635699D01*
X2798876Y6624167D01*
X2808020Y6613753D01*
X2818434Y6604609D01*
X2829966Y6596938D01*
X2842361Y6590792D01*
X2855518Y6586321D01*
X2869082Y6583629D01*
G37*
G36*
X961644Y6809181D02*
G01*
X961644Y6884619D01*
X844854Y6884619D01*
X848156Y6878015D01*
X856996Y6864553D01*
X867359Y6852259D01*
X879043Y6841185D01*
X891946Y6831584D01*
X905865Y6823557D01*
X920648Y6817156D01*
X936091Y6812534D01*
X951941Y6809740D01*
G37*
G36*
X1199337Y6809181D02*
G01*
X1209040Y6809740D01*
X1224889Y6812534D01*
X1240332Y6817156D01*
X1255115Y6823557D01*
X1269034Y6831584D01*
X1281938Y6841185D01*
X1293672Y6852259D01*
X1303985Y6864553D01*
X1312824Y6878015D01*
X1316126Y6884619D01*
X1199337Y6884619D01*
G37*
G36*
X1199337Y7009790D02*
G01*
X1316126Y7009790D01*
X1312824Y7016394D01*
X1303985Y7029856D01*
X1293672Y7042150D01*
X1281938Y7053224D01*
X1269034Y7062825D01*
X1255115Y7070852D01*
X1240332Y7077252D01*
X1224889Y7081875D01*
X1209040Y7084669D01*
X1199337Y7085228D01*
G37*
G36*
X844854Y7009790D02*
G01*
X961644Y7009790D01*
X961644Y7085228D01*
X951941Y7084669D01*
X936091Y7081875D01*
X920648Y7077252D01*
X905865Y7070852D01*
X891946Y7062825D01*
X879043Y7053224D01*
X867359Y7042150D01*
X856996Y7029856D01*
X848156Y7016394D01*
G37*
G36*
X1380490Y7141311D02*
G01*
X1397406Y7142276D01*
X1414068Y7145121D01*
X1430324Y7149795D01*
X1445971Y7156246D01*
X1460754Y7164425D01*
X1474571Y7174230D01*
X1487170Y7185507D01*
X1498447Y7198106D01*
X1508252Y7211923D01*
X1516430Y7226757D01*
X1522933Y7242352D01*
X1527606Y7258608D01*
X1530451Y7275322D01*
X1531416Y7292492D01*
X1531416Y7455408D01*
X1532178Y7459319D01*
X1534363Y7462621D01*
X1809242Y7737449D01*
X1812543Y7739684D01*
X1816404Y7740446D01*
X2754274Y7740446D01*
X2757779Y7739837D01*
X2760827Y7738059D01*
X2764485Y7734960D01*
X2775966Y7727645D01*
X2788361Y7721904D01*
X2801366Y7717840D01*
X2814828Y7715605D01*
X2828442Y7715148D01*
X2842006Y7716469D01*
X2855264Y7719669D01*
X2868015Y7724546D01*
X2879953Y7731099D01*
X2890926Y7739176D01*
X2900730Y7748676D01*
X2909214Y7759395D01*
X2916174Y7771130D01*
X2921457Y7783677D01*
X2925064Y7796834D01*
X2926892Y7810347D01*
X2926892Y7823962D01*
X2925064Y7837474D01*
X2921457Y7850631D01*
X2916174Y7863179D01*
X2909214Y7874914D01*
X2900730Y7885633D01*
X2890926Y7895132D01*
X2879953Y7903209D01*
X2868015Y7909763D01*
X2855264Y7914640D01*
X2842006Y7917840D01*
X2828442Y7919161D01*
X2814828Y7918703D01*
X2801366Y7916468D01*
X2788361Y7912404D01*
X2775966Y7906664D01*
X2764485Y7899349D01*
X2760827Y7896250D01*
X2757779Y7894472D01*
X2754274Y7893862D01*
X1867306Y7893862D01*
X1863394Y7894624D01*
X1860143Y7896859D01*
X1857908Y7900162D01*
X1857146Y7904022D01*
X1857095Y8420354D01*
X1856232Y8429294D01*
X1855825Y8431733D01*
X1853692Y8440470D01*
X1849475Y8451138D01*
X1848357Y8453323D01*
X1843684Y8461044D01*
X1842262Y8463076D01*
X1836521Y8469985D01*
X1588617Y8717940D01*
X1586331Y8721547D01*
X1585671Y8725763D01*
X1586382Y8737600D01*
X1585468Y8752789D01*
X1582724Y8767724D01*
X1578203Y8782253D01*
X1571955Y8796121D01*
X1564081Y8809126D01*
X1554734Y8821064D01*
X1543964Y8831834D01*
X1532026Y8841181D01*
X1519021Y8849055D01*
X1505153Y8855303D01*
X1490624Y8859824D01*
X1475689Y8862568D01*
X1460500Y8863482D01*
X1445310Y8862568D01*
X1430375Y8859824D01*
X1415846Y8855303D01*
X1401978Y8849055D01*
X1388973Y8841181D01*
X1377035Y8831834D01*
X1366266Y8821064D01*
X1356918Y8809126D01*
X1349044Y8796121D01*
X1342796Y8782253D01*
X1338275Y8767724D01*
X1335532Y8752789D01*
X1334617Y8737600D01*
X1335532Y8722410D01*
X1338275Y8707475D01*
X1342796Y8692946D01*
X1349044Y8679078D01*
X1356918Y8666073D01*
X1366266Y8654135D01*
X1377035Y8643366D01*
X1388973Y8634018D01*
X1401978Y8626144D01*
X1415846Y8619896D01*
X1430375Y8615375D01*
X1445310Y8612632D01*
X1460500Y8611717D01*
X1472336Y8612428D01*
X1476552Y8611768D01*
X1480159Y8609482D01*
X1700733Y8388858D01*
X1702968Y8385556D01*
X1703730Y8381695D01*
X1703730Y7853121D01*
X1702968Y7849260D01*
X1700733Y7845958D01*
X1502562Y7647787D01*
X1499158Y7645501D01*
X1495094Y7644790D01*
X1491132Y7645755D01*
X1487170Y7648905D01*
X1474571Y7660182D01*
X1460754Y7669987D01*
X1445971Y7678166D01*
X1430324Y7684617D01*
X1414068Y7689342D01*
X1397406Y7692136D01*
X1380490Y7693101D01*
X1363573Y7692136D01*
X1346911Y7689342D01*
X1330655Y7684617D01*
X1315008Y7678166D01*
X1300226Y7669987D01*
X1286408Y7660182D01*
X1273810Y7648905D01*
X1262532Y7636306D01*
X1252728Y7622489D01*
X1244549Y7607706D01*
X1238097Y7592059D01*
X1233373Y7575803D01*
X1230579Y7559090D01*
X1229614Y7541920D01*
X1229614Y7292492D01*
X1230579Y7275322D01*
X1233373Y7258608D01*
X1238097Y7242352D01*
X1244549Y7226757D01*
X1252728Y7211923D01*
X1262532Y7198106D01*
X1273810Y7185507D01*
X1286408Y7174230D01*
X1300226Y7164425D01*
X1315008Y7156246D01*
X1330655Y7149795D01*
X1346911Y7145121D01*
X1363573Y7142276D01*
G37*
G36*
X843076Y7181545D02*
G01*
X849680Y7184847D01*
X863142Y7193686D01*
X875436Y7204049D01*
X886510Y7215733D01*
X896112Y7228687D01*
X904138Y7242606D01*
X910539Y7257389D01*
X915162Y7272781D01*
X917956Y7288631D01*
X918514Y7298385D01*
X843076Y7298385D01*
G37*
G36*
X717905Y7181545D02*
G01*
X717905Y7298385D01*
X642467Y7298385D01*
X643026Y7288631D01*
X645820Y7272781D01*
X650443Y7257389D01*
X656844Y7242606D01*
X664870Y7228687D01*
X674471Y7215733D01*
X685546Y7204049D01*
X697839Y7193686D01*
X711301Y7184847D01*
G37*
G36*
X2330043Y7490815D02*
G01*
X2331669Y7491475D01*
X2343302Y7498384D01*
X2353919Y7506766D01*
X2363368Y7516520D01*
X2371394Y7527391D01*
X2377084Y7537856D01*
X2330043Y7537856D01*
G37*
G36*
X2241956Y7490815D02*
G01*
X2241956Y7537856D01*
X2194915Y7537856D01*
X2200605Y7527391D01*
X2208631Y7516520D01*
X2218080Y7506766D01*
X2228697Y7498384D01*
X2240330Y7491475D01*
G37*
G36*
X642467Y7536078D02*
G01*
X717905Y7536078D01*
X717905Y7652867D01*
X711301Y7649565D01*
X697839Y7640726D01*
X685546Y7630363D01*
X674471Y7618679D01*
X664870Y7605725D01*
X656844Y7591806D01*
X650443Y7577023D01*
X645820Y7561630D01*
X643026Y7545781D01*
G37*
G36*
X843076Y7536078D02*
G01*
X918514Y7536078D01*
X917956Y7545781D01*
X915162Y7561630D01*
X910539Y7577023D01*
X904138Y7591806D01*
X896112Y7605725D01*
X886510Y7618679D01*
X875436Y7630363D01*
X863142Y7640726D01*
X849680Y7649565D01*
X843076Y7652867D01*
G37*
G36*
X2330043Y7625943D02*
G01*
X2376982Y7625943D01*
X2374798Y7630566D01*
X2367534Y7641996D01*
X2358796Y7652308D01*
X2348788Y7661402D01*
X2337612Y7669022D01*
X2330043Y7672882D01*
G37*
G36*
X2195017Y7625943D02*
G01*
X2241956Y7625943D01*
X2241956Y7672882D01*
X2234387Y7669022D01*
X2223211Y7661402D01*
X2213203Y7652308D01*
X2204466Y7641996D01*
X2197201Y7630566D01*
G37*
G36*
X2532837Y8625179D02*
G01*
X2535021Y8626144D01*
X2548026Y8634018D01*
X2559964Y8643366D01*
X2570734Y8654135D01*
X2580081Y8666073D01*
X2587955Y8679078D01*
X2588920Y8681262D01*
X2532837Y8681262D01*
G37*
G36*
X1011885Y8625179D02*
G01*
X1014069Y8626144D01*
X1027074Y8634018D01*
X1039012Y8643366D01*
X1049782Y8654135D01*
X1059129Y8666073D01*
X1067003Y8679078D01*
X1067968Y8681262D01*
X1011885Y8681262D01*
G37*
G36*
X2420162Y8625179D02*
G01*
X2420162Y8681262D01*
X2364079Y8681262D01*
X2365044Y8679078D01*
X2372918Y8666073D01*
X2382266Y8654135D01*
X2393035Y8643366D01*
X2404973Y8634018D01*
X2417978Y8626144D01*
G37*
G36*
X899210Y8625179D02*
G01*
X899210Y8681262D01*
X843127Y8681262D01*
X844092Y8679078D01*
X851966Y8666073D01*
X861314Y8654135D01*
X872083Y8643366D01*
X884021Y8634018D01*
X897026Y8626144D01*
G37*
G36*
X2364079Y8793937D02*
G01*
X2420162Y8793937D01*
X2420162Y8850020D01*
X2417978Y8849055D01*
X2404973Y8841181D01*
X2393035Y8831834D01*
X2382266Y8821064D01*
X2372918Y8809126D01*
X2365044Y8796121D01*
G37*
G36*
X2532837Y8793937D02*
G01*
X2588920Y8793937D01*
X2587955Y8796121D01*
X2580081Y8809126D01*
X2570734Y8821064D01*
X2559964Y8831834D01*
X2548026Y8841181D01*
X2535021Y8849055D01*
X2532837Y8850020D01*
G37*
G36*
X843127Y8793937D02*
G01*
X899210Y8793937D01*
X899210Y8850020D01*
X897026Y8849055D01*
X884021Y8841181D01*
X872083Y8831834D01*
X861314Y8821064D01*
X851966Y8809126D01*
X844092Y8796121D01*
G37*
G36*
X1011885Y8793937D02*
G01*
X1067968Y8793937D01*
X1067003Y8796121D01*
X1059129Y8809126D01*
X1049782Y8821064D01*
X1039012Y8831834D01*
X1027074Y8841181D01*
X1014069Y8849055D01*
X1011885Y8850020D01*
G37*

%LPD*%
D10*
X2921000Y3485492D02*
G01*
X3076956Y3329536D01*
X3605555Y3329536D01*
X3707942Y3431923D01*
X3707942Y4726917D01*
X3491788Y4943071D01*
X215900Y3244852D02*
G01*
X582447Y2878305D01*
X2917520Y2878305D01*
X3156483Y3117268D01*
X3156483Y3207057D01*
X3077895Y3285644D01*
X2964002Y3285644D01*
X2618689Y3630957D01*
X2618689Y4176575D01*
X1841500Y6248402D02*
G01*
X1706879Y6113782D01*
X1706879Y5177919D01*
X2199792Y4685007D01*
X2199792Y3380971D01*
X2479624Y3101139D01*
X2592577Y3101139D01*
X2592577Y3101113D01*
X2607335Y3086356D01*
X780491Y7417208D02*
G01*
X1080490Y7117209D01*
X1080490Y6947207D01*
X3594100Y3488184D02*
G01*
X3484600Y3378685D01*
X3208223Y3378685D01*
X2677261Y3909646D01*
X2677261Y4200857D01*
X2670759Y4207360D01*
X2670759Y6269662D01*
X2182520Y6757901D01*
X2182520Y7170016D01*
X2189911Y7177407D01*
X2290419Y7177407D01*
X2399969Y7286957D01*
X2399969Y7467932D01*
X2286000Y7581902D01*
X955547Y8737602D02*
G01*
X1101293Y8883347D01*
X2330754Y8883347D01*
X2476500Y8737602D01*
D11*
X2286000Y7073902D02*
G01*
X2427427Y7073902D01*
X2824581Y7244742D02*
G01*
X2598267Y7244742D01*
X2427427Y7073902D01*
X3251200Y3485492D02*
G01*
X3393592Y3627884D01*
X3393592Y5087495D01*
X3524199Y5218102D01*
X3524199Y6545125D01*
X2824581Y7244742D01*
X2824581Y7244742D02*
G01*
X2824581Y7316701D01*
X3325037Y7817157D01*
X3325037Y7817157D02*
G01*
X2984500Y8157695D01*
X2984500Y8737577D01*
D10*
X2392908Y4768852D02*
G01*
X2501900Y4768852D01*
X1841474Y5232427D02*
G01*
X2305050Y4768852D01*
X2392908Y4768852D01*
X2392908Y4768852D02*
G01*
X2392908Y3353843D01*
X2501900Y3244852D01*
X3302000Y6311851D02*
G01*
X3006166Y6311851D01*
X2882900Y6188585D01*
X215900Y1466852D02*
G01*
X1123950Y2374902D01*
X2933700Y2374902D01*
X2501900Y3244852D02*
G01*
X2956763Y3244852D01*
X3039313Y3162302D01*
X1841500Y5994402D02*
G01*
X2614168Y5221734D01*
X2614168Y4627120D01*
X2501900Y4514852D01*
X215900Y4768852D02*
G01*
X104520Y4657473D01*
X104520Y3193036D01*
X179704Y3117852D01*
X248488Y3117852D01*
X737438Y2628902D01*
X2933700Y2628902D01*
X1653463Y6502427D02*
G01*
X215900Y5064864D01*
X215900Y4768852D01*
X1653463Y6502427D02*
G01*
X1547901Y6607990D01*
X1547901Y6701741D01*
X2174062Y7327902D01*
X2286000Y7327902D01*
X1841474Y6502427D02*
G01*
X1653463Y6502427D01*
X2775051Y5317162D02*
G01*
X3405200Y5947310D01*
X3405200Y6462651D01*
X3302000Y6565851D01*
D11*
X1780438Y7817157D02*
G01*
X1380489Y7417208D01*
X2825038Y7817157D02*
G01*
X1780438Y7817157D01*
X1780438Y7817157D02*
G01*
X1780438Y8417664D01*
X1460500Y8737602D01*
D10*
X215900Y2990852D02*
G01*
X618642Y2588110D01*
X2756992Y2588110D01*
X2833166Y2511935D01*
X3038449Y2511935D01*
X3539312Y3012798D01*
X3539312Y3162302D01*
X1841474Y5740427D02*
G01*
X1999157Y5582744D01*
X1999157Y5243121D01*
D12*
G01*
X2933700Y2628900D03*
D13*
G01*
X2933700Y2374900D03*
G01*
X2933700Y2120900D03*
G01*
X2933700Y1866900D03*
G01*
X2933700Y1612900D03*
G01*
X2933700Y1358900D03*
G01*
X2933700Y1104900D03*
G01*
X2933700Y850900D03*
G01*
X2933700Y596900D03*
G01*
X2933700Y342900D03*
D14*
G01*
X3539286Y3162300D03*
G01*
X3039313Y3162300D03*
D15*
G01*
X2921000Y3485489D03*
G01*
X2921000Y4515510D03*
D16*
G01*
X2476500Y8737600D03*
G01*
X955547Y8737600D03*
G01*
X1460500Y8737600D03*
G01*
X2984500Y8737574D03*
D17*
G01*
X1380489Y7417206D03*
D18*
G01*
X780491Y7417206D03*
D19*
G01*
X1080490Y6947204D03*
D14*
G01*
X2882900Y6688581D03*
G01*
X2882900Y6188582D03*
D20*
G01*
X3302000Y6311849D03*
G01*
X3302000Y6565849D03*
D14*
G01*
X3594100Y4538192D03*
G01*
X3594100Y3488181D03*
D15*
G01*
X3251200Y4515510D03*
G01*
X3251200Y3485489D03*
G01*
X215900Y196850D03*
G01*
X215900Y450850D03*
G01*
X215900Y704850D03*
G01*
X215900Y958850D03*
G01*
X215900Y1212850D03*
G01*
X215900Y1466850D03*
G01*
X215900Y1720850D03*
G01*
X215900Y1974850D03*
G01*
X215900Y2228850D03*
G01*
X215900Y2482850D03*
G01*
X215900Y2736850D03*
G01*
X215900Y2990850D03*
G01*
X215900Y3244850D03*
G01*
X215900Y3498850D03*
G01*
X215900Y3752850D03*
G01*
X215900Y4006850D03*
G01*
X215900Y4260850D03*
G01*
X215900Y4514850D03*
G01*
X215900Y4768850D03*
G01*
X2501900Y196850D03*
G01*
X2501900Y450850D03*
G01*
X2501900Y704850D03*
G01*
X2501900Y958850D03*
G01*
X2501900Y1212850D03*
G01*
X2501900Y1466850D03*
G01*
X2501900Y1720850D03*
G01*
X2501900Y1974850D03*
G01*
X2501900Y2228850D03*
G01*
X2501900Y2482850D03*
G01*
X2501900Y2736850D03*
G01*
X2501900Y2990850D03*
G01*
X2501900Y3244850D03*
G01*
X2501900Y3498850D03*
G01*
X2501900Y3752850D03*
G01*
X2501900Y4006850D03*
G01*
X2501900Y4260850D03*
G01*
X2501900Y4514850D03*
G01*
X2501900Y4768850D03*
D21*
G01*
X2286000Y7073900D03*
D22*
G01*
X2286000Y7327900D03*
G01*
X2286000Y7581900D03*
D15*
G01*
X3375253Y5317007D03*
G01*
X3075050Y5317159D03*
G01*
X2775051Y5317159D03*
G01*
X3325037Y7817154D03*
G01*
X2825038Y7817154D03*
D16*
G01*
X1841474Y5486425D03*
G01*
X1841474Y5740425D03*
G01*
X1841500Y5994400D03*
G01*
X1841500Y6248400D03*
G01*
X1841474Y6502425D03*
G01*
X1841474Y5232425D03*
D23*
G01*
X3491788Y4943068D03*
G01*
X2618689Y4176572D03*
G01*
X2607335Y3086354D03*
G01*
X1999157Y5243118D03*
M02*
