G04 Layer: TopSolderMaskLayer*
G04 EasyEDA v6.5.40, 2024-02-04 04:02:13*
G04 e3b7e928b75e4f6ab1737eb406526b54,153482dac41149f1974aef67bcea995d,10*
G04 Gerber Generator version 0.2*
G04 Scale: 100 percent, Rotated: No, Reflected: No *
G04 Dimensions in millimeters *
G04 leading zeros omitted , absolute positions ,4 integer and 5 decimal *
%FSLAX45Y45*%
%MOMM*%

%AMMACRO1*4,1,37,0,-0.5838,-0.7366,-0.2155,-0.7366,0.2305,-0.7353,0.261,-0.7308,0.2938,-0.7231,0.326,-0.7125,0.3567,-0.6995,0.3867,-0.6835,0.4152,-0.665,0.4423,-0.6439,0.468,-0.6208,0.4911,-0.5951,0.5122,-0.5679,0.5307,-0.5395,0.5467,-0.5095,0.5597,-0.4788,0.5704,-0.4465,0.578,-0.4138,0.5825,-0.3833,0.5838,0.4595,0.5838,0.5004,0.5714,0.5304,0.5592,0.5585,0.5444,0.5855,0.5274,0.6109,0.5079,0.634,0.4863,0.6558,0.4624,0.6751,0.4365,0.6919,0.4091,0.7061,0.3809,0.7178,0.3509,0.7267,0.3202,0.7328,0.2889,0.7363,0.2574,0.7366,0.2287,0.7366,-0.2155,0,-0.5838,0*%
%AMMACRO2*4,1,39,-0.3833,-0.5775,-0.4138,-0.5762,-0.4465,-0.5716,-0.4783,-0.564,-0.5095,-0.5536,-0.54,-0.5401,-0.5679,-0.5244,-0.5951,-0.5058,-0.6208,-0.4848,-0.6439,-0.4616,-0.665,-0.436,-0.6835,-0.4088,-0.6995,-0.3804,-0.7125,-0.3504,-0.7231,-0.3197,-0.7308,-0.2874,-0.7353,-0.2546,-0.7366,-0.2242,-0.7366,0.5775,0,0.2092,0.7366,0.5775,0.7366,-0.2242,0.7353,-0.2546,0.7308,-0.2874,0.7231,-0.3192,0.7127,-0.3504,0.6993,-0.3809,0.6835,-0.4088,0.665,-0.436,0.6439,-0.4616,0.6208,-0.4848,0.5951,-0.5058,0.5679,-0.5244,0.54,-0.5401,0.5095,-0.5536,0.4783,-0.564,0.4465,-0.5716,0.4138,-0.5762,0.3833,-0.5775,-0.3833,-0.5775,0*%
%AMMACRO3*1,1,$1,$2,$3*1,1,$1,$4,$5*1,1,$1,0-$2,0-$3*1,1,$1,0-$4,0-$5*20,1,$1,$2,$3,$4,$5,0*20,1,$1,$4,$5,0-$2,0-$3,0*20,1,$1,0-$2,0-$3,0-$4,0-$5,0*20,1,$1,0-$4,0-$5,$2,$3,0*4,1,4,$2,$3,$4,$5,0-$2,0-$3,0-$4,0-$5,$2,$3,0*%
%AMMACRO4*4,1,37,-0.2155,-0.7366,-0.5838,0,-0.2155,0.7366,0.2305,0.7366,0.261,0.7353,0.2938,0.7308,0.326,0.7231,0.3567,0.7125,0.3867,0.6995,0.4152,0.6835,0.4423,0.665,0.468,0.6439,0.4911,0.6208,0.5122,0.5951,0.5307,0.5679,0.5465,0.54,0.5599,0.5095,0.5704,0.4783,0.578,0.4465,0.5825,0.4138,0.5838,0.3833,0.5838,-0.4595,0.5714,-0.5004,0.5592,-0.5304,0.5444,-0.5585,0.5274,-0.5855,0.5079,-0.6109,0.4863,-0.634,0.4624,-0.6558,0.4368,-0.6751,0.4093,-0.6919,0.3806,-0.7061,0.3509,-0.7178,0.3207,-0.7267,0.2892,-0.733,0.2567,-0.7363,0.2287,-0.7366,-0.2155,-0.7366,0*%
%AMMACRO5*4,1,39,-0.2242,-0.7366,-0.2546,-0.7353,-0.2874,-0.7308,-0.3192,-0.7231,-0.3504,-0.7127,-0.3809,-0.6993,-0.4088,-0.6835,-0.436,-0.665,-0.4616,-0.6439,-0.4848,-0.6208,-0.5058,-0.5951,-0.5244,-0.5679,-0.5404,-0.5395,-0.5533,-0.5095,-0.564,-0.4788,-0.5716,-0.4465,-0.5762,-0.4138,-0.5775,-0.3833,-0.5775,0.3833,-0.5762,0.4138,-0.5716,0.4465,-0.564,0.4788,-0.5533,0.5095,-0.5404,0.5395,-0.5244,0.5679,-0.5058,0.5951,-0.4848,0.6208,-0.4616,0.6439,-0.436,0.665,-0.4088,0.6835,-0.3804,0.6995,-0.3504,0.7125,-0.3197,0.7231,-0.2874,0.7308,-0.2546,0.7353,-0.2242,0.7366,0.5775,0.7366,0.2092,0,0.5775,-0.7366,-0.2242,-0.7366,0*%
%ADD10MACRO1*%
%ADD11MACRO2*%
%ADD12MACRO3,0.1016X-0.889X0.889X0.889X0.889*%
%ADD13C,2.0320*%
%ADD14C,1.7016*%
%ADD15MACRO4*%
%ADD16MACRO5*%
%ADD17C,1.6256*%
%ADD18C,2.1000*%
%ADD19O,2.7030680000000005X5.20319*%
%ADD20O,2.4531320000000005X4.703064*%
%ADD21O,4.703064X2.4531320000000005*%
%ADD22C,1.6000*%
%ADD23C,1.6240*%
%ADD24R,1.6096X1.6096*%
%ADD25C,1.6096*%
%ADD26O,0.6700012X2.051812*%
%ADD27C,2.2032*%

%LPD*%
G36*
X2768600Y4863084D02*
G01*
X2768600Y4812284D01*
X2832100Y4780534D01*
X2895600Y4812284D01*
X2895600Y4863084D01*
X2832100Y4831334D01*
G37*
G36*
X1854200Y8128000D02*
G01*
X1822450Y8064500D01*
X1854200Y8001000D01*
X1905000Y8001000D01*
X1873250Y8064500D01*
X1905000Y8128000D01*
G37*
G36*
X3327400Y4864100D02*
G01*
X3327400Y4813300D01*
X3390900Y4781550D01*
X3454400Y4813300D01*
X3454400Y4864100D01*
X3390900Y4832350D01*
G37*
D10*
G01*
X2832100Y4875187D03*
D11*
G01*
X2832100Y4777320D03*
D12*
G01*
X2933700Y2628900D03*
D13*
G01*
X2933700Y2374900D03*
G01*
X2933700Y2120900D03*
G01*
X2933700Y1866900D03*
G01*
X2933700Y1612900D03*
G01*
X2933700Y1358900D03*
G01*
X2933700Y1104900D03*
G01*
X2933700Y850900D03*
G01*
X2933700Y596900D03*
G01*
X2933700Y342900D03*
D14*
G01*
X3539286Y3162300D03*
G01*
X3039313Y3162300D03*
D15*
G01*
X1917103Y8064500D03*
D16*
G01*
X1819236Y8064500D03*
D10*
G01*
X3390900Y4876203D03*
D11*
G01*
X3390900Y4778336D03*
D17*
G01*
X2921000Y3485489D03*
G01*
X2921000Y4515510D03*
D18*
G01*
X2476500Y8737600D03*
G01*
X955547Y8737600D03*
G01*
X1460500Y8737600D03*
G01*
X2984500Y8737574D03*
D19*
G01*
X1380489Y7417206D03*
D20*
G01*
X780491Y7417206D03*
D21*
G01*
X1080490Y6947204D03*
D14*
G01*
X2882900Y6688581D03*
G01*
X2882900Y6188582D03*
D22*
G01*
X3302000Y6311849D03*
G01*
X3302000Y6565849D03*
D14*
G01*
X3594100Y4538192D03*
G01*
X3594100Y3488181D03*
D17*
G01*
X3251200Y4515510D03*
G01*
X3251200Y3485489D03*
D23*
G01*
X215900Y196850D03*
G01*
X215900Y450850D03*
G01*
X215900Y704850D03*
G01*
X215900Y958850D03*
G01*
X215900Y1212850D03*
G01*
X215900Y1466850D03*
G01*
X215900Y1720850D03*
G01*
X215900Y1974850D03*
G01*
X215900Y2228850D03*
G01*
X215900Y2482850D03*
G01*
X215900Y2736850D03*
G01*
X215900Y2990850D03*
G01*
X215900Y3244850D03*
G01*
X215900Y3498850D03*
G01*
X215900Y3752850D03*
G01*
X215900Y4006850D03*
G01*
X215900Y4260850D03*
G01*
X215900Y4514850D03*
G01*
X215900Y4768850D03*
G01*
X2501900Y196850D03*
G01*
X2501900Y450850D03*
G01*
X2501900Y704850D03*
G01*
X2501900Y958850D03*
G01*
X2501900Y1212850D03*
G01*
X2501900Y1466850D03*
G01*
X2501900Y1720850D03*
G01*
X2501900Y1974850D03*
G01*
X2501900Y2228850D03*
G01*
X2501900Y2482850D03*
G01*
X2501900Y2736850D03*
G01*
X2501900Y2990850D03*
G01*
X2501900Y3244850D03*
G01*
X2501900Y3498850D03*
G01*
X2501900Y3752850D03*
G01*
X2501900Y4006850D03*
G01*
X2501900Y4260850D03*
G01*
X2501900Y4514850D03*
G01*
X2501900Y4768850D03*
D24*
G01*
X2286000Y7073900D03*
D25*
G01*
X2286000Y7327900D03*
G01*
X2286000Y7581900D03*
D26*
G01*
X3275253Y7471105D03*
G01*
X3148253Y7471105D03*
G01*
X3021253Y7471105D03*
G01*
X2894253Y7471105D03*
G01*
X3275253Y6930085D03*
G01*
X3148253Y6930085D03*
G01*
X3021253Y6930085D03*
G01*
X2894253Y6930085D03*
D17*
G01*
X3375253Y5317007D03*
G01*
X3075050Y5317159D03*
G01*
X2775051Y5317159D03*
G01*
X3325037Y7817154D03*
G01*
X2825038Y7817154D03*
D27*
G01*
X1841474Y5486425D03*
G01*
X1841474Y5740425D03*
G01*
X1841500Y5994400D03*
G01*
X1841500Y6248400D03*
G01*
X1841474Y6502425D03*
G01*
X1841474Y5232425D03*
M02*
