G04 Layer: BottomSolderMaskLayer*
G04 EasyEDA v6.5.40, 2024-02-04 04:02:13*
G04 e3b7e928b75e4f6ab1737eb406526b54,153482dac41149f1974aef67bcea995d,10*
G04 Gerber Generator version 0.2*
G04 Scale: 100 percent, Rotated: No, Reflected: No *
G04 Dimensions in millimeters *
G04 leading zeros omitted , absolute positions ,4 integer and 5 decimal *
%FSLAX45Y45*%
%MOMM*%

%AMMACRO1*1,1,$1,$2,$3*1,1,$1,$4,$5*1,1,$1,0-$2,0-$3*1,1,$1,0-$4,0-$5*20,1,$1,$2,$3,$4,$5,0*20,1,$1,$4,$5,0-$2,0-$3,0*20,1,$1,0-$2,0-$3,0-$4,0-$5,0*20,1,$1,0-$4,0-$5,$2,$3,0*4,1,4,$2,$3,$4,$5,0-$2,0-$3,0-$4,0-$5,$2,$3,0*%
%ADD10MACRO1,0.1016X-0.889X0.889X0.889X0.889*%
%ADD11C,2.0320*%
%ADD12C,1.7016*%
%ADD13C,1.6256*%
%ADD14C,2.1000*%
%ADD15O,2.7030680000000005X5.20319*%
%ADD16O,2.4531320000000005X4.703064*%
%ADD17O,4.703064X2.4531320000000005*%
%ADD18C,1.6000*%
%ADD19C,1.6240*%
%ADD20R,1.6096X1.6096*%
%ADD21C,1.6096*%
%ADD22C,2.2032*%

%LPD*%
D10*
G01*
X2933700Y2628900D03*
D11*
G01*
X2933700Y2374900D03*
G01*
X2933700Y2120900D03*
G01*
X2933700Y1866900D03*
G01*
X2933700Y1612900D03*
G01*
X2933700Y1358900D03*
G01*
X2933700Y1104900D03*
G01*
X2933700Y850900D03*
G01*
X2933700Y596900D03*
G01*
X2933700Y342900D03*
D12*
G01*
X3539286Y3162300D03*
G01*
X3039313Y3162300D03*
D13*
G01*
X2921000Y3485489D03*
G01*
X2921000Y4515510D03*
D14*
G01*
X2476500Y8737600D03*
G01*
X955547Y8737600D03*
G01*
X1460500Y8737600D03*
G01*
X2984500Y8737574D03*
D15*
G01*
X1380489Y7417206D03*
D16*
G01*
X780491Y7417206D03*
D17*
G01*
X1080490Y6947204D03*
D12*
G01*
X2882900Y6688581D03*
G01*
X2882900Y6188582D03*
D18*
G01*
X3302000Y6311849D03*
G01*
X3302000Y6565849D03*
D12*
G01*
X3594100Y4538192D03*
G01*
X3594100Y3488181D03*
D13*
G01*
X3251200Y4515510D03*
G01*
X3251200Y3485489D03*
D19*
G01*
X215900Y196850D03*
G01*
X215900Y450850D03*
G01*
X215900Y704850D03*
G01*
X215900Y958850D03*
G01*
X215900Y1212850D03*
G01*
X215900Y1466850D03*
G01*
X215900Y1720850D03*
G01*
X215900Y1974850D03*
G01*
X215900Y2228850D03*
G01*
X215900Y2482850D03*
G01*
X215900Y2736850D03*
G01*
X215900Y2990850D03*
G01*
X215900Y3244850D03*
G01*
X215900Y3498850D03*
G01*
X215900Y3752850D03*
G01*
X215900Y4006850D03*
G01*
X215900Y4260850D03*
G01*
X215900Y4514850D03*
G01*
X215900Y4768850D03*
G01*
X2501900Y196850D03*
G01*
X2501900Y450850D03*
G01*
X2501900Y704850D03*
G01*
X2501900Y958850D03*
G01*
X2501900Y1212850D03*
G01*
X2501900Y1466850D03*
G01*
X2501900Y1720850D03*
G01*
X2501900Y1974850D03*
G01*
X2501900Y2228850D03*
G01*
X2501900Y2482850D03*
G01*
X2501900Y2736850D03*
G01*
X2501900Y2990850D03*
G01*
X2501900Y3244850D03*
G01*
X2501900Y3498850D03*
G01*
X2501900Y3752850D03*
G01*
X2501900Y4006850D03*
G01*
X2501900Y4260850D03*
G01*
X2501900Y4514850D03*
G01*
X2501900Y4768850D03*
D20*
G01*
X2286000Y7073900D03*
D21*
G01*
X2286000Y7327900D03*
G01*
X2286000Y7581900D03*
D13*
G01*
X3375253Y5317007D03*
G01*
X3075050Y5317159D03*
G01*
X2775051Y5317159D03*
G01*
X3325037Y7817154D03*
G01*
X2825038Y7817154D03*
D22*
G01*
X1841474Y5486425D03*
G01*
X1841474Y5740425D03*
G01*
X1841500Y5994400D03*
G01*
X1841500Y6248400D03*
G01*
X1841474Y6502425D03*
G01*
X1841474Y5232425D03*
M02*
