G04 Layer: TopSilkscreenLayer*
G04 EasyEDA v6.5.40, 2024-02-04 04:02:13*
G04 e3b7e928b75e4f6ab1737eb406526b54,153482dac41149f1974aef67bcea995d,10*
G04 Gerber Generator version 0.2*
G04 Scale: 100 percent, Rotated: No, Reflected: No *
G04 Dimensions in millimeters *
G04 leading zeros omitted , absolute positions ,4 integer and 5 decimal *
%FSLAX45Y45*%
%MOMM*%

%ADD10C,0.2032*%
%ADD11C,0.1524*%
%ADD12C,0.1270*%
%ADD13C,0.0813*%
%ADD14C,0.2540*%
%ADD15C,0.2007*%
%ADD16C,0.2997*%
%ADD17C,0.4001*%
%ADD18C,0.3000*%
%ADD19C,0.0115*%

%LPD*%
G36*
X1359204Y3836415D02*
G01*
X1351737Y3818940D01*
X1348841Y3810914D01*
X1348435Y3808933D01*
X1350060Y3807358D01*
X1354531Y3804970D01*
X1361186Y3802075D01*
X1380439Y3794709D01*
X1400962Y3786022D01*
X1429054Y3773170D01*
X1451254Y3762095D01*
X1472996Y3750208D01*
X1483664Y3744010D01*
X1499412Y3734358D01*
X1514856Y3724249D01*
X1525016Y3717340D01*
X1539951Y3706571D01*
X1559306Y3691686D01*
X1568805Y3683965D01*
X1582724Y3672128D01*
X1596288Y3659886D01*
X1609496Y3647287D01*
X1626514Y3630015D01*
X1642872Y3612083D01*
X1654708Y3598316D01*
X1669846Y3579418D01*
X1684274Y3560013D01*
X1697939Y3540048D01*
X1710842Y3519627D01*
X1717039Y3509213D01*
X1725930Y3493414D01*
X1737055Y3471926D01*
X1744878Y3455517D01*
X1754530Y3433318D01*
X1762607Y3413963D01*
X1766722Y3406749D01*
X1770735Y3404311D01*
X1776120Y3404920D01*
X1783080Y3406648D01*
X1788363Y3408426D01*
X1792224Y3410610D01*
X1794865Y3413709D01*
X1796491Y3417976D01*
X1797405Y3423920D01*
X1797812Y3431794D01*
X1797812Y3448659D01*
X1797354Y3461715D01*
X1796440Y3474720D01*
X1795068Y3487724D01*
X1793290Y3500729D01*
X1791055Y3513632D01*
X1788363Y3526485D01*
X1785264Y3539236D01*
X1781708Y3551936D01*
X1777746Y3564534D01*
X1773377Y3576980D01*
X1768602Y3589274D01*
X1763369Y3601465D01*
X1757781Y3613454D01*
X1751787Y3625291D01*
X1745386Y3636924D01*
X1738579Y3648354D01*
X1731416Y3659581D01*
X1724761Y3669182D01*
X1718106Y3677869D01*
X1710436Y3687013D01*
X1701952Y3696563D01*
X1692859Y3706266D01*
X1683207Y3716020D01*
X1673301Y3725621D01*
X1663192Y3734917D01*
X1653133Y3743706D01*
X1643329Y3751884D01*
X1633829Y3759250D01*
X1624939Y3765651D01*
X1615490Y3771747D01*
X1604975Y3778046D01*
X1594307Y3784092D01*
X1583436Y3789781D01*
X1572463Y3795166D01*
X1561338Y3800246D01*
X1550060Y3804970D01*
X1538681Y3809441D01*
X1527149Y3813505D01*
X1515567Y3817264D01*
X1503832Y3820718D01*
X1492046Y3823817D01*
X1480159Y3826611D01*
X1468221Y3829050D01*
X1456182Y3831132D01*
X1444091Y3832860D01*
X1432001Y3834282D01*
X1419809Y3835349D01*
X1407617Y3836060D01*
X1395374Y3836415D01*
G37*
G36*
X1206449Y3791661D02*
G01*
X1202283Y3790543D01*
X1195374Y3787444D01*
X1186688Y3782974D01*
X1172210Y3774338D01*
X1161338Y3767175D01*
X1150518Y3759657D01*
X1140968Y3752646D01*
X1131671Y3745179D01*
X1127556Y3741572D01*
X1124559Y3738372D01*
X1122527Y3735324D01*
X1121206Y3732072D01*
X1120495Y3728313D01*
X1120190Y3723640D01*
X1120292Y3709517D01*
X1121511Y3691331D01*
X1124661Y3667760D01*
X1157579Y3667709D01*
X1168704Y3667302D01*
X1179982Y3666591D01*
X1191412Y3665474D01*
X1202994Y3664000D01*
X1214678Y3662172D01*
X1226413Y3659987D01*
X1238300Y3657498D01*
X1250238Y3654653D01*
X1262227Y3651453D01*
X1274216Y3647948D01*
X1286256Y3644087D01*
X1298244Y3639972D01*
X1310233Y3635501D01*
X1322222Y3630726D01*
X1345946Y3620312D01*
X1357731Y3614674D01*
X1369364Y3608730D01*
X1380896Y3602532D01*
X1392275Y3596030D01*
X1403502Y3589274D01*
X1413103Y3583178D01*
X1421841Y3577031D01*
X1431137Y3569970D01*
X1440942Y3562045D01*
X1451102Y3553460D01*
X1461465Y3544315D01*
X1482140Y3524961D01*
X1492199Y3515055D01*
X1510944Y3495344D01*
X1519326Y3485896D01*
X1526946Y3476853D01*
X1533550Y3468370D01*
X1540103Y3459124D01*
X1547215Y3448456D01*
X1554073Y3437534D01*
X1560626Y3426510D01*
X1566875Y3415284D01*
X1572818Y3403955D01*
X1578457Y3392474D01*
X1583791Y3380892D01*
X1588820Y3369208D01*
X1593494Y3357422D01*
X1597863Y3345586D01*
X1601876Y3333699D01*
X1605534Y3321761D01*
X1608886Y3309772D01*
X1611833Y3297834D01*
X1614474Y3285845D01*
X1616710Y3273907D01*
X1618589Y3262020D01*
X1620113Y3250184D01*
X1621282Y3238347D01*
X1623110Y3207766D01*
X1624126Y3197098D01*
X1624888Y3193186D01*
X1625904Y3190087D01*
X1627225Y3187750D01*
X1629003Y3186023D01*
X1631289Y3184804D01*
X1634134Y3184042D01*
X1637639Y3183585D01*
X1693824Y3182112D01*
X1713433Y3205429D01*
X1721205Y3215436D01*
X1729130Y3226257D01*
X1736242Y3236620D01*
X1752396Y3262071D01*
X1746961Y3294278D01*
X1744725Y3306216D01*
X1739442Y3329940D01*
X1733194Y3353409D01*
X1729689Y3365093D01*
X1721967Y3388207D01*
X1717751Y3399637D01*
X1708607Y3422243D01*
X1698548Y3444544D01*
X1690370Y3461004D01*
X1684680Y3471824D01*
X1672589Y3493160D01*
X1662938Y3508806D01*
X1649323Y3529279D01*
X1634896Y3549192D01*
X1627378Y3558895D01*
X1611680Y3577945D01*
X1595069Y3596436D01*
X1577594Y3614267D01*
X1563979Y3627170D01*
X1549908Y3639718D01*
X1530502Y3655822D01*
X1510385Y3671163D01*
X1500073Y3678580D01*
X1479042Y3692753D01*
X1468323Y3699560D01*
X1451914Y3709365D01*
X1429664Y3721658D01*
X1412646Y3730345D01*
X1401165Y3735882D01*
X1383741Y3743706D01*
X1360220Y3753358D01*
X1342339Y3759962D01*
X1318260Y3767886D01*
X1306118Y3771493D01*
X1293926Y3774846D01*
X1269441Y3780790D01*
X1250950Y3784549D01*
X1221994Y3789578D01*
X1211834Y3791102D01*
G37*
G36*
X1051560Y3771036D02*
G01*
X1049020Y3769207D01*
X1043889Y3764178D01*
X1036878Y3756812D01*
X1024432Y3742791D01*
X1015949Y3732682D01*
X1007821Y3722370D01*
X999998Y3711956D01*
X992530Y3701389D01*
X981862Y3685286D01*
X975207Y3674364D01*
X968857Y3663289D01*
X962863Y3652113D01*
X957173Y3640785D01*
X951788Y3629304D01*
X946759Y3617722D01*
X942086Y3605987D01*
X937717Y3594100D01*
X933653Y3582111D01*
X929944Y3569970D01*
X926592Y3557727D01*
X923544Y3545382D01*
X920851Y3532886D01*
X918514Y3520236D01*
X916838Y3509518D01*
X915517Y3498240D01*
X914450Y3486505D01*
X913739Y3474415D01*
X913130Y3455771D01*
X913231Y3436772D01*
X913637Y3424021D01*
X914806Y3405022D01*
X915924Y3392525D01*
X917295Y3380282D01*
X918971Y3368344D01*
X920902Y3356813D01*
X923086Y3345738D01*
X925525Y3335223D01*
X928522Y3324148D01*
X932180Y3312109D01*
X936091Y3300171D01*
X940257Y3288436D01*
X944778Y3276854D01*
X949502Y3265474D01*
X954532Y3254197D01*
X959866Y3243122D01*
X965453Y3232251D01*
X971296Y3221532D01*
X977442Y3210966D01*
X983843Y3200603D01*
X990498Y3190443D01*
X997407Y3180486D01*
X1004569Y3170682D01*
X1012037Y3161080D01*
X1019708Y3151682D01*
X1027684Y3142488D01*
X1035862Y3133496D01*
X1044346Y3124708D01*
X1053033Y3116122D01*
X1062024Y3107740D01*
X1071219Y3099612D01*
X1080668Y3091637D01*
X1090371Y3083915D01*
X1100277Y3076397D01*
X1110386Y3069183D01*
X1120648Y3062224D01*
X1131011Y3055569D01*
X1141476Y3049219D01*
X1152093Y3043123D01*
X1162812Y3037281D01*
X1173632Y3031794D01*
X1195527Y3021584D01*
X1206652Y3016910D01*
X1223467Y3010458D01*
X1234795Y3006496D01*
X1246174Y3002838D01*
X1263345Y2997860D01*
X1274876Y2994914D01*
X1286459Y2992221D01*
X1298092Y2989834D01*
X1309776Y2987751D01*
X1321511Y2985922D01*
X1344980Y2983128D01*
X1368602Y2981452D01*
X1380439Y2981045D01*
X1404061Y2981096D01*
X1415897Y2981553D01*
X1427683Y2982264D01*
X1445361Y2983890D01*
X1468882Y2987040D01*
X1480566Y2989072D01*
X1503832Y2993898D01*
X1526895Y2999892D01*
X1538325Y3003296D01*
X1549704Y3007004D01*
X1560982Y3011017D01*
X1572209Y3015284D01*
X1583334Y3019806D01*
X1594408Y3024632D01*
X1605381Y3029762D01*
X1616252Y3035147D01*
X1632305Y3043732D01*
X1642922Y3049828D01*
X1658569Y3059531D01*
X1668881Y3066338D01*
X1679041Y3073400D01*
X1689049Y3080766D01*
X1700682Y3089706D01*
X1711248Y3098139D01*
X1719529Y3105099D01*
X1724456Y3109671D01*
X1728216Y3114141D01*
X1728927Y3117646D01*
X1726133Y3122015D01*
X1719325Y3129026D01*
X1714398Y3133699D01*
X1709978Y3137509D01*
X1706524Y3140100D01*
X1704441Y3141014D01*
X1701850Y3139694D01*
X1696821Y3136087D01*
X1690116Y3130753D01*
X1677974Y3120440D01*
X1668830Y3112973D01*
X1659280Y3105708D01*
X1649374Y3098647D01*
X1639112Y3091789D01*
X1628546Y3085185D01*
X1617726Y3078835D01*
X1606600Y3072739D01*
X1589481Y3064103D01*
X1577797Y3058718D01*
X1565960Y3053588D01*
X1553921Y3048812D01*
X1541780Y3044342D01*
X1529537Y3040176D01*
X1517192Y3036366D01*
X1504797Y3032912D01*
X1492351Y3029813D01*
X1479905Y3027121D01*
X1469440Y3025190D01*
X1458214Y3023565D01*
X1446326Y3022193D01*
X1434033Y3021076D01*
X1421384Y3020263D01*
X1408480Y3019704D01*
X1395526Y3019399D01*
X1382623Y3019399D01*
X1369872Y3019653D01*
X1357426Y3020212D01*
X1345387Y3021025D01*
X1333957Y3022092D01*
X1323238Y3023463D01*
X1313332Y3025140D01*
X1300276Y3027832D01*
X1287221Y3030931D01*
X1274216Y3034385D01*
X1261313Y3038195D01*
X1248460Y3042361D01*
X1235760Y3046831D01*
X1223213Y3051657D01*
X1210868Y3056788D01*
X1198727Y3062173D01*
X1186840Y3067862D01*
X1175207Y3073806D01*
X1163878Y3080054D01*
X1152906Y3086455D01*
X1142288Y3093161D01*
X1132078Y3100019D01*
X1122273Y3107080D01*
X1112926Y3114344D01*
X1086256Y3137357D01*
X1102055Y3130194D01*
X1107338Y3128060D01*
X1112621Y3126333D01*
X1117904Y3125063D01*
X1123137Y3124250D01*
X1128318Y3123844D01*
X1133449Y3123793D01*
X1138478Y3124200D01*
X1143406Y3124911D01*
X1148283Y3126028D01*
X1153007Y3127451D01*
X1157579Y3129178D01*
X1161999Y3131210D01*
X1166317Y3133547D01*
X1174343Y3139033D01*
X1178052Y3142132D01*
X1181557Y3145485D01*
X1184808Y3149041D01*
X1187856Y3152800D01*
X1190650Y3156712D01*
X1193190Y3160776D01*
X1197356Y3169412D01*
X1198981Y3173882D01*
X1200251Y3178454D01*
X1201216Y3183128D01*
X1201877Y3187903D01*
X1202131Y3192678D01*
X1201978Y3197504D01*
X1201470Y3202381D01*
X1200556Y3207258D01*
X1199235Y3212084D01*
X1197457Y3216960D01*
X1195273Y3221736D01*
X1192580Y3226460D01*
X1189482Y3231134D01*
X1185672Y3235960D01*
X1181557Y3240328D01*
X1177239Y3244291D01*
X1172667Y3247847D01*
X1167841Y3250946D01*
X1162913Y3253689D01*
X1157782Y3255975D01*
X1152550Y3257854D01*
X1147165Y3259277D01*
X1141780Y3260344D01*
X1136294Y3260953D01*
X1130808Y3261156D01*
X1125270Y3260902D01*
X1119784Y3260293D01*
X1114348Y3259226D01*
X1109014Y3257753D01*
X1103782Y3255873D01*
X1098651Y3253536D01*
X1093673Y3250844D01*
X1088898Y3247694D01*
X1084326Y3244088D01*
X1079957Y3240125D01*
X1075842Y3235756D01*
X1072032Y3230930D01*
X1068984Y3226562D01*
X1066596Y3222650D01*
X1064717Y3218891D01*
X1063345Y3215132D01*
X1062380Y3211068D01*
X1061770Y3206496D01*
X1061364Y3195015D01*
X1061720Y3185160D01*
X1062939Y3176168D01*
X1064869Y3168345D01*
X1067612Y3161893D01*
X1073912Y3150006D01*
X1062075Y3160877D01*
X1055776Y3167481D01*
X1049121Y3175304D01*
X1042212Y3184093D01*
X1035100Y3193796D01*
X1027937Y3204210D01*
X1020775Y3215233D01*
X1013714Y3226663D01*
X1006805Y3238449D01*
X1000201Y3250336D01*
X993952Y3262274D01*
X988110Y3274060D01*
X982878Y3285591D01*
X978255Y3296665D01*
X974090Y3307791D01*
X970229Y3319678D01*
X966673Y3332022D01*
X963472Y3344773D01*
X960628Y3357879D01*
X958189Y3371240D01*
X956056Y3384804D01*
X954379Y3398520D01*
X953008Y3412286D01*
X952093Y3426104D01*
X951534Y3439820D01*
X951382Y3453384D01*
X951636Y3466795D01*
X952296Y3479901D01*
X953414Y3492703D01*
X954938Y3505098D01*
X956919Y3517036D01*
X959307Y3529025D01*
X962101Y3541014D01*
X965301Y3553002D01*
X968959Y3564991D01*
X972972Y3576980D01*
X977341Y3588867D01*
X982065Y3600704D01*
X987145Y3612438D01*
X992581Y3624021D01*
X1001268Y3641140D01*
X1007516Y3652316D01*
X1014018Y3663238D01*
X1020775Y3673957D01*
X1027836Y3684422D01*
X1035100Y3694582D01*
X1042669Y3704386D01*
X1050442Y3713937D01*
X1058468Y3723081D01*
X1066647Y3731818D01*
X1080414Y3745992D01*
X1061770Y3763365D01*
X1057046Y3767378D01*
X1053490Y3770020D01*
G37*
G36*
X1143304Y3622649D02*
G01*
X1129690Y3622141D01*
X1116380Y3621125D01*
X1104900Y3619652D01*
X1096772Y3617925D01*
X1090371Y3615842D01*
X1078077Y3611016D01*
X1066393Y3605377D01*
X1055471Y3598926D01*
X1050239Y3595420D01*
X1040333Y3587851D01*
X1031189Y3579571D01*
X1022858Y3570579D01*
X1015288Y3560927D01*
X1011834Y3555898D01*
X1008583Y3550665D01*
X1002741Y3539845D01*
X1000150Y3534206D01*
X995680Y3522522D01*
X993749Y3516528D01*
X992073Y3510381D01*
X990650Y3504082D01*
X989482Y3497732D01*
X987907Y3484981D01*
X987247Y3472840D01*
X987247Y3466896D01*
X987958Y3455263D01*
X989584Y3444036D01*
X990701Y3438550D01*
X993648Y3427831D01*
X997508Y3417468D01*
X1002284Y3407460D01*
X1007973Y3397808D01*
X1014577Y3388461D01*
X1022096Y3379470D01*
X1030528Y3370783D01*
X1039926Y3362350D01*
X1049629Y3354730D01*
X1059434Y3348126D01*
X1069492Y3342487D01*
X1074674Y3339998D01*
X1085392Y3335680D01*
X1096721Y3332124D01*
X1108862Y3329279D01*
X1121918Y3327095D01*
X1161135Y3321507D01*
X1166317Y3320592D01*
X1171549Y3319272D01*
X1176883Y3317595D01*
X1182217Y3315563D01*
X1192885Y3310534D01*
X1203401Y3304286D01*
X1213612Y3297021D01*
X1218539Y3293059D01*
X1227988Y3284474D01*
X1236675Y3275177D01*
X1240637Y3270351D01*
X1244396Y3265322D01*
X1247851Y3260242D01*
X1251051Y3255060D01*
X1253896Y3249777D01*
X1256233Y3244850D01*
X1260195Y3234537D01*
X1263142Y3223768D01*
X1264310Y3218230D01*
X1265885Y3206902D01*
X1266494Y3195472D01*
X1266190Y3183940D01*
X1264920Y3172460D01*
X1262786Y3161182D01*
X1261364Y3155645D01*
X1257858Y3144926D01*
X1253439Y3134664D01*
X1250899Y3129737D01*
X1245158Y3120440D01*
X1234440Y3104997D01*
X1250594Y3089148D01*
X1255318Y3084931D01*
X1259992Y3081172D01*
X1264716Y3077718D01*
X1269492Y3074670D01*
X1274419Y3071876D01*
X1279550Y3069437D01*
X1284935Y3067202D01*
X1290574Y3065221D01*
X1303020Y3061817D01*
X1320850Y3058210D01*
X1337614Y3055416D01*
X1343914Y3054858D01*
X1349044Y3055010D01*
X1353312Y3055823D01*
X1356868Y3057448D01*
X1359966Y3059938D01*
X1362760Y3063392D01*
X1365554Y3067812D01*
X1371752Y3079902D01*
X1376934Y3091129D01*
X1381556Y3102406D01*
X1385570Y3113836D01*
X1389075Y3125317D01*
X1392021Y3136900D01*
X1394409Y3148482D01*
X1396238Y3160166D01*
X1397508Y3171850D01*
X1398219Y3183534D01*
X1398422Y3195218D01*
X1398016Y3206851D01*
X1397101Y3218484D01*
X1395628Y3230067D01*
X1393596Y3241548D01*
X1391056Y3253028D01*
X1387906Y3264357D01*
X1384300Y3275584D01*
X1380083Y3286709D01*
X1375359Y3297682D01*
X1370126Y3308502D01*
X1364335Y3319119D01*
X1357985Y3329635D01*
X1351127Y3339896D01*
X1343710Y3349955D01*
X1336548Y3358794D01*
X1328826Y3367328D01*
X1320546Y3375558D01*
X1311757Y3383483D01*
X1302562Y3391103D01*
X1292910Y3398316D01*
X1282903Y3405174D01*
X1272540Y3411626D01*
X1261872Y3417620D01*
X1250950Y3423208D01*
X1239774Y3428339D01*
X1228394Y3433013D01*
X1216914Y3437128D01*
X1205230Y3440785D01*
X1193546Y3443884D01*
X1181760Y3446424D01*
X1169974Y3448354D01*
X1149553Y3450793D01*
X1141831Y3452317D01*
X1135126Y3454298D01*
X1129436Y3456686D01*
X1124712Y3459479D01*
X1121105Y3462680D01*
X1118514Y3466236D01*
X1117041Y3470097D01*
X1116685Y3474262D01*
X1117447Y3478733D01*
X1119378Y3483457D01*
X1122476Y3488436D01*
X1124458Y3491026D01*
X1126439Y3492957D01*
X1128877Y3494328D01*
X1132078Y3495141D01*
X1136446Y3495548D01*
X1150416Y3495141D01*
X1166723Y3494125D01*
X1178458Y3492906D01*
X1190142Y3491229D01*
X1201674Y3489096D01*
X1213154Y3486505D01*
X1224483Y3483457D01*
X1235659Y3479952D01*
X1246733Y3476040D01*
X1257655Y3471672D01*
X1268425Y3466846D01*
X1279042Y3461562D01*
X1289507Y3455873D01*
X1299768Y3449777D01*
X1309878Y3443224D01*
X1319784Y3436264D01*
X1329486Y3428847D01*
X1338986Y3421075D01*
X1348282Y3412845D01*
X1357477Y3404108D01*
X1366367Y3394964D01*
X1374749Y3385718D01*
X1382623Y3376269D01*
X1389989Y3366566D01*
X1396898Y3356559D01*
X1403350Y3346297D01*
X1409446Y3335629D01*
X1415135Y3324606D01*
X1420469Y3313125D01*
X1425448Y3301136D01*
X1430172Y3288639D01*
X1434388Y3276142D01*
X1437589Y3265220D01*
X1439926Y3254654D01*
X1441551Y3243224D01*
X1442720Y3229660D01*
X1443532Y3212744D01*
X1444142Y3193643D01*
X1444396Y3177997D01*
X1444142Y3164586D01*
X1443278Y3152546D01*
X1441704Y3140913D01*
X1439214Y3128873D01*
X1435811Y3115462D01*
X1428546Y3090773D01*
X1428089Y3088589D01*
X1428343Y3086658D01*
X1429461Y3084830D01*
X1431696Y3083001D01*
X1435252Y3081020D01*
X1440383Y3078734D01*
X1456080Y3072790D01*
X1485747Y3062020D01*
X1515922Y3071215D01*
X1534617Y3077768D01*
X1552600Y3084576D01*
X1564284Y3089554D01*
X1566011Y3090672D01*
X1571345Y3120390D01*
X1572920Y3130448D01*
X1574241Y3141675D01*
X1575257Y3153714D01*
X1576374Y3179622D01*
X1576324Y3206496D01*
X1575866Y3219754D01*
X1575104Y3232607D01*
X1574088Y3244850D01*
X1572717Y3256279D01*
X1571142Y3266694D01*
X1568704Y3278936D01*
X1565960Y3291128D01*
X1562811Y3303168D01*
X1559306Y3315106D01*
X1555445Y3326942D01*
X1551279Y3338677D01*
X1546707Y3350209D01*
X1541830Y3361639D01*
X1536598Y3372916D01*
X1531061Y3384042D01*
X1525168Y3395014D01*
X1519021Y3405784D01*
X1512519Y3416401D01*
X1505712Y3426866D01*
X1498600Y3437077D01*
X1491183Y3447135D01*
X1483512Y3456940D01*
X1475536Y3466541D01*
X1467307Y3475939D01*
X1458772Y3485134D01*
X1449984Y3494074D01*
X1440891Y3502761D01*
X1431594Y3511194D01*
X1422044Y3519373D01*
X1412240Y3527348D01*
X1402181Y3534968D01*
X1391869Y3542334D01*
X1381353Y3549446D01*
X1370634Y3556254D01*
X1359662Y3562756D01*
X1348486Y3568954D01*
X1337106Y3574846D01*
X1325270Y3580536D01*
X1313281Y3585870D01*
X1301191Y3590899D01*
X1288999Y3595573D01*
X1276756Y3599891D01*
X1264462Y3603853D01*
X1252118Y3607460D01*
X1239723Y3610711D01*
X1227378Y3613556D01*
X1215085Y3616045D01*
X1202842Y3618128D01*
X1190701Y3619855D01*
X1178661Y3621125D01*
X1166723Y3622040D01*
X1154938Y3622548D01*
G37*
G36*
X1377391Y2082393D02*
G01*
X1286764Y2082190D01*
X1146098Y2081123D01*
X1090980Y2080361D01*
X1046022Y2079396D01*
X1013460Y2078228D01*
X1002537Y2077618D01*
X995527Y2076907D01*
X993648Y2076551D01*
X982929Y2073198D01*
X977696Y2071217D01*
X967486Y2066594D01*
X957630Y2061210D01*
X948182Y2055063D01*
X939190Y2048256D01*
X930706Y2040788D01*
X922731Y2032762D01*
X915416Y2024176D01*
X908710Y2015032D01*
X905560Y2010308D01*
X899921Y2000504D01*
X897331Y1995474D01*
X892810Y1985111D01*
X890828Y1979828D01*
X887577Y1969007D01*
X886815Y1963978D01*
X885494Y1942033D01*
X884377Y1906066D01*
X883462Y1858365D01*
X882192Y1736648D01*
X881837Y1667103D01*
X881813Y1499057D01*
X933856Y1499057D01*
X934008Y1507896D01*
X934567Y1516786D01*
X935634Y1525676D01*
X937158Y1534617D01*
X939190Y1543558D01*
X941679Y1552498D01*
X944676Y1561439D01*
X948182Y1570329D01*
X952195Y1579270D01*
X954836Y1584452D01*
X957834Y1589633D01*
X964692Y1599895D01*
X972667Y1609902D01*
X976985Y1614830D01*
X986332Y1624279D01*
X996391Y1633321D01*
X1007008Y1641703D01*
X1018133Y1649323D01*
X1023772Y1652879D01*
X1035303Y1659229D01*
X1046886Y1664563D01*
X1052626Y1666849D01*
X1058418Y1668830D01*
X1079246Y1674114D01*
X1085088Y1676501D01*
X1088339Y1679702D01*
X1089964Y1684223D01*
X1092708Y1695907D01*
X1095857Y1707388D01*
X1099413Y1718614D01*
X1103325Y1729689D01*
X1109878Y1745792D01*
X1114755Y1756257D01*
X1119886Y1766468D01*
X1125423Y1776425D01*
X1131265Y1786128D01*
X1137412Y1795576D01*
X1143914Y1804771D01*
X1150670Y1813661D01*
X1157732Y1822297D01*
X1165098Y1830628D01*
X1172718Y1838655D01*
X1180592Y1846427D01*
X1188720Y1853895D01*
X1197102Y1861007D01*
X1205687Y1867814D01*
X1214526Y1874316D01*
X1223568Y1880514D01*
X1232814Y1886356D01*
X1242263Y1891842D01*
X1251915Y1897024D01*
X1261719Y1901799D01*
X1271727Y1906270D01*
X1281836Y1910384D01*
X1292148Y1914093D01*
X1302562Y1917446D01*
X1313129Y1920392D01*
X1323797Y1922983D01*
X1334566Y1925167D01*
X1345488Y1926945D01*
X1356461Y1928317D01*
X1367536Y1929282D01*
X1378661Y1929841D01*
X1389837Y1929942D01*
X1401114Y1929638D01*
X1412392Y1928926D01*
X1423720Y1927758D01*
X1435100Y1926132D01*
X1446479Y1924050D01*
X1457858Y1921510D01*
X1469491Y1918411D01*
X1481277Y1914804D01*
X1492859Y1910740D01*
X1504188Y1906219D01*
X1515262Y1901291D01*
X1526133Y1895906D01*
X1536700Y1890115D01*
X1547012Y1883968D01*
X1557070Y1877364D01*
X1566875Y1870405D01*
X1576324Y1863089D01*
X1585518Y1855368D01*
X1594358Y1847342D01*
X1602943Y1838909D01*
X1611122Y1830171D01*
X1619046Y1821129D01*
X1626565Y1811731D01*
X1633728Y1802079D01*
X1640586Y1792071D01*
X1646986Y1781810D01*
X1653082Y1771243D01*
X1658772Y1760423D01*
X1664004Y1749348D01*
X1668881Y1738020D01*
X1673352Y1726438D01*
X1677365Y1714652D01*
X1680921Y1702663D01*
X1685493Y1684223D01*
X1687118Y1679702D01*
X1690370Y1676552D01*
X1696212Y1674114D01*
X1711096Y1670557D01*
X1721713Y1667510D01*
X1732076Y1663649D01*
X1742135Y1659077D01*
X1751888Y1653793D01*
X1761286Y1647901D01*
X1770329Y1641348D01*
X1778965Y1634236D01*
X1787143Y1626616D01*
X1794916Y1618437D01*
X1802180Y1609852D01*
X1808937Y1600809D01*
X1815134Y1591411D01*
X1820773Y1581658D01*
X1825802Y1571599D01*
X1830171Y1561287D01*
X1833930Y1550720D01*
X1836978Y1539951D01*
X1839315Y1529080D01*
X1840941Y1518056D01*
X1841754Y1506931D01*
X1841804Y1495806D01*
X1841093Y1485798D01*
X1840026Y1476908D01*
X1838502Y1468120D01*
X1836521Y1459433D01*
X1834134Y1450848D01*
X1831390Y1442415D01*
X1828190Y1434033D01*
X1824583Y1425752D01*
X1820621Y1417624D01*
X1816252Y1409598D01*
X1811477Y1401724D01*
X1806397Y1393901D01*
X1800910Y1386281D01*
X1792071Y1375054D01*
X1785721Y1367739D01*
X1779016Y1360525D01*
X1772005Y1353515D01*
X1764690Y1346606D01*
X1757070Y1339900D01*
X1749145Y1333296D01*
X1740865Y1326845D01*
X1732381Y1320596D01*
X1723542Y1314500D01*
X1714449Y1308557D01*
X1705102Y1302766D01*
X1695500Y1297178D01*
X1685594Y1291742D01*
X1665122Y1281430D01*
X1654556Y1276553D01*
X1632712Y1267358D01*
X1610055Y1258976D01*
X1598422Y1255064D01*
X1574596Y1247902D01*
X1550111Y1241552D01*
X1531315Y1237386D01*
X1505762Y1232611D01*
X1492808Y1230579D01*
X1473098Y1227937D01*
X1446479Y1225296D01*
X1419453Y1223619D01*
X1405788Y1223162D01*
X1392072Y1222959D01*
X1364437Y1223314D01*
X1350518Y1223873D01*
X1322578Y1225854D01*
X1301546Y1228039D01*
X1280515Y1230884D01*
X1266444Y1233119D01*
X1251966Y1235760D01*
X1230680Y1240180D01*
X1216863Y1243482D01*
X1203299Y1246987D01*
X1189939Y1250797D01*
X1176934Y1254810D01*
X1164132Y1259078D01*
X1151686Y1263599D01*
X1139494Y1268323D01*
X1127556Y1273251D01*
X1115974Y1278432D01*
X1104696Y1283766D01*
X1093673Y1289354D01*
X1083005Y1295095D01*
X1072692Y1301089D01*
X1062634Y1307236D01*
X1052982Y1313535D01*
X1043635Y1320038D01*
X1034592Y1326692D01*
X1025956Y1333500D01*
X1017625Y1340459D01*
X1009700Y1347622D01*
X1002080Y1354886D01*
X994867Y1362303D01*
X988060Y1369822D01*
X981557Y1377492D01*
X975512Y1385265D01*
X969822Y1393139D01*
X964539Y1401165D01*
X959612Y1409293D01*
X955141Y1417472D01*
X951077Y1425752D01*
X947419Y1434134D01*
X944168Y1442618D01*
X941374Y1451102D01*
X939037Y1459738D01*
X937107Y1468374D01*
X935583Y1477060D01*
X934567Y1485849D01*
X933856Y1499057D01*
X881813Y1499057D01*
X882599Y1367383D01*
X883259Y1308150D01*
X884123Y1257808D01*
X885190Y1218742D01*
X886460Y1193088D01*
X887171Y1185976D01*
X889101Y1178458D01*
X892860Y1167638D01*
X897432Y1157224D01*
X902766Y1147165D01*
X908862Y1137564D01*
X915619Y1128420D01*
X923036Y1119835D01*
X931062Y1111808D01*
X939647Y1104392D01*
X948791Y1097584D01*
X958342Y1091488D01*
X968400Y1086154D01*
X978814Y1081582D01*
X989584Y1077823D01*
X995984Y1076096D01*
X1002080Y1075385D01*
X1012139Y1074674D01*
X1043127Y1073505D01*
X1086713Y1072489D01*
X1140663Y1071676D01*
X1202690Y1071016D01*
X1270609Y1070610D01*
X1351229Y1070406D01*
X1478330Y1070508D01*
X1619961Y1071473D01*
X1676095Y1072235D01*
X1722475Y1073200D01*
X1756867Y1074369D01*
X1768805Y1075029D01*
X1779473Y1076096D01*
X1785874Y1077823D01*
X1796643Y1081582D01*
X1807057Y1086154D01*
X1817065Y1091488D01*
X1826666Y1097584D01*
X1835759Y1104392D01*
X1844344Y1111808D01*
X1848459Y1115720D01*
X1856181Y1124051D01*
X1863293Y1132941D01*
X1869693Y1142288D01*
X1875434Y1152144D01*
X1880412Y1162405D01*
X1884578Y1173022D01*
X1886356Y1178458D01*
X1888083Y1184859D01*
X1888794Y1190955D01*
X1890115Y1214780D01*
X1891182Y1252321D01*
X1892096Y1301343D01*
X1892807Y1359611D01*
X1893671Y1503883D01*
X1893671Y1631238D01*
X1893417Y1711147D01*
X1892249Y1837994D01*
X1891385Y1889556D01*
X1890369Y1930196D01*
X1889099Y1957679D01*
X1888032Y1968347D01*
X1886305Y1974697D01*
X1882546Y1985467D01*
X1877974Y1995932D01*
X1872640Y2005939D01*
X1866544Y2015540D01*
X1859788Y2024634D01*
X1852320Y2033219D01*
X1848408Y2037334D01*
X1840077Y2045055D01*
X1831187Y2052167D01*
X1821840Y2058568D01*
X1811985Y2064308D01*
X1801723Y2069287D01*
X1791106Y2073452D01*
X1785670Y2075230D01*
X1779320Y2076957D01*
X1773275Y2077669D01*
X1749501Y2078888D01*
X1711909Y2079955D01*
X1662734Y2080818D01*
X1604314Y2081530D01*
X1459534Y2082292D01*
G37*
G36*
X1311910Y1829206D02*
G01*
X1307896Y1828546D01*
X1303324Y1826818D01*
X1298803Y1824177D01*
X1294942Y1820976D01*
X1292352Y1818233D01*
X1290370Y1815541D01*
X1288948Y1812543D01*
X1287881Y1808784D01*
X1287221Y1803907D01*
X1286865Y1797557D01*
X1286662Y1778660D01*
X1286764Y1769719D01*
X1287221Y1761794D01*
X1287932Y1754835D01*
X1288999Y1748789D01*
X1290421Y1743557D01*
X1292199Y1739239D01*
X1294384Y1735632D01*
X1296974Y1732838D01*
X1300022Y1730705D01*
X1303477Y1729232D01*
X1307439Y1728419D01*
X1311910Y1728114D01*
X1316380Y1728419D01*
X1320342Y1729232D01*
X1323848Y1730705D01*
X1326896Y1732838D01*
X1329486Y1735632D01*
X1331620Y1739239D01*
X1333449Y1743557D01*
X1334820Y1748789D01*
X1335887Y1754835D01*
X1336649Y1761794D01*
X1337056Y1769719D01*
X1337208Y1778660D01*
X1337056Y1787601D01*
X1336649Y1795525D01*
X1335887Y1802536D01*
X1334820Y1808581D01*
X1333449Y1813763D01*
X1331620Y1818132D01*
X1329486Y1821688D01*
X1326896Y1824532D01*
X1323848Y1826615D01*
X1320342Y1828088D01*
X1316380Y1828952D01*
G37*
G36*
X1387703Y1829206D02*
G01*
X1383436Y1828698D01*
X1378762Y1827326D01*
X1374241Y1825294D01*
X1370431Y1822805D01*
X1367942Y1820621D01*
X1366012Y1818335D01*
X1364589Y1815541D01*
X1363624Y1811782D01*
X1363014Y1806651D01*
X1362659Y1799691D01*
X1362456Y1778660D01*
X1362862Y1760423D01*
X1363472Y1753158D01*
X1364386Y1746961D01*
X1365605Y1741881D01*
X1367231Y1737715D01*
X1369314Y1734413D01*
X1371854Y1731924D01*
X1374952Y1730146D01*
X1378610Y1728978D01*
X1382826Y1728317D01*
X1387703Y1728114D01*
X1392580Y1728317D01*
X1396847Y1728978D01*
X1400505Y1730146D01*
X1403553Y1731924D01*
X1406093Y1734413D01*
X1408176Y1737715D01*
X1409852Y1741881D01*
X1411071Y1746961D01*
X1411986Y1753158D01*
X1412544Y1760423D01*
X1412900Y1768906D01*
X1412900Y1788464D01*
X1412544Y1796948D01*
X1411986Y1804212D01*
X1411071Y1810359D01*
X1409852Y1815490D01*
X1408176Y1819656D01*
X1406093Y1822907D01*
X1403553Y1825396D01*
X1400505Y1827225D01*
X1396847Y1828393D01*
X1392580Y1829003D01*
G37*
G36*
X1463548Y1829206D02*
G01*
X1459484Y1828546D01*
X1454962Y1826818D01*
X1450441Y1824177D01*
X1446530Y1820976D01*
X1443939Y1818233D01*
X1442008Y1815541D01*
X1440535Y1812543D01*
X1439519Y1808784D01*
X1438859Y1803907D01*
X1438452Y1797557D01*
X1438249Y1778660D01*
X1438402Y1769719D01*
X1438808Y1761794D01*
X1439570Y1754835D01*
X1440637Y1748789D01*
X1442008Y1743557D01*
X1443786Y1739239D01*
X1445971Y1735632D01*
X1448562Y1732838D01*
X1451610Y1730705D01*
X1455115Y1729232D01*
X1459077Y1728419D01*
X1463548Y1728114D01*
X1468018Y1728419D01*
X1471980Y1729232D01*
X1475435Y1730705D01*
X1478483Y1732838D01*
X1481074Y1735632D01*
X1483258Y1739239D01*
X1485036Y1743557D01*
X1486458Y1748789D01*
X1487474Y1754835D01*
X1488236Y1761794D01*
X1488643Y1769719D01*
X1488795Y1778660D01*
X1488643Y1787601D01*
X1488236Y1795525D01*
X1487474Y1802536D01*
X1486458Y1808581D01*
X1485036Y1813763D01*
X1483258Y1818132D01*
X1481074Y1821688D01*
X1478483Y1824532D01*
X1475435Y1826615D01*
X1471980Y1828088D01*
X1468018Y1828952D01*
G37*
G36*
X1340053Y1704390D02*
G01*
X1309014Y1703933D01*
X1296263Y1703527D01*
X1285900Y1702866D01*
X1278331Y1702104D01*
X1273962Y1701139D01*
X1270304Y1699209D01*
X1268679Y1697989D01*
X1267256Y1696415D01*
X1265986Y1694535D01*
X1264869Y1692198D01*
X1263904Y1689303D01*
X1262329Y1681734D01*
X1261262Y1671167D01*
X1260551Y1657045D01*
X1260195Y1638757D01*
X1260297Y1587398D01*
X1260711Y1539290D01*
X1324864Y1539290D01*
X1325219Y1543558D01*
X1326591Y1547876D01*
X1328978Y1552194D01*
X1333601Y1558340D01*
X1334617Y1560779D01*
X1335430Y1564030D01*
X1336090Y1568145D01*
X1336954Y1579219D01*
X1337208Y1594459D01*
X1337208Y1627073D01*
X1353870Y1626920D01*
X1357426Y1626311D01*
X1360830Y1625092D01*
X1364437Y1623110D01*
X1368450Y1620113D01*
X1373225Y1615948D01*
X1395323Y1594307D01*
X1403350Y1586788D01*
X1409192Y1581708D01*
X1412036Y1579880D01*
X1414373Y1581404D01*
X1414373Y1585518D01*
X1412138Y1591208D01*
X1404924Y1602232D01*
X1402892Y1607007D01*
X1401775Y1611782D01*
X1401622Y1616506D01*
X1402283Y1621028D01*
X1403807Y1625346D01*
X1406093Y1629257D01*
X1409090Y1632762D01*
X1412798Y1635709D01*
X1417167Y1638046D01*
X1422095Y1639570D01*
X1427581Y1640332D01*
X1430121Y1639570D01*
X1433728Y1637487D01*
X1437944Y1634286D01*
X1442212Y1630324D01*
X1445818Y1626209D01*
X1448409Y1622044D01*
X1449984Y1617878D01*
X1450594Y1613611D01*
X1450187Y1609344D01*
X1448816Y1605076D01*
X1446428Y1600758D01*
X1441856Y1594713D01*
X1440840Y1592224D01*
X1440027Y1588973D01*
X1439367Y1584858D01*
X1438503Y1573834D01*
X1438249Y1558544D01*
X1438249Y1525981D01*
X1421587Y1526133D01*
X1418031Y1526692D01*
X1414627Y1527911D01*
X1411020Y1529892D01*
X1406956Y1532890D01*
X1396441Y1542542D01*
X1380134Y1558696D01*
X1372108Y1566214D01*
X1366266Y1571294D01*
X1363370Y1573123D01*
X1361033Y1571599D01*
X1361084Y1567484D01*
X1363319Y1561795D01*
X1370736Y1550466D01*
X1372819Y1545590D01*
X1373886Y1540764D01*
X1373987Y1536090D01*
X1373276Y1531620D01*
X1371752Y1527505D01*
X1369568Y1523796D01*
X1366774Y1520545D01*
X1363472Y1517904D01*
X1359763Y1515872D01*
X1355699Y1514602D01*
X1351432Y1514144D01*
X1346962Y1514602D01*
X1342440Y1516075D01*
X1337970Y1518615D01*
X1333550Y1522323D01*
X1329842Y1526540D01*
X1327150Y1530807D01*
X1325473Y1535023D01*
X1324864Y1539290D01*
X1260711Y1539290D01*
X1261262Y1503476D01*
X1262176Y1478432D01*
X1262837Y1470355D01*
X1263650Y1464614D01*
X1264666Y1460652D01*
X1265885Y1458010D01*
X1267409Y1456131D01*
X1268476Y1455470D01*
X1270304Y1454810D01*
X1276146Y1453642D01*
X1284478Y1452626D01*
X1295095Y1451711D01*
X1321714Y1450340D01*
X1353464Y1449527D01*
X1396390Y1449273D01*
X1430274Y1449679D01*
X1460957Y1450644D01*
X1485900Y1452168D01*
X1495450Y1453134D01*
X1502562Y1454251D01*
X1506931Y1455470D01*
X1508048Y1456182D01*
X1508709Y1457248D01*
X1509369Y1459077D01*
X1510538Y1464919D01*
X1511554Y1473250D01*
X1512468Y1483868D01*
X1513840Y1510487D01*
X1514703Y1542186D01*
X1514957Y1585163D01*
X1514551Y1619046D01*
X1513586Y1649780D01*
X1512062Y1674723D01*
X1511096Y1684223D01*
X1509979Y1691386D01*
X1508709Y1695754D01*
X1508048Y1696872D01*
X1507032Y1697431D01*
X1502308Y1698498D01*
X1494434Y1699514D01*
X1470812Y1701292D01*
X1439418Y1702714D01*
X1403553Y1703781D01*
X1366570Y1704289D01*
G37*
G36*
X1185570Y1678736D02*
G01*
X1178864Y1678584D01*
X1172260Y1678178D01*
X1165961Y1677416D01*
X1160068Y1676400D01*
X1154684Y1675079D01*
X1150061Y1673453D01*
X1146200Y1671523D01*
X1143304Y1669338D01*
X1140104Y1665427D01*
X1137462Y1660906D01*
X1135735Y1656384D01*
X1135075Y1652320D01*
X1135329Y1647850D01*
X1136192Y1643888D01*
X1137666Y1640382D01*
X1139748Y1637385D01*
X1142593Y1634794D01*
X1146149Y1632610D01*
X1150518Y1630832D01*
X1155700Y1629410D01*
X1161745Y1628343D01*
X1168704Y1627632D01*
X1176629Y1627174D01*
X1204417Y1627276D01*
X1210818Y1627632D01*
X1215694Y1628292D01*
X1219454Y1629308D01*
X1222451Y1630781D01*
X1225143Y1632762D01*
X1227836Y1635302D01*
X1231290Y1639366D01*
X1233779Y1643583D01*
X1235252Y1647952D01*
X1235760Y1652320D01*
X1235252Y1656689D01*
X1233779Y1661058D01*
X1231290Y1665274D01*
X1227836Y1669338D01*
X1224940Y1671523D01*
X1221130Y1673453D01*
X1216456Y1675079D01*
X1211122Y1676400D01*
X1205179Y1677416D01*
X1198880Y1678178D01*
X1192326Y1678584D01*
G37*
G36*
X1589887Y1678736D02*
G01*
X1583131Y1678584D01*
X1576578Y1678178D01*
X1570228Y1677416D01*
X1564335Y1676400D01*
X1559001Y1675079D01*
X1554327Y1673453D01*
X1550466Y1671523D01*
X1547622Y1669338D01*
X1544421Y1665427D01*
X1541780Y1660906D01*
X1540002Y1656384D01*
X1539341Y1652320D01*
X1539595Y1647850D01*
X1540459Y1643888D01*
X1541932Y1640382D01*
X1544015Y1637385D01*
X1546860Y1634794D01*
X1550416Y1632610D01*
X1554784Y1630832D01*
X1559966Y1629410D01*
X1566011Y1628343D01*
X1573022Y1627632D01*
X1580946Y1627174D01*
X1608734Y1627276D01*
X1615084Y1627632D01*
X1619961Y1628292D01*
X1623720Y1629308D01*
X1626717Y1630781D01*
X1629410Y1632762D01*
X1632153Y1635302D01*
X1635607Y1639366D01*
X1638046Y1643583D01*
X1639519Y1647952D01*
X1640027Y1652320D01*
X1639519Y1656689D01*
X1638046Y1661058D01*
X1635607Y1665274D01*
X1632153Y1669338D01*
X1629257Y1671523D01*
X1625396Y1673453D01*
X1620723Y1675079D01*
X1615389Y1676400D01*
X1609496Y1677416D01*
X1603197Y1678178D01*
X1596593Y1678584D01*
G37*
G36*
X1174953Y1602892D02*
G01*
X1163066Y1602384D01*
X1158290Y1601876D01*
X1154277Y1601165D01*
X1151077Y1600301D01*
X1148588Y1599285D01*
X1144828Y1596796D01*
X1141628Y1593646D01*
X1139037Y1589887D01*
X1137158Y1585722D01*
X1135938Y1581302D01*
X1135481Y1576628D01*
X1135837Y1571955D01*
X1137005Y1567332D01*
X1138428Y1563878D01*
X1140155Y1560880D01*
X1142238Y1558340D01*
X1144778Y1556156D01*
X1147876Y1554327D01*
X1151534Y1552905D01*
X1155852Y1551787D01*
X1160932Y1550974D01*
X1166825Y1550416D01*
X1181354Y1550111D01*
X1198727Y1550619D01*
X1206296Y1551228D01*
X1212799Y1552041D01*
X1218387Y1553108D01*
X1223060Y1554530D01*
X1226921Y1556308D01*
X1230020Y1558493D01*
X1232357Y1561084D01*
X1234135Y1564182D01*
X1235252Y1567738D01*
X1235913Y1571853D01*
X1236116Y1576527D01*
X1235913Y1581200D01*
X1235252Y1585315D01*
X1234135Y1588871D01*
X1232357Y1591919D01*
X1230020Y1594510D01*
X1226921Y1596694D01*
X1223060Y1598472D01*
X1218387Y1599895D01*
X1212799Y1600962D01*
X1206296Y1601774D01*
X1198727Y1602384D01*
X1182116Y1602892D01*
G37*
G36*
X1579219Y1602892D02*
G01*
X1567332Y1602384D01*
X1562557Y1601876D01*
X1558594Y1601165D01*
X1555343Y1600301D01*
X1552854Y1599285D01*
X1549095Y1596796D01*
X1545894Y1593646D01*
X1543354Y1589887D01*
X1541424Y1585722D01*
X1540205Y1581302D01*
X1539748Y1576628D01*
X1540103Y1571955D01*
X1541272Y1567332D01*
X1542694Y1563878D01*
X1544421Y1560880D01*
X1546504Y1558340D01*
X1549044Y1556156D01*
X1552143Y1554327D01*
X1555800Y1552905D01*
X1560118Y1551787D01*
X1565198Y1550974D01*
X1571091Y1550416D01*
X1585620Y1550111D01*
X1602994Y1550619D01*
X1610563Y1551228D01*
X1617065Y1552041D01*
X1622653Y1553108D01*
X1627327Y1554530D01*
X1631188Y1556308D01*
X1634286Y1558493D01*
X1636623Y1561084D01*
X1638401Y1564182D01*
X1639519Y1567738D01*
X1640179Y1571853D01*
X1640382Y1576527D01*
X1640179Y1581200D01*
X1639519Y1585315D01*
X1638401Y1588871D01*
X1636623Y1591919D01*
X1634286Y1594510D01*
X1631188Y1596694D01*
X1627327Y1598472D01*
X1622653Y1599895D01*
X1617065Y1600962D01*
X1610563Y1601774D01*
X1602994Y1602384D01*
X1586382Y1602892D01*
G37*
G36*
X1185570Y1525981D02*
G01*
X1166723Y1525778D01*
X1160373Y1525371D01*
X1155496Y1524711D01*
X1151737Y1523695D01*
X1148740Y1522222D01*
X1146048Y1520240D01*
X1143304Y1517700D01*
X1140104Y1513789D01*
X1137462Y1509268D01*
X1135735Y1504746D01*
X1135075Y1500682D01*
X1135329Y1496212D01*
X1136192Y1492250D01*
X1137666Y1488744D01*
X1139748Y1485747D01*
X1142593Y1483156D01*
X1146149Y1480972D01*
X1150518Y1479194D01*
X1155700Y1477772D01*
X1161745Y1476705D01*
X1168704Y1475994D01*
X1176629Y1475536D01*
X1194511Y1475536D01*
X1202436Y1475994D01*
X1209446Y1476705D01*
X1215491Y1477772D01*
X1220673Y1479194D01*
X1225042Y1480972D01*
X1228598Y1483156D01*
X1231442Y1485747D01*
X1233525Y1488744D01*
X1234998Y1492250D01*
X1235862Y1496212D01*
X1236116Y1500682D01*
X1235862Y1505153D01*
X1234998Y1509115D01*
X1233525Y1512620D01*
X1231442Y1515668D01*
X1228598Y1518259D01*
X1225042Y1520393D01*
X1220673Y1522222D01*
X1215491Y1523593D01*
X1209446Y1524660D01*
X1202436Y1525422D01*
X1194511Y1525828D01*
G37*
G36*
X1589887Y1525981D02*
G01*
X1570990Y1525778D01*
X1564640Y1525371D01*
X1559763Y1524711D01*
X1556004Y1523695D01*
X1553006Y1522222D01*
X1550314Y1520240D01*
X1547622Y1517700D01*
X1544421Y1513789D01*
X1541780Y1509268D01*
X1540002Y1504746D01*
X1539341Y1500682D01*
X1539595Y1496212D01*
X1540459Y1492250D01*
X1541932Y1488744D01*
X1544015Y1485747D01*
X1546860Y1483156D01*
X1550416Y1480972D01*
X1554784Y1479194D01*
X1559966Y1477772D01*
X1566011Y1476705D01*
X1573022Y1475994D01*
X1580946Y1475536D01*
X1598828Y1475536D01*
X1606753Y1475994D01*
X1613712Y1476705D01*
X1619758Y1477772D01*
X1624939Y1479194D01*
X1629308Y1480972D01*
X1632864Y1483156D01*
X1635709Y1485747D01*
X1637792Y1488744D01*
X1639265Y1492250D01*
X1640128Y1496212D01*
X1640382Y1500682D01*
X1640128Y1505153D01*
X1639265Y1509115D01*
X1637792Y1512620D01*
X1635709Y1515668D01*
X1632864Y1518259D01*
X1629308Y1520393D01*
X1624939Y1522222D01*
X1619758Y1523593D01*
X1613712Y1524660D01*
X1606753Y1525422D01*
X1598828Y1525828D01*
G37*
G36*
X1311910Y1424889D02*
G01*
X1307896Y1424228D01*
X1303324Y1422450D01*
X1298803Y1419809D01*
X1294942Y1416608D01*
X1292352Y1413865D01*
X1290370Y1411173D01*
X1288948Y1408176D01*
X1287881Y1404416D01*
X1287221Y1399540D01*
X1286865Y1393190D01*
X1286662Y1374343D01*
X1286764Y1365402D01*
X1287221Y1357477D01*
X1287932Y1350467D01*
X1288999Y1344422D01*
X1290421Y1339240D01*
X1292199Y1334871D01*
X1294384Y1331315D01*
X1296974Y1328470D01*
X1300022Y1326388D01*
X1303477Y1324914D01*
X1307439Y1324051D01*
X1311910Y1323797D01*
X1316380Y1324051D01*
X1320342Y1324914D01*
X1323848Y1326388D01*
X1326896Y1328470D01*
X1329486Y1331315D01*
X1331620Y1334871D01*
X1333449Y1339240D01*
X1334820Y1344422D01*
X1335887Y1350467D01*
X1336649Y1357477D01*
X1337056Y1365402D01*
X1337208Y1374343D01*
X1337056Y1383284D01*
X1336649Y1391208D01*
X1335887Y1398168D01*
X1334820Y1404213D01*
X1333449Y1409395D01*
X1331620Y1413764D01*
X1329486Y1417370D01*
X1326896Y1420164D01*
X1323848Y1422298D01*
X1320342Y1423771D01*
X1316380Y1424584D01*
G37*
G36*
X1387703Y1424889D02*
G01*
X1383436Y1424381D01*
X1378762Y1422958D01*
X1374241Y1420926D01*
X1370431Y1418437D01*
X1367942Y1416253D01*
X1366012Y1413967D01*
X1364589Y1411173D01*
X1363624Y1407414D01*
X1363014Y1402283D01*
X1362659Y1395323D01*
X1362456Y1374343D01*
X1362862Y1356055D01*
X1363472Y1348790D01*
X1364386Y1342644D01*
X1365605Y1337513D01*
X1367231Y1333347D01*
X1369314Y1330096D01*
X1371854Y1327607D01*
X1374952Y1325778D01*
X1378610Y1324610D01*
X1382826Y1324000D01*
X1387703Y1323797D01*
X1392580Y1324000D01*
X1396847Y1324610D01*
X1400505Y1325778D01*
X1403553Y1327607D01*
X1406093Y1330096D01*
X1408176Y1333347D01*
X1409852Y1337513D01*
X1411071Y1342644D01*
X1411986Y1348790D01*
X1412544Y1356055D01*
X1412900Y1364538D01*
X1412900Y1384096D01*
X1412544Y1392580D01*
X1411986Y1399844D01*
X1411071Y1405991D01*
X1409852Y1411122D01*
X1408176Y1415288D01*
X1406093Y1418590D01*
X1403553Y1421079D01*
X1400505Y1422857D01*
X1396847Y1424025D01*
X1392580Y1424686D01*
G37*
G36*
X1463548Y1424889D02*
G01*
X1459484Y1424228D01*
X1454962Y1422450D01*
X1450441Y1419809D01*
X1446530Y1416608D01*
X1443939Y1413865D01*
X1442008Y1411173D01*
X1440535Y1408176D01*
X1439519Y1404416D01*
X1438859Y1399540D01*
X1438452Y1393190D01*
X1438249Y1374343D01*
X1438402Y1365402D01*
X1438808Y1357477D01*
X1439570Y1350467D01*
X1440637Y1344422D01*
X1442008Y1339240D01*
X1443786Y1334871D01*
X1445971Y1331315D01*
X1448562Y1328470D01*
X1451610Y1326388D01*
X1455115Y1324914D01*
X1459077Y1324051D01*
X1463548Y1323797D01*
X1468018Y1324051D01*
X1471980Y1324914D01*
X1475435Y1326388D01*
X1478483Y1328470D01*
X1481074Y1331315D01*
X1483258Y1334871D01*
X1485036Y1339240D01*
X1486458Y1344422D01*
X1487474Y1350467D01*
X1488236Y1357477D01*
X1488643Y1365402D01*
X1488795Y1374343D01*
X1488643Y1383284D01*
X1488236Y1391208D01*
X1487474Y1398168D01*
X1486458Y1404213D01*
X1485036Y1409395D01*
X1483258Y1413764D01*
X1481074Y1417370D01*
X1478483Y1420164D01*
X1475435Y1422298D01*
X1471980Y1423771D01*
X1468018Y1424584D01*
G37*
G36*
X1435608Y961694D02*
G01*
X1435608Y952753D01*
X1470456Y952753D01*
X1477213Y952449D01*
X1482902Y951484D01*
X1487779Y949553D01*
X1492046Y946505D01*
X1495958Y942187D01*
X1499666Y936345D01*
X1503426Y928827D01*
X1507490Y919429D01*
X1521104Y886104D01*
X1533448Y912774D01*
X1538071Y923645D01*
X1541627Y933551D01*
X1543812Y941374D01*
X1544116Y946048D01*
X1545793Y948690D01*
X1551432Y950772D01*
X1560169Y952246D01*
X1571193Y952753D01*
X1599844Y952753D01*
X1599844Y890371D01*
X1603654Y890371D01*
X1603857Y895959D01*
X1604518Y901293D01*
X1605635Y906475D01*
X1607108Y911402D01*
X1608988Y916127D01*
X1611274Y920546D01*
X1613865Y924763D01*
X1616862Y928725D01*
X1620113Y932434D01*
X1623720Y935837D01*
X1627632Y939037D01*
X1631797Y941882D01*
X1636217Y944473D01*
X1640890Y946759D01*
X1645767Y948740D01*
X1650898Y950417D01*
X1656181Y951737D01*
X1661668Y952753D01*
X1667357Y953465D01*
X1673148Y953820D01*
X1679092Y953820D01*
X1685137Y953465D01*
X1691233Y952753D01*
X1697482Y951636D01*
X1703781Y950214D01*
X1710131Y948334D01*
X1716481Y946099D01*
X1722882Y943457D01*
X1729130Y940562D01*
X1733804Y938072D01*
X1736902Y935786D01*
X1738528Y933450D01*
X1738782Y930960D01*
X1737715Y928065D01*
X1735378Y924560D01*
X1731924Y920292D01*
X1728165Y916178D01*
X1724914Y913282D01*
X1721815Y911606D01*
X1718665Y911148D01*
X1715109Y911961D01*
X1710994Y913993D01*
X1705914Y917346D01*
X1694281Y925677D01*
X1688896Y928522D01*
X1683613Y930503D01*
X1678432Y931671D01*
X1673453Y932078D01*
X1668678Y931671D01*
X1664157Y930554D01*
X1659940Y928674D01*
X1656029Y926134D01*
X1652524Y922883D01*
X1649425Y918971D01*
X1646834Y914400D01*
X1644700Y909269D01*
X1643125Y903528D01*
X1642830Y901598D01*
X1746504Y901598D01*
X1746757Y907694D01*
X1748078Y919429D01*
X1749145Y924966D01*
X1750466Y930148D01*
X1751990Y934923D01*
X1753819Y939292D01*
X1755902Y943152D01*
X1758188Y946454D01*
X1760778Y949147D01*
X1763522Y951128D01*
X1766570Y952347D01*
X1769821Y952753D01*
X1778355Y952449D01*
X1781606Y951839D01*
X1784248Y950671D01*
X1786280Y948944D01*
X1787855Y946403D01*
X1789023Y942949D01*
X1789836Y938428D01*
X1790344Y932738D01*
X1790801Y917143D01*
X1791004Y897534D01*
X1791512Y888796D01*
X1792427Y880821D01*
X1793595Y873607D01*
X1795119Y867206D01*
X1796948Y861618D01*
X1799082Y856843D01*
X1801469Y852982D01*
X1804111Y849934D01*
X1807057Y847801D01*
X1810156Y846582D01*
X1813560Y846277D01*
X1817116Y846937D01*
X1820925Y848563D01*
X1824888Y851103D01*
X1829003Y854710D01*
X1832254Y858418D01*
X1834845Y862736D01*
X1836877Y867816D01*
X1838350Y873810D01*
X1839315Y880871D01*
X1839722Y889152D01*
X1839671Y898753D01*
X1838452Y923391D01*
X1838198Y933703D01*
X1838604Y941273D01*
X1839772Y946556D01*
X1841906Y949909D01*
X1845208Y951788D01*
X1849729Y952601D01*
X1855724Y952753D01*
X1858213Y952347D01*
X1860550Y951077D01*
X1862683Y948994D01*
X1864664Y946251D01*
X1866442Y942848D01*
X1868017Y938834D01*
X1869439Y934313D01*
X1870659Y929386D01*
X1872538Y918311D01*
X1873605Y906170D01*
X1873808Y893470D01*
X1873656Y887069D01*
X1872589Y874420D01*
X1870659Y862533D01*
X1869338Y856996D01*
X1867763Y851814D01*
X1865985Y847090D01*
X1863953Y842822D01*
X1861667Y839114D01*
X1859483Y836726D01*
X1856536Y834644D01*
X1852828Y832866D01*
X1848510Y831342D01*
X1843633Y830122D01*
X1838350Y829157D01*
X1832610Y828446D01*
X1820468Y827836D01*
X1814118Y827938D01*
X1801469Y828954D01*
X1795322Y829818D01*
X1789328Y830935D01*
X1783689Y832307D01*
X1778406Y833882D01*
X1773580Y835761D01*
X1769313Y837844D01*
X1765655Y840181D01*
X1762760Y842721D01*
X1759762Y846328D01*
X1757121Y850442D01*
X1754733Y855065D01*
X1752701Y860094D01*
X1750923Y865479D01*
X1749450Y871118D01*
X1748282Y877011D01*
X1747418Y883056D01*
X1746859Y889203D01*
X1746504Y901598D01*
X1642830Y901598D01*
X1642160Y897229D01*
X1641856Y890371D01*
X1642160Y883564D01*
X1643125Y877265D01*
X1644700Y871524D01*
X1646783Y866394D01*
X1649425Y861821D01*
X1652473Y857910D01*
X1655978Y854659D01*
X1659889Y852068D01*
X1664055Y850188D01*
X1668576Y849020D01*
X1673352Y848614D01*
X1678279Y848918D01*
X1683410Y850087D01*
X1688642Y852017D01*
X1693976Y854811D01*
X1699361Y858469D01*
X1704949Y862584D01*
X1709724Y865581D01*
X1713890Y867562D01*
X1717598Y868527D01*
X1720951Y868527D01*
X1724152Y867511D01*
X1727352Y865530D01*
X1730705Y862634D01*
X1733296Y859586D01*
X1734820Y856538D01*
X1735328Y853490D01*
X1734870Y850493D01*
X1733499Y847598D01*
X1731314Y844753D01*
X1728266Y842111D01*
X1724456Y839571D01*
X1719884Y837184D01*
X1714703Y835050D01*
X1708861Y833170D01*
X1702409Y831545D01*
X1695500Y830224D01*
X1688033Y829208D01*
X1680210Y828548D01*
X1671929Y828294D01*
X1665732Y828395D01*
X1659737Y828852D01*
X1653997Y829716D01*
X1648561Y830834D01*
X1643380Y832358D01*
X1638503Y834186D01*
X1633931Y836320D01*
X1629613Y838758D01*
X1625600Y841552D01*
X1621891Y844600D01*
X1618538Y847953D01*
X1615490Y851611D01*
X1612798Y855522D01*
X1610410Y859739D01*
X1608378Y864209D01*
X1606702Y868934D01*
X1605381Y873912D01*
X1604416Y879144D01*
X1603857Y884631D01*
X1603654Y890371D01*
X1599844Y890371D01*
X1599844Y827989D01*
X1569008Y828090D01*
X1563420Y828649D01*
X1559407Y829970D01*
X1556766Y832256D01*
X1555292Y835812D01*
X1554734Y840943D01*
X1555038Y847902D01*
X1558899Y885901D01*
X1537512Y848664D01*
X1533245Y841908D01*
X1529435Y836676D01*
X1525981Y832916D01*
X1522730Y830681D01*
X1519631Y829919D01*
X1516481Y830681D01*
X1513281Y832916D01*
X1509826Y836676D01*
X1506016Y841908D01*
X1501749Y848664D01*
X1480362Y885901D01*
X1484172Y848207D01*
X1484426Y841400D01*
X1484020Y836320D01*
X1482750Y832662D01*
X1480515Y830224D01*
X1477213Y828802D01*
X1472641Y828141D01*
X1462278Y828040D01*
X1458569Y828344D01*
X1455521Y829106D01*
X1453083Y830580D01*
X1451152Y832866D01*
X1449679Y836269D01*
X1448612Y840892D01*
X1447850Y847039D01*
X1447393Y854811D01*
X1447088Y876300D01*
X1447038Y952753D01*
X1435608Y952753D01*
X1435608Y819048D01*
X1893925Y819048D01*
X1893925Y961694D01*
G37*
G36*
X981151Y958900D02*
G01*
X979779Y958799D01*
X978408Y958138D01*
X977036Y956919D01*
X975715Y955040D01*
X974496Y952601D01*
X973277Y949502D01*
X971143Y941374D01*
X969416Y930656D01*
X968146Y917194D01*
X965809Y881634D01*
X929538Y923188D01*
X919276Y934212D01*
X910437Y942746D01*
X906475Y946048D01*
X902817Y948690D01*
X899515Y950671D01*
X896467Y952042D01*
X893724Y952753D01*
X891235Y952753D01*
X889000Y952144D01*
X886968Y950823D01*
X885240Y948842D01*
X883666Y946150D01*
X882345Y942797D01*
X881227Y938733D01*
X879500Y928471D01*
X878484Y915416D01*
X877976Y899464D01*
X877976Y877824D01*
X878433Y857910D01*
X878840Y850239D01*
X879500Y843991D01*
X880313Y838962D01*
X881430Y835101D01*
X882802Y832154D01*
X884428Y830122D01*
X886460Y828852D01*
X888796Y828141D01*
X891489Y827989D01*
X895299Y828294D01*
X898245Y829411D01*
X900430Y831443D01*
X901953Y834745D01*
X902817Y839368D01*
X903071Y845616D01*
X902868Y853592D01*
X901598Y871524D01*
X901395Y878382D01*
X901496Y884174D01*
X901953Y888898D01*
X902766Y892606D01*
X903986Y895248D01*
X905560Y896823D01*
X907643Y897331D01*
X910132Y896823D01*
X913079Y895248D01*
X916584Y892606D01*
X920546Y888898D01*
X925068Y884174D01*
X935736Y871524D01*
X947115Y857046D01*
X956513Y845870D01*
X964742Y837285D01*
X968400Y833932D01*
X971803Y831291D01*
X974953Y829259D01*
X977849Y827938D01*
X980490Y827278D01*
X982929Y827278D01*
X985113Y827938D01*
X987044Y829310D01*
X988821Y831342D01*
X990346Y834085D01*
X991717Y837488D01*
X992835Y841603D01*
X993851Y846429D01*
X995273Y858215D01*
X996086Y872845D01*
X996340Y890371D01*
X995984Y905357D01*
X995019Y918667D01*
X993495Y930249D01*
X991565Y940003D01*
X989228Y947826D01*
X988009Y950976D01*
X986688Y953668D01*
X985316Y955802D01*
X983945Y957376D01*
X982573Y958392D01*
G37*
G36*
X1172057Y952753D02*
G01*
X1172057Y880160D01*
X1198778Y880160D01*
X1198778Y890371D01*
X1199032Y897178D01*
X1199743Y903528D01*
X1200861Y909421D01*
X1202385Y914857D01*
X1204315Y919784D01*
X1206550Y924255D01*
X1209141Y928166D01*
X1211986Y931519D01*
X1215136Y934364D01*
X1218488Y936599D01*
X1222044Y938276D01*
X1225753Y939342D01*
X1229614Y939800D01*
X1233627Y939596D01*
X1237691Y938784D01*
X1241806Y937260D01*
X1245971Y935075D01*
X1250137Y932180D01*
X1254302Y928573D01*
X1258366Y924255D01*
X1261922Y919530D01*
X1264767Y914653D01*
X1267002Y909574D01*
X1268577Y904392D01*
X1269492Y899160D01*
X1269847Y893876D01*
X1269644Y888644D01*
X1268831Y883513D01*
X1267510Y878484D01*
X1265682Y873607D01*
X1263396Y868984D01*
X1260602Y864666D01*
X1257350Y860653D01*
X1253693Y856996D01*
X1249629Y853795D01*
X1245158Y851052D01*
X1240383Y848817D01*
X1235202Y847140D01*
X1229766Y846124D01*
X1223975Y845769D01*
X1213408Y846023D01*
X1209446Y846480D01*
X1206296Y847445D01*
X1203807Y849020D01*
X1201928Y851408D01*
X1200607Y854659D01*
X1199743Y859028D01*
X1199184Y864616D01*
X1198778Y880160D01*
X1172057Y880160D01*
X1172057Y827989D01*
X1218793Y828243D01*
X1226718Y828598D01*
X1234084Y829208D01*
X1240840Y830071D01*
X1247089Y831189D01*
X1252778Y832561D01*
X1257960Y834288D01*
X1262634Y836320D01*
X1266799Y838657D01*
X1270558Y841349D01*
X1273860Y844397D01*
X1276756Y847801D01*
X1279194Y851611D01*
X1281277Y855827D01*
X1283004Y860450D01*
X1284325Y865530D01*
X1285392Y871016D01*
X1286103Y876960D01*
X1286510Y883412D01*
X1286510Y897280D01*
X1286103Y903732D01*
X1285392Y909675D01*
X1284325Y915212D01*
X1283004Y920242D01*
X1281277Y924864D01*
X1279194Y929081D01*
X1276756Y932891D01*
X1273860Y936345D01*
X1270558Y939393D01*
X1266799Y942086D01*
X1262634Y944422D01*
X1257960Y946454D01*
X1252778Y948131D01*
X1247089Y949553D01*
X1240840Y950671D01*
X1234084Y951534D01*
X1226718Y952144D01*
X1210259Y952652D01*
G37*
G36*
X1313383Y952753D02*
G01*
X1313383Y827989D01*
X1377899Y828141D01*
X1388110Y828649D01*
X1397203Y829462D01*
X1405026Y830529D01*
X1411427Y831799D01*
X1416253Y833323D01*
X1419250Y835050D01*
X1420317Y836879D01*
X1419555Y838657D01*
X1417320Y840333D01*
X1413764Y841857D01*
X1409090Y843178D01*
X1403451Y844245D01*
X1396949Y845108D01*
X1389786Y845616D01*
X1370228Y845870D01*
X1361135Y846328D01*
X1354378Y847344D01*
X1349654Y849121D01*
X1346606Y851865D01*
X1344879Y855827D01*
X1344117Y861161D01*
X1343914Y868070D01*
X1344117Y874623D01*
X1344828Y879805D01*
X1346200Y883716D01*
X1348486Y886561D01*
X1351889Y888441D01*
X1356614Y889609D01*
X1362760Y890219D01*
X1370685Y890371D01*
X1381048Y891082D01*
X1389532Y892962D01*
X1395272Y895807D01*
X1397406Y899261D01*
X1395272Y902716D01*
X1389532Y905560D01*
X1381048Y907491D01*
X1358595Y908964D01*
X1350264Y911352D01*
X1345488Y915517D01*
X1343914Y921562D01*
X1344371Y925017D01*
X1345844Y927912D01*
X1348384Y930249D01*
X1352194Y932027D01*
X1357376Y933348D01*
X1363980Y934262D01*
X1372209Y934770D01*
X1389786Y935126D01*
X1396949Y935634D01*
X1403451Y936447D01*
X1409090Y937564D01*
X1413764Y938885D01*
X1417320Y940358D01*
X1419555Y942035D01*
X1420317Y943864D01*
X1419250Y945692D01*
X1416253Y947369D01*
X1411427Y948893D01*
X1405026Y950214D01*
X1397203Y951280D01*
X1388110Y952093D01*
X1377899Y952601D01*
G37*
G36*
X1084580Y949655D02*
G01*
X1078839Y949248D01*
X1073048Y948385D01*
X1067104Y947013D01*
X1061110Y945184D01*
X1055065Y942848D01*
X1049020Y940003D01*
X1044549Y937514D01*
X1040434Y934770D01*
X1036675Y931824D01*
X1033322Y928674D01*
X1030376Y925321D01*
X1027734Y921816D01*
X1025448Y918159D01*
X1023518Y914349D01*
X1021943Y910437D01*
X1020673Y906475D01*
X1019759Y902411D01*
X1019149Y898296D01*
X1018895Y894130D01*
X1018940Y890371D01*
X1046022Y890371D01*
X1046276Y896518D01*
X1047089Y902309D01*
X1048410Y907694D01*
X1050239Y912672D01*
X1052423Y917194D01*
X1055065Y921258D01*
X1058011Y924915D01*
X1061262Y928014D01*
X1064768Y930656D01*
X1068527Y932738D01*
X1072489Y934313D01*
X1076604Y935329D01*
X1080820Y935736D01*
X1085138Y935532D01*
X1089456Y934770D01*
X1093825Y933348D01*
X1098092Y931265D01*
X1102309Y928522D01*
X1106424Y925068D01*
X1110386Y920902D01*
X1113688Y916533D01*
X1116380Y911961D01*
X1118514Y907186D01*
X1120038Y902258D01*
X1121003Y897280D01*
X1121460Y892251D01*
X1121359Y887221D01*
X1120749Y882243D01*
X1119682Y877417D01*
X1118108Y872744D01*
X1116126Y868273D01*
X1113739Y864108D01*
X1110894Y860196D01*
X1107694Y856691D01*
X1104138Y853541D01*
X1100175Y850900D01*
X1095959Y848715D01*
X1091387Y847140D01*
X1086510Y846124D01*
X1081379Y845769D01*
X1075944Y846124D01*
X1070914Y847140D01*
X1066342Y848766D01*
X1062177Y851052D01*
X1058468Y853897D01*
X1055217Y857402D01*
X1052423Y861517D01*
X1050137Y866190D01*
X1048359Y871423D01*
X1047038Y877214D01*
X1046276Y883513D01*
X1046022Y890371D01*
X1018940Y890371D01*
X1019251Y885698D01*
X1020826Y877366D01*
X1023569Y869238D01*
X1025347Y865276D01*
X1029716Y857707D01*
X1032306Y854100D01*
X1035151Y850646D01*
X1038199Y847394D01*
X1045057Y841451D01*
X1048867Y838809D01*
X1052880Y836421D01*
X1057097Y834288D01*
X1061516Y832408D01*
X1066139Y830884D01*
X1070965Y829614D01*
X1075994Y828700D01*
X1081227Y828141D01*
X1086612Y827989D01*
X1091895Y828344D01*
X1097229Y829411D01*
X1102461Y831138D01*
X1107643Y833526D01*
X1112723Y836421D01*
X1117549Y839825D01*
X1122172Y843686D01*
X1126540Y847953D01*
X1130554Y852525D01*
X1134160Y857453D01*
X1137361Y862634D01*
X1140104Y867968D01*
X1142288Y873506D01*
X1143914Y879094D01*
X1144981Y884732D01*
X1145286Y890371D01*
X1145082Y896467D01*
X1144320Y902258D01*
X1143152Y907796D01*
X1141526Y913028D01*
X1139494Y917956D01*
X1137107Y922578D01*
X1134313Y926846D01*
X1131163Y930808D01*
X1127658Y934415D01*
X1123848Y937717D01*
X1119733Y940562D01*
X1115364Y943102D01*
X1110742Y945235D01*
X1105916Y946962D01*
X1100836Y948283D01*
X1095603Y949147D01*
X1090168Y949655D01*
G37*
D10*
X508000Y8878562D02*
G01*
X508000Y8733274D01*
X508000Y8878562D02*
G01*
X570229Y8878562D01*
X591057Y8871704D01*
X598170Y8864846D01*
X605028Y8850876D01*
X605028Y8830302D01*
X598170Y8816332D01*
X591057Y8809474D01*
X570229Y8802362D01*
X508000Y8802362D01*
X650747Y8795504D02*
G01*
X775462Y8795504D01*
X1612900Y8878562D02*
G01*
X1612900Y8733274D01*
X1612900Y8878562D02*
G01*
X1675129Y8878562D01*
X1695957Y8871704D01*
X1703070Y8864846D01*
X1709928Y8850876D01*
X1709928Y8830302D01*
X1703070Y8816332D01*
X1695957Y8809474D01*
X1675129Y8802362D01*
X1612900Y8802362D01*
X1817878Y8857988D02*
G01*
X1817878Y8733274D01*
X1755647Y8795504D02*
G01*
X1880362Y8795504D01*
X2032000Y8891262D02*
G01*
X2032000Y8745974D01*
X2032000Y8891262D02*
G01*
X2094229Y8891262D01*
X2115058Y8884404D01*
X2122170Y8877546D01*
X2129027Y8863576D01*
X2129027Y8849860D01*
X2122170Y8835890D01*
X2115058Y8829032D01*
X2094229Y8822174D01*
X2032000Y8822174D02*
G01*
X2094229Y8822174D01*
X2115058Y8815062D01*
X2122170Y8808204D01*
X2129027Y8794488D01*
X2129027Y8773660D01*
X2122170Y8759690D01*
X2115058Y8752832D01*
X2094229Y8745974D01*
X2032000Y8745974D01*
X2174747Y8808204D02*
G01*
X2299461Y8808204D01*
X3136900Y8865870D02*
G01*
X3136900Y8720581D01*
X3136900Y8865870D02*
G01*
X3199129Y8865870D01*
X3219958Y8859012D01*
X3227070Y8852154D01*
X3233927Y8838184D01*
X3233927Y8824468D01*
X3227070Y8810497D01*
X3219958Y8803639D01*
X3199129Y8796781D01*
X3136900Y8796781D02*
G01*
X3199129Y8796781D01*
X3219958Y8789670D01*
X3227070Y8782812D01*
X3233927Y8769095D01*
X3233927Y8748268D01*
X3227070Y8734297D01*
X3219958Y8727439D01*
X3199129Y8720581D01*
X3136900Y8720581D01*
X3341877Y8845295D02*
G01*
X3341877Y8720581D01*
X3279647Y8782812D02*
G01*
X3404361Y8782812D01*
X101600Y8317484D02*
G01*
X101600Y8174228D01*
X101600Y8317484D02*
G01*
X156210Y8174228D01*
X210565Y8317484D02*
G01*
X156210Y8174228D01*
X210565Y8317484D02*
G01*
X210565Y8174228D01*
X337565Y8269731D02*
G01*
X337565Y8174228D01*
X337565Y8249158D02*
G01*
X323850Y8262873D01*
X310134Y8269731D01*
X289813Y8269731D01*
X276097Y8262873D01*
X262381Y8249158D01*
X255778Y8228837D01*
X255778Y8215121D01*
X262381Y8194802D01*
X276097Y8181086D01*
X289813Y8174228D01*
X310134Y8174228D01*
X323850Y8181086D01*
X337565Y8194802D01*
X402844Y8317484D02*
G01*
X402844Y8201660D01*
X409702Y8181086D01*
X423418Y8174228D01*
X437134Y8174228D01*
X382523Y8269731D02*
G01*
X430276Y8269731D01*
X482092Y8269731D02*
G01*
X482092Y8126476D01*
X482092Y8249158D02*
G01*
X495807Y8262873D01*
X509270Y8269731D01*
X529844Y8269731D01*
X543305Y8262873D01*
X557021Y8249158D01*
X563879Y8228837D01*
X563879Y8215121D01*
X557021Y8194802D01*
X543305Y8181086D01*
X529844Y8174228D01*
X509270Y8174228D01*
X495807Y8181086D01*
X482092Y8194802D01*
X608837Y8290305D02*
G01*
X622554Y8296910D01*
X642873Y8317484D01*
X642873Y8174228D01*
X728979Y8317484D02*
G01*
X708405Y8310626D01*
X694689Y8290305D01*
X688086Y8256015D01*
X688086Y8235695D01*
X694689Y8201660D01*
X708405Y8181086D01*
X728979Y8174228D01*
X742442Y8174228D01*
X763015Y8181086D01*
X776478Y8201660D01*
X783336Y8235695D01*
X783336Y8256015D01*
X776478Y8290305D01*
X763015Y8310626D01*
X742442Y8317484D01*
X728979Y8317484D01*
X828294Y8290305D02*
G01*
X842010Y8296910D01*
X862584Y8317484D01*
X862584Y8174228D01*
X1541564Y8085581D02*
G01*
X1537246Y8094726D01*
X1528102Y8103615D01*
X1518958Y8108187D01*
X1500670Y8108187D01*
X1491780Y8103615D01*
X1482636Y8094726D01*
X1478064Y8085581D01*
X1473492Y8071865D01*
X1473492Y8049260D01*
X1478064Y8035544D01*
X1482636Y8026400D01*
X1491780Y8017255D01*
X1500670Y8012684D01*
X1518958Y8012684D01*
X1528102Y8017255D01*
X1537246Y8026400D01*
X1541564Y8035544D01*
X1541564Y8049260D01*
X1518958Y8049260D02*
G01*
X1541564Y8049260D01*
X1571790Y8108187D02*
G01*
X1571790Y8012684D01*
X1571790Y8108187D02*
G01*
X1635290Y8012684D01*
X1635290Y8108187D02*
G01*
X1635290Y8012684D01*
X1665262Y8108187D02*
G01*
X1665262Y8012684D01*
X1665262Y8108187D02*
G01*
X1697012Y8108187D01*
X1710728Y8103615D01*
X1719872Y8094726D01*
X1724444Y8085581D01*
X1729016Y8071865D01*
X1729016Y8049260D01*
X1724444Y8035544D01*
X1719872Y8026400D01*
X1710728Y8017255D01*
X1697012Y8012684D01*
X1665262Y8012684D01*
X2038896Y8108187D02*
G01*
X2038896Y8012684D01*
X2038896Y8108187D02*
G01*
X2079790Y8108187D01*
X2093506Y8103615D01*
X2098078Y8099044D01*
X2102650Y8090154D01*
X2102650Y8081010D01*
X2098078Y8071865D01*
X2093506Y8067294D01*
X2079790Y8062721D01*
X2038896Y8062721D02*
G01*
X2079790Y8062721D01*
X2093506Y8058150D01*
X2098078Y8053831D01*
X2102650Y8044687D01*
X2102650Y8030971D01*
X2098078Y8021828D01*
X2093506Y8017255D01*
X2079790Y8012684D01*
X2038896Y8012684D01*
X2132622Y8053831D02*
G01*
X2214410Y8053831D01*
X3099561Y4648200D02*
G01*
X3195065Y4684521D01*
X3099561Y4720844D02*
G01*
X3195065Y4684521D01*
X3099561Y4778247D02*
G01*
X3104134Y4769104D01*
X3113024Y4759960D01*
X3122168Y4755387D01*
X3135884Y4750815D01*
X3158490Y4750815D01*
X3172206Y4755387D01*
X3181350Y4759960D01*
X3190493Y4769104D01*
X3195065Y4778247D01*
X3195065Y4796281D01*
X3190493Y4805426D01*
X3181350Y4814570D01*
X3172206Y4819142D01*
X3158490Y4823713D01*
X3135884Y4823713D01*
X3122168Y4819142D01*
X3113024Y4814570D01*
X3104134Y4805426D01*
X3099561Y4796281D01*
X3099561Y4778247D01*
X3099561Y4853686D02*
G01*
X3195065Y4853686D01*
X3195065Y4853686D02*
G01*
X3195065Y4908295D01*
X3099561Y4970018D02*
G01*
X3195065Y4970018D01*
X3099561Y4938268D02*
G01*
X3099561Y5001768D01*
X3668268Y4766304D02*
G01*
X3659124Y4761986D01*
X3650234Y4752842D01*
X3645661Y4743698D01*
X3645661Y4725410D01*
X3650234Y4716520D01*
X3659124Y4707376D01*
X3668268Y4702804D01*
X3681984Y4698232D01*
X3704590Y4698232D01*
X3718306Y4702804D01*
X3727450Y4707376D01*
X3736593Y4716520D01*
X3741165Y4725410D01*
X3741165Y4743698D01*
X3736593Y4752842D01*
X3727450Y4761986D01*
X3718306Y4766304D01*
X3645661Y4796530D02*
G01*
X3713734Y4796530D01*
X3727450Y4800848D01*
X3736593Y4809992D01*
X3741165Y4823708D01*
X3741165Y4832852D01*
X3736593Y4846314D01*
X3727450Y4855458D01*
X3713734Y4860030D01*
X3645661Y4860030D01*
X3645661Y4890002D02*
G01*
X3741165Y4890002D01*
X3645661Y4890002D02*
G01*
X3645661Y4930896D01*
X3650234Y4944612D01*
X3654806Y4949184D01*
X3663695Y4953756D01*
X3672840Y4953756D01*
X3681984Y4949184D01*
X3686556Y4944612D01*
X3691127Y4930896D01*
X3691127Y4890002D01*
X3691127Y4921752D02*
G01*
X3741165Y4953756D01*
D11*
X2958084Y4821938D02*
G01*
X3041141Y4821938D01*
X3056890Y4816604D01*
X3061970Y4811524D01*
X3067050Y4801110D01*
X3067050Y4790696D01*
X3061970Y4780282D01*
X3056890Y4774948D01*
X3041141Y4769868D01*
X3030727Y4769868D01*
X2958084Y4866388D02*
G01*
X2958084Y4923538D01*
X2999740Y4892550D01*
X2999740Y4908044D01*
X3004820Y4918458D01*
X3009900Y4923538D01*
X3025647Y4928872D01*
X3036061Y4928872D01*
X3051556Y4923538D01*
X3061970Y4913378D01*
X3067050Y4897630D01*
X3067050Y4882136D01*
X3061970Y4866388D01*
X3056890Y4861308D01*
X3046475Y4856228D01*
X3644900Y2748787D02*
G01*
X3655313Y2754121D01*
X3670808Y2769615D01*
X3670808Y2660650D01*
X2821177Y3188207D02*
G01*
X2815843Y3198621D01*
X2805429Y3209036D01*
X2795270Y3214115D01*
X2774441Y3214115D01*
X2764027Y3209036D01*
X2753613Y3198621D01*
X2748279Y3188207D01*
X2743200Y3172460D01*
X2743200Y3146552D01*
X2748279Y3131057D01*
X2753613Y3120644D01*
X2764027Y3110229D01*
X2774441Y3105150D01*
X2795270Y3105150D01*
X2805429Y3110229D01*
X2815843Y3120644D01*
X2821177Y3131057D01*
X2865881Y3214115D02*
G01*
X2923031Y3214115D01*
X2891790Y3172460D01*
X2907284Y3172460D01*
X2917697Y3167379D01*
X2923031Y3162300D01*
X2928111Y3146552D01*
X2928111Y3136137D01*
X2923031Y3120644D01*
X2912618Y3110229D01*
X2896870Y3105150D01*
X2881375Y3105150D01*
X2865881Y3110229D01*
X2860547Y3115310D01*
X2855468Y3125723D01*
X1842770Y7938515D02*
G01*
X1842770Y7855458D01*
X1837436Y7839710D01*
X1832355Y7834629D01*
X1821942Y7829550D01*
X1811528Y7829550D01*
X1801113Y7834629D01*
X1795779Y7839710D01*
X1790700Y7855458D01*
X1790700Y7865871D01*
X1877060Y7917687D02*
G01*
X1887220Y7923021D01*
X1902968Y7938515D01*
X1902968Y7829550D01*
X3504184Y4776470D02*
G01*
X3587241Y4776470D01*
X3602990Y4771136D01*
X3608070Y4766055D01*
X3613150Y4755642D01*
X3613150Y4745228D01*
X3608070Y4734813D01*
X3602990Y4729479D01*
X3587241Y4724400D01*
X3576827Y4724400D01*
X3530091Y4815839D02*
G01*
X3525011Y4815839D01*
X3514597Y4820920D01*
X3509263Y4826254D01*
X3504184Y4836668D01*
X3504184Y4857495D01*
X3509263Y4867910D01*
X3514597Y4872989D01*
X3525011Y4878070D01*
X3535425Y4878070D01*
X3545840Y4872989D01*
X3561334Y4862576D01*
X3613150Y4810760D01*
X3613150Y4883404D01*
X2972815Y4076700D02*
G01*
X2863850Y4076700D01*
X2972815Y4076700D02*
G01*
X2972815Y4029963D01*
X2967736Y4014470D01*
X2962402Y4009136D01*
X2951988Y4004055D01*
X2941574Y4004055D01*
X2931159Y4009136D01*
X2926079Y4014470D01*
X2921000Y4029963D01*
X2921000Y4076700D01*
X2921000Y4040378D02*
G01*
X2863850Y4004055D01*
X2972815Y3959352D02*
G01*
X2972815Y3902202D01*
X2931159Y3933189D01*
X2931159Y3917695D01*
X2926079Y3907281D01*
X2921000Y3902202D01*
X2905252Y3896868D01*
X2894838Y3896868D01*
X2879343Y3902202D01*
X2868929Y3912615D01*
X2863850Y3928110D01*
X2863850Y3943604D01*
X2868929Y3959352D01*
X2874009Y3964431D01*
X2884424Y3969765D01*
X2451074Y8586292D02*
G01*
X2451074Y8508314D01*
X2456408Y8492820D01*
X2466568Y8482406D01*
X2482316Y8477072D01*
X2492730Y8477072D01*
X2508224Y8482406D01*
X2518638Y8492820D01*
X2523718Y8508314D01*
X2523718Y8586292D01*
X2620492Y8586292D02*
G01*
X2568422Y8586292D01*
X2563342Y8539556D01*
X2568422Y8544636D01*
X2584170Y8549970D01*
X2599664Y8549970D01*
X2615158Y8544636D01*
X2625572Y8534222D01*
X2630906Y8518728D01*
X2630906Y8508314D01*
X2625572Y8492820D01*
X2615158Y8482406D01*
X2599664Y8477072D01*
X2584170Y8477072D01*
X2568422Y8482406D01*
X2563342Y8487486D01*
X2558008Y8497900D01*
X736676Y8586215D02*
G01*
X736676Y8508237D01*
X741756Y8492744D01*
X752170Y8482329D01*
X767664Y8477250D01*
X778078Y8477250D01*
X793826Y8482329D01*
X804240Y8492744D01*
X809320Y8508237D01*
X809320Y8586215D01*
X906094Y8570721D02*
G01*
X900760Y8581136D01*
X885266Y8586215D01*
X874852Y8586215D01*
X859104Y8581136D01*
X848944Y8565387D01*
X843610Y8539479D01*
X843610Y8513571D01*
X848944Y8492744D01*
X859104Y8482329D01*
X874852Y8477250D01*
X879932Y8477250D01*
X895680Y8482329D01*
X906094Y8492744D01*
X911174Y8508237D01*
X911174Y8513571D01*
X906094Y8529065D01*
X895680Y8539479D01*
X879932Y8544560D01*
X874852Y8544560D01*
X859104Y8539479D01*
X848944Y8529065D01*
X843610Y8513571D01*
X1282700Y8586215D02*
G01*
X1282700Y8508237D01*
X1287779Y8492744D01*
X1298194Y8482329D01*
X1313942Y8477250D01*
X1324355Y8477250D01*
X1339850Y8482329D01*
X1350263Y8492744D01*
X1355344Y8508237D01*
X1355344Y8586215D01*
X1415795Y8586215D02*
G01*
X1400047Y8581136D01*
X1394968Y8570721D01*
X1394968Y8560308D01*
X1400047Y8549894D01*
X1410462Y8544560D01*
X1431289Y8539479D01*
X1446784Y8534400D01*
X1457197Y8523986D01*
X1462531Y8513571D01*
X1462531Y8497824D01*
X1457197Y8487410D01*
X1452118Y8482329D01*
X1436370Y8477250D01*
X1415795Y8477250D01*
X1400047Y8482329D01*
X1394968Y8487410D01*
X1389634Y8497824D01*
X1389634Y8513571D01*
X1394968Y8523986D01*
X1405381Y8534400D01*
X1420876Y8539479D01*
X1441704Y8544560D01*
X1452118Y8549894D01*
X1457197Y8560308D01*
X1457197Y8570721D01*
X1452118Y8581136D01*
X1436370Y8586215D01*
X1415795Y8586215D01*
X3022597Y8586228D02*
G01*
X3022597Y8508250D01*
X3027677Y8492756D01*
X3038091Y8482342D01*
X3053839Y8477262D01*
X3064253Y8477262D01*
X3079747Y8482342D01*
X3090161Y8492756D01*
X3095241Y8508250D01*
X3095241Y8586228D01*
X3197095Y8549906D02*
G01*
X3192015Y8534412D01*
X3181601Y8523998D01*
X3166107Y8518664D01*
X3160773Y8518664D01*
X3145279Y8523998D01*
X3134865Y8534412D01*
X3129531Y8549906D01*
X3129531Y8554986D01*
X3134865Y8570734D01*
X3145279Y8581148D01*
X3160773Y8586228D01*
X3166107Y8586228D01*
X3181601Y8581148D01*
X3192015Y8570734D01*
X3197095Y8549906D01*
X3197095Y8523998D01*
X3192015Y8497836D01*
X3181601Y8482342D01*
X3166107Y8477262D01*
X3155693Y8477262D01*
X3139945Y8482342D01*
X3134865Y8492756D01*
X787400Y7989315D02*
G01*
X787400Y7911337D01*
X792479Y7895844D01*
X802894Y7885429D01*
X818642Y7880350D01*
X829055Y7880350D01*
X844550Y7885429D01*
X854963Y7895844D01*
X860044Y7911337D01*
X860044Y7989315D01*
X967231Y7989315D02*
G01*
X915162Y7880350D01*
X894334Y7989315D02*
G01*
X967231Y7989315D01*
X2545841Y6262585D02*
G01*
X2535427Y6257251D01*
X2525013Y6246837D01*
X2519934Y6236677D01*
X2519934Y6215849D01*
X2525013Y6205435D01*
X2535427Y6195021D01*
X2545841Y6189687D01*
X2561590Y6184607D01*
X2587497Y6184607D01*
X2602991Y6189687D01*
X2613406Y6195021D01*
X2623820Y6205435D01*
X2628900Y6215849D01*
X2628900Y6236677D01*
X2623820Y6246837D01*
X2613406Y6257251D01*
X2602991Y6262585D01*
X2540761Y6296875D02*
G01*
X2535427Y6307289D01*
X2519934Y6322783D01*
X2628900Y6322783D01*
X3491991Y6447632D02*
G01*
X3481577Y6442298D01*
X3471163Y6431884D01*
X3466084Y6421724D01*
X3466084Y6400896D01*
X3471163Y6390482D01*
X3481577Y6380068D01*
X3491991Y6374734D01*
X3507740Y6369654D01*
X3533647Y6369654D01*
X3549141Y6374734D01*
X3559556Y6380068D01*
X3569970Y6390482D01*
X3575050Y6400896D01*
X3575050Y6421724D01*
X3569970Y6431884D01*
X3559556Y6442298D01*
X3549141Y6447632D01*
X3491991Y6487002D02*
G01*
X3486911Y6487002D01*
X3476497Y6492336D01*
X3471163Y6497416D01*
X3466084Y6507830D01*
X3466084Y6528658D01*
X3471163Y6539072D01*
X3476497Y6544152D01*
X3486911Y6549486D01*
X3497325Y6549486D01*
X3507740Y6544152D01*
X3523234Y6533738D01*
X3575050Y6481922D01*
X3575050Y6554566D01*
X3645923Y4089412D02*
G01*
X3536957Y4089412D01*
X3645923Y4089412D02*
G01*
X3645923Y4042676D01*
X3640843Y4027182D01*
X3635509Y4021848D01*
X3625095Y4016768D01*
X3614681Y4016768D01*
X3604267Y4021848D01*
X3599187Y4027182D01*
X3594107Y4042676D01*
X3594107Y4089412D01*
X3594107Y4053090D02*
G01*
X3536957Y4016768D01*
X3625095Y3982478D02*
G01*
X3630429Y3972064D01*
X3645923Y3956316D01*
X3536957Y3956316D01*
X3303023Y4090415D02*
G01*
X3194057Y4090415D01*
X3303023Y4090415D02*
G01*
X3303023Y4043679D01*
X3297943Y4028186D01*
X3292609Y4022852D01*
X3282195Y4017771D01*
X3271781Y4017771D01*
X3261367Y4022852D01*
X3256287Y4028186D01*
X3251207Y4043679D01*
X3251207Y4090415D01*
X3251207Y4054094D02*
G01*
X3194057Y4017771D01*
X3277115Y3978147D02*
G01*
X3282195Y3978147D01*
X3292609Y3973068D01*
X3297943Y3967734D01*
X3303023Y3957320D01*
X3303023Y3936745D01*
X3297943Y3926331D01*
X3292609Y3920997D01*
X3282195Y3915918D01*
X3271781Y3915918D01*
X3261367Y3920997D01*
X3245873Y3931412D01*
X3194057Y3983481D01*
X3194057Y3910584D01*
X1320800Y737615D02*
G01*
X1320800Y659637D01*
X1325879Y644144D01*
X1336294Y633729D01*
X1352042Y628650D01*
X1362455Y628650D01*
X1377950Y633729D01*
X1388363Y644144D01*
X1393444Y659637D01*
X1393444Y737615D01*
X1427734Y716787D02*
G01*
X1438147Y722121D01*
X1453895Y737615D01*
X1453895Y628650D01*
X754382Y2802384D02*
G01*
X754382Y2705356D01*
X754382Y2802384D02*
G01*
X814326Y2802384D01*
X754382Y2756156D02*
G01*
X791212Y2756156D01*
X754382Y2705356D02*
G01*
X814326Y2705356D01*
X909576Y2788668D02*
G01*
X900432Y2797812D01*
X886462Y2802384D01*
X867920Y2802384D01*
X854204Y2797812D01*
X844806Y2788668D01*
X844806Y2779270D01*
X849632Y2770126D01*
X854204Y2765554D01*
X863348Y2760982D01*
X891034Y2751584D01*
X900432Y2747012D01*
X905004Y2742440D01*
X909576Y2733042D01*
X909576Y2719326D01*
X900432Y2710182D01*
X886462Y2705356D01*
X867920Y2705356D01*
X854204Y2710182D01*
X844806Y2719326D01*
X940056Y2802384D02*
G01*
X940056Y2705356D01*
X940056Y2802384D02*
G01*
X981712Y2802384D01*
X995428Y2797812D01*
X1000000Y2793240D01*
X1004572Y2783842D01*
X1004572Y2770126D01*
X1000000Y2760982D01*
X995428Y2756156D01*
X981712Y2751584D01*
X940056Y2751584D01*
X1035052Y2747012D02*
G01*
X1118364Y2747012D01*
X1148844Y2802384D02*
G01*
X1171958Y2705356D01*
X1195072Y2802384D02*
G01*
X1171958Y2705356D01*
X1195072Y2802384D02*
G01*
X1217932Y2705356D01*
X1241046Y2802384D02*
G01*
X1217932Y2705356D01*
X1271526Y2802384D02*
G01*
X1271526Y2705356D01*
X1271526Y2802384D02*
G01*
X1313182Y2802384D01*
X1327152Y2797812D01*
X1331724Y2793240D01*
X1336296Y2783842D01*
X1336296Y2774698D01*
X1331724Y2765554D01*
X1327152Y2760982D01*
X1313182Y2756156D01*
X1271526Y2756156D01*
X1304038Y2756156D02*
G01*
X1336296Y2705356D01*
X1394462Y2802384D02*
G01*
X1385318Y2797812D01*
X1375920Y2788668D01*
X1371348Y2779270D01*
X1366776Y2765554D01*
X1366776Y2742440D01*
X1371348Y2728470D01*
X1375920Y2719326D01*
X1385318Y2710182D01*
X1394462Y2705356D01*
X1413004Y2705356D01*
X1422148Y2710182D01*
X1431292Y2719326D01*
X1436118Y2728470D01*
X1440690Y2742440D01*
X1440690Y2765554D01*
X1436118Y2779270D01*
X1431292Y2788668D01*
X1422148Y2797812D01*
X1413004Y2802384D01*
X1394462Y2802384D01*
X1498856Y2802384D02*
G01*
X1489712Y2797812D01*
X1480314Y2788668D01*
X1475742Y2779270D01*
X1471170Y2765554D01*
X1471170Y2742440D01*
X1475742Y2728470D01*
X1480314Y2719326D01*
X1489712Y2710182D01*
X1498856Y2705356D01*
X1517398Y2705356D01*
X1526542Y2710182D01*
X1535686Y2719326D01*
X1540512Y2728470D01*
X1545084Y2742440D01*
X1545084Y2765554D01*
X1540512Y2779270D01*
X1535686Y2788668D01*
X1526542Y2797812D01*
X1517398Y2802384D01*
X1498856Y2802384D01*
X1575564Y2802384D02*
G01*
X1575564Y2705356D01*
X1575564Y2802384D02*
G01*
X1612394Y2705356D01*
X1649478Y2802384D02*
G01*
X1612394Y2705356D01*
X1649478Y2802384D02*
G01*
X1649478Y2705356D01*
X1679958Y2747012D02*
G01*
X1763016Y2747012D01*
X1802640Y2802384D02*
G01*
X1853440Y2802384D01*
X1825754Y2765554D01*
X1839724Y2765554D01*
X1848868Y2760982D01*
X1853440Y2756156D01*
X1858012Y2742440D01*
X1858012Y2733042D01*
X1853440Y2719326D01*
X1844296Y2710182D01*
X1830326Y2705356D01*
X1816610Y2705356D01*
X1802640Y2710182D01*
X1798068Y2714754D01*
X1793496Y2723898D01*
X1893318Y2779270D02*
G01*
X1893318Y2783842D01*
X1897890Y2793240D01*
X1902462Y2797812D01*
X1911606Y2802384D01*
X1930148Y2802384D01*
X1939292Y2797812D01*
X1944118Y2793240D01*
X1948690Y2783842D01*
X1948690Y2774698D01*
X1944118Y2765554D01*
X1934720Y2751584D01*
X1888492Y2705356D01*
X1953262Y2705356D01*
D12*
X2304541Y438657D02*
G01*
X2377440Y438657D01*
X2304541Y438657D02*
G01*
X2304541Y462787D01*
X2308097Y473202D01*
X2314956Y480313D01*
X2322068Y483615D01*
X2332227Y487171D01*
X2349754Y487171D01*
X2360168Y483615D01*
X2367025Y480313D01*
X2373884Y473202D01*
X2377440Y462787D01*
X2377440Y438657D01*
X2349754Y510031D02*
G01*
X2349754Y551687D01*
X2342641Y551687D01*
X2335784Y548131D01*
X2332227Y544576D01*
X2328925Y537718D01*
X2328925Y527304D01*
X2332227Y520445D01*
X2339340Y513587D01*
X2349754Y510031D01*
X2356611Y510031D01*
X2367025Y513587D01*
X2373884Y520445D01*
X2377440Y527304D01*
X2377440Y537718D01*
X2373884Y544576D01*
X2367025Y551687D01*
X2339340Y612647D02*
G01*
X2332227Y609092D01*
X2328925Y598678D01*
X2328925Y588263D01*
X2332227Y577850D01*
X2339340Y574547D01*
X2346197Y577850D01*
X2349754Y584707D01*
X2353056Y602234D01*
X2356611Y609092D01*
X2363470Y612647D01*
X2367025Y612647D01*
X2373884Y609092D01*
X2377440Y598678D01*
X2377440Y588263D01*
X2373884Y577850D01*
X2367025Y574547D01*
X2304541Y635507D02*
G01*
X2308097Y638810D01*
X2304541Y642365D01*
X2301240Y638810D01*
X2304541Y635507D01*
X2328925Y638810D02*
G01*
X2377440Y638810D01*
X2328925Y706628D02*
G01*
X2384297Y706628D01*
X2394711Y703326D01*
X2398268Y699770D01*
X2401570Y692912D01*
X2401570Y682497D01*
X2398268Y675639D01*
X2339340Y706628D02*
G01*
X2332227Y699770D01*
X2328925Y692912D01*
X2328925Y682497D01*
X2332227Y675639D01*
X2339340Y668528D01*
X2349754Y665226D01*
X2356611Y665226D01*
X2367025Y668528D01*
X2373884Y675639D01*
X2377440Y682497D01*
X2377440Y692912D01*
X2373884Y699770D01*
X2367025Y706628D01*
X2328925Y729487D02*
G01*
X2377440Y729487D01*
X2342641Y729487D02*
G01*
X2332227Y739902D01*
X2328925Y747013D01*
X2328925Y757428D01*
X2332227Y764286D01*
X2342641Y767587D01*
X2377440Y767587D01*
X2349754Y790447D02*
G01*
X2349754Y832104D01*
X2342641Y832104D01*
X2335784Y828547D01*
X2332227Y825245D01*
X2328925Y818387D01*
X2328925Y807973D01*
X2332227Y800862D01*
X2339340Y794004D01*
X2349754Y790447D01*
X2356611Y790447D01*
X2367025Y794004D01*
X2373884Y800862D01*
X2377440Y807973D01*
X2377440Y818387D01*
X2373884Y825245D01*
X2367025Y832104D01*
X2304541Y896620D02*
G01*
X2377440Y896620D01*
X2339340Y896620D02*
G01*
X2332227Y889507D01*
X2328925Y882650D01*
X2328925Y872236D01*
X2332227Y865378D01*
X2339340Y858520D01*
X2349754Y854963D01*
X2356611Y854963D01*
X2367025Y858520D01*
X2373884Y865378D01*
X2377440Y872236D01*
X2377440Y882650D01*
X2373884Y889507D01*
X2367025Y896620D01*
X2304541Y972820D02*
G01*
X2377440Y972820D01*
X2339340Y972820D02*
G01*
X2332227Y979678D01*
X2328925Y986536D01*
X2328925Y996950D01*
X2332227Y1003807D01*
X2339340Y1010920D01*
X2349754Y1014221D01*
X2356611Y1014221D01*
X2367025Y1010920D01*
X2373884Y1003807D01*
X2377440Y996950D01*
X2377440Y986536D01*
X2373884Y979678D01*
X2367025Y972820D01*
X2328925Y1040637D02*
G01*
X2377440Y1061465D01*
X2328925Y1082294D02*
G01*
X2377440Y1061465D01*
X2391156Y1054607D01*
X2398268Y1047495D01*
X2401570Y1040637D01*
X2401570Y1037081D01*
X2304541Y1193037D02*
G01*
X2360168Y1193037D01*
X2370327Y1189481D01*
X2373884Y1186179D01*
X2377440Y1179068D01*
X2377440Y1172210D01*
X2373884Y1165352D01*
X2370327Y1161795D01*
X2360168Y1158494D01*
X2353056Y1158494D01*
X2328925Y1233170D02*
G01*
X2332227Y1226312D01*
X2339340Y1219454D01*
X2349754Y1215897D01*
X2356611Y1215897D01*
X2367025Y1219454D01*
X2373884Y1226312D01*
X2377440Y1233170D01*
X2377440Y1243584D01*
X2373884Y1250442D01*
X2367025Y1257554D01*
X2356611Y1260855D01*
X2349754Y1260855D01*
X2339340Y1257554D01*
X2332227Y1250442D01*
X2328925Y1243584D01*
X2328925Y1233170D01*
X2304541Y1283715D02*
G01*
X2377440Y1283715D01*
X2339340Y1283715D02*
G01*
X2332227Y1290828D01*
X2328925Y1297686D01*
X2328925Y1308100D01*
X2332227Y1314957D01*
X2339340Y1321815D01*
X2349754Y1325371D01*
X2356611Y1325371D01*
X2367025Y1321815D01*
X2373884Y1314957D01*
X2377440Y1308100D01*
X2377440Y1297686D01*
X2373884Y1290828D01*
X2367025Y1283715D01*
X2339340Y1386331D02*
G01*
X2332227Y1382776D01*
X2328925Y1372362D01*
X2328925Y1361947D01*
X2332227Y1351787D01*
X2339340Y1348231D01*
X2346197Y1351787D01*
X2349754Y1358645D01*
X2353056Y1375918D01*
X2356611Y1382776D01*
X2363470Y1386331D01*
X2367025Y1386331D01*
X2373884Y1382776D01*
X2377440Y1372362D01*
X2377440Y1361947D01*
X2373884Y1351787D01*
X2367025Y1348231D01*
X2328925Y1426463D02*
G01*
X2332227Y1419605D01*
X2339340Y1412747D01*
X2349754Y1409192D01*
X2356611Y1409192D01*
X2367025Y1412747D01*
X2373884Y1419605D01*
X2377440Y1426463D01*
X2377440Y1436878D01*
X2373884Y1443736D01*
X2367025Y1450847D01*
X2356611Y1454150D01*
X2349754Y1454150D01*
X2339340Y1450847D01*
X2332227Y1443736D01*
X2328925Y1436878D01*
X2328925Y1426463D01*
X2328925Y1477010D02*
G01*
X2377440Y1477010D01*
X2342641Y1477010D02*
G01*
X2332227Y1487423D01*
X2328925Y1494281D01*
X2328925Y1504695D01*
X2332227Y1511807D01*
X2342641Y1515110D01*
X2377440Y1515110D01*
D11*
X1624584Y7226300D02*
G01*
X1702562Y7226300D01*
X1718055Y7231379D01*
X1728470Y7241794D01*
X1733550Y7257542D01*
X1733550Y7267955D01*
X1728470Y7283450D01*
X1718055Y7293863D01*
X1702562Y7298944D01*
X1624584Y7298944D01*
X1650492Y7338568D02*
G01*
X1645412Y7338568D01*
X1634997Y7343647D01*
X1629663Y7348981D01*
X1624584Y7359395D01*
X1624584Y7379970D01*
X1629663Y7390384D01*
X1634997Y7395718D01*
X1645412Y7400797D01*
X1655826Y7400797D01*
X1666239Y7395718D01*
X1681734Y7385304D01*
X1733550Y7333234D01*
X1733550Y7406131D01*
D13*
X2038858Y7540497D02*
G01*
X2043429Y7531354D01*
X2052827Y7522210D01*
X2061972Y7517384D01*
X2080513Y7517384D01*
X2089658Y7522210D01*
X2099056Y7531354D01*
X2103627Y7540497D01*
X2108200Y7554468D01*
X2108200Y7577581D01*
X2103627Y7591297D01*
X2099056Y7600695D01*
X2089658Y7609839D01*
X2080513Y7614412D01*
X2061972Y7614412D01*
X2052827Y7609839D01*
X2043429Y7600695D01*
X2038858Y7591297D01*
X2038858Y7577581D01*
X2061972Y7577581D02*
G01*
X2038858Y7577581D01*
X2008377Y7517384D02*
G01*
X2008377Y7614412D01*
X2008377Y7517384D02*
G01*
X1943861Y7614412D01*
X1943861Y7517384D02*
G01*
X1943861Y7614412D01*
X1913381Y7517384D02*
G01*
X1913381Y7614412D01*
X1913381Y7517384D02*
G01*
X1880870Y7517384D01*
X1867154Y7522210D01*
X1858010Y7531354D01*
X1853184Y7540497D01*
X1848612Y7554468D01*
X1848612Y7577581D01*
X1853184Y7591297D01*
X1858010Y7600695D01*
X1867154Y7609839D01*
X1880870Y7614412D01*
X1913381Y7614412D01*
X2080513Y7276084D02*
G01*
X2089658Y7280910D01*
X2099056Y7290054D01*
X2103627Y7299197D01*
X2108200Y7313168D01*
X2108200Y7336281D01*
X2103627Y7349997D01*
X2099056Y7359395D01*
X2089658Y7368539D01*
X2080513Y7373112D01*
X2061972Y7373112D01*
X2052827Y7368539D01*
X2043429Y7359395D01*
X2038858Y7349997D01*
X2034286Y7336281D01*
X2034286Y7313168D01*
X2038858Y7299197D01*
X2043429Y7290054D01*
X2052827Y7280910D01*
X2061972Y7276084D01*
X2080513Y7276084D01*
X2003806Y7276084D02*
G01*
X2003806Y7345426D01*
X1999234Y7359395D01*
X1990090Y7368539D01*
X1976120Y7373112D01*
X1966975Y7373112D01*
X1953006Y7368539D01*
X1943861Y7359395D01*
X1939290Y7345426D01*
X1939290Y7276084D01*
X1876297Y7276084D02*
G01*
X1876297Y7373112D01*
X1908810Y7276084D02*
G01*
X1844039Y7276084D01*
X2095500Y7047484D02*
G01*
X2095500Y7144512D01*
X2065020Y7047484D02*
G01*
X2065020Y7144512D01*
X2065020Y7047484D02*
G01*
X2000250Y7144512D01*
X2000250Y7047484D02*
G01*
X2000250Y7144512D01*
D11*
X3004334Y7709623D02*
G01*
X3004334Y7631645D01*
X3009414Y7616151D01*
X3019828Y7605737D01*
X3035576Y7600657D01*
X3045990Y7600657D01*
X3061484Y7605737D01*
X3071898Y7616151D01*
X3076978Y7631645D01*
X3076978Y7709623D01*
X3121682Y7709623D02*
G01*
X3178832Y7709623D01*
X3147844Y7667967D01*
X3163338Y7667967D01*
X3173752Y7662887D01*
X3178832Y7657807D01*
X3184166Y7642059D01*
X3184166Y7631645D01*
X3178832Y7616151D01*
X3168418Y7605737D01*
X3152924Y7600657D01*
X3137430Y7600657D01*
X3121682Y7605737D01*
X3116602Y7610817D01*
X3111268Y7621231D01*
X2259584Y6477000D02*
G01*
X2337561Y6477000D01*
X2353056Y6482079D01*
X2363470Y6492494D01*
X2368550Y6508242D01*
X2368550Y6518655D01*
X2363470Y6534150D01*
X2353056Y6544563D01*
X2337561Y6549644D01*
X2259584Y6549644D01*
X2259584Y6636004D02*
G01*
X2332227Y6583934D01*
X2332227Y6661912D01*
X2259584Y6636004D02*
G01*
X2368550Y6636004D01*
D10*
X3213178Y8137331D02*
G01*
X3213178Y7943275D01*
X3283282Y8091103D02*
G01*
X3283282Y8100247D01*
X3292426Y8118789D01*
X3301824Y8127933D01*
X3320366Y8137331D01*
X3357196Y8137331D01*
X3375738Y8127933D01*
X3384882Y8118789D01*
X3394026Y8100247D01*
X3394026Y8081705D01*
X3384882Y8063417D01*
X3366340Y8035731D01*
X3274138Y7943275D01*
X3403424Y7943275D01*
X2641666Y8137331D02*
G01*
X2641666Y7943275D01*
X2702626Y8100247D02*
G01*
X2720914Y8109645D01*
X2748854Y8137331D01*
X2748854Y7943275D01*
X3321926Y5636409D02*
G01*
X3303384Y5627265D01*
X3285096Y5608723D01*
X3275698Y5590181D01*
X3275698Y5553351D01*
X3285096Y5534809D01*
X3303384Y5516267D01*
X3321926Y5507123D01*
X3349612Y5497979D01*
X3395840Y5497979D01*
X3423526Y5507123D01*
X3442068Y5516267D01*
X3460610Y5534809D01*
X3469754Y5553351D01*
X3469754Y5590181D01*
X3460610Y5608723D01*
X3442068Y5627265D01*
X3423526Y5636409D01*
X3395840Y5636409D01*
X3395840Y5590181D02*
G01*
X3395840Y5636409D01*
X3275698Y5697369D02*
G01*
X3469754Y5697369D01*
X3275698Y5697369D02*
G01*
X3469754Y5826655D01*
X3275698Y5826655D02*
G01*
X3469754Y5826655D01*
X3275698Y5887615D02*
G01*
X3469754Y5887615D01*
X3275698Y5887615D02*
G01*
X3275698Y5952385D01*
X3285096Y5980071D01*
X3303384Y5998613D01*
X3321926Y6007757D01*
X3349612Y6016901D01*
X3395840Y6016901D01*
X3423526Y6007757D01*
X3442068Y5998613D01*
X3460610Y5980071D01*
X3469754Y5952385D01*
X3469754Y5887615D01*
X2975696Y5543956D02*
G01*
X2985094Y5525414D01*
X3003382Y5506872D01*
X3021924Y5497728D01*
X3049610Y5488584D01*
X3095838Y5488584D01*
X3123524Y5497728D01*
X3142066Y5506872D01*
X3160608Y5525414D01*
X3169752Y5543956D01*
X3169752Y5580786D01*
X3160608Y5599328D01*
X3142066Y5617870D01*
X3123524Y5627014D01*
X3095838Y5636412D01*
X3049610Y5636412D01*
X3021924Y5627014D01*
X3003382Y5617870D01*
X2985094Y5599328D01*
X2975696Y5580786D01*
X2975696Y5543956D01*
X2975696Y5697372D02*
G01*
X3114380Y5697372D01*
X3142066Y5706516D01*
X3160608Y5725058D01*
X3169752Y5752744D01*
X3169752Y5771032D01*
X3160608Y5798972D01*
X3142066Y5817260D01*
X3114380Y5826658D01*
X2975696Y5826658D01*
X2975696Y5952134D02*
G01*
X3169752Y5952134D01*
X2975696Y5887618D02*
G01*
X2975696Y6016904D01*
X2675702Y5470296D02*
G01*
X2869758Y5544210D01*
X2675702Y5618124D02*
G01*
X2869758Y5544210D01*
X2721930Y5817514D02*
G01*
X2703388Y5808370D01*
X2685100Y5789828D01*
X2675702Y5771286D01*
X2675702Y5734456D01*
X2685100Y5715914D01*
X2703388Y5697372D01*
X2721930Y5688228D01*
X2749616Y5679084D01*
X2795844Y5679084D01*
X2823530Y5688228D01*
X2842072Y5697372D01*
X2860614Y5715914D01*
X2869758Y5734456D01*
X2869758Y5771286D01*
X2860614Y5789828D01*
X2842072Y5808370D01*
X2823530Y5817514D01*
X2721930Y6016904D02*
G01*
X2703388Y6007760D01*
X2685100Y5989218D01*
X2675702Y5970930D01*
X2675702Y5933846D01*
X2685100Y5915304D01*
X2703388Y5897016D01*
X2721930Y5887618D01*
X2749616Y5878474D01*
X2795844Y5878474D01*
X2823530Y5887618D01*
X2842072Y5897016D01*
X2860614Y5915304D01*
X2869758Y5933846D01*
X2869758Y5970930D01*
X2860614Y5989218D01*
X2842072Y6007760D01*
X2823530Y6016904D01*
D11*
X1689100Y5752084D02*
G01*
X1689100Y5861050D01*
X1689100Y5752084D02*
G01*
X1647444Y5861050D01*
X1606042Y5752084D02*
G01*
X1647444Y5861050D01*
X1606042Y5752084D02*
G01*
X1606042Y5861050D01*
X1571752Y5772912D02*
G01*
X1561337Y5767578D01*
X1545589Y5752084D01*
X1545589Y5861050D01*
D14*
X2921000Y4920234D02*
G01*
X2921000Y4729734D01*
X2743200Y4729734D02*
G01*
X2743200Y4920234D01*
X2768600Y4945634D02*
G01*
X2895600Y4945634D01*
X2768600Y4704334D02*
G01*
X2895600Y4704334D01*
D12*
X2679700Y63500D02*
G01*
X2679700Y2908300D01*
X4457700Y2908300D01*
X4457700Y63500D01*
X2679700Y63500D01*
X3060700Y1295400D02*
G01*
X2997200Y1231900D01*
X3060700Y1168400D01*
X3060700Y1041400D01*
X2997200Y977900D01*
X3060700Y914400D01*
X3060700Y787400D01*
X2997200Y723900D01*
X3060700Y660400D01*
X3060700Y533400D01*
X2997200Y469900D01*
X3060700Y406400D01*
X3060700Y279400D01*
X2997200Y215900D01*
X2870200Y215900D01*
X2806700Y279400D01*
X2806700Y406400D01*
X2870200Y469900D01*
X2806700Y533400D01*
X2806700Y660400D01*
X2870200Y723900D01*
X2806700Y787400D01*
X2806700Y914400D01*
X2870200Y977900D01*
X2806700Y1041400D01*
X2806700Y1168400D01*
X2870200Y1231900D01*
X2806700Y1295400D01*
X2806700Y1422400D01*
X2870200Y1485900D01*
X2806700Y1549400D01*
X2806700Y1676400D01*
X2870200Y1739900D01*
X2806700Y1803400D01*
X2806700Y1930400D01*
X2870200Y1993900D01*
X2806700Y2057400D01*
X2806700Y2184400D01*
X2870200Y2247900D01*
X2806700Y2311400D01*
X2806700Y2438400D01*
X2870200Y2501900D01*
X2806700Y2565400D01*
X2806700Y2692400D01*
X2870200Y2755900D01*
X2997200Y2755900D01*
X3060700Y2692400D01*
X3060700Y2565400D01*
X2997200Y2501900D01*
X3060700Y2438400D01*
X3060700Y2311400D01*
X2997200Y2247900D01*
X3060700Y2184400D01*
X3060700Y2057400D01*
X2997200Y1993900D01*
X3060700Y1930400D01*
X3060700Y1803400D01*
X2997200Y1739900D01*
X3060700Y1676400D01*
X3060700Y1549400D01*
X2997200Y1485900D01*
X3060700Y1422400D01*
X3060700Y1295400D01*
D14*
X3340100Y3162465D02*
G01*
X3416300Y3162465D01*
X3238500Y3162465D02*
G01*
X3162300Y3162465D01*
X3238500Y3263900D02*
G01*
X3238500Y3060700D01*
X3340100Y3060700D02*
G01*
X3340100Y3263900D01*
X3014314Y3362299D02*
G01*
X3564315Y3362299D01*
X3564310Y2962300D02*
G01*
X3014309Y2962300D01*
X3564310Y2962300D02*
G01*
X3564310Y3061352D01*
X3564310Y3263247D02*
G01*
X3564310Y3362299D01*
X3014309Y2962300D02*
G01*
X3014309Y3061352D01*
X3014309Y3263247D02*
G01*
X3014309Y3362299D01*
X1962150Y7975600D02*
G01*
X1771650Y7975600D01*
X1771650Y8153400D02*
G01*
X1962150Y8153400D01*
X1987550Y8128000D02*
G01*
X1987550Y8001000D01*
X1746250Y8128000D02*
G01*
X1746250Y8001000D01*
X3479800Y4921250D02*
G01*
X3479800Y4730750D01*
X3302000Y4730750D02*
G01*
X3302000Y4921250D01*
X3327400Y4946650D02*
G01*
X3454400Y4946650D01*
X3327400Y4705350D02*
G01*
X3454400Y4705350D01*
X2801000Y3685499D02*
G01*
X2801000Y4315500D01*
X2801000Y4315500D02*
G01*
X3040999Y4315500D01*
X3040999Y4315500D02*
G01*
X3040999Y3685499D01*
X3040999Y3685499D02*
G01*
X2801000Y3685499D01*
D12*
X825500Y6967220D02*
G01*
X10492Y6967220D01*
X10492Y7867197D01*
X1450497Y7867197D01*
X1450497Y7682204D01*
X1450497Y7162215D02*
G01*
X1450497Y6967220D01*
X1335483Y6967220D01*
D14*
X2882734Y6489407D02*
G01*
X2882734Y6565607D01*
X2882734Y6387807D02*
G01*
X2882734Y6311607D01*
X2781300Y6387807D02*
G01*
X2984500Y6387807D01*
X2984500Y6489407D02*
G01*
X2781300Y6489407D01*
X2682900Y6163622D02*
G01*
X2682900Y6713623D01*
X3082899Y6713618D02*
G01*
X3082899Y6163617D01*
X3082899Y6713618D02*
G01*
X2983847Y6713618D01*
X2781952Y6713618D02*
G01*
X2682900Y6713618D01*
X3082899Y6163617D02*
G01*
X2983847Y6163617D01*
X2781952Y6163617D02*
G01*
X2682900Y6163617D01*
D15*
X3175254Y6692610D02*
G01*
X3175254Y6184610D01*
X3429254Y6184610D01*
X3429254Y6692610D01*
X3175254Y6692610D01*
D14*
X3594100Y4343405D02*
G01*
X3594100Y4419605D01*
X3594100Y3683005D02*
G01*
X3594100Y3606805D01*
X3708400Y4330712D02*
G01*
X3708400Y3683012D01*
X3479800Y3683012D01*
X3479800Y4330712D01*
X3708400Y4330712D01*
X3371199Y4315500D02*
G01*
X3371199Y3685499D01*
X3371199Y3685499D02*
G01*
X3131200Y3685499D01*
X3131200Y3685499D02*
G01*
X3131200Y4315500D01*
X3131200Y4315500D02*
G01*
X3371199Y4315500D01*
X2528897Y67315D02*
G01*
X188902Y67315D01*
X2628897Y4793307D02*
G01*
X2628897Y167314D01*
X1010920Y4607D02*
G01*
X1010920Y504987D01*
X1752600Y504987D01*
X1752600Y4607D01*
X1013460Y68107D02*
G01*
X1750060Y68107D01*
X1051560Y504987D02*
G01*
X1010920Y504987D01*
X1010920Y350047D01*
X1701800Y504987D02*
G01*
X1752600Y504987D01*
X1752600Y339887D01*
X1010920Y101127D02*
G01*
X1010920Y9687D01*
X1752600Y101127D02*
G01*
X1752600Y9687D01*
X1051560Y-472D02*
G01*
X1035964Y3007D01*
X1035964Y3007D02*
G01*
X1010920Y2067D01*
X1752600Y4607D02*
G01*
X1726844Y3007D01*
X1726844Y3007D02*
G01*
X1714500Y2067D01*
X1086764Y-35092D02*
G01*
X1676044Y-35092D01*
X1086764Y-55412D02*
G01*
X1676044Y-55412D01*
X1071524Y-17312D02*
G01*
X1071524Y-19852D01*
X1071524Y-19852D02*
G01*
X1071524Y-40172D01*
X1691284Y-17312D02*
G01*
X1691284Y-19852D01*
X1691284Y-19852D02*
G01*
X1691284Y-40172D01*
X1013460Y2067D02*
G01*
X988060Y-41112D01*
X985520Y-43652D02*
G01*
X1005484Y-55412D01*
X1005484Y-55412D02*
G01*
X1033424Y-9692D01*
X1750060Y2067D02*
G01*
X1775460Y-41112D01*
X1775460Y-43652D02*
G01*
X1757324Y-55412D01*
X1757324Y-55412D02*
G01*
X1729384Y-12232D01*
X675639Y510067D02*
G01*
X675639Y560867D01*
X828039Y560867D01*
X828039Y516889D01*
X624839Y154467D02*
G01*
X878839Y154467D01*
X878839Y510067D01*
X624839Y510067D01*
X624839Y154467D01*
X675639Y154467D01*
X675639Y103667D01*
X828039Y103667D01*
X828039Y154467D01*
X1930400Y510067D02*
G01*
X1930400Y560867D01*
X2082800Y560867D01*
X2082800Y519429D01*
X1879600Y154467D02*
G01*
X2133600Y154467D01*
X2133600Y510067D01*
X1879600Y510067D01*
X1879600Y154467D01*
X1930400Y154467D01*
X1930400Y103667D01*
X2082800Y103667D01*
X2082800Y154467D01*
X449836Y4857249D02*
G01*
X449836Y3507239D01*
X449836Y2307343D01*
X449836Y2307343D02*
G01*
X2249934Y2307343D01*
X449836Y4857249D02*
G01*
X2249934Y4857249D01*
X2249934Y4857249D02*
G01*
X2249934Y2307343D01*
X449836Y4257301D02*
G01*
X2049782Y4257301D01*
X2249934Y4257301D01*
D16*
X2105662Y4308609D02*
G01*
X2105662Y4770889D01*
X1562102Y4770889D01*
X1562102Y4511809D01*
X1303022Y4511809D01*
X1303022Y4770889D01*
X1049022Y4770889D01*
X1049022Y4511809D01*
X807722Y4511809D01*
X807722Y4770889D01*
X604522Y4770889D01*
X604522Y4308609D01*
X1838962Y4300989D02*
G01*
X1838962Y4769619D01*
D14*
X596902Y4003809D02*
G01*
X596902Y2479809D01*
X2120902Y2479809D01*
X2120902Y4003809D01*
X596902Y4003809D01*
X188902Y4893307D02*
G01*
X2528897Y4893307D01*
X88902Y167314D02*
G01*
X88902Y4793307D01*
D12*
X1879600Y7239000D02*
G01*
X1879600Y6946900D01*
X1879600Y6883400D01*
X1778000Y6883400D01*
X1778000Y7010400D01*
X1778000Y7645400D01*
X1778000Y7772400D01*
X1879600Y7772400D01*
X1879600Y7708900D01*
X2133600Y7708900D01*
X2133600Y7620000D01*
X2133600Y7543800D01*
X2133600Y7366000D01*
X2133600Y7289800D01*
X2133600Y7112000D01*
X2133600Y7035800D01*
X2133600Y6946900D01*
X1879600Y6946900D01*
X2133600Y7035800D02*
G01*
X2197100Y7035800D01*
X2133600Y7112000D02*
G01*
X2197100Y7112000D01*
X2133600Y7289800D02*
G01*
X2197100Y7289800D01*
X2133600Y7543800D02*
G01*
X2197100Y7543800D01*
X2133600Y7366000D02*
G01*
X2197100Y7366000D01*
X2133600Y7620000D02*
G01*
X2197100Y7620000D01*
X1778000Y7645400D02*
G01*
X1587500Y7645400D01*
X1587500Y7010400D01*
X1778000Y7010400D01*
X1879600Y7493000D02*
G01*
X1879600Y7416800D01*
X1879600Y7708900D02*
G01*
X1879600Y7670800D01*
D14*
X3334748Y7350607D02*
G01*
X3334748Y7273264D01*
X3334748Y7050608D02*
G01*
X3334748Y7127979D01*
X3334748Y7050608D02*
G01*
X3334748Y7010107D01*
X3325606Y7010107D01*
X2834749Y7350607D02*
G01*
X2834749Y7391107D01*
X2843890Y7391107D01*
X3334748Y7350607D02*
G01*
X3334748Y7391107D01*
X3325606Y7391107D01*
X2834749Y7050608D02*
G01*
X2834749Y7010107D01*
X2843890Y7010107D01*
X2834749Y7050608D02*
G01*
X2834749Y7350607D01*
X3725240Y5117007D02*
G01*
X3725240Y8217001D01*
X2425242Y8217001D01*
X2425242Y5117007D01*
X2425242Y5117007D02*
G01*
X3725240Y5117007D01*
X2032000Y4953000D02*
G01*
X0Y4953000D01*
X0Y6781800D01*
X2032000Y6781800D01*
X2032000Y4953000D01*
G75*
G01*
X2768600Y4945634D02*
G03*
X2743200Y4920234I0J-25400D01*
G75*
G01*
X2921000Y4920234D02*
G03*
X2895600Y4945634I-25400J0D01*
G75*
G01*
X2895600Y4704334D02*
G03*
X2921000Y4729734I0J25400D01*
G75*
G01*
X2743200Y4729734D02*
G03*
X2768600Y4704334I25400J0D01*
G75*
G01*
X1987550Y8128000D02*
G03*
X1962150Y8153400I-25400J0D01*
G75*
G01*
X1962150Y7975600D02*
G03*
X1987550Y8001000I0J25400D01*
G75*
G01*
X1746250Y8001000D02*
G03*
X1771650Y7975600I25400J0D01*
G75*
G01*
X1771650Y8153400D02*
G03*
X1746250Y8128000I0J-25400D01*
G75*
G01*
X3327400Y4946650D02*
G03*
X3302000Y4921250I0J-25400D01*
G75*
G01*
X3479800Y4921250D02*
G03*
X3454400Y4946650I-25400J0D01*
G75*
G01*
X3454400Y4705350D02*
G03*
X3479800Y4730750I0J25400D01*
G75*
G01*
X3302000Y4730750D02*
G03*
X3327400Y4705350I25400J0D01*
D17*
G75*
G01*
X1560502Y7417209D02*
G03*
X1560502Y7417641I19989J216D01*
D14*
G75*
G01*
X1028700Y2068D02*
G02*
X1073150Y-13426I6997J-51434D01*
G75*
G01*
X1073150Y-17998D02*
G03*
X1088390Y-32476I15002J531D01*
G75*
G01*
X1073150Y-38572D02*
G03*
X1088390Y-54066I15004J-485D01*
G75*
G01*
X1677924Y-54066D02*
G03*
X1693164Y-38572I236J15009D01*
G75*
G01*
X1677924Y-32476D02*
G03*
X1693164Y-17998I238J15009D01*
G75*
G01*
X1693164Y-13426D02*
G02*
X1732280Y2068I32959J-26085D01*
G75*
G01*
X1034796Y-8092D02*
G03*
X1038860Y2068I-11596J10531D01*
G75*
G01*
X1732026Y-8600D02*
G02*
X1729740Y2068I13209J8409D01*
G75*
G01*
X188902Y67315D02*
G02*
X88903Y167315I0J100000D01*
G75*
G01*
X88903Y4793308D02*
G02*
X188902Y4893307I99999J0D01*
G75*
G01*
X2628897Y167315D02*
G02*
X2528898Y67315I-99999J0D01*
G75*
G01*
X2528898Y4893307D02*
G02*
X2628897Y4793308I0J-99999D01*
G75*
G01*
X3334748Y7273265D02*
G03*
X3334258Y7127979I3980J-72657D01*
G75*
G01
X2603500Y8737600D02*
G03X2603500Y8737600I-127000J0D01*
G75*
G01
X1082548Y8737600D02*
G03X1082548Y8737600I-127000J0D01*
G75*
G01
X1587500Y8737600D02*
G03X1587500Y8737600I-127000J0D01*
G75*
G01
X3111500Y8737575D02*
G03X3111500Y8737575I-127000J0D01*
G75*
G01
X751840Y319557D02*
G03X751840Y319557I-12700J0D01*
G75*
G01
X777240Y344957D02*
G03X777240Y344957I-12700J0D01*
G75*
G01
X777240Y332257D02*
G03X777240Y332257I-25400J0D01*
G75*
G01
X802640Y332257D02*
G03X802640Y332257I-50800J0D01*
G75*
G01
X828040Y332257D02*
G03X828040Y332257I-76200J0D01*
G75*
G01
X2006600Y319557D02*
G03X2006600Y319557I-12700J0D01*
G75*
G01
X2032000Y344957D02*
G03X2032000Y344957I-12700J0D01*
G75*
G01
X2032000Y332257D02*
G03X2032000Y332257I-25400J0D01*
G75*
G01
X2057400Y332257D02*
G03X2057400Y332257I-50800J0D01*
G75*
G01
X2082800Y332257D02*
G03X2082800Y332257I-76200J0D01*
D18*
G75*
G01
X3353765Y7467295D02*
G03X3353765Y7467295I-15011J0D01*
M02*
