G04 Layer: TopLayer*
G04 EasyEDA v6.5.40, 2024-02-04 04:02:13*
G04 e3b7e928b75e4f6ab1737eb406526b54,153482dac41149f1974aef67bcea995d,10*
G04 Gerber Generator version 0.2*
G04 Scale: 100 percent, Rotated: No, Reflected: No *
G04 Dimensions in millimeters *
G04 leading zeros omitted , absolute positions ,4 integer and 5 decimal *
%FSLAX45Y45*%
%MOMM*%

%AMMACRO1*4,1,40,0,-0.4763,-0.635,-0.1588,-0.635,0.2223,-0.635,0.2223,-0.635,0.2223,-0.6339,0.2457,-0.6307,0.2689,-0.6253,0.2918,-0.6179,0.314,-0.6084,0.3355,-0.597,0.356,-0.5837,0.3753,-0.5687,0.3934,-0.5521,0.41,-0.5341,0.4249,-0.5147,0.4382,-0.4942,0.4496,-0.4727,0.4591,-0.4505,0.4665,-0.4277,0.4719,-0.4044,0.4752,-0.381,0.4763,0.4445,0.4763,0.4663,0.4696,0.4875,0.4609,0.5078,0.4504,0.5271,0.4381,0.5452,0.4242,0.5619,0.4087,0.5773,0.3917,0.591,0.3734,0.603,0.3539,0.6132,0.3335,0.6215,0.3122,0.6279,0.2903,0.6323,0.2678,0.6347,0.2451,0.635,0.2223,0.635,-0.1588,0,-0.4763,0,-0.4763,0*%
%AMMACRO2*4,1,39,-0.635,0.4445,-0.635,-0.1905,-0.6339,-0.2139,-0.6307,-0.2372,-0.6253,-0.26,-0.6179,-0.2822,-0.6084,-0.3037,-0.597,-0.3242,-0.5837,-0.3436,-0.5687,-0.3616,-0.5521,-0.3782,-0.5341,-0.3932,-0.5147,-0.4065,-0.4942,-0.4179,-0.4727,-0.4274,-0.4505,-0.4348,-0.4277,-0.4402,-0.4044,-0.4434,-0.381,-0.4445,0.381,-0.4445,0.4044,-0.4434,0.4277,-0.4402,0.4505,-0.4348,0.4727,-0.4274,0.4942,-0.4179,0.5147,-0.4065,0.5341,-0.3932,0.5521,-0.3782,0.5687,-0.3616,0.5837,-0.3436,0.597,-0.3242,0.6084,-0.3037,0.6179,-0.2822,0.6253,-0.26,0.6307,-0.2372,0.6339,-0.2139,0.635,-0.1905,0.635,0.4445,0,0.127,-0.635,0.4445,0*%
%AMMACRO3*4,1,40,-0.4763,0,-0.1588,0.635,0.2223,0.635,0.2223,0.635,0.2223,0.635,0.2457,0.6339,0.2689,0.6307,0.2918,0.6253,0.314,0.6179,0.3355,0.6084,0.356,0.597,0.3753,0.5837,0.3934,0.5687,0.41,0.5521,0.4249,0.5341,0.4382,0.5147,0.4496,0.4942,0.4591,0.4727,0.4665,0.4505,0.4719,0.4277,0.4752,0.4044,0.4763,0.381,0.4763,-0.4445,0.4696,-0.4663,0.4609,-0.4875,0.4504,-0.5078,0.4382,-0.5271,0.4242,-0.5452,0.4087,-0.5619,0.3917,-0.5773,0.3734,-0.591,0.3539,-0.603,0.3335,-0.6132,0.3122,-0.6215,0.2903,-0.6279,0.2678,-0.6323,0.2451,-0.6347,0.2223,-0.635,-0.1588,-0.635,-0.4763,0,-0.4763,0,0*%
%AMMACRO4*4,1,39,0.4445,0.635,-0.1905,0.635,-0.2139,0.6339,-0.2372,0.6307,-0.26,0.6253,-0.2822,0.6179,-0.3037,0.6084,-0.3242,0.597,-0.3436,0.5837,-0.3616,0.5687,-0.3782,0.5521,-0.3932,0.5341,-0.4065,0.5147,-0.4179,0.4942,-0.4274,0.4727,-0.4348,0.4505,-0.4402,0.4277,-0.4434,0.4044,-0.4445,0.381,-0.4445,-0.381,-0.4434,-0.4044,-0.4402,-0.4277,-0.4348,-0.4505,-0.4274,-0.4727,-0.4179,-0.4942,-0.4065,-0.5147,-0.3932,-0.5341,-0.3782,-0.5521,-0.3616,-0.5687,-0.3436,-0.5837,-0.3242,-0.597,-0.3037,-0.6084,-0.2822,-0.6179,-0.26,-0.6253,-0.2372,-0.6307,-0.2139,-0.6339,-0.1905,-0.635,0.4445,-0.635,0.127,0,0.4445,0.635,0*%
%ADD10C,0.2540*%
%ADD11C,1.0160*%
%ADD12MACRO1*%
%ADD13MACRO2*%
%ADD14MACRO3*%
%ADD15MACRO4*%
%ADD16O,0.5684012X1.950212*%
%ADD17R,1.7780X1.7780*%
%ADD18C,1.9304*%
%ADD19C,1.6000*%
%ADD20C,1.5240*%
%ADD21C,2.0000*%
%ADD22O,2.499868X4.9999899999999995*%
%ADD23O,2.2499320000000003X4.4998640000000005*%
%ADD24O,4.4998640000000005X2.2499320000000003*%
%ADD25C,1.5000*%
%ADD26R,1.5080X1.5080*%
%ADD27C,1.5080*%
%ADD28C,0.6100*%
%ADD29C,0.0144*%

%LPD*%
G36*
X3652824Y3169462D02*
G01*
X3648811Y3170783D01*
X3645662Y3173679D01*
X3643985Y3177540D01*
X3641598Y3189681D01*
X3637127Y3202838D01*
X3631031Y3215233D01*
X3623310Y3226765D01*
X3614165Y3237179D01*
X3603751Y3246323D01*
X3592271Y3253994D01*
X3579825Y3260140D01*
X3566718Y3264560D01*
X3553155Y3267303D01*
X3539286Y3268167D01*
X3525469Y3267303D01*
X3511905Y3264560D01*
X3502761Y3261461D01*
X3499053Y3260953D01*
X3495395Y3261817D01*
X3492296Y3263900D01*
X3462934Y3293313D01*
X3460699Y3296615D01*
X3459937Y3300476D01*
X3459937Y4014673D01*
X3459124Y4022699D01*
X3456940Y4029964D01*
X3453384Y4036618D01*
X3448253Y4042816D01*
X3019653Y4471466D01*
X3017469Y4474667D01*
X3016707Y4478477D01*
X3017367Y4482287D01*
X3018485Y4485233D01*
X3021685Y4498543D01*
X3023006Y4512106D01*
X3022600Y4525721D01*
X3020314Y4539183D01*
X3016250Y4552188D01*
X3010509Y4564583D01*
X3003194Y4576064D01*
X2994406Y4586478D01*
X2984246Y4595622D01*
X2973019Y4603343D01*
X2960878Y4609490D01*
X2947974Y4613960D01*
X2934614Y4616653D01*
X2921000Y4617567D01*
X2907385Y4616653D01*
X2894025Y4613960D01*
X2881172Y4609490D01*
X2868269Y4602937D01*
X2864307Y4601870D01*
X2860243Y4602480D01*
X2856687Y4604613D01*
X2854350Y4607966D01*
X2853537Y4612030D01*
X2853537Y4693666D01*
X2854299Y4697577D01*
X2856484Y4700828D01*
X2859786Y4703064D01*
X2863697Y4703826D01*
X2869895Y4703826D01*
X2876346Y4704232D01*
X2881020Y4704994D01*
X2885541Y4706213D01*
X2890012Y4707839D01*
X2894330Y4709871D01*
X2898343Y4712258D01*
X2902204Y4715052D01*
X2905760Y4718202D01*
X2909011Y4721656D01*
X2911906Y4725314D01*
X2915361Y4730800D01*
X2917647Y4733340D01*
X2920644Y4735017D01*
X2923997Y4735576D01*
X3120034Y4735576D01*
X3123895Y4734814D01*
X3127197Y4732578D01*
X3229051Y4630775D01*
X3231337Y4627270D01*
X3231997Y4623104D01*
X3230930Y4619040D01*
X3228289Y4615738D01*
X3224530Y4613808D01*
X3217722Y4611928D01*
X3205175Y4606594D01*
X3193440Y4599686D01*
X3182721Y4591202D01*
X3173222Y4581398D01*
X3165144Y4570425D01*
X3158591Y4558487D01*
X3153714Y4545736D01*
X3150514Y4532477D01*
X3149193Y4518914D01*
X3149650Y4505299D01*
X3151886Y4491837D01*
X3155950Y4478832D01*
X3161690Y4466437D01*
X3169005Y4454956D01*
X3177794Y4444542D01*
X3187954Y4435398D01*
X3199180Y4427677D01*
X3211322Y4421530D01*
X3224225Y4417060D01*
X3237585Y4414316D01*
X3251200Y4413402D01*
X3264814Y4414316D01*
X3278174Y4417060D01*
X3291078Y4421530D01*
X3303219Y4427677D01*
X3314446Y4435398D01*
X3324606Y4444542D01*
X3333394Y4454956D01*
X3340709Y4466437D01*
X3344519Y4474667D01*
X3346399Y4477359D01*
X3348990Y4479340D01*
X3356813Y4483455D01*
X3363010Y4488586D01*
X3371087Y4496612D01*
X3374390Y4498797D01*
X3378250Y4499610D01*
X3488994Y4499610D01*
X3492703Y4498898D01*
X3495903Y4496917D01*
X3498138Y4493920D01*
X3502406Y4485284D01*
X3510076Y4473752D01*
X3519220Y4463338D01*
X3529634Y4454194D01*
X3541166Y4446524D01*
X3553561Y4440377D01*
X3566718Y4435906D01*
X3580282Y4433214D01*
X3594100Y4432300D01*
X3607917Y4433214D01*
X3621481Y4435906D01*
X3634638Y4440377D01*
X3647033Y4446524D01*
X3648303Y4447336D01*
X3652367Y4448962D01*
X3656736Y4448708D01*
X3660546Y4446625D01*
X3663187Y4443171D01*
X3664102Y4438904D01*
X3664102Y3587496D01*
X3663187Y3583228D01*
X3660546Y3579774D01*
X3656736Y3577742D01*
X3652367Y3577437D01*
X3648303Y3579063D01*
X3647033Y3579926D01*
X3640429Y3583178D01*
X3640429Y3534562D01*
X3653993Y3534562D01*
X3657854Y3533800D01*
X3661156Y3531565D01*
X3663340Y3528263D01*
X3664102Y3524402D01*
X3664102Y3452012D01*
X3663340Y3448151D01*
X3661156Y3444849D01*
X3657854Y3442614D01*
X3653993Y3441852D01*
X3640429Y3441852D01*
X3640429Y3393236D01*
X3647033Y3396487D01*
X3648303Y3397351D01*
X3652367Y3398926D01*
X3656736Y3398672D01*
X3660546Y3396640D01*
X3663187Y3393186D01*
X3664102Y3388918D01*
X3664102Y3179521D01*
X3663238Y3175406D01*
X3660749Y3171952D01*
X3657041Y3169869D01*
G37*

%LPC*%
G36*
X3547770Y3393236D02*
G01*
X3547770Y3441852D01*
X3499154Y3441852D01*
X3502406Y3435248D01*
X3510076Y3423767D01*
X3519220Y3413353D01*
X3529634Y3404209D01*
X3541166Y3396487D01*
G37*
G36*
X3499154Y3534562D02*
G01*
X3547770Y3534562D01*
X3547770Y3583178D01*
X3541166Y3579926D01*
X3529634Y3572205D01*
X3519220Y3563061D01*
X3510076Y3552647D01*
X3502406Y3541166D01*
G37*

%LPD*%
G36*
X60147Y49987D02*
G01*
X56286Y50749D01*
X52984Y52984D01*
X50749Y56286D01*
X49987Y60147D01*
X49987Y8939834D01*
X50749Y8943695D01*
X52984Y8946997D01*
X56286Y8949232D01*
X60147Y8949994D01*
X3739845Y8949994D01*
X3743706Y8949232D01*
X3747008Y8946997D01*
X3749243Y8943695D01*
X3750005Y8939834D01*
X3750005Y4622800D01*
X3749141Y4618736D01*
X3746754Y4615383D01*
X3743248Y4613198D01*
X3739184Y4612640D01*
X3735171Y4613757D01*
X3731971Y4616348D01*
X3729685Y4619142D01*
X3546652Y4802174D01*
X3540455Y4807254D01*
X3533749Y4810810D01*
X3526536Y4812995D01*
X3518509Y4813808D01*
X3489960Y4813808D01*
X3486353Y4814468D01*
X3483203Y4816398D01*
X3480968Y4819294D01*
X3479901Y4822799D01*
X3479596Y4825441D01*
X3477666Y4830927D01*
X3475177Y4834839D01*
X3473805Y4838293D01*
X3473754Y4842103D01*
X3475126Y4845608D01*
X3477768Y4849825D01*
X3479596Y4855260D01*
X3480308Y4861509D01*
X3480308Y4876596D01*
X3481171Y4880711D01*
X3483610Y4884115D01*
X3487216Y4886248D01*
X3501593Y4887569D01*
X3511092Y4890109D01*
X3519982Y4894275D01*
X3528009Y4899914D01*
X3534968Y4906822D01*
X3540607Y4914900D01*
X3544773Y4923790D01*
X3547313Y4933289D01*
X3548176Y4943094D01*
X3547313Y4952847D01*
X3544773Y4962347D01*
X3540607Y4971237D01*
X3534968Y4979314D01*
X3528009Y4986274D01*
X3519982Y4991912D01*
X3511092Y4996027D01*
X3501593Y4998567D01*
X3491788Y4999431D01*
X3481984Y4998567D01*
X3472484Y4996027D01*
X3463594Y4991912D01*
X3455568Y4986274D01*
X3452215Y4982921D01*
X3450285Y4981397D01*
X3447999Y4980381D01*
X3442411Y4978704D01*
X3435756Y4975148D01*
X3429508Y4970018D01*
X3412794Y4953304D01*
X3409492Y4951120D01*
X3405632Y4950307D01*
X3353104Y4950307D01*
X3346653Y4949952D01*
X3341979Y4949139D01*
X3337458Y4947970D01*
X3332987Y4946345D01*
X3328670Y4944262D01*
X3324656Y4941874D01*
X3320796Y4939080D01*
X3317240Y4935982D01*
X3313988Y4932527D01*
X3311042Y4928819D01*
X3308502Y4924856D01*
X3306318Y4920640D01*
X3304235Y4915560D01*
X3302050Y4912258D01*
X3298748Y4910023D01*
X3294887Y4909210D01*
X3290976Y4909972D01*
X3287623Y4912207D01*
X3116630Y5083200D01*
X3114446Y5086502D01*
X3113684Y5090414D01*
X3113684Y5216144D01*
X3114294Y5219700D01*
X3116122Y5222798D01*
X3118916Y5225084D01*
X3129991Y5231130D01*
X3140964Y5239207D01*
X3150768Y5248706D01*
X3159201Y5259374D01*
X3166160Y5271109D01*
X3171494Y5283657D01*
X3175101Y5296814D01*
X3176930Y5310327D01*
X3176930Y5323992D01*
X3175101Y5337505D01*
X3171291Y5351322D01*
X3170936Y5354523D01*
X3171647Y5357672D01*
X3173272Y5360466D01*
X3180334Y5368950D01*
X3183890Y5375605D01*
X3186074Y5382818D01*
X3186836Y5390845D01*
X3186836Y6276086D01*
X3187649Y6279997D01*
X3189884Y6283350D01*
X3193237Y6285534D01*
X3197148Y6286246D01*
X3201060Y6285433D01*
X3204362Y6283147D01*
X3206496Y6279743D01*
X3210509Y6269380D01*
X3216960Y6257594D01*
X3224936Y6246723D01*
X3234334Y6237020D01*
X3244900Y6228689D01*
X3256483Y6221831D01*
X3268929Y6216548D01*
X3281883Y6212992D01*
X3295243Y6211214D01*
X3308756Y6211214D01*
X3327501Y6213754D01*
X3331057Y6212738D01*
X3334004Y6210503D01*
X3335985Y6207302D01*
X3336645Y6203645D01*
X3336645Y5417870D01*
X3335934Y5414111D01*
X3333851Y5410911D01*
X3330752Y5408676D01*
X3326180Y5406542D01*
X3314700Y5399176D01*
X3304286Y5390388D01*
X3295142Y5380278D01*
X3287420Y5369052D01*
X3281273Y5356860D01*
X3276803Y5343956D01*
X3274060Y5330596D01*
X3273145Y5316982D01*
X3274060Y5303418D01*
X3276803Y5290058D01*
X3281273Y5277154D01*
X3287420Y5264962D01*
X3295142Y5253736D01*
X3304286Y5243626D01*
X3314700Y5234838D01*
X3326180Y5227472D01*
X3338576Y5221732D01*
X3351580Y5217718D01*
X3365042Y5215432D01*
X3378657Y5214975D01*
X3392220Y5216347D01*
X3405479Y5219496D01*
X3418230Y5224424D01*
X3430168Y5230977D01*
X3441141Y5239054D01*
X3450945Y5248554D01*
X3459429Y5259222D01*
X3466388Y5270957D01*
X3471672Y5283504D01*
X3475278Y5296662D01*
X3477107Y5310174D01*
X3477107Y5323840D01*
X3475278Y5337352D01*
X3471672Y5350510D01*
X3466388Y5363057D01*
X3459429Y5374792D01*
X3450945Y5385460D01*
X3441141Y5394960D01*
X3430168Y5403037D01*
X3419144Y5409082D01*
X3416350Y5411368D01*
X3414522Y5414467D01*
X3413861Y5418023D01*
X3413861Y6238087D01*
X3413048Y6246114D01*
X3410864Y6253378D01*
X3407308Y6260033D01*
X3402177Y6266230D01*
X3399739Y6268720D01*
X3397554Y6271920D01*
X3396742Y6275730D01*
X3397402Y6279540D01*
X3398367Y6281978D01*
X3401466Y6295085D01*
X3402837Y6308496D01*
X3402380Y6321958D01*
X3400145Y6335268D01*
X3396132Y6348120D01*
X3390493Y6360363D01*
X3383229Y6371691D01*
X3374542Y6382004D01*
X3364534Y6391046D01*
X3353409Y6398666D01*
X3341370Y6404762D01*
X3328670Y6409182D01*
X3315462Y6411874D01*
X3302000Y6412738D01*
X3288537Y6411874D01*
X3275329Y6409182D01*
X3262629Y6404762D01*
X3250590Y6398666D01*
X3239465Y6391046D01*
X3229457Y6382004D01*
X3220770Y6371691D01*
X3213506Y6360363D01*
X3207867Y6348120D01*
X3206750Y6344462D01*
X3204768Y6340906D01*
X3201517Y6338366D01*
X3197555Y6337350D01*
X3193491Y6337960D01*
X3190036Y6340094D01*
X3187700Y6343497D01*
X3186836Y6347510D01*
X3186836Y6530085D01*
X3187649Y6533997D01*
X3189884Y6537350D01*
X3193237Y6539534D01*
X3197148Y6540246D01*
X3201060Y6539433D01*
X3204362Y6537147D01*
X3206496Y6533743D01*
X3210509Y6523380D01*
X3216960Y6511594D01*
X3224936Y6500723D01*
X3234334Y6491020D01*
X3244900Y6482689D01*
X3256483Y6475831D01*
X3268929Y6470548D01*
X3281883Y6466992D01*
X3295243Y6465214D01*
X3308756Y6465214D01*
X3322116Y6466992D01*
X3335070Y6470548D01*
X3347516Y6475831D01*
X3359099Y6482689D01*
X3369665Y6491020D01*
X3379063Y6500723D01*
X3387039Y6511594D01*
X3393490Y6523380D01*
X3398367Y6535978D01*
X3401466Y6549085D01*
X3402837Y6562496D01*
X3402380Y6575958D01*
X3400145Y6589268D01*
X3396132Y6602120D01*
X3390493Y6614363D01*
X3383229Y6625691D01*
X3374542Y6636003D01*
X3364534Y6645046D01*
X3353409Y6652666D01*
X3346196Y6656324D01*
X3343249Y6658559D01*
X3341268Y6661759D01*
X3340608Y6665366D01*
X3340608Y6902856D01*
X3339795Y6910882D01*
X3337610Y6918096D01*
X3334054Y6924751D01*
X3331870Y6927392D01*
X3330194Y6930440D01*
X3329584Y6933844D01*
X3329584Y6998766D01*
X3328720Y7008622D01*
X3326282Y7017766D01*
X3322269Y7026351D01*
X3316833Y7034072D01*
X3310128Y7040778D01*
X3302406Y7046214D01*
X3293821Y7050227D01*
X3284677Y7052665D01*
X3275228Y7053478D01*
X3265830Y7052665D01*
X3256686Y7050227D01*
X3248101Y7046214D01*
X3240328Y7040778D01*
X3233674Y7034072D01*
X3228238Y7026351D01*
X3224225Y7017766D01*
X3221583Y7007809D01*
X3219551Y7003897D01*
X3216046Y7001205D01*
X3211728Y7000240D01*
X3207461Y7001205D01*
X3203956Y7003897D01*
X3201924Y7007809D01*
X3199282Y7017766D01*
X3195269Y7026351D01*
X3189833Y7034072D01*
X3183128Y7040778D01*
X3175406Y7046214D01*
X3166821Y7050227D01*
X3157677Y7052665D01*
X3148228Y7053478D01*
X3138830Y7052665D01*
X3129686Y7050227D01*
X3121101Y7046214D01*
X3113328Y7040778D01*
X3106674Y7034072D01*
X3101238Y7026351D01*
X3097225Y7017766D01*
X3094583Y7007809D01*
X3092551Y7003897D01*
X3089046Y7001205D01*
X3084728Y7000240D01*
X3080461Y7001205D01*
X3076956Y7003897D01*
X3074924Y7007809D01*
X3072282Y7017766D01*
X3068269Y7026351D01*
X3062833Y7034072D01*
X3056128Y7040778D01*
X3048406Y7046214D01*
X3039821Y7050227D01*
X3030677Y7052665D01*
X3021228Y7053478D01*
X3011830Y7052665D01*
X3002686Y7050227D01*
X3000857Y7049363D01*
X2996844Y7048398D01*
X2992780Y7049109D01*
X2989376Y7051395D01*
X2956560Y7084212D01*
X2950311Y7089292D01*
X2943656Y7092848D01*
X2936443Y7095032D01*
X2928416Y7095845D01*
X2869692Y7095845D01*
X2861665Y7095032D01*
X2854452Y7092848D01*
X2847797Y7089292D01*
X2841548Y7084212D01*
X2803956Y7046569D01*
X2798826Y7040321D01*
X2795270Y7033666D01*
X2793085Y7026452D01*
X2792272Y7018426D01*
X2792272Y6746087D01*
X2791206Y6741617D01*
X2785059Y6729120D01*
X2780639Y6716014D01*
X2777896Y6702450D01*
X2777032Y6688632D01*
X2777896Y6674815D01*
X2780639Y6661200D01*
X2785059Y6648094D01*
X2791206Y6635699D01*
X2798876Y6624167D01*
X2808020Y6613753D01*
X2818434Y6604609D01*
X2829966Y6596938D01*
X2842361Y6590792D01*
X2855518Y6586321D01*
X2869082Y6583629D01*
X2882900Y6582714D01*
X2896717Y6583629D01*
X2910281Y6586321D01*
X2923438Y6590792D01*
X2935833Y6596938D01*
X2942640Y6601459D01*
X2946704Y6603085D01*
X2951073Y6602780D01*
X2954883Y6600748D01*
X2957525Y6597294D01*
X2958490Y6593027D01*
X2958490Y6322974D01*
X2957677Y6319062D01*
X2955493Y6315760D01*
X2929940Y6290208D01*
X2926842Y6288125D01*
X2923184Y6287262D01*
X2919476Y6287770D01*
X2910281Y6290919D01*
X2896717Y6293612D01*
X2882900Y6294526D01*
X2869082Y6293612D01*
X2855518Y6290919D01*
X2842361Y6286449D01*
X2829966Y6280302D01*
X2818434Y6272631D01*
X2808020Y6263487D01*
X2798876Y6253073D01*
X2791206Y6241542D01*
X2785059Y6229146D01*
X2780639Y6216040D01*
X2777896Y6202426D01*
X2777032Y6188608D01*
X2777896Y6174790D01*
X2780639Y6161227D01*
X2785059Y6148120D01*
X2791206Y6135674D01*
X2798876Y6124143D01*
X2808020Y6113729D01*
X2818434Y6104636D01*
X2829966Y6096914D01*
X2838602Y6092647D01*
X2841599Y6090412D01*
X2843580Y6087211D01*
X2844292Y6083554D01*
X2844292Y5412536D01*
X2843428Y5408422D01*
X2840990Y5405018D01*
X2837383Y5402884D01*
X2833268Y5402376D01*
X2829255Y5403596D01*
X2818028Y5409742D01*
X2805277Y5414670D01*
X2792018Y5417820D01*
X2778455Y5419191D01*
X2764840Y5418734D01*
X2751378Y5416448D01*
X2738374Y5412435D01*
X2725978Y5406694D01*
X2714498Y5399328D01*
X2704084Y5390540D01*
X2694940Y5380431D01*
X2687218Y5369204D01*
X2681071Y5357012D01*
X2676601Y5344109D01*
X2673858Y5330748D01*
X2672943Y5317134D01*
X2673858Y5303570D01*
X2676601Y5290210D01*
X2681071Y5277307D01*
X2687218Y5265115D01*
X2694940Y5253888D01*
X2704084Y5243779D01*
X2714498Y5234990D01*
X2725978Y5227624D01*
X2738374Y5221884D01*
X2751378Y5217871D01*
X2764840Y5215585D01*
X2778455Y5215128D01*
X2792018Y5216499D01*
X2805277Y5219649D01*
X2818028Y5224576D01*
X2829255Y5230723D01*
X2833268Y5231942D01*
X2837383Y5231434D01*
X2840990Y5229301D01*
X2843428Y5225897D01*
X2844292Y5221782D01*
X2844292Y5170068D01*
X2843530Y5166156D01*
X2841294Y5162854D01*
X2545943Y4867503D01*
X2542946Y4865420D01*
X2539390Y4864557D01*
X2535783Y4865014D01*
X2525572Y4868164D01*
X2512110Y4870399D01*
X2498496Y4870856D01*
X2484932Y4869535D01*
X2471674Y4866335D01*
X2458923Y4861458D01*
X2446629Y4854702D01*
X2442616Y4853482D01*
X2438450Y4853990D01*
X2434844Y4856124D01*
X2432405Y4859528D01*
X2431592Y4863592D01*
X2431592Y4934458D01*
X2430780Y4942484D01*
X2428595Y4949698D01*
X2425039Y4956352D01*
X2419908Y4962601D01*
X1958390Y5424068D01*
X1956155Y5427472D01*
X1955444Y5431485D01*
X1956307Y5435447D01*
X1959203Y5441797D01*
X1963724Y5456275D01*
X1966468Y5471261D01*
X1967382Y5486400D01*
X1966468Y5501589D01*
X1963724Y5516575D01*
X1959203Y5531053D01*
X1952955Y5544921D01*
X1945081Y5557926D01*
X1935683Y5569915D01*
X1924964Y5580634D01*
X1912975Y5590032D01*
X1899970Y5597906D01*
X1886051Y5604154D01*
X1882902Y5606389D01*
X1880819Y5609640D01*
X1880057Y5613400D01*
X1880819Y5617210D01*
X1882902Y5620461D01*
X1886051Y5622696D01*
X1899970Y5628944D01*
X1912975Y5636818D01*
X1924964Y5646216D01*
X1935683Y5656935D01*
X1945081Y5668924D01*
X1952955Y5681929D01*
X1959203Y5695797D01*
X1963724Y5710275D01*
X1966468Y5725261D01*
X1967382Y5740400D01*
X1966468Y5755589D01*
X1963724Y5770575D01*
X1959203Y5785053D01*
X1952955Y5798921D01*
X1945081Y5811926D01*
X1935683Y5823915D01*
X1924964Y5834634D01*
X1912975Y5844032D01*
X1899970Y5851906D01*
X1886102Y5858154D01*
X1882952Y5860389D01*
X1880819Y5863590D01*
X1880107Y5867400D01*
X1880819Y5871210D01*
X1882952Y5874461D01*
X1886102Y5876696D01*
X1900021Y5882944D01*
X1913026Y5890818D01*
X1924964Y5900166D01*
X1935734Y5910935D01*
X1945081Y5922873D01*
X1952955Y5935878D01*
X1959203Y5949746D01*
X1963724Y5964275D01*
X1966468Y5979210D01*
X1967382Y5994400D01*
X1966468Y6009589D01*
X1963724Y6024524D01*
X1959203Y6039053D01*
X1952955Y6052921D01*
X1945081Y6065926D01*
X1935734Y6077864D01*
X1924964Y6088634D01*
X1913026Y6097981D01*
X1900021Y6105855D01*
X1886102Y6112154D01*
X1882902Y6114338D01*
X1880819Y6117590D01*
X1880107Y6121400D01*
X1880819Y6125210D01*
X1882902Y6128461D01*
X1886102Y6130645D01*
X1900021Y6136944D01*
X1913026Y6144818D01*
X1924964Y6154166D01*
X1935734Y6164935D01*
X1945081Y6176873D01*
X1952955Y6189878D01*
X1959203Y6203746D01*
X1963724Y6218275D01*
X1966468Y6233210D01*
X1967382Y6248400D01*
X1966468Y6263589D01*
X1963724Y6278524D01*
X1959203Y6293053D01*
X1952955Y6306921D01*
X1945081Y6319926D01*
X1935734Y6331864D01*
X1924964Y6342634D01*
X1913026Y6351981D01*
X1900021Y6359855D01*
X1886051Y6366154D01*
X1882902Y6368389D01*
X1880768Y6371640D01*
X1880057Y6375400D01*
X1880768Y6379210D01*
X1882902Y6382461D01*
X1886051Y6384696D01*
X1899970Y6390944D01*
X1912975Y6398818D01*
X1924964Y6408216D01*
X1935683Y6418935D01*
X1945081Y6430924D01*
X1952955Y6443929D01*
X1959203Y6457797D01*
X1963724Y6472275D01*
X1966468Y6487261D01*
X1967382Y6502400D01*
X1966468Y6517589D01*
X1963724Y6532575D01*
X1959203Y6547053D01*
X1952955Y6560921D01*
X1945081Y6573926D01*
X1935683Y6585915D01*
X1924964Y6596634D01*
X1912975Y6606031D01*
X1899970Y6613906D01*
X1886102Y6620154D01*
X1871624Y6624675D01*
X1856638Y6627418D01*
X1854911Y6627520D01*
X1850643Y6628739D01*
X1847291Y6631635D01*
X1845513Y6635699D01*
X1845665Y6640118D01*
X1851710Y6651396D01*
X1853895Y6658609D01*
X1854707Y6666636D01*
X1854707Y7965440D01*
X1855368Y7969046D01*
X1857298Y7972196D01*
X1860194Y7974431D01*
X1863699Y7975498D01*
X1866341Y7975803D01*
X1871827Y7977733D01*
X1875739Y7980222D01*
X1879193Y7981594D01*
X1883003Y7981645D01*
X1887524Y7979613D01*
X1887524Y8026400D01*
X1883105Y8026400D01*
X1879447Y8027060D01*
X1876247Y8029041D01*
X1874012Y8032038D01*
X1860042Y8059978D01*
X1859076Y8062925D01*
X1859076Y8066074D01*
X1860042Y8069021D01*
X1874012Y8096961D01*
X1876247Y8099958D01*
X1879447Y8101939D01*
X1883105Y8102600D01*
X1887524Y8102600D01*
X1887524Y8149386D01*
X1883003Y8147354D01*
X1879193Y8147405D01*
X1875739Y8148777D01*
X1871827Y8151266D01*
X1866341Y8153196D01*
X1859991Y8153908D01*
X1797354Y8153908D01*
X1790903Y8153501D01*
X1786229Y8152739D01*
X1781708Y8151520D01*
X1777238Y8149894D01*
X1772920Y8147862D01*
X1768906Y8145475D01*
X1765046Y8142681D01*
X1761489Y8139531D01*
X1758238Y8136077D01*
X1755292Y8132368D01*
X1752752Y8128406D01*
X1750517Y8124190D01*
X1748739Y8119821D01*
X1747418Y8115401D01*
X1746148Y8108645D01*
X1745742Y8102295D01*
X1745742Y8026704D01*
X1746148Y8020253D01*
X1746910Y8015579D01*
X1748129Y8011058D01*
X1749755Y8006588D01*
X1751787Y8002270D01*
X1754174Y7998256D01*
X1756968Y7994396D01*
X1760118Y7990840D01*
X1763572Y7987588D01*
X1767230Y7984693D01*
X1772716Y7981238D01*
X1775256Y7978952D01*
X1776933Y7975955D01*
X1777492Y7972602D01*
X1777492Y6686346D01*
X1776730Y6682435D01*
X1774494Y6679133D01*
X1766468Y6671106D01*
X1762810Y6668770D01*
X1758543Y6668160D01*
X1754378Y6669430D01*
X1751126Y6672325D01*
X1749348Y6676288D01*
X1748282Y6681470D01*
X1743862Y6694170D01*
X1737817Y6706209D01*
X1730197Y6717334D01*
X1721154Y6727342D01*
X1710842Y6736029D01*
X1699463Y6743293D01*
X1687271Y6748932D01*
X1674368Y6752945D01*
X1661109Y6755180D01*
X1647647Y6755638D01*
X1634236Y6754266D01*
X1621129Y6751167D01*
X1608531Y6746290D01*
X1596694Y6739839D01*
X1585874Y6731863D01*
X1576171Y6722465D01*
X1567840Y6711899D01*
X1560982Y6700316D01*
X1555699Y6687870D01*
X1552143Y6674916D01*
X1550314Y6661556D01*
X1550314Y6648043D01*
X1552143Y6634683D01*
X1555699Y6621729D01*
X1560982Y6609283D01*
X1567840Y6597700D01*
X1576171Y6587134D01*
X1585874Y6577736D01*
X1596694Y6569760D01*
X1608531Y6563309D01*
X1621129Y6558432D01*
X1634236Y6555333D01*
X1647596Y6553962D01*
X1662328Y6554520D01*
X1666341Y6553911D01*
X1669796Y6551726D01*
X1672082Y6548374D01*
X1672894Y6544411D01*
X1672894Y5362905D01*
X1673707Y5354878D01*
X1675892Y5347665D01*
X1679448Y5340959D01*
X1684578Y5334762D01*
X1724558Y5294782D01*
X1726793Y5291378D01*
X1727504Y5287365D01*
X1726641Y5283403D01*
X1723745Y5277053D01*
X1719224Y5262575D01*
X1716481Y5247589D01*
X1715566Y5232400D01*
X1716481Y5217261D01*
X1719224Y5202275D01*
X1723745Y5187797D01*
X1729993Y5173929D01*
X1733702Y5167782D01*
X1735074Y5163972D01*
X1734820Y5159908D01*
X1732991Y5156301D01*
X1729943Y5153660D01*
X1726031Y5152440D01*
X1722018Y5152847D01*
X1718462Y5154777D01*
X1710842Y5161229D01*
X1699463Y5168493D01*
X1687271Y5174132D01*
X1674368Y5178145D01*
X1661109Y5180380D01*
X1647647Y5180838D01*
X1634236Y5179466D01*
X1621129Y5176367D01*
X1608531Y5171490D01*
X1596694Y5165039D01*
X1585874Y5157063D01*
X1576171Y5147665D01*
X1567840Y5137099D01*
X1560982Y5125516D01*
X1555699Y5113070D01*
X1552143Y5100116D01*
X1550314Y5086756D01*
X1550314Y5073243D01*
X1552143Y5059883D01*
X1555699Y5046929D01*
X1560982Y5034483D01*
X1567840Y5022900D01*
X1576171Y5012334D01*
X1585874Y5002936D01*
X1596694Y4994960D01*
X1608531Y4988509D01*
X1621129Y4983632D01*
X1634236Y4980533D01*
X1647647Y4979162D01*
X1661109Y4979619D01*
X1674368Y4981854D01*
X1687271Y4985867D01*
X1699463Y4991506D01*
X1710842Y4998770D01*
X1721154Y5007457D01*
X1730197Y5017465D01*
X1737817Y5028590D01*
X1743862Y5040630D01*
X1748282Y5053330D01*
X1750974Y5066538D01*
X1751888Y5080000D01*
X1750974Y5093462D01*
X1748282Y5106670D01*
X1743862Y5119370D01*
X1738884Y5129326D01*
X1737817Y5133238D01*
X1738375Y5137251D01*
X1740458Y5140756D01*
X1743760Y5143144D01*
X1747723Y5144058D01*
X1751736Y5143296D01*
X1755139Y5141061D01*
X1757984Y5138216D01*
X1769973Y5128818D01*
X1782978Y5120944D01*
X1796846Y5114696D01*
X1811324Y5110175D01*
X1826310Y5107432D01*
X1841500Y5106517D01*
X1856638Y5107432D01*
X1871624Y5110175D01*
X1886102Y5114696D01*
X1899970Y5120944D01*
X1912975Y5128818D01*
X1924964Y5138216D01*
X1935683Y5148935D01*
X1942388Y5157470D01*
X1945589Y5160162D01*
X1949551Y5161330D01*
X1953717Y5160822D01*
X1957273Y5158689D01*
X1959711Y5155285D01*
X1960575Y5151221D01*
X1960575Y3240074D01*
X1961337Y3232048D01*
X1963521Y3224834D01*
X1967077Y3218180D01*
X1972208Y3211931D01*
X2403094Y2781046D01*
X2405126Y2778150D01*
X2406040Y2774696D01*
X2405735Y2771140D01*
X2401874Y2757170D01*
X2400046Y2743657D01*
X2400046Y2730042D01*
X2401874Y2716530D01*
X2405481Y2703372D01*
X2410764Y2690825D01*
X2417724Y2679090D01*
X2426208Y2668371D01*
X2436012Y2658872D01*
X2446985Y2650794D01*
X2458923Y2644241D01*
X2471674Y2639364D01*
X2484932Y2636164D01*
X2498496Y2634843D01*
X2512110Y2635300D01*
X2525572Y2637536D01*
X2538577Y2641600D01*
X2550972Y2647340D01*
X2553106Y2648712D01*
X2557170Y2650185D01*
X2561437Y2649880D01*
X2565247Y2647797D01*
X2567787Y2644343D01*
X2568752Y2640126D01*
X2568752Y2608478D01*
X2567940Y2604617D01*
X2565755Y2601315D01*
X2545943Y2581503D01*
X2542946Y2579420D01*
X2539390Y2578557D01*
X2535783Y2579014D01*
X2525572Y2582164D01*
X2512110Y2584399D01*
X2498496Y2584856D01*
X2484932Y2583535D01*
X2471674Y2580335D01*
X2458923Y2575458D01*
X2446985Y2568905D01*
X2436012Y2560828D01*
X2426208Y2551328D01*
X2417724Y2540609D01*
X2410764Y2528874D01*
X2405481Y2516327D01*
X2401874Y2503170D01*
X2400046Y2489657D01*
X2400046Y2476042D01*
X2401874Y2462530D01*
X2405481Y2449372D01*
X2410764Y2436825D01*
X2417724Y2425090D01*
X2426208Y2414371D01*
X2436012Y2404872D01*
X2446985Y2396794D01*
X2458923Y2390241D01*
X2471674Y2385364D01*
X2484932Y2382164D01*
X2498496Y2380843D01*
X2512110Y2381300D01*
X2525572Y2383536D01*
X2538577Y2387600D01*
X2550972Y2393340D01*
X2562453Y2400655D01*
X2572867Y2409444D01*
X2582011Y2419604D01*
X2589733Y2430830D01*
X2595880Y2442972D01*
X2600350Y2455875D01*
X2603093Y2469235D01*
X2604008Y2482850D01*
X2603093Y2496464D01*
X2600350Y2509824D01*
X2598115Y2516327D01*
X2597556Y2520086D01*
X2598369Y2523744D01*
X2600502Y2526842D01*
X2634284Y2560624D01*
X2639415Y2566873D01*
X2642971Y2573528D01*
X2645156Y2580741D01*
X2645968Y2588768D01*
X2645968Y3041345D01*
X2646730Y3045206D01*
X2648915Y3048508D01*
X2650540Y3050133D01*
X2655163Y3056737D01*
X2658262Y3059633D01*
X2662275Y3061004D01*
X2666542Y3060598D01*
X2670200Y3058515D01*
X2672740Y3055061D01*
X2673654Y3050895D01*
X2673654Y2088845D01*
X2674416Y2080818D01*
X2676601Y2073605D01*
X2680157Y2066950D01*
X2685288Y2060702D01*
X2819349Y1926691D01*
X2821482Y1923440D01*
X2822295Y1919630D01*
X2821635Y1915820D01*
X2817063Y1903984D01*
X2813354Y1889404D01*
X2811526Y1874418D01*
X2811526Y1859381D01*
X2813354Y1844395D01*
X2817063Y1829816D01*
X2822498Y1815744D01*
X2829610Y1802434D01*
X2838348Y1790141D01*
X2848508Y1779016D01*
X2859938Y1769211D01*
X2872486Y1760880D01*
X2885998Y1754174D01*
X2899308Y1749501D01*
X2902864Y1747316D01*
X2905252Y1743964D01*
X2906064Y1739900D01*
X2905252Y1735836D01*
X2902864Y1732483D01*
X2899308Y1730298D01*
X2885998Y1725625D01*
X2872486Y1718919D01*
X2859938Y1710588D01*
X2848508Y1700784D01*
X2838348Y1689658D01*
X2829610Y1677314D01*
X2822498Y1664055D01*
X2817063Y1649984D01*
X2813354Y1635404D01*
X2811526Y1620418D01*
X2811526Y1605381D01*
X2813354Y1590395D01*
X2817063Y1575816D01*
X2822498Y1561744D01*
X2829610Y1548434D01*
X2838348Y1536141D01*
X2848508Y1525016D01*
X2859938Y1515211D01*
X2872486Y1506880D01*
X2885998Y1500174D01*
X2899308Y1495501D01*
X2902864Y1493316D01*
X2905252Y1489964D01*
X2906064Y1485900D01*
X2905252Y1481836D01*
X2902864Y1478483D01*
X2899308Y1476298D01*
X2885998Y1471625D01*
X2872486Y1464919D01*
X2859938Y1456588D01*
X2848508Y1446784D01*
X2838348Y1435658D01*
X2829610Y1423314D01*
X2822498Y1410055D01*
X2817063Y1395984D01*
X2813354Y1381404D01*
X2811526Y1366418D01*
X2811526Y1351381D01*
X2813354Y1336395D01*
X2817063Y1321816D01*
X2822498Y1307744D01*
X2829610Y1294434D01*
X2838348Y1282141D01*
X2848508Y1271016D01*
X2859938Y1261211D01*
X2872486Y1252880D01*
X2885998Y1246174D01*
X2899308Y1241501D01*
X2902864Y1239316D01*
X2905252Y1235964D01*
X2906064Y1231900D01*
X2905252Y1227836D01*
X2902864Y1224483D01*
X2899308Y1222298D01*
X2885998Y1217625D01*
X2872486Y1210919D01*
X2859938Y1202588D01*
X2848508Y1192784D01*
X2838348Y1181658D01*
X2829610Y1169314D01*
X2822498Y1156055D01*
X2817063Y1141984D01*
X2813354Y1127404D01*
X2811526Y1112418D01*
X2811526Y1097381D01*
X2813354Y1082395D01*
X2817063Y1067816D01*
X2822498Y1053744D01*
X2829610Y1040434D01*
X2838348Y1028141D01*
X2848508Y1017016D01*
X2859938Y1007211D01*
X2872486Y998880D01*
X2885998Y992174D01*
X2899308Y987501D01*
X2902864Y985316D01*
X2905252Y981964D01*
X2906064Y977900D01*
X2905252Y973836D01*
X2902864Y970483D01*
X2899308Y968298D01*
X2885998Y963625D01*
X2872486Y956919D01*
X2859938Y948588D01*
X2848508Y938784D01*
X2838348Y927658D01*
X2829610Y915314D01*
X2822498Y902055D01*
X2817063Y887984D01*
X2813354Y873404D01*
X2811526Y858418D01*
X2811526Y843381D01*
X2813354Y828395D01*
X2817063Y813816D01*
X2822498Y799744D01*
X2829610Y786434D01*
X2838348Y774141D01*
X2848508Y763016D01*
X2859938Y753211D01*
X2872486Y744880D01*
X2885998Y738174D01*
X2899308Y733501D01*
X2902864Y731316D01*
X2905252Y727964D01*
X2906064Y723900D01*
X2905252Y719836D01*
X2902864Y716483D01*
X2899308Y714298D01*
X2885998Y709625D01*
X2872486Y702919D01*
X2859938Y694588D01*
X2848508Y684784D01*
X2838348Y673658D01*
X2829610Y661314D01*
X2822498Y648055D01*
X2817063Y633984D01*
X2813354Y619404D01*
X2811526Y604418D01*
X2811526Y589381D01*
X2813354Y574395D01*
X2817063Y559816D01*
X2822498Y545744D01*
X2829610Y532434D01*
X2838348Y520141D01*
X2848508Y509016D01*
X2859938Y499211D01*
X2872486Y490880D01*
X2885998Y484174D01*
X2899308Y479501D01*
X2902864Y477316D01*
X2905252Y473964D01*
X2906064Y469900D01*
X2905252Y465835D01*
X2902864Y462483D01*
X2899308Y460298D01*
X2885998Y455625D01*
X2872486Y448919D01*
X2859938Y440588D01*
X2848508Y430784D01*
X2838348Y419658D01*
X2829610Y407314D01*
X2822498Y394055D01*
X2817063Y379984D01*
X2813354Y365404D01*
X2811526Y350418D01*
X2811526Y335381D01*
X2813354Y320395D01*
X2817063Y305816D01*
X2822498Y291744D01*
X2829610Y278434D01*
X2838348Y266141D01*
X2848508Y255016D01*
X2859938Y245211D01*
X2872486Y236880D01*
X2885998Y230174D01*
X2900222Y225145D01*
X2914904Y221945D01*
X2929940Y220573D01*
X2944977Y221030D01*
X2959862Y223316D01*
X2974390Y227431D01*
X2988259Y233324D01*
X3001314Y240842D01*
X3013354Y249936D01*
X3024174Y260451D01*
X3033623Y272186D01*
X3041548Y284988D01*
X3047847Y298704D01*
X3052419Y313029D01*
X3055162Y327863D01*
X3056128Y342900D01*
X3055162Y357936D01*
X3052419Y372770D01*
X3047847Y387096D01*
X3041548Y400812D01*
X3033623Y413613D01*
X3024174Y425348D01*
X3013354Y435864D01*
X3001314Y444957D01*
X2988259Y452475D01*
X2974390Y458368D01*
X2968142Y460146D01*
X2964281Y462178D01*
X2961690Y465632D01*
X2960776Y469900D01*
X2961690Y474167D01*
X2964281Y477621D01*
X2968142Y479653D01*
X2974390Y481431D01*
X2988259Y487324D01*
X3001314Y494842D01*
X3013354Y503935D01*
X3024174Y514451D01*
X3033623Y526186D01*
X3041548Y538988D01*
X3047847Y552704D01*
X3052419Y567029D01*
X3055162Y581863D01*
X3056128Y596900D01*
X3055162Y611936D01*
X3052419Y626770D01*
X3047847Y641096D01*
X3041548Y654812D01*
X3033623Y667613D01*
X3024174Y679348D01*
X3013354Y689864D01*
X3001314Y698957D01*
X2988259Y706475D01*
X2974390Y712368D01*
X2968142Y714146D01*
X2964281Y716178D01*
X2961690Y719632D01*
X2960776Y723900D01*
X2961690Y728167D01*
X2964281Y731621D01*
X2968142Y733653D01*
X2974390Y735431D01*
X2988259Y741324D01*
X3001314Y748842D01*
X3013354Y757936D01*
X3024174Y768451D01*
X3033623Y780186D01*
X3041548Y792988D01*
X3047847Y806704D01*
X3052419Y821029D01*
X3055162Y835863D01*
X3056128Y850900D01*
X3055162Y865936D01*
X3052419Y880770D01*
X3047847Y895096D01*
X3045968Y899210D01*
X3045053Y903173D01*
X3045764Y907186D01*
X3048000Y910640D01*
X3729685Y1592275D01*
X3731971Y1595069D01*
X3735171Y1597660D01*
X3739184Y1598777D01*
X3743248Y1598218D01*
X3746754Y1596034D01*
X3749141Y1592681D01*
X3750005Y1588617D01*
X3750005Y60147D01*
X3749243Y56286D01*
X3747008Y52984D01*
X3743706Y50749D01*
X3739845Y49987D01*
G37*

%LPC*%
G36*
X212496Y94843D02*
G01*
X226110Y95300D01*
X239572Y97536D01*
X252577Y101600D01*
X264972Y107340D01*
X276453Y114655D01*
X286867Y123444D01*
X296011Y133604D01*
X303733Y144830D01*
X309880Y156972D01*
X314350Y169875D01*
X317093Y183235D01*
X318008Y196850D01*
X317093Y210464D01*
X314350Y223824D01*
X309880Y236728D01*
X303733Y248869D01*
X296011Y260096D01*
X286867Y270256D01*
X276453Y279044D01*
X264972Y286359D01*
X252577Y292100D01*
X239572Y296164D01*
X226110Y298399D01*
X212496Y298856D01*
X198932Y297535D01*
X185674Y294335D01*
X172923Y289458D01*
X160985Y282905D01*
X150012Y274828D01*
X140208Y265328D01*
X131724Y254609D01*
X124764Y242874D01*
X119481Y230327D01*
X115874Y217170D01*
X114046Y203657D01*
X114046Y190042D01*
X115874Y176530D01*
X119481Y163372D01*
X124764Y150825D01*
X131724Y139090D01*
X140208Y128371D01*
X150012Y118872D01*
X160985Y110794D01*
X172923Y104241D01*
X185674Y99364D01*
X198932Y96164D01*
G37*
G36*
X2498496Y94843D02*
G01*
X2512110Y95300D01*
X2525572Y97536D01*
X2538577Y101600D01*
X2550972Y107340D01*
X2562453Y114655D01*
X2572867Y123444D01*
X2582011Y133604D01*
X2589733Y144830D01*
X2595880Y156972D01*
X2600350Y169875D01*
X2603093Y183235D01*
X2604008Y196850D01*
X2603093Y210464D01*
X2600350Y223824D01*
X2595880Y236728D01*
X2589733Y248869D01*
X2582011Y260096D01*
X2572867Y270256D01*
X2562453Y279044D01*
X2550972Y286359D01*
X2538577Y292100D01*
X2525572Y296164D01*
X2512110Y298399D01*
X2498496Y298856D01*
X2484932Y297535D01*
X2471674Y294335D01*
X2458923Y289458D01*
X2446985Y282905D01*
X2436012Y274828D01*
X2426208Y265328D01*
X2417724Y254609D01*
X2410764Y242874D01*
X2405481Y230327D01*
X2401874Y217170D01*
X2400046Y203657D01*
X2400046Y190042D01*
X2401874Y176530D01*
X2405481Y163372D01*
X2410764Y150825D01*
X2417724Y139090D01*
X2426208Y128371D01*
X2436012Y118872D01*
X2446985Y110794D01*
X2458923Y104241D01*
X2471674Y99364D01*
X2484932Y96164D01*
G37*
G36*
X212496Y348843D02*
G01*
X226110Y349300D01*
X239572Y351536D01*
X252577Y355600D01*
X264972Y361340D01*
X276453Y368655D01*
X286867Y377444D01*
X296011Y387604D01*
X303733Y398830D01*
X309880Y410972D01*
X314350Y423875D01*
X317093Y437235D01*
X318008Y450850D01*
X317093Y464464D01*
X314350Y477824D01*
X309880Y490728D01*
X303733Y502869D01*
X296011Y514096D01*
X286867Y524256D01*
X276453Y533044D01*
X264972Y540359D01*
X252577Y546100D01*
X239572Y550164D01*
X226110Y552399D01*
X212496Y552856D01*
X198932Y551535D01*
X185674Y548335D01*
X172923Y543458D01*
X160985Y536905D01*
X150012Y528828D01*
X140208Y519328D01*
X131724Y508609D01*
X124764Y496874D01*
X119481Y484327D01*
X115874Y471170D01*
X114046Y457657D01*
X114046Y444042D01*
X115874Y430530D01*
X119481Y417372D01*
X124764Y404825D01*
X131724Y393090D01*
X140208Y382371D01*
X150012Y372872D01*
X160985Y364794D01*
X172923Y358241D01*
X185674Y353364D01*
X198932Y350164D01*
G37*
G36*
X2498496Y348843D02*
G01*
X2512110Y349300D01*
X2525572Y351536D01*
X2538577Y355600D01*
X2550972Y361340D01*
X2562453Y368655D01*
X2572867Y377444D01*
X2582011Y387604D01*
X2589733Y398830D01*
X2595880Y410972D01*
X2600350Y423875D01*
X2603093Y437235D01*
X2604008Y450850D01*
X2603093Y464464D01*
X2600350Y477824D01*
X2595880Y490728D01*
X2589733Y502869D01*
X2582011Y514096D01*
X2572867Y524256D01*
X2562453Y533044D01*
X2550972Y540359D01*
X2538577Y546100D01*
X2525572Y550164D01*
X2512110Y552399D01*
X2498496Y552856D01*
X2484932Y551535D01*
X2471674Y548335D01*
X2458923Y543458D01*
X2446985Y536905D01*
X2436012Y528828D01*
X2426208Y519328D01*
X2417724Y508609D01*
X2410764Y496874D01*
X2405481Y484327D01*
X2401874Y471170D01*
X2400046Y457657D01*
X2400046Y444042D01*
X2401874Y430530D01*
X2405481Y417372D01*
X2410764Y404825D01*
X2417724Y393090D01*
X2426208Y382371D01*
X2436012Y372872D01*
X2446985Y364794D01*
X2458923Y358241D01*
X2471674Y353364D01*
X2484932Y350164D01*
G37*
G36*
X212496Y602843D02*
G01*
X226110Y603300D01*
X239572Y605536D01*
X252577Y609600D01*
X264972Y615340D01*
X276453Y622655D01*
X286867Y631444D01*
X296011Y641604D01*
X303733Y652830D01*
X309880Y664972D01*
X314350Y677875D01*
X317093Y691235D01*
X318008Y704850D01*
X317093Y718464D01*
X314350Y731824D01*
X309880Y744728D01*
X303733Y756869D01*
X296011Y768096D01*
X286867Y778256D01*
X276453Y787044D01*
X264972Y794359D01*
X252577Y800100D01*
X239572Y804164D01*
X226110Y806399D01*
X212496Y806856D01*
X198932Y805535D01*
X185674Y802335D01*
X172923Y797458D01*
X160985Y790905D01*
X150012Y782828D01*
X140208Y773328D01*
X131724Y762609D01*
X124764Y750874D01*
X119481Y738327D01*
X115874Y725170D01*
X114046Y711657D01*
X114046Y698042D01*
X115874Y684530D01*
X119481Y671372D01*
X124764Y658825D01*
X131724Y647090D01*
X140208Y636371D01*
X150012Y626872D01*
X160985Y618794D01*
X172923Y612241D01*
X185674Y607364D01*
X198932Y604164D01*
G37*
G36*
X2498496Y602843D02*
G01*
X2512110Y603300D01*
X2525572Y605536D01*
X2538577Y609600D01*
X2550972Y615340D01*
X2562453Y622655D01*
X2572867Y631444D01*
X2582011Y641604D01*
X2589733Y652830D01*
X2595880Y664972D01*
X2600350Y677875D01*
X2603093Y691235D01*
X2604008Y704850D01*
X2603093Y718464D01*
X2600350Y731824D01*
X2595880Y744728D01*
X2589733Y756869D01*
X2582011Y768096D01*
X2572867Y778256D01*
X2562453Y787044D01*
X2550972Y794359D01*
X2538577Y800100D01*
X2525572Y804164D01*
X2512110Y806399D01*
X2498496Y806856D01*
X2484932Y805535D01*
X2471674Y802335D01*
X2458923Y797458D01*
X2446985Y790905D01*
X2436012Y782828D01*
X2426208Y773328D01*
X2417724Y762609D01*
X2410764Y750874D01*
X2405481Y738327D01*
X2401874Y725170D01*
X2400046Y711657D01*
X2400046Y698042D01*
X2401874Y684530D01*
X2405481Y671372D01*
X2410764Y658825D01*
X2417724Y647090D01*
X2426208Y636371D01*
X2436012Y626872D01*
X2446985Y618794D01*
X2458923Y612241D01*
X2471674Y607364D01*
X2484932Y604164D01*
G37*
G36*
X212496Y856843D02*
G01*
X226110Y857300D01*
X239572Y859536D01*
X252577Y863600D01*
X264972Y869340D01*
X276453Y876655D01*
X286867Y885444D01*
X296011Y895603D01*
X303733Y906830D01*
X309880Y918971D01*
X314350Y931875D01*
X317093Y945235D01*
X318008Y958850D01*
X317093Y972464D01*
X314350Y985824D01*
X309880Y998728D01*
X303733Y1010869D01*
X296011Y1022096D01*
X286867Y1032256D01*
X276453Y1041044D01*
X264972Y1048359D01*
X252577Y1054100D01*
X239572Y1058164D01*
X226110Y1060399D01*
X212496Y1060856D01*
X198932Y1059535D01*
X185674Y1056335D01*
X172923Y1051458D01*
X160985Y1044905D01*
X150012Y1036828D01*
X140208Y1027328D01*
X131724Y1016609D01*
X124764Y1004874D01*
X119481Y992327D01*
X115874Y979169D01*
X114046Y965657D01*
X114046Y952042D01*
X115874Y938530D01*
X119481Y925372D01*
X124764Y912825D01*
X131724Y901090D01*
X140208Y890371D01*
X150012Y880871D01*
X160985Y872794D01*
X172923Y866241D01*
X185674Y861364D01*
X198932Y858164D01*
G37*
G36*
X2498496Y856843D02*
G01*
X2512110Y857300D01*
X2525572Y859536D01*
X2538577Y863600D01*
X2550972Y869340D01*
X2562453Y876655D01*
X2572867Y885444D01*
X2582011Y895603D01*
X2589733Y906830D01*
X2595880Y918971D01*
X2600350Y931875D01*
X2603093Y945235D01*
X2604008Y958850D01*
X2603093Y972464D01*
X2600350Y985824D01*
X2595880Y998728D01*
X2589733Y1010869D01*
X2582011Y1022096D01*
X2572867Y1032256D01*
X2562453Y1041044D01*
X2550972Y1048359D01*
X2538577Y1054100D01*
X2525572Y1058164D01*
X2512110Y1060399D01*
X2498496Y1060856D01*
X2484932Y1059535D01*
X2471674Y1056335D01*
X2458923Y1051458D01*
X2446985Y1044905D01*
X2436012Y1036828D01*
X2426208Y1027328D01*
X2417724Y1016609D01*
X2410764Y1004874D01*
X2405481Y992327D01*
X2401874Y979169D01*
X2400046Y965657D01*
X2400046Y952042D01*
X2401874Y938530D01*
X2405481Y925372D01*
X2410764Y912825D01*
X2417724Y901090D01*
X2426208Y890371D01*
X2436012Y880871D01*
X2446985Y872794D01*
X2458923Y866241D01*
X2471674Y861364D01*
X2484932Y858164D01*
G37*
G36*
X212496Y1110843D02*
G01*
X226110Y1111300D01*
X239572Y1113536D01*
X252577Y1117600D01*
X264972Y1123340D01*
X276453Y1130655D01*
X286867Y1139444D01*
X296011Y1149604D01*
X303733Y1160830D01*
X309880Y1172972D01*
X314350Y1185875D01*
X317093Y1199235D01*
X318008Y1212850D01*
X317093Y1226464D01*
X314350Y1239824D01*
X309880Y1252728D01*
X303733Y1264869D01*
X296011Y1276096D01*
X286867Y1286256D01*
X276453Y1295044D01*
X264972Y1302359D01*
X252577Y1308100D01*
X239572Y1312164D01*
X226110Y1314399D01*
X212496Y1314856D01*
X198932Y1313535D01*
X185674Y1310335D01*
X172923Y1305458D01*
X160985Y1298905D01*
X150012Y1290828D01*
X140208Y1281328D01*
X131724Y1270609D01*
X124764Y1258874D01*
X119481Y1246327D01*
X115874Y1233170D01*
X114046Y1219657D01*
X114046Y1206042D01*
X115874Y1192530D01*
X119481Y1179372D01*
X124764Y1166825D01*
X131724Y1155090D01*
X140208Y1144371D01*
X150012Y1134872D01*
X160985Y1126794D01*
X172923Y1120241D01*
X185674Y1115364D01*
X198932Y1112164D01*
G37*
G36*
X2498496Y1110843D02*
G01*
X2512110Y1111300D01*
X2525572Y1113536D01*
X2538577Y1117600D01*
X2550972Y1123340D01*
X2562453Y1130655D01*
X2572867Y1139444D01*
X2582011Y1149604D01*
X2589733Y1160830D01*
X2595880Y1172972D01*
X2600350Y1185875D01*
X2603093Y1199235D01*
X2604008Y1212850D01*
X2603093Y1226464D01*
X2600350Y1239824D01*
X2595880Y1252728D01*
X2589733Y1264869D01*
X2582011Y1276096D01*
X2572867Y1286256D01*
X2562453Y1295044D01*
X2550972Y1302359D01*
X2538577Y1308100D01*
X2525572Y1312164D01*
X2512110Y1314399D01*
X2498496Y1314856D01*
X2484932Y1313535D01*
X2471674Y1310335D01*
X2458923Y1305458D01*
X2446985Y1298905D01*
X2436012Y1290828D01*
X2426208Y1281328D01*
X2417724Y1270609D01*
X2410764Y1258874D01*
X2405481Y1246327D01*
X2401874Y1233170D01*
X2400046Y1219657D01*
X2400046Y1206042D01*
X2401874Y1192530D01*
X2405481Y1179372D01*
X2410764Y1166825D01*
X2417724Y1155090D01*
X2426208Y1144371D01*
X2436012Y1134872D01*
X2446985Y1126794D01*
X2458923Y1120241D01*
X2471674Y1115364D01*
X2484932Y1112164D01*
G37*
G36*
X212496Y1364843D02*
G01*
X226110Y1365300D01*
X239572Y1367536D01*
X252577Y1371600D01*
X264972Y1377340D01*
X276453Y1384655D01*
X286867Y1393444D01*
X296011Y1403604D01*
X303733Y1414830D01*
X309880Y1426972D01*
X314350Y1439875D01*
X317093Y1453235D01*
X318008Y1466850D01*
X317093Y1480464D01*
X314350Y1493824D01*
X309880Y1506728D01*
X303733Y1518869D01*
X296011Y1530096D01*
X286867Y1540256D01*
X276453Y1549044D01*
X264972Y1556359D01*
X252577Y1562100D01*
X239572Y1566164D01*
X226110Y1568399D01*
X212496Y1568856D01*
X198932Y1567535D01*
X185674Y1564335D01*
X172923Y1559458D01*
X160985Y1552905D01*
X150012Y1544828D01*
X140208Y1535328D01*
X131724Y1524609D01*
X124764Y1512874D01*
X119481Y1500327D01*
X115874Y1487170D01*
X114046Y1473657D01*
X114046Y1460042D01*
X115874Y1446530D01*
X119481Y1433372D01*
X124764Y1420825D01*
X131724Y1409090D01*
X140208Y1398371D01*
X150012Y1388872D01*
X160985Y1380794D01*
X172923Y1374241D01*
X185674Y1369364D01*
X198932Y1366164D01*
G37*
G36*
X2498496Y1364843D02*
G01*
X2512110Y1365300D01*
X2525572Y1367536D01*
X2538577Y1371600D01*
X2550972Y1377340D01*
X2562453Y1384655D01*
X2572867Y1393444D01*
X2582011Y1403604D01*
X2589733Y1414830D01*
X2595880Y1426972D01*
X2600350Y1439875D01*
X2603093Y1453235D01*
X2604008Y1466850D01*
X2603093Y1480464D01*
X2600350Y1493824D01*
X2595880Y1506728D01*
X2589733Y1518869D01*
X2582011Y1530096D01*
X2572867Y1540256D01*
X2562453Y1549044D01*
X2550972Y1556359D01*
X2538577Y1562100D01*
X2525572Y1566164D01*
X2512110Y1568399D01*
X2498496Y1568856D01*
X2484932Y1567535D01*
X2471674Y1564335D01*
X2458923Y1559458D01*
X2446985Y1552905D01*
X2436012Y1544828D01*
X2426208Y1535328D01*
X2417724Y1524609D01*
X2410764Y1512874D01*
X2405481Y1500327D01*
X2401874Y1487170D01*
X2400046Y1473657D01*
X2400046Y1460042D01*
X2401874Y1446530D01*
X2405481Y1433372D01*
X2410764Y1420825D01*
X2417724Y1409090D01*
X2426208Y1398371D01*
X2436012Y1388872D01*
X2446985Y1380794D01*
X2458923Y1374241D01*
X2471674Y1369364D01*
X2484932Y1366164D01*
G37*
G36*
X212496Y1618843D02*
G01*
X226110Y1619300D01*
X239572Y1621536D01*
X252577Y1625600D01*
X264972Y1631340D01*
X276453Y1638655D01*
X286867Y1647443D01*
X296011Y1657604D01*
X303733Y1668830D01*
X309880Y1680972D01*
X314350Y1693875D01*
X317093Y1707235D01*
X318008Y1720850D01*
X317093Y1734464D01*
X314350Y1747824D01*
X309880Y1760728D01*
X303733Y1772869D01*
X296011Y1784096D01*
X286867Y1794256D01*
X276453Y1803044D01*
X264972Y1810359D01*
X252577Y1816100D01*
X239572Y1820164D01*
X226110Y1822399D01*
X212496Y1822856D01*
X198932Y1821535D01*
X185674Y1818335D01*
X172923Y1813458D01*
X160985Y1806905D01*
X150012Y1798828D01*
X140208Y1789328D01*
X131724Y1778609D01*
X124764Y1766874D01*
X119481Y1754327D01*
X115874Y1741170D01*
X114046Y1727657D01*
X114046Y1714042D01*
X115874Y1700530D01*
X119481Y1687372D01*
X124764Y1674825D01*
X131724Y1663090D01*
X140208Y1652371D01*
X150012Y1642872D01*
X160985Y1634794D01*
X172923Y1628241D01*
X185674Y1623364D01*
X198932Y1620164D01*
G37*
G36*
X2498496Y1618843D02*
G01*
X2512110Y1619300D01*
X2525572Y1621536D01*
X2538577Y1625600D01*
X2550972Y1631340D01*
X2562453Y1638655D01*
X2572867Y1647443D01*
X2582011Y1657604D01*
X2589733Y1668830D01*
X2595880Y1680972D01*
X2600350Y1693875D01*
X2603093Y1707235D01*
X2604008Y1720850D01*
X2603093Y1734464D01*
X2600350Y1747824D01*
X2595880Y1760728D01*
X2589733Y1772869D01*
X2582011Y1784096D01*
X2572867Y1794256D01*
X2562453Y1803044D01*
X2550972Y1810359D01*
X2538577Y1816100D01*
X2525572Y1820164D01*
X2512110Y1822399D01*
X2498496Y1822856D01*
X2484932Y1821535D01*
X2471674Y1818335D01*
X2458923Y1813458D01*
X2446985Y1806905D01*
X2436012Y1798828D01*
X2426208Y1789328D01*
X2417724Y1778609D01*
X2410764Y1766874D01*
X2405481Y1754327D01*
X2401874Y1741170D01*
X2400046Y1727657D01*
X2400046Y1714042D01*
X2401874Y1700530D01*
X2405481Y1687372D01*
X2410764Y1674825D01*
X2417724Y1663090D01*
X2426208Y1652371D01*
X2436012Y1642872D01*
X2446985Y1634794D01*
X2458923Y1628241D01*
X2471674Y1623364D01*
X2484932Y1620164D01*
G37*
G36*
X212496Y1872843D02*
G01*
X226110Y1873300D01*
X239572Y1875536D01*
X252577Y1879600D01*
X264972Y1885340D01*
X276453Y1892655D01*
X286867Y1901443D01*
X296011Y1911604D01*
X303733Y1922830D01*
X309880Y1934972D01*
X314350Y1947875D01*
X317093Y1961235D01*
X318008Y1974850D01*
X317093Y1988464D01*
X314350Y2001824D01*
X309880Y2014728D01*
X303733Y2026869D01*
X296011Y2038096D01*
X286867Y2048256D01*
X276453Y2057044D01*
X264972Y2064359D01*
X252577Y2070100D01*
X239572Y2074164D01*
X226110Y2076399D01*
X212496Y2076856D01*
X198932Y2075535D01*
X185674Y2072335D01*
X172923Y2067458D01*
X160985Y2060905D01*
X150012Y2052828D01*
X140208Y2043328D01*
X131724Y2032609D01*
X124764Y2020874D01*
X119481Y2008327D01*
X115874Y1995170D01*
X114046Y1981657D01*
X114046Y1968042D01*
X115874Y1954530D01*
X119481Y1941372D01*
X124764Y1928825D01*
X131724Y1917090D01*
X140208Y1906371D01*
X150012Y1896872D01*
X160985Y1888794D01*
X172923Y1882241D01*
X185674Y1877364D01*
X198932Y1874164D01*
G37*
G36*
X2498496Y1872843D02*
G01*
X2512110Y1873300D01*
X2525572Y1875536D01*
X2538577Y1879600D01*
X2550972Y1885340D01*
X2562453Y1892655D01*
X2572867Y1901443D01*
X2582011Y1911604D01*
X2589733Y1922830D01*
X2595880Y1934972D01*
X2600350Y1947875D01*
X2603093Y1961235D01*
X2604008Y1974850D01*
X2603093Y1988464D01*
X2600350Y2001824D01*
X2595880Y2014728D01*
X2589733Y2026869D01*
X2582011Y2038096D01*
X2572867Y2048256D01*
X2562453Y2057044D01*
X2550972Y2064359D01*
X2538577Y2070100D01*
X2525572Y2074164D01*
X2512110Y2076399D01*
X2498496Y2076856D01*
X2484932Y2075535D01*
X2471674Y2072335D01*
X2458923Y2067458D01*
X2446985Y2060905D01*
X2436012Y2052828D01*
X2426208Y2043328D01*
X2417724Y2032609D01*
X2410764Y2020874D01*
X2405481Y2008327D01*
X2401874Y1995170D01*
X2400046Y1981657D01*
X2400046Y1968042D01*
X2401874Y1954530D01*
X2405481Y1941372D01*
X2410764Y1928825D01*
X2417724Y1917090D01*
X2426208Y1906371D01*
X2436012Y1896872D01*
X2446985Y1888794D01*
X2458923Y1882241D01*
X2471674Y1877364D01*
X2484932Y1874164D01*
G37*
G36*
X212496Y2126843D02*
G01*
X226110Y2127300D01*
X239572Y2129536D01*
X252577Y2133600D01*
X264972Y2139340D01*
X276453Y2146655D01*
X286867Y2155444D01*
X296011Y2165604D01*
X303733Y2176830D01*
X309880Y2188972D01*
X314350Y2201875D01*
X317093Y2215235D01*
X318008Y2228850D01*
X317093Y2242464D01*
X314350Y2255824D01*
X309880Y2268728D01*
X303733Y2280869D01*
X296011Y2292096D01*
X286867Y2302256D01*
X276453Y2311044D01*
X264972Y2318359D01*
X252577Y2324100D01*
X239572Y2328164D01*
X226110Y2330399D01*
X212496Y2330856D01*
X198932Y2329535D01*
X185674Y2326335D01*
X172923Y2321458D01*
X160985Y2314905D01*
X150012Y2306828D01*
X140208Y2297328D01*
X131724Y2286609D01*
X124764Y2274874D01*
X119481Y2262327D01*
X115874Y2249170D01*
X114046Y2235657D01*
X114046Y2222042D01*
X115874Y2208530D01*
X119481Y2195372D01*
X124764Y2182825D01*
X131724Y2171090D01*
X140208Y2160371D01*
X150012Y2150872D01*
X160985Y2142794D01*
X172923Y2136241D01*
X185674Y2131364D01*
X198932Y2128164D01*
G37*
G36*
X2498496Y2126843D02*
G01*
X2512110Y2127300D01*
X2525572Y2129536D01*
X2538577Y2133600D01*
X2550972Y2139340D01*
X2562453Y2146655D01*
X2572867Y2155444D01*
X2582011Y2165604D01*
X2589733Y2176830D01*
X2595880Y2188972D01*
X2600350Y2201875D01*
X2603093Y2215235D01*
X2604008Y2228850D01*
X2603093Y2242464D01*
X2600350Y2255824D01*
X2595880Y2268728D01*
X2589733Y2280869D01*
X2582011Y2292096D01*
X2572867Y2302256D01*
X2562453Y2311044D01*
X2550972Y2318359D01*
X2538577Y2324100D01*
X2525572Y2328164D01*
X2512110Y2330399D01*
X2498496Y2330856D01*
X2484932Y2329535D01*
X2471674Y2326335D01*
X2458923Y2321458D01*
X2446985Y2314905D01*
X2436012Y2306828D01*
X2426208Y2297328D01*
X2417724Y2286609D01*
X2410764Y2274874D01*
X2405481Y2262327D01*
X2401874Y2249170D01*
X2400046Y2235657D01*
X2400046Y2222042D01*
X2401874Y2208530D01*
X2405481Y2195372D01*
X2410764Y2182825D01*
X2417724Y2171090D01*
X2426208Y2160371D01*
X2436012Y2150872D01*
X2446985Y2142794D01*
X2458923Y2136241D01*
X2471674Y2131364D01*
X2484932Y2128164D01*
G37*
G36*
X212496Y2380843D02*
G01*
X226110Y2381300D01*
X239572Y2383536D01*
X252577Y2387600D01*
X264972Y2393340D01*
X276453Y2400655D01*
X286867Y2409444D01*
X296011Y2419604D01*
X303733Y2430830D01*
X309880Y2442972D01*
X314350Y2455875D01*
X317093Y2469235D01*
X318008Y2482850D01*
X317093Y2496464D01*
X314350Y2509824D01*
X309880Y2522728D01*
X303733Y2534869D01*
X296011Y2546096D01*
X286867Y2556256D01*
X276453Y2565044D01*
X264972Y2572359D01*
X252577Y2578100D01*
X239572Y2582164D01*
X226110Y2584399D01*
X212496Y2584856D01*
X198932Y2583535D01*
X185674Y2580335D01*
X172923Y2575458D01*
X160985Y2568905D01*
X150012Y2560828D01*
X140208Y2551328D01*
X131724Y2540609D01*
X124764Y2528874D01*
X119481Y2516327D01*
X115874Y2503170D01*
X114046Y2489657D01*
X114046Y2476042D01*
X115874Y2462530D01*
X119481Y2449372D01*
X124764Y2436825D01*
X131724Y2425090D01*
X140208Y2414371D01*
X150012Y2404872D01*
X160985Y2396794D01*
X172923Y2390241D01*
X185674Y2385364D01*
X198932Y2382164D01*
G37*
G36*
X212496Y2634843D02*
G01*
X226110Y2635300D01*
X239572Y2637536D01*
X252577Y2641600D01*
X264972Y2647340D01*
X276453Y2654655D01*
X286867Y2663444D01*
X296011Y2673604D01*
X303733Y2684830D01*
X309880Y2696972D01*
X314350Y2709875D01*
X317093Y2723235D01*
X318008Y2736850D01*
X317093Y2750464D01*
X314350Y2763824D01*
X309880Y2776728D01*
X303733Y2788869D01*
X296011Y2800096D01*
X286867Y2810256D01*
X276453Y2819044D01*
X264972Y2826359D01*
X252577Y2832100D01*
X239572Y2836164D01*
X226110Y2838399D01*
X212496Y2838856D01*
X198932Y2837535D01*
X185674Y2834335D01*
X172923Y2829458D01*
X160985Y2822905D01*
X150012Y2814828D01*
X140208Y2805328D01*
X131724Y2794609D01*
X124764Y2782874D01*
X119481Y2770327D01*
X115874Y2757170D01*
X114046Y2743657D01*
X114046Y2730042D01*
X115874Y2716530D01*
X119481Y2703372D01*
X124764Y2690825D01*
X131724Y2679090D01*
X140208Y2668371D01*
X150012Y2658872D01*
X160985Y2650794D01*
X172923Y2644241D01*
X185674Y2639364D01*
X198932Y2636164D01*
G37*
G36*
X212496Y2888843D02*
G01*
X226110Y2889300D01*
X239572Y2891536D01*
X252577Y2895600D01*
X264972Y2901340D01*
X276453Y2908655D01*
X286867Y2917444D01*
X296011Y2927604D01*
X303733Y2938830D01*
X309880Y2950972D01*
X314350Y2963875D01*
X317093Y2977235D01*
X318008Y2990850D01*
X317093Y3004464D01*
X314350Y3017824D01*
X309880Y3030728D01*
X303733Y3042869D01*
X296011Y3054096D01*
X286867Y3064256D01*
X276453Y3073044D01*
X264972Y3080359D01*
X252577Y3086100D01*
X239572Y3090164D01*
X226110Y3092399D01*
X212496Y3092856D01*
X198932Y3091535D01*
X185674Y3088335D01*
X172923Y3083458D01*
X160985Y3076905D01*
X150012Y3068828D01*
X140208Y3059328D01*
X131724Y3048609D01*
X124764Y3036874D01*
X119481Y3024327D01*
X115874Y3011170D01*
X114046Y2997657D01*
X114046Y2984042D01*
X115874Y2970530D01*
X119481Y2957372D01*
X124764Y2944825D01*
X131724Y2933090D01*
X140208Y2922371D01*
X150012Y2912872D01*
X160985Y2904794D01*
X172923Y2898241D01*
X185674Y2893364D01*
X198932Y2890164D01*
G37*
G36*
X212496Y3142843D02*
G01*
X226110Y3143300D01*
X239572Y3145536D01*
X252577Y3149600D01*
X264972Y3155340D01*
X276453Y3162655D01*
X286867Y3171444D01*
X296011Y3181604D01*
X303733Y3192830D01*
X309880Y3204972D01*
X314350Y3217875D01*
X317093Y3231235D01*
X318008Y3244850D01*
X317093Y3258464D01*
X314350Y3271824D01*
X309880Y3284728D01*
X303733Y3296869D01*
X296011Y3308096D01*
X286867Y3318256D01*
X276453Y3327044D01*
X264972Y3334359D01*
X252577Y3340100D01*
X239572Y3344164D01*
X226110Y3346399D01*
X212496Y3346856D01*
X198932Y3345535D01*
X185674Y3342335D01*
X172923Y3337458D01*
X160985Y3330905D01*
X150012Y3322828D01*
X140208Y3313328D01*
X131724Y3302609D01*
X124764Y3290874D01*
X119481Y3278327D01*
X115874Y3265170D01*
X114046Y3251657D01*
X114046Y3238042D01*
X115874Y3224530D01*
X119481Y3211372D01*
X124764Y3198825D01*
X131724Y3187090D01*
X140208Y3176371D01*
X150012Y3166872D01*
X160985Y3158794D01*
X172923Y3152241D01*
X185674Y3147364D01*
X198932Y3144164D01*
G37*
G36*
X212496Y3396843D02*
G01*
X226110Y3397300D01*
X239572Y3399536D01*
X252577Y3403600D01*
X264972Y3409340D01*
X276453Y3416655D01*
X286867Y3425444D01*
X296011Y3435604D01*
X303733Y3446830D01*
X309880Y3458972D01*
X314350Y3471875D01*
X317093Y3485235D01*
X318008Y3498850D01*
X317093Y3512464D01*
X314350Y3525824D01*
X309880Y3538728D01*
X303733Y3550869D01*
X296011Y3562096D01*
X286867Y3572256D01*
X276453Y3581044D01*
X264972Y3588359D01*
X252577Y3594100D01*
X239572Y3598164D01*
X226110Y3600399D01*
X212496Y3600856D01*
X198932Y3599535D01*
X185674Y3596335D01*
X172923Y3591458D01*
X160985Y3584905D01*
X150012Y3576828D01*
X140208Y3567328D01*
X131724Y3556609D01*
X124764Y3544874D01*
X119481Y3532327D01*
X115874Y3519170D01*
X114046Y3505657D01*
X114046Y3492042D01*
X115874Y3478529D01*
X119481Y3465372D01*
X124764Y3452825D01*
X131724Y3441090D01*
X140208Y3430371D01*
X150012Y3420872D01*
X160985Y3412794D01*
X172923Y3406241D01*
X185674Y3401364D01*
X198932Y3398164D01*
G37*
G36*
X212496Y3650843D02*
G01*
X226110Y3651300D01*
X239572Y3653536D01*
X252577Y3657600D01*
X264972Y3663340D01*
X276453Y3670655D01*
X286867Y3679444D01*
X296011Y3689604D01*
X303733Y3700830D01*
X309880Y3712972D01*
X314350Y3725875D01*
X317093Y3739235D01*
X318008Y3752850D01*
X317093Y3766464D01*
X314350Y3779824D01*
X309880Y3792728D01*
X303733Y3804869D01*
X296011Y3816096D01*
X286867Y3826256D01*
X276453Y3835044D01*
X264972Y3842359D01*
X252577Y3848100D01*
X239572Y3852164D01*
X226110Y3854399D01*
X212496Y3854856D01*
X198932Y3853535D01*
X185674Y3850335D01*
X172923Y3845458D01*
X160985Y3838905D01*
X150012Y3830828D01*
X140208Y3821328D01*
X131724Y3810609D01*
X124764Y3798874D01*
X119481Y3786327D01*
X115874Y3773170D01*
X114046Y3759657D01*
X114046Y3746042D01*
X115874Y3732529D01*
X119481Y3719372D01*
X124764Y3706825D01*
X131724Y3695090D01*
X140208Y3684371D01*
X150012Y3674872D01*
X160985Y3666794D01*
X172923Y3660241D01*
X185674Y3655364D01*
X198932Y3652164D01*
G37*
G36*
X212496Y3904843D02*
G01*
X226110Y3905300D01*
X239572Y3907536D01*
X252577Y3911600D01*
X264972Y3917340D01*
X276453Y3924655D01*
X286867Y3933444D01*
X296011Y3943604D01*
X303733Y3954830D01*
X309880Y3966972D01*
X314350Y3979875D01*
X317093Y3993235D01*
X318008Y4006850D01*
X317093Y4020464D01*
X314350Y4033824D01*
X309880Y4046728D01*
X303733Y4058869D01*
X296011Y4070096D01*
X286867Y4080256D01*
X276453Y4089044D01*
X264972Y4096359D01*
X252577Y4102100D01*
X239572Y4106164D01*
X226110Y4108399D01*
X212496Y4108856D01*
X198932Y4107535D01*
X185674Y4104335D01*
X172923Y4099458D01*
X160985Y4092905D01*
X150012Y4084828D01*
X140208Y4075328D01*
X131724Y4064609D01*
X124764Y4052874D01*
X119481Y4040327D01*
X115874Y4027170D01*
X114046Y4013657D01*
X114046Y4000042D01*
X115874Y3986529D01*
X119481Y3973372D01*
X124764Y3960825D01*
X131724Y3949090D01*
X140208Y3938371D01*
X150012Y3928872D01*
X160985Y3920794D01*
X172923Y3914241D01*
X185674Y3909364D01*
X198932Y3906164D01*
G37*
G36*
X212496Y4158843D02*
G01*
X226110Y4159300D01*
X239572Y4161536D01*
X252577Y4165600D01*
X264972Y4171340D01*
X276453Y4178655D01*
X286867Y4187444D01*
X296011Y4197604D01*
X303733Y4208830D01*
X309880Y4220972D01*
X314350Y4233875D01*
X317093Y4247235D01*
X318008Y4260850D01*
X317093Y4274464D01*
X314350Y4287824D01*
X309880Y4300728D01*
X303733Y4312869D01*
X296011Y4324096D01*
X286867Y4334256D01*
X276453Y4343044D01*
X264972Y4350359D01*
X252577Y4356100D01*
X239572Y4360164D01*
X226110Y4362399D01*
X212496Y4362856D01*
X198932Y4361535D01*
X185674Y4358335D01*
X172923Y4353458D01*
X160985Y4346905D01*
X150012Y4338828D01*
X140208Y4329328D01*
X131724Y4318609D01*
X124764Y4306874D01*
X119481Y4294327D01*
X115874Y4281170D01*
X114046Y4267657D01*
X114046Y4254042D01*
X115874Y4240530D01*
X119481Y4227372D01*
X124764Y4214825D01*
X131724Y4203090D01*
X140208Y4192371D01*
X150012Y4182872D01*
X160985Y4174794D01*
X172923Y4168241D01*
X185674Y4163364D01*
X198932Y4160164D01*
G37*
G36*
X212496Y4412843D02*
G01*
X226110Y4413300D01*
X239572Y4415536D01*
X252577Y4419600D01*
X264972Y4425340D01*
X276453Y4432655D01*
X286867Y4441444D01*
X296011Y4451604D01*
X303733Y4462830D01*
X309880Y4474972D01*
X314350Y4487875D01*
X317093Y4501235D01*
X318008Y4514850D01*
X317093Y4528464D01*
X314350Y4541824D01*
X309880Y4554728D01*
X303733Y4566869D01*
X296011Y4578096D01*
X286867Y4588256D01*
X276453Y4597044D01*
X264972Y4604359D01*
X252577Y4610100D01*
X239572Y4614164D01*
X226110Y4616399D01*
X212496Y4616856D01*
X198932Y4615535D01*
X185674Y4612335D01*
X172923Y4607458D01*
X160985Y4600905D01*
X150012Y4592828D01*
X140208Y4583328D01*
X131724Y4572609D01*
X124764Y4560874D01*
X119481Y4548327D01*
X115874Y4535170D01*
X114046Y4521657D01*
X114046Y4508042D01*
X115874Y4494530D01*
X119481Y4481372D01*
X124764Y4468825D01*
X131724Y4457090D01*
X140208Y4446371D01*
X150012Y4436872D01*
X160985Y4428794D01*
X172923Y4422241D01*
X185674Y4417364D01*
X198932Y4414164D01*
G37*
G36*
X212496Y4666843D02*
G01*
X226110Y4667300D01*
X239572Y4669536D01*
X252577Y4673600D01*
X264972Y4679340D01*
X276453Y4686655D01*
X286867Y4695444D01*
X296011Y4705604D01*
X303733Y4716830D01*
X309880Y4728972D01*
X314350Y4741875D01*
X317093Y4755235D01*
X318008Y4768850D01*
X317093Y4782464D01*
X314350Y4795824D01*
X309880Y4808728D01*
X303733Y4820869D01*
X296011Y4832096D01*
X286867Y4842256D01*
X276453Y4851044D01*
X264972Y4858359D01*
X252577Y4864100D01*
X239572Y4868164D01*
X226110Y4870399D01*
X212496Y4870856D01*
X198932Y4869535D01*
X185674Y4866335D01*
X172923Y4861458D01*
X160985Y4854905D01*
X150012Y4846828D01*
X140208Y4837328D01*
X131724Y4826609D01*
X124764Y4814874D01*
X119481Y4802327D01*
X115874Y4789170D01*
X114046Y4775657D01*
X114046Y4762042D01*
X115874Y4748530D01*
X119481Y4735372D01*
X124764Y4722825D01*
X131724Y4711090D01*
X140208Y4700371D01*
X150012Y4690872D01*
X160985Y4682794D01*
X172923Y4676241D01*
X185674Y4671364D01*
X198932Y4668164D01*
G37*
G36*
X961644Y6809181D02*
G01*
X961644Y6884619D01*
X844854Y6884619D01*
X848156Y6878015D01*
X856996Y6864553D01*
X867359Y6852259D01*
X879043Y6841185D01*
X891946Y6831584D01*
X905865Y6823557D01*
X920648Y6817156D01*
X936091Y6812534D01*
X951941Y6809740D01*
G37*
G36*
X1199337Y6809181D02*
G01*
X1209040Y6809740D01*
X1224889Y6812534D01*
X1240332Y6817156D01*
X1255115Y6823557D01*
X1269034Y6831584D01*
X1281938Y6841185D01*
X1293672Y6852259D01*
X1303985Y6864553D01*
X1312824Y6878015D01*
X1316126Y6884619D01*
X1199337Y6884619D01*
G37*
G36*
X2211171Y6972604D02*
G01*
X2360828Y6972604D01*
X2367127Y6973316D01*
X2372614Y6975195D01*
X2377490Y6978294D01*
X2381605Y6982409D01*
X2384704Y6987286D01*
X2385771Y6990384D01*
X2387904Y6993940D01*
X2391308Y6996328D01*
X2395372Y6997192D01*
X2499715Y6997242D01*
X2508656Y6998106D01*
X2511145Y6998512D01*
X2519832Y7000646D01*
X2530500Y7004862D01*
X2532735Y7005980D01*
X2542438Y7012076D01*
X2549347Y7017816D01*
X2877210Y7345578D01*
X2880918Y7347966D01*
X2885287Y7348524D01*
X2894228Y7347762D01*
X2903677Y7348575D01*
X2912821Y7351014D01*
X2921406Y7355027D01*
X2929128Y7360462D01*
X2935833Y7367117D01*
X2941269Y7374890D01*
X2945282Y7383475D01*
X2946196Y7386878D01*
X2948228Y7390790D01*
X2951683Y7393431D01*
X2956001Y7394397D01*
X2959506Y7394397D01*
X2963824Y7393431D01*
X2967278Y7390790D01*
X2969310Y7386878D01*
X2970225Y7383475D01*
X2974238Y7374890D01*
X2979674Y7367117D01*
X2986328Y7360462D01*
X2994101Y7355027D01*
X3002686Y7351014D01*
X3011830Y7348575D01*
X3021228Y7347762D01*
X3030677Y7348575D01*
X3039821Y7351014D01*
X3048406Y7355027D01*
X3056128Y7360462D01*
X3062833Y7367117D01*
X3068269Y7374890D01*
X3072282Y7383475D01*
X3074924Y7393431D01*
X3076956Y7397343D01*
X3080461Y7399985D01*
X3084728Y7400950D01*
X3089046Y7399985D01*
X3092551Y7397343D01*
X3094583Y7393431D01*
X3097225Y7383475D01*
X3101238Y7374890D01*
X3106674Y7367117D01*
X3113328Y7360462D01*
X3121101Y7355027D01*
X3129686Y7351014D01*
X3138830Y7348575D01*
X3148228Y7347762D01*
X3157677Y7348575D01*
X3166821Y7351014D01*
X3175406Y7355027D01*
X3183128Y7360462D01*
X3189833Y7367117D01*
X3195269Y7374890D01*
X3199282Y7383475D01*
X3200196Y7386878D01*
X3202228Y7390790D01*
X3205683Y7393431D01*
X3210001Y7394397D01*
X3213506Y7394397D01*
X3217824Y7393431D01*
X3221278Y7390790D01*
X3223310Y7386878D01*
X3224225Y7383475D01*
X3228238Y7374890D01*
X3233674Y7367117D01*
X3240328Y7360462D01*
X3248101Y7355027D01*
X3256686Y7351014D01*
X3265830Y7348575D01*
X3275228Y7347762D01*
X3284677Y7348575D01*
X3293821Y7351014D01*
X3302406Y7355027D01*
X3310128Y7360462D01*
X3316833Y7367117D01*
X3322269Y7374890D01*
X3326282Y7383475D01*
X3328720Y7392619D01*
X3329584Y7402474D01*
X3329584Y7413244D01*
X3330295Y7416952D01*
X3332276Y7420152D01*
X3335223Y7423302D01*
X3341674Y7432751D01*
X3346653Y7443114D01*
X3350006Y7454036D01*
X3351733Y7465364D01*
X3351733Y7476845D01*
X3350006Y7488174D01*
X3346653Y7499146D01*
X3341674Y7509459D01*
X3335223Y7518908D01*
X3332276Y7522057D01*
X3330295Y7525258D01*
X3329584Y7528966D01*
X3329584Y7539786D01*
X3328720Y7549642D01*
X3326282Y7558786D01*
X3322269Y7567371D01*
X3316833Y7575092D01*
X3310128Y7581798D01*
X3302406Y7587234D01*
X3293821Y7591247D01*
X3284677Y7593685D01*
X3275228Y7594498D01*
X3265830Y7593685D01*
X3256686Y7591247D01*
X3248101Y7587234D01*
X3240328Y7581798D01*
X3235096Y7576566D01*
X3231845Y7574381D01*
X3228035Y7573568D01*
X3224174Y7574280D01*
X3220872Y7576413D01*
X3218637Y7579614D01*
X3216046Y7585506D01*
X3211525Y7592974D01*
X3210102Y7595006D01*
X3204362Y7601915D01*
X2932988Y7873238D01*
X2926080Y7878978D01*
X2916377Y7885074D01*
X2914142Y7886192D01*
X2903474Y7890408D01*
X2895904Y7892237D01*
X2893415Y7893202D01*
X2879953Y7903209D01*
X2868015Y7909763D01*
X2855264Y7914640D01*
X2842006Y7917840D01*
X2828442Y7919161D01*
X2814828Y7918703D01*
X2801366Y7916468D01*
X2788361Y7912404D01*
X2775966Y7906664D01*
X2764485Y7899349D01*
X2754071Y7890560D01*
X2744927Y7880400D01*
X2737205Y7869174D01*
X2731058Y7857032D01*
X2726588Y7844129D01*
X2723845Y7830769D01*
X2722930Y7817154D01*
X2723845Y7803540D01*
X2726588Y7790180D01*
X2731058Y7777276D01*
X2737205Y7765135D01*
X2744927Y7753908D01*
X2754071Y7743748D01*
X2764485Y7734960D01*
X2775966Y7727645D01*
X2788361Y7721904D01*
X2801366Y7717840D01*
X2814828Y7715605D01*
X2828442Y7715148D01*
X2842006Y7716469D01*
X2855264Y7719669D01*
X2859532Y7721295D01*
X2863342Y7721955D01*
X2867152Y7721142D01*
X2870352Y7719009D01*
X2990291Y7599121D01*
X2992628Y7595362D01*
X2993186Y7591044D01*
X2991866Y7586827D01*
X2988919Y7583576D01*
X2986328Y7581798D01*
X2979674Y7575092D01*
X2974238Y7567371D01*
X2970225Y7558786D01*
X2969310Y7555331D01*
X2967278Y7551420D01*
X2963773Y7548778D01*
X2959506Y7547813D01*
X2956001Y7547813D01*
X2951683Y7548778D01*
X2948228Y7551420D01*
X2946196Y7555331D01*
X2945282Y7558786D01*
X2941269Y7567371D01*
X2935833Y7575092D01*
X2929128Y7581798D01*
X2921406Y7587234D01*
X2912821Y7591247D01*
X2903677Y7593685D01*
X2894228Y7594498D01*
X2884830Y7593685D01*
X2875686Y7591247D01*
X2867101Y7587234D01*
X2859328Y7581798D01*
X2852674Y7575092D01*
X2847238Y7567371D01*
X2843225Y7558786D01*
X2840786Y7549642D01*
X2839923Y7539786D01*
X2839923Y7529474D01*
X2839161Y7525562D01*
X2836926Y7522260D01*
X2468270Y7153605D01*
X2464968Y7151370D01*
X2461056Y7150608D01*
X2395372Y7150608D01*
X2391308Y7151471D01*
X2387904Y7153859D01*
X2385771Y7157415D01*
X2384704Y7160514D01*
X2381605Y7165390D01*
X2377490Y7169505D01*
X2372614Y7172604D01*
X2367127Y7174484D01*
X2360828Y7175195D01*
X2211171Y7175195D01*
X2204872Y7174484D01*
X2199386Y7172604D01*
X2194509Y7169505D01*
X2190394Y7165390D01*
X2187295Y7160514D01*
X2185416Y7155027D01*
X2184704Y7148728D01*
X2184704Y6999071D01*
X2185416Y6992772D01*
X2187295Y6987286D01*
X2190394Y6982409D01*
X2194509Y6978294D01*
X2199386Y6975195D01*
X2204872Y6973316D01*
G37*
G36*
X1199337Y7009790D02*
G01*
X1316126Y7009790D01*
X1312824Y7016394D01*
X1303985Y7029856D01*
X1293672Y7042150D01*
X1281938Y7053224D01*
X1269034Y7062825D01*
X1255115Y7070852D01*
X1240332Y7077252D01*
X1224889Y7081875D01*
X1209040Y7084669D01*
X1199337Y7085228D01*
G37*
G36*
X844854Y7009790D02*
G01*
X961644Y7009790D01*
X961644Y7085228D01*
X951941Y7084669D01*
X936091Y7081875D01*
X920648Y7077252D01*
X905865Y7070852D01*
X891946Y7062825D01*
X879043Y7053224D01*
X867359Y7042150D01*
X856996Y7029856D01*
X848156Y7016394D01*
G37*
G36*
X1380490Y7141311D02*
G01*
X1397406Y7142276D01*
X1414068Y7145121D01*
X1430324Y7149795D01*
X1445971Y7156246D01*
X1460754Y7164425D01*
X1474571Y7174230D01*
X1487170Y7185507D01*
X1498447Y7198106D01*
X1508252Y7211923D01*
X1516430Y7226757D01*
X1522933Y7242352D01*
X1527606Y7258608D01*
X1530451Y7275322D01*
X1531416Y7292492D01*
X1531416Y7541920D01*
X1530451Y7559090D01*
X1527606Y7575803D01*
X1522933Y7592059D01*
X1516430Y7607706D01*
X1508252Y7622489D01*
X1498447Y7636306D01*
X1487170Y7648905D01*
X1474571Y7660182D01*
X1460754Y7669987D01*
X1445971Y7678166D01*
X1430324Y7684617D01*
X1414068Y7689342D01*
X1397406Y7692136D01*
X1380490Y7693101D01*
X1363573Y7692136D01*
X1346911Y7689342D01*
X1330655Y7684617D01*
X1315008Y7678166D01*
X1300226Y7669987D01*
X1286408Y7660182D01*
X1273810Y7648905D01*
X1262532Y7636306D01*
X1252728Y7622489D01*
X1244549Y7607706D01*
X1238097Y7592059D01*
X1233373Y7575803D01*
X1230579Y7559090D01*
X1229614Y7541920D01*
X1229614Y7292492D01*
X1230579Y7275322D01*
X1233373Y7258608D01*
X1238097Y7242352D01*
X1244549Y7226757D01*
X1252728Y7211923D01*
X1262532Y7198106D01*
X1273810Y7185507D01*
X1286408Y7174230D01*
X1300226Y7164425D01*
X1315008Y7156246D01*
X1330655Y7149795D01*
X1346911Y7145121D01*
X1363573Y7142276D01*
G37*
G36*
X843076Y7181545D02*
G01*
X849680Y7184847D01*
X863142Y7193686D01*
X875436Y7204049D01*
X886510Y7215733D01*
X896112Y7228687D01*
X904138Y7242606D01*
X910539Y7257389D01*
X915162Y7272781D01*
X917956Y7288631D01*
X918514Y7298385D01*
X843076Y7298385D01*
G37*
G36*
X717905Y7181545D02*
G01*
X717905Y7298385D01*
X642467Y7298385D01*
X643026Y7288631D01*
X645820Y7272781D01*
X650443Y7257389D01*
X656844Y7242606D01*
X664870Y7228687D01*
X674471Y7215733D01*
X685546Y7204049D01*
X697839Y7193686D01*
X711301Y7184847D01*
G37*
G36*
X2279243Y7226858D02*
G01*
X2292756Y7226858D01*
X2306167Y7228636D01*
X2319223Y7232243D01*
X2331669Y7237475D01*
X2343302Y7244384D01*
X2353919Y7252766D01*
X2363368Y7262520D01*
X2371394Y7273391D01*
X2377897Y7285278D01*
X2382723Y7297877D01*
X2385872Y7311034D01*
X2387244Y7324496D01*
X2386787Y7338059D01*
X2384501Y7351369D01*
X2380538Y7364323D01*
X2374798Y7376566D01*
X2367534Y7387996D01*
X2358796Y7398308D01*
X2348788Y7407402D01*
X2337612Y7415022D01*
X2325522Y7421168D01*
X2312771Y7425588D01*
X2299512Y7428280D01*
X2286000Y7429195D01*
X2272487Y7428280D01*
X2259228Y7425588D01*
X2246477Y7421168D01*
X2234387Y7415022D01*
X2223211Y7407402D01*
X2213203Y7398308D01*
X2204466Y7387996D01*
X2197201Y7376566D01*
X2191461Y7364323D01*
X2187498Y7351369D01*
X2185212Y7338059D01*
X2184755Y7324496D01*
X2186127Y7311034D01*
X2189276Y7297877D01*
X2194102Y7285278D01*
X2200605Y7273391D01*
X2208631Y7262520D01*
X2218080Y7252766D01*
X2228697Y7244384D01*
X2240330Y7237475D01*
X2252776Y7232243D01*
X2265832Y7228636D01*
G37*
G36*
X2330043Y7490815D02*
G01*
X2331669Y7491475D01*
X2343302Y7498384D01*
X2353919Y7506766D01*
X2363368Y7516520D01*
X2371394Y7527391D01*
X2377084Y7537856D01*
X2330043Y7537856D01*
G37*
G36*
X2241956Y7490815D02*
G01*
X2241956Y7537856D01*
X2194915Y7537856D01*
X2200605Y7527391D01*
X2208631Y7516520D01*
X2218080Y7506766D01*
X2228697Y7498384D01*
X2240330Y7491475D01*
G37*
G36*
X642467Y7536078D02*
G01*
X717905Y7536078D01*
X717905Y7652867D01*
X711301Y7649565D01*
X697839Y7640726D01*
X685546Y7630363D01*
X674471Y7618679D01*
X664870Y7605725D01*
X656844Y7591806D01*
X650443Y7577023D01*
X645820Y7561630D01*
X643026Y7545781D01*
G37*
G36*
X843076Y7536078D02*
G01*
X918514Y7536078D01*
X917956Y7545781D01*
X915162Y7561630D01*
X910539Y7577023D01*
X904138Y7591806D01*
X896112Y7605725D01*
X886510Y7618679D01*
X875436Y7630363D01*
X863142Y7640726D01*
X849680Y7649565D01*
X843076Y7652867D01*
G37*
G36*
X2330043Y7625943D02*
G01*
X2376982Y7625943D01*
X2374798Y7630566D01*
X2367534Y7641996D01*
X2358796Y7652308D01*
X2348788Y7661402D01*
X2337612Y7669022D01*
X2330043Y7672882D01*
G37*
G36*
X2195017Y7625943D02*
G01*
X2241956Y7625943D01*
X2241956Y7672882D01*
X2234387Y7669022D01*
X2223211Y7661402D01*
X2213203Y7652308D01*
X2204466Y7641996D01*
X2197201Y7630566D01*
G37*
G36*
X3328466Y7715148D02*
G01*
X3342030Y7716469D01*
X3355289Y7719669D01*
X3367989Y7724546D01*
X3379978Y7731099D01*
X3390950Y7739176D01*
X3400755Y7748676D01*
X3409187Y7759395D01*
X3416147Y7771130D01*
X3421481Y7783677D01*
X3425088Y7796834D01*
X3426917Y7810347D01*
X3426917Y7823962D01*
X3425088Y7837474D01*
X3421481Y7850631D01*
X3416147Y7863179D01*
X3409187Y7874914D01*
X3400755Y7885633D01*
X3390950Y7895132D01*
X3379978Y7903209D01*
X3367989Y7909763D01*
X3355289Y7914640D01*
X3342030Y7917840D01*
X3328466Y7919161D01*
X3314801Y7918703D01*
X3301390Y7916468D01*
X3288334Y7912404D01*
X3275990Y7906664D01*
X3264458Y7899349D01*
X3254044Y7890560D01*
X3244900Y7880400D01*
X3237179Y7869174D01*
X3231032Y7857032D01*
X3226562Y7844129D01*
X3223869Y7830769D01*
X3222955Y7817154D01*
X3223869Y7803540D01*
X3226562Y7790180D01*
X3231032Y7777276D01*
X3237179Y7765135D01*
X3244900Y7753908D01*
X3254044Y7743748D01*
X3264458Y7734960D01*
X3275990Y7727645D01*
X3288334Y7721904D01*
X3301390Y7717840D01*
X3314801Y7715605D01*
G37*
G36*
X1947875Y7975701D02*
G01*
X1951482Y7976260D01*
X1958593Y7978343D01*
X1964436Y7980934D01*
X1970735Y7984845D01*
X1975713Y7988909D01*
X1980742Y7994345D01*
X1984451Y7999628D01*
X1987854Y8006181D01*
X1990039Y8012328D01*
X1990902Y8016240D01*
X1991258Y8020405D01*
X1991258Y8026400D01*
X1947875Y8026400D01*
G37*
G36*
X1947875Y8102600D02*
G01*
X1991106Y8102600D01*
X1991106Y8106003D01*
X1990598Y8110626D01*
X1989632Y8115300D01*
X1988210Y8119821D01*
X1986432Y8124190D01*
X1984248Y8128406D01*
X1981657Y8132368D01*
X1978761Y8136077D01*
X1975510Y8139531D01*
X1971903Y8142681D01*
X1968093Y8145475D01*
X1964029Y8147862D01*
X1959711Y8149894D01*
X1955292Y8151520D01*
X1947875Y8153196D01*
G37*
G36*
X1460500Y8611717D02*
G01*
X1475689Y8612632D01*
X1490624Y8615375D01*
X1505153Y8619896D01*
X1519021Y8626144D01*
X1532026Y8634018D01*
X1543964Y8643366D01*
X1554734Y8654135D01*
X1564081Y8666073D01*
X1571955Y8679078D01*
X1578203Y8692946D01*
X1582724Y8707475D01*
X1585468Y8722410D01*
X1586382Y8737600D01*
X1585468Y8752789D01*
X1582724Y8767724D01*
X1578203Y8782253D01*
X1571955Y8796121D01*
X1564081Y8809126D01*
X1554734Y8821064D01*
X1543964Y8831834D01*
X1532026Y8841181D01*
X1519021Y8849055D01*
X1505153Y8855303D01*
X1490624Y8859824D01*
X1475689Y8862568D01*
X1460500Y8863482D01*
X1445310Y8862568D01*
X1430375Y8859824D01*
X1415846Y8855303D01*
X1401978Y8849055D01*
X1388973Y8841181D01*
X1377035Y8831834D01*
X1366266Y8821064D01*
X1356918Y8809126D01*
X1349044Y8796121D01*
X1342796Y8782253D01*
X1338275Y8767724D01*
X1335532Y8752789D01*
X1334617Y8737600D01*
X1335532Y8722410D01*
X1338275Y8707475D01*
X1342796Y8692946D01*
X1349044Y8679078D01*
X1356918Y8666073D01*
X1366266Y8654135D01*
X1377035Y8643366D01*
X1388973Y8634018D01*
X1401978Y8626144D01*
X1415846Y8619896D01*
X1430375Y8615375D01*
X1445310Y8612632D01*
G37*
G36*
X2984500Y8611717D02*
G01*
X2999689Y8612632D01*
X3014624Y8615375D01*
X3029153Y8619896D01*
X3043021Y8626144D01*
X3056026Y8634018D01*
X3067964Y8643366D01*
X3078734Y8654135D01*
X3088081Y8666073D01*
X3095955Y8679078D01*
X3102203Y8692946D01*
X3106724Y8707475D01*
X3109468Y8722410D01*
X3110382Y8737600D01*
X3109468Y8752789D01*
X3106724Y8767724D01*
X3102203Y8782253D01*
X3095955Y8796121D01*
X3088081Y8809126D01*
X3078734Y8821064D01*
X3067964Y8831834D01*
X3056026Y8841181D01*
X3043021Y8849055D01*
X3029153Y8855303D01*
X3014624Y8859824D01*
X2999689Y8862568D01*
X2984500Y8863482D01*
X2969310Y8862568D01*
X2954375Y8859824D01*
X2939846Y8855303D01*
X2925978Y8849055D01*
X2912973Y8841181D01*
X2901035Y8831834D01*
X2890266Y8821064D01*
X2880918Y8809126D01*
X2873044Y8796121D01*
X2866796Y8782253D01*
X2862275Y8767724D01*
X2859532Y8752789D01*
X2858617Y8737600D01*
X2859532Y8722410D01*
X2862275Y8707475D01*
X2866796Y8692946D01*
X2873044Y8679078D01*
X2880918Y8666073D01*
X2890266Y8654135D01*
X2901035Y8643366D01*
X2912973Y8634018D01*
X2925978Y8626144D01*
X2939846Y8619896D01*
X2954375Y8615375D01*
X2969310Y8612632D01*
G37*
G36*
X2532837Y8625179D02*
G01*
X2535021Y8626144D01*
X2548026Y8634018D01*
X2559964Y8643366D01*
X2570734Y8654135D01*
X2580081Y8666073D01*
X2587955Y8679078D01*
X2588920Y8681262D01*
X2532837Y8681262D01*
G37*
G36*
X2420162Y8625179D02*
G01*
X2420162Y8681262D01*
X2364079Y8681262D01*
X2365044Y8679078D01*
X2372918Y8666073D01*
X2382266Y8654135D01*
X2393035Y8643366D01*
X2404973Y8634018D01*
X2417978Y8626144D01*
G37*
G36*
X899210Y8625179D02*
G01*
X899210Y8681262D01*
X843127Y8681262D01*
X844092Y8679078D01*
X851966Y8666073D01*
X861314Y8654135D01*
X872083Y8643366D01*
X884021Y8634018D01*
X897026Y8626144D01*
G37*
G36*
X1011885Y8625179D02*
G01*
X1014069Y8626144D01*
X1027074Y8634018D01*
X1039012Y8643366D01*
X1049782Y8654135D01*
X1059129Y8666073D01*
X1067003Y8679078D01*
X1067968Y8681262D01*
X1011885Y8681262D01*
G37*
G36*
X2364079Y8793937D02*
G01*
X2420162Y8793937D01*
X2420162Y8850020D01*
X2417978Y8849055D01*
X2404973Y8841181D01*
X2393035Y8831834D01*
X2382266Y8821064D01*
X2372918Y8809126D01*
X2365044Y8796121D01*
G37*
G36*
X2532837Y8793937D02*
G01*
X2588920Y8793937D01*
X2587955Y8796121D01*
X2580081Y8809126D01*
X2570734Y8821064D01*
X2559964Y8831834D01*
X2548026Y8841181D01*
X2535021Y8849055D01*
X2532837Y8850020D01*
G37*
G36*
X843127Y8793937D02*
G01*
X899210Y8793937D01*
X899210Y8850020D01*
X897026Y8849055D01*
X884021Y8841181D01*
X872083Y8831834D01*
X861314Y8821064D01*
X851966Y8809126D01*
X844092Y8796121D01*
G37*
G36*
X1011885Y8793937D02*
G01*
X1067968Y8793937D01*
X1067003Y8796121D01*
X1059129Y8809126D01*
X1049782Y8821064D01*
X1039012Y8831834D01*
X1027074Y8841181D01*
X1014069Y8849055D01*
X1011885Y8850020D01*
G37*

%LPD*%
D10*
X3491788Y4943071D02*
G01*
X3457168Y4943071D01*
X3390900Y4876802D01*
X2618689Y4176575D02*
G01*
X2618689Y4724402D01*
X2770073Y4875786D01*
X2832100Y4875786D01*
X1841474Y5486427D02*
G01*
X2392959Y4934943D01*
X2392959Y3099793D01*
X2501900Y2990852D01*
X2607335Y3086356D02*
G01*
X2607335Y2588287D01*
X2501900Y2482852D01*
X2286000Y8064502D02*
G01*
X2286000Y8547102D01*
X2476500Y8737602D01*
X2286000Y7581902D02*
G01*
X2286000Y8064502D01*
X2286000Y8064502D02*
G01*
X1917700Y8064502D01*
X780491Y7417208D02*
G01*
X780491Y8562545D01*
X955547Y8737602D01*
D11*
X2894253Y7471107D02*
G01*
X2497048Y7073902D01*
X2286000Y7073902D01*
X2894253Y7471107D02*
G01*
X3021253Y7471107D01*
D10*
X3039313Y3162302D02*
G01*
X3050692Y3150923D01*
X3050692Y2491894D01*
X2933700Y2374902D01*
X1816100Y8064502D02*
G01*
X1816100Y6666130D01*
X1711502Y6561533D01*
X1711502Y5362399D01*
X1841474Y5232427D01*
X2501900Y4768852D02*
G01*
X2882900Y5149852D01*
X2882900Y6188585D01*
X2894253Y6930087D02*
G01*
X2894253Y6876087D01*
X2997072Y6773268D01*
X2997072Y6302758D01*
X2882900Y6188585D01*
X3375253Y5317009D02*
G01*
X3375253Y6238598D01*
X3302000Y6311851D01*
X3275253Y6930087D02*
G01*
X3302000Y6903341D01*
X3302000Y6565851D01*
D11*
X3148253Y7471107D02*
G01*
X3275253Y7471107D01*
X2825038Y7817157D02*
G01*
X2880690Y7817157D01*
X3148253Y7549593D01*
X3148253Y7471107D01*
D10*
X2921000Y4515512D02*
G01*
X3421329Y4015183D01*
X3421329Y3280285D01*
X3539312Y3162302D01*
X2933700Y1104902D02*
G01*
X3150184Y1321386D01*
X3150184Y3403805D01*
X2976448Y3577541D01*
X2976448Y4292170D01*
X2814904Y4453714D01*
X2814904Y4756990D01*
X2832100Y4774186D01*
X3358057Y4538195D02*
G01*
X3358057Y4556356D01*
X3140227Y4774186D01*
X2832100Y4774186D01*
X3251200Y4515512D02*
G01*
X3335375Y4515512D01*
X3358057Y4538195D01*
X3358057Y4538195D02*
G01*
X3594100Y4538195D01*
X3390900Y4775202D02*
G01*
X3519017Y4775202D01*
X3702735Y4591484D01*
X3702735Y1619938D01*
X2933700Y850902D01*
X3075050Y5317162D02*
G01*
X3075050Y5070198D01*
X3370046Y4775202D01*
X3390900Y4775202D01*
X3148253Y6930087D02*
G01*
X3148253Y5390365D01*
X3075050Y5317162D01*
X3021253Y6930087D02*
G01*
X3021253Y6964885D01*
X2928899Y7057240D01*
X2869209Y7057240D01*
X2830880Y7018911D01*
X2830880Y6740603D01*
X2882900Y6688584D01*
X2501900Y4260852D02*
G01*
X2501900Y4210535D01*
X2804312Y3908122D01*
X2804312Y2250290D01*
X2933700Y2120902D01*
X2501900Y3498852D02*
G01*
X2712237Y3288515D01*
X2712237Y2088365D01*
X2933700Y1866902D01*
X2501900Y2736852D02*
G01*
X1999157Y3239594D01*
X1999157Y5243121D01*
D12*
G01*
X2832100Y4875784D03*
D13*
G01*
X2832100Y4774184D03*
D14*
G01*
X1917700Y8064500D03*
D15*
G01*
X1816100Y8064500D03*
D12*
G01*
X3390900Y4876800D03*
D13*
G01*
X3390900Y4775200D03*
D16*
G01*
X3275253Y7471105D03*
G01*
X3148253Y7471105D03*
G01*
X3021253Y7471105D03*
G01*
X2894253Y7471105D03*
G01*
X3275253Y6930085D03*
G01*
X3148253Y6930085D03*
G01*
X3021253Y6930085D03*
G01*
X2894253Y6930085D03*
D17*
G01*
X2933700Y2628900D03*
D18*
G01*
X2933700Y2374900D03*
G01*
X2933700Y2120900D03*
G01*
X2933700Y1866900D03*
G01*
X2933700Y1612900D03*
G01*
X2933700Y1358900D03*
G01*
X2933700Y1104900D03*
G01*
X2933700Y850900D03*
G01*
X2933700Y596900D03*
G01*
X2933700Y342900D03*
D19*
G01*
X3539286Y3162300D03*
G01*
X3039313Y3162300D03*
D20*
G01*
X2921000Y3485489D03*
G01*
X2921000Y4515510D03*
D21*
G01*
X2476500Y8737600D03*
G01*
X955547Y8737600D03*
G01*
X1460500Y8737600D03*
G01*
X2984500Y8737574D03*
D22*
G01*
X1380489Y7417206D03*
D23*
G01*
X780491Y7417206D03*
D24*
G01*
X1080490Y6947204D03*
D19*
G01*
X2882900Y6688581D03*
G01*
X2882900Y6188582D03*
D25*
G01*
X3302000Y6311849D03*
G01*
X3302000Y6565849D03*
D19*
G01*
X3594100Y4538192D03*
G01*
X3594100Y3488181D03*
D20*
G01*
X3251200Y4515510D03*
G01*
X3251200Y3485489D03*
G01*
X215900Y196850D03*
G01*
X215900Y450850D03*
G01*
X215900Y704850D03*
G01*
X215900Y958850D03*
G01*
X215900Y1212850D03*
G01*
X215900Y1466850D03*
G01*
X215900Y1720850D03*
G01*
X215900Y1974850D03*
G01*
X215900Y2228850D03*
G01*
X215900Y2482850D03*
G01*
X215900Y2736850D03*
G01*
X215900Y2990850D03*
G01*
X215900Y3244850D03*
G01*
X215900Y3498850D03*
G01*
X215900Y3752850D03*
G01*
X215900Y4006850D03*
G01*
X215900Y4260850D03*
G01*
X215900Y4514850D03*
G01*
X215900Y4768850D03*
G01*
X2501900Y196850D03*
G01*
X2501900Y450850D03*
G01*
X2501900Y704850D03*
G01*
X2501900Y958850D03*
G01*
X2501900Y1212850D03*
G01*
X2501900Y1466850D03*
G01*
X2501900Y1720850D03*
G01*
X2501900Y1974850D03*
G01*
X2501900Y2228850D03*
G01*
X2501900Y2482850D03*
G01*
X2501900Y2736850D03*
G01*
X2501900Y2990850D03*
G01*
X2501900Y3244850D03*
G01*
X2501900Y3498850D03*
G01*
X2501900Y3752850D03*
G01*
X2501900Y4006850D03*
G01*
X2501900Y4260850D03*
G01*
X2501900Y4514850D03*
G01*
X2501900Y4768850D03*
D26*
G01*
X2286000Y7073900D03*
D27*
G01*
X2286000Y7327900D03*
G01*
X2286000Y7581900D03*
D20*
G01*
X3375253Y5317007D03*
G01*
X3075050Y5317159D03*
G01*
X2775051Y5317159D03*
G01*
X3325037Y7817154D03*
G01*
X2825038Y7817154D03*
D21*
G01*
X1841474Y5486425D03*
G01*
X1841474Y5740425D03*
G01*
X1841500Y5994400D03*
G01*
X1841500Y6248400D03*
G01*
X1841474Y6502425D03*
G01*
X1841474Y5232425D03*
D28*
G01*
X3491788Y4943068D03*
G01*
X2618689Y4176572D03*
G01*
X2607335Y3086354D03*
G01*
X1999157Y5243118D03*
M02*
