M48
METRIC,LZ,000.000
;FILE_FORMAT=3:3
;TYPE=PLATED
;Layer: PTH_Through
;EasyEDA v6.5.40, 2024-02-04 03:55:30
;936758304a9441538e57e2a98c5da18a,153482dac41149f1974aef67bcea995d,10
;Gerber Generator version 0.2
;Holesize 1 = 0.306 mm
T01C0.306
;Holesize 2 = 0.701 mm
T02C0.701
;Holesize 3 = 0.800 mm
T03C0.800
;Holesize 4 = 0.901 mm
T04C0.901
;Holesize 5 = 0.915 mm
T05C0.915
;Holesize 6 = 1.000 mm
T06C1.000
;Holesize 7 = 1.016 mm
T07C1.016
;Holesize 8 = 1.200 mm
T08C1.200
;Holesize 9 = 1.400 mm
T09C1.400
%
G05
G90
T01
X009114Y024381
X012056Y024420
X009114Y015507
T02
X023325Y047498
X033825Y047498
T03
X011090Y033655
X021289Y033655
T04
X027432Y019812
X032512Y019812
X023622Y033528
X028702Y033528
T05
X001862Y002540
X012362Y002540
T06
X028829Y016961
X028829Y006661
X035052Y016961
X035052Y006661
X031940Y017025
X031940Y006724
X015939Y047501G85X015939Y047495
X018479Y047501G85X018479Y047495
X015939Y002670G85X015939Y002664
X018479Y002670G85X018479Y002664
X032004Y036576
X034544Y036576
X024822Y002540
X035122Y002540
X011039Y038227
X021339Y038227
X011039Y042545
X021339Y042545
X025908Y029972G85X025908Y029972
X025908Y007112G85X025908Y007112
X008128Y029972G85X008128Y029972
X010668Y029972G85X010668Y029972
X013208Y029972G85X013208Y029972
X015748Y029972G85X015748Y029972
X018288Y029972G85X018288Y029972
X020828Y029972G85X020828Y029972
X023368Y029972G85X023368Y029972
X008128Y007112G85X008128Y007112
X010668Y007112G85X010668Y007112
X013208Y007112G85X013208Y007112
X015748Y007112G85X015748Y007112
X018288Y007112G85X018288Y007112
X020828Y007112G85X020828Y007112
X023368Y007112G85X023368Y007112
X002921Y032766G85X002921Y032766
X005461Y032766G85X005461Y032766
X008001Y032766G85X008001Y032766
X027818Y036703
X027808Y044323
X025268Y044323
X025278Y036703
T07
X035306Y020193
X035306Y022733
X035306Y025273
X035306Y027813
X035306Y030353
X035306Y032893
T08
X028103Y029412
X028103Y022912
X032603Y022912
X032603Y029412
T09
X006223Y047117
X003683Y047117
X008763Y047117
M30
