G04 Layer: BottomSilkscreenLayer*
G04 EasyEDA v6.5.40, 2024-02-04 03:55:30*
G04 936758304a9441538e57e2a98c5da18a,153482dac41149f1974aef67bcea995d,10*
G04 Gerber Generator version 0.2*
G04 Scale: 100 percent, Rotated: No, Reflected: No *
G04 Dimensions in millimeters *
G04 leading zeros omitted , absolute positions ,4 integer and 5 decimal *
%FSLAX45Y45*%
%MOMM*%

%ADD10C,0.2032*%
%ADD11C,0.1550*%
%ADD12C,0.2540*%

%LPD*%
D10*
X2709656Y1509572D02*
G01*
X2652839Y1270937D01*
X2596019Y1509572D02*
G01*
X2652839Y1270937D01*
X2596019Y1509572D02*
G01*
X2539202Y1270937D01*
X2482385Y1509572D02*
G01*
X2539202Y1270937D01*
X2407384Y1509572D02*
G01*
X2396020Y1498208D01*
X2384658Y1509572D01*
X2396020Y1520936D01*
X2407384Y1509572D01*
X2396020Y1430027D02*
G01*
X2396020Y1270937D01*
X2309657Y1430027D02*
G01*
X2309657Y1270937D01*
X2309657Y1361846D02*
G01*
X2298293Y1395935D01*
X2275565Y1418663D01*
X2252840Y1430027D01*
X2218748Y1430027D01*
X2143749Y1361846D02*
G01*
X2007384Y1361846D01*
X2007384Y1384571D01*
X2018748Y1407299D01*
X2030112Y1418663D01*
X2052840Y1430027D01*
X2086930Y1430027D01*
X2109657Y1418663D01*
X2132385Y1395935D01*
X2143749Y1361846D01*
X2143749Y1339118D01*
X2132385Y1305026D01*
X2109657Y1282298D01*
X2086930Y1270937D01*
X2052840Y1270937D01*
X2030112Y1282298D01*
X2007384Y1305026D01*
X1932386Y1509572D02*
G01*
X1932386Y1270937D01*
X1857385Y1361846D02*
G01*
X1721022Y1361846D01*
X1721022Y1384571D01*
X1732386Y1407299D01*
X1743750Y1418663D01*
X1766476Y1430027D01*
X1800567Y1430027D01*
X1823295Y1418663D01*
X1846021Y1395935D01*
X1857385Y1361846D01*
X1857385Y1339118D01*
X1846021Y1305026D01*
X1823295Y1282298D01*
X1800567Y1270937D01*
X1766476Y1270937D01*
X1743750Y1282298D01*
X1721022Y1305026D01*
X1521023Y1395935D02*
G01*
X1532387Y1418663D01*
X1566476Y1430027D01*
X1600568Y1430027D01*
X1634657Y1418663D01*
X1646021Y1395935D01*
X1634657Y1373207D01*
X1611932Y1361846D01*
X1555112Y1350482D01*
X1532387Y1339118D01*
X1521023Y1316390D01*
X1521023Y1305026D01*
X1532387Y1282298D01*
X1566476Y1270937D01*
X1600568Y1270937D01*
X1634657Y1282298D01*
X1646021Y1305026D01*
X1321023Y1395935D02*
G01*
X1332387Y1418663D01*
X1366476Y1430027D01*
X1400568Y1430027D01*
X1434658Y1418663D01*
X1446021Y1395935D01*
X1434658Y1373207D01*
X1411932Y1361846D01*
X1355112Y1350482D01*
X1332387Y1339118D01*
X1321023Y1316390D01*
X1321023Y1305026D01*
X1332387Y1282298D01*
X1366476Y1270937D01*
X1400568Y1270937D01*
X1434658Y1282298D01*
X1446021Y1305026D01*
X1246022Y1509572D02*
G01*
X1246022Y1270937D01*
X1246022Y1509572D02*
G01*
X1143751Y1509572D01*
X1109659Y1498208D01*
X1098295Y1486844D01*
X1086932Y1464116D01*
X1086932Y1441391D01*
X1098295Y1418663D01*
X1109659Y1407299D01*
X1143751Y1395935D01*
X1246022Y1395935D02*
G01*
X1143751Y1395935D01*
X1109659Y1384571D01*
X1098295Y1373207D01*
X1086932Y1350482D01*
X1086932Y1316390D01*
X1098295Y1293662D01*
X1109659Y1282298D01*
X1143751Y1270937D01*
X1246022Y1270937D01*
X1011933Y1509572D02*
G01*
X1011933Y1270937D01*
X1011933Y1509572D02*
G01*
X921024Y1270937D01*
X830115Y1509572D02*
G01*
X921024Y1270937D01*
X830115Y1509572D02*
G01*
X830115Y1270937D01*
X596023Y1475480D02*
G01*
X618751Y1498208D01*
X652843Y1509572D01*
X698296Y1509572D01*
X732388Y1498208D01*
X755114Y1475480D01*
X755114Y1452753D01*
X743752Y1430027D01*
X732388Y1418663D01*
X709660Y1407299D01*
X641479Y1384571D01*
X618751Y1373207D01*
X607387Y1361846D01*
X596023Y1339118D01*
X596023Y1305026D01*
X618751Y1282298D01*
X652843Y1270937D01*
X698296Y1270937D01*
X732388Y1282298D01*
X755114Y1305026D01*
X2477155Y1191554D02*
G01*
X2477155Y881326D01*
X2477155Y1191554D02*
G01*
X2358974Y881326D01*
X2240793Y1191554D02*
G01*
X2358974Y881326D01*
X2240793Y1191554D02*
G01*
X2240793Y881326D01*
X1966020Y1088146D02*
G01*
X1966020Y881326D01*
X1966020Y1043825D02*
G01*
X1995566Y1073373D01*
X2025111Y1088146D01*
X2069429Y1088146D01*
X2098974Y1073373D01*
X2128520Y1043825D01*
X2143292Y999507D01*
X2143292Y969962D01*
X2128520Y925644D01*
X2098974Y896099D01*
X2069429Y881326D01*
X2025111Y881326D01*
X1995566Y896099D01*
X1966020Y925644D01*
X1824202Y1191554D02*
G01*
X1824202Y940417D01*
X1809429Y896099D01*
X1779884Y881326D01*
X1750339Y881326D01*
X1868520Y1088146D02*
G01*
X1765112Y1088146D01*
X1652838Y1088146D02*
G01*
X1652838Y777918D01*
X1652838Y1043825D02*
G01*
X1623293Y1073373D01*
X1593748Y1088146D01*
X1549430Y1088146D01*
X1519885Y1073373D01*
X1490339Y1043825D01*
X1475567Y999507D01*
X1475567Y969962D01*
X1490339Y925644D01*
X1519885Y896099D01*
X1549430Y881326D01*
X1593748Y881326D01*
X1623293Y896099D01*
X1652838Y925644D01*
X1378066Y1132464D02*
G01*
X1348521Y1147236D01*
X1304203Y1191554D01*
X1304203Y881326D01*
X1118067Y1191554D02*
G01*
X1162385Y1176781D01*
X1191930Y1132464D01*
X1206703Y1058598D01*
X1206703Y1014280D01*
X1191930Y940417D01*
X1162385Y896099D01*
X1118067Y881326D01*
X1088522Y881326D01*
X1044204Y896099D01*
X1014658Y940417D01*
X999886Y1014280D01*
X999886Y1058598D01*
X1014658Y1132464D01*
X1044204Y1176781D01*
X1088522Y1191554D01*
X1118067Y1191554D01*
X902385Y1132464D02*
G01*
X872840Y1147236D01*
X828522Y1191554D01*
X828522Y881326D01*
X2830083Y2752117D02*
G01*
X2850537Y2793027D01*
X2891447Y2833936D01*
X2932353Y2854391D01*
X3014172Y2854391D01*
X3055081Y2833936D01*
X3095990Y2793027D01*
X3116445Y2752117D01*
X3136900Y2690754D01*
X3136900Y2588480D01*
X3116445Y2527117D01*
X3095990Y2486207D01*
X3055081Y2445298D01*
X3014172Y2424846D01*
X2932353Y2424846D01*
X2891447Y2445298D01*
X2850537Y2486207D01*
X2830083Y2527117D01*
X2695082Y2854391D02*
G01*
X2695082Y2424846D01*
X2695082Y2629390D02*
G01*
X2633718Y2690754D01*
X2592809Y2711208D01*
X2531447Y2711208D01*
X2490538Y2690754D01*
X2470083Y2629390D01*
X2470083Y2424846D01*
X2335082Y2854391D02*
G01*
X2314628Y2833936D01*
X2294173Y2854391D01*
X2314628Y2874845D01*
X2335082Y2854391D01*
X2314628Y2711208D02*
G01*
X2314628Y2424846D01*
X2159175Y2854391D02*
G01*
X2159175Y2424846D01*
X1778721Y2854391D02*
G01*
X1778721Y2424846D01*
X1778721Y2649844D02*
G01*
X1819630Y2690754D01*
X1860539Y2711208D01*
X1921903Y2711208D01*
X1962810Y2690754D01*
X2003719Y2649844D01*
X2024174Y2588480D01*
X2024174Y2547571D01*
X2003719Y2486207D01*
X1962810Y2445298D01*
X1921903Y2424846D01*
X1860539Y2424846D01*
X1819630Y2445298D01*
X1778721Y2486207D01*
X1643720Y2854391D02*
G01*
X1643720Y2424846D01*
X1643720Y2854391D02*
G01*
X1357358Y2424846D01*
X1357358Y2854391D02*
G01*
X1357358Y2424846D01*
X1120086Y2711208D02*
G01*
X1160995Y2690754D01*
X1201905Y2649844D01*
X1222357Y2588480D01*
X1222357Y2547571D01*
X1201905Y2486207D01*
X1160995Y2445298D01*
X1120086Y2424846D01*
X1058722Y2424846D01*
X1017813Y2445298D01*
X976904Y2486207D01*
X956449Y2547571D01*
X956449Y2588480D01*
X976904Y2649844D01*
X1017813Y2690754D01*
X1058722Y2711208D01*
X1120086Y2711208D01*
X575995Y2854391D02*
G01*
X575995Y2424846D01*
X575995Y2649844D02*
G01*
X616905Y2690754D01*
X657814Y2711208D01*
X719178Y2711208D01*
X760087Y2690754D01*
X800996Y2649844D01*
X821451Y2588480D01*
X821451Y2547571D01*
X800996Y2486207D01*
X760087Y2445298D01*
X719178Y2424846D01*
X657814Y2424846D01*
X616905Y2445298D01*
X575995Y2486207D01*
X440997Y2588480D02*
G01*
X195541Y2588480D01*
X195541Y2629390D01*
X215996Y2670299D01*
X236451Y2690754D01*
X277360Y2711208D01*
X338724Y2711208D01*
X379633Y2690754D01*
X420542Y2649844D01*
X440997Y2588480D01*
X440997Y2547571D01*
X420542Y2486207D01*
X379633Y2445298D01*
X338724Y2424846D01*
X277360Y2424846D01*
X236451Y2445298D01*
X195541Y2486207D01*
X2539202Y2200071D02*
G01*
X2546019Y2213709D01*
X2559657Y2227346D01*
X2573291Y2234163D01*
X2600566Y2234163D01*
X2614201Y2227346D01*
X2627838Y2213709D01*
X2634655Y2200071D01*
X2641475Y2179617D01*
X2641475Y2145527D01*
X2634655Y2125073D01*
X2627838Y2111435D01*
X2614201Y2097798D01*
X2600566Y2090981D01*
X2573291Y2090981D01*
X2559657Y2097798D01*
X2546019Y2111435D01*
X2539202Y2125073D01*
X2460111Y2186437D02*
G01*
X2473746Y2179617D01*
X2487383Y2165982D01*
X2494201Y2145527D01*
X2494201Y2131890D01*
X2487383Y2111435D01*
X2473746Y2097798D01*
X2460111Y2090981D01*
X2439657Y2090981D01*
X2426020Y2097798D01*
X2412385Y2111435D01*
X2405565Y2131890D01*
X2405565Y2145527D01*
X2412385Y2165982D01*
X2426020Y2179617D01*
X2439657Y2186437D01*
X2460111Y2186437D01*
X2360566Y2186437D02*
G01*
X2360566Y2090981D01*
X2360566Y2159162D02*
G01*
X2340112Y2179617D01*
X2326474Y2186437D01*
X2306020Y2186437D01*
X2292385Y2179617D01*
X2285565Y2159162D01*
X2285565Y2090981D01*
X2240567Y2186437D02*
G01*
X2240567Y2090981D01*
X2240567Y2159162D02*
G01*
X2220112Y2179617D01*
X2206475Y2186437D01*
X2186020Y2186437D01*
X2172385Y2179617D01*
X2165565Y2159162D01*
X2165565Y2090981D01*
X2120567Y2145527D02*
G01*
X2038748Y2145527D01*
X2038748Y2159162D01*
X2045566Y2172799D01*
X2052386Y2179617D01*
X2066020Y2186437D01*
X2086475Y2186437D01*
X2100112Y2179617D01*
X2113747Y2165982D01*
X2120567Y2145527D01*
X2120567Y2131890D01*
X2113747Y2111435D01*
X2100112Y2097798D01*
X2086475Y2090981D01*
X2066020Y2090981D01*
X2052386Y2097798D01*
X2038748Y2111435D01*
X1911931Y2165982D02*
G01*
X1925566Y2179617D01*
X1939203Y2186437D01*
X1959658Y2186437D01*
X1973292Y2179617D01*
X1986930Y2165982D01*
X1993747Y2145527D01*
X1993747Y2131890D01*
X1986930Y2111435D01*
X1973292Y2097798D01*
X1959658Y2090981D01*
X1939203Y2090981D01*
X1925566Y2097798D01*
X1911931Y2111435D01*
X1846475Y2234163D02*
G01*
X1846475Y2118253D01*
X1839658Y2097798D01*
X1826021Y2090981D01*
X1812386Y2090981D01*
X1866930Y2186437D02*
G01*
X1819203Y2186437D01*
X1594203Y2234163D02*
G01*
X1594203Y2125073D01*
X1601022Y2104618D01*
X1607840Y2097798D01*
X1621477Y2090981D01*
X1635112Y2090981D01*
X1648749Y2097798D01*
X1655566Y2104618D01*
X1662386Y2125073D01*
X1662386Y2138707D01*
X1549204Y2206891D02*
G01*
X1535567Y2213709D01*
X1515112Y2234163D01*
X1515112Y2090981D01*
X1310568Y2234163D02*
G01*
X1324203Y2234163D01*
X1337840Y2227346D01*
X1344658Y2206891D01*
X1344658Y2090981D01*
X1365112Y2186437D02*
G01*
X1317386Y2186437D01*
X1231478Y2186437D02*
G01*
X1245113Y2179617D01*
X1258750Y2165982D01*
X1265567Y2145527D01*
X1265567Y2131890D01*
X1258750Y2111435D01*
X1245113Y2097798D01*
X1231478Y2090981D01*
X1211023Y2090981D01*
X1197386Y2097798D01*
X1183749Y2111435D01*
X1176931Y2131890D01*
X1176931Y2145527D01*
X1183749Y2165982D01*
X1197386Y2179617D01*
X1211023Y2186437D01*
X1231478Y2186437D01*
X1131933Y2186437D02*
G01*
X1131933Y2090981D01*
X1131933Y2145527D02*
G01*
X1125113Y2165982D01*
X1111478Y2179617D01*
X1097841Y2186437D01*
X1077386Y2186437D01*
X927387Y2234163D02*
G01*
X927387Y2090981D01*
X927387Y2234163D02*
G01*
X866023Y2234163D01*
X845568Y2227346D01*
X838751Y2220526D01*
X831933Y2206891D01*
X831933Y2193254D01*
X838751Y2179617D01*
X845568Y2172799D01*
X866023Y2165982D01*
X927387Y2165982D02*
G01*
X866023Y2165982D01*
X845568Y2159162D01*
X838751Y2152345D01*
X831933Y2138707D01*
X831933Y2118253D01*
X838751Y2104618D01*
X845568Y2097798D01*
X866023Y2090981D01*
X927387Y2090981D01*
X725568Y2213709D02*
G01*
X725568Y2090981D01*
X786932Y2152345D02*
G01*
X664204Y2152345D01*
X2681020Y2053419D02*
G01*
X2681020Y1937509D01*
X2674203Y1917054D01*
X2660566Y1910237D01*
X2646931Y1910237D01*
X2701475Y2005693D02*
G01*
X2653748Y2005693D01*
X2567840Y2005693D02*
G01*
X2581475Y1998873D01*
X2595112Y1985238D01*
X2601930Y1964783D01*
X2601930Y1951146D01*
X2595112Y1930692D01*
X2581475Y1917054D01*
X2567840Y1910237D01*
X2547386Y1910237D01*
X2533749Y1917054D01*
X2520111Y1930692D01*
X2513294Y1951146D01*
X2513294Y1964783D01*
X2520111Y1985238D01*
X2533749Y1998873D01*
X2547386Y2005693D01*
X2567840Y2005693D01*
X2363294Y2053419D02*
G01*
X2363294Y1910237D01*
X2363294Y1985238D02*
G01*
X2349657Y1998873D01*
X2336022Y2005693D01*
X2315568Y2005693D01*
X2301930Y1998873D01*
X2288293Y1985238D01*
X2281476Y1964783D01*
X2281476Y1951146D01*
X2288293Y1930692D01*
X2301930Y1917054D01*
X2315568Y1910237D01*
X2336022Y1910237D01*
X2349657Y1917054D01*
X2363294Y1930692D01*
X2236477Y1964783D02*
G01*
X2154659Y1964783D01*
X2154659Y1978418D01*
X2161476Y1992055D01*
X2168293Y1998873D01*
X2181931Y2005693D01*
X2202385Y2005693D01*
X2216022Y1998873D01*
X2229657Y1985238D01*
X2236477Y1964783D01*
X2236477Y1951146D01*
X2229657Y1930692D01*
X2216022Y1917054D01*
X2202385Y1910237D01*
X2181931Y1910237D01*
X2168293Y1917054D01*
X2154659Y1930692D01*
X1922840Y1985238D02*
G01*
X1936478Y1998873D01*
X1950112Y2005693D01*
X1970567Y2005693D01*
X1984204Y1998873D01*
X1997842Y1985238D01*
X2004659Y1964783D01*
X2004659Y1951146D01*
X1997842Y1930692D01*
X1984204Y1917054D01*
X1970567Y1910237D01*
X1950112Y1910237D01*
X1936478Y1917054D01*
X1922840Y1930692D01*
X1843750Y2005693D02*
G01*
X1857387Y1998873D01*
X1871022Y1985238D01*
X1877842Y1964783D01*
X1877842Y1951146D01*
X1871022Y1930692D01*
X1857387Y1917054D01*
X1843750Y1910237D01*
X1823295Y1910237D01*
X1809658Y1917054D01*
X1796023Y1930692D01*
X1789203Y1951146D01*
X1789203Y1964783D01*
X1796023Y1985238D01*
X1809658Y1998873D01*
X1823295Y2005693D01*
X1843750Y2005693D01*
X1744205Y2005693D02*
G01*
X1744205Y1910237D01*
X1744205Y1978418D02*
G01*
X1723750Y1998873D01*
X1710113Y2005693D01*
X1689658Y2005693D01*
X1676024Y1998873D01*
X1669204Y1978418D01*
X1669204Y1910237D01*
X1624205Y2005693D02*
G01*
X1624205Y1910237D01*
X1624205Y1978418D02*
G01*
X1603750Y1998873D01*
X1590113Y2005693D01*
X1569659Y2005693D01*
X1556024Y1998873D01*
X1549204Y1978418D01*
X1549204Y1910237D01*
X1504205Y1964783D02*
G01*
X1422387Y1964783D01*
X1422387Y1978418D01*
X1429204Y1992055D01*
X1436024Y1998873D01*
X1449659Y2005693D01*
X1470113Y2005693D01*
X1483751Y1998873D01*
X1497388Y1985238D01*
X1504205Y1964783D01*
X1504205Y1951146D01*
X1497388Y1930692D01*
X1483751Y1917054D01*
X1470113Y1910237D01*
X1449659Y1910237D01*
X1436024Y1917054D01*
X1422387Y1930692D01*
X1295570Y1985238D02*
G01*
X1309204Y1998873D01*
X1322842Y2005693D01*
X1343296Y2005693D01*
X1356934Y1998873D01*
X1370568Y1985238D01*
X1377388Y1964783D01*
X1377388Y1951146D01*
X1370568Y1930692D01*
X1356934Y1917054D01*
X1343296Y1910237D01*
X1322842Y1910237D01*
X1309204Y1917054D01*
X1295570Y1930692D01*
X1230114Y2053419D02*
G01*
X1230114Y1937509D01*
X1223297Y1917054D01*
X1209659Y1910237D01*
X1196025Y1910237D01*
X1250569Y2005693D02*
G01*
X1202842Y2005693D01*
X1151023Y1964783D02*
G01*
X1069205Y1964783D01*
X1069205Y1978418D01*
X1076025Y1992055D01*
X1082842Y1998873D01*
X1096479Y2005693D01*
X1116934Y2005693D01*
X1130569Y1998873D01*
X1144206Y1985238D01*
X1151023Y1964783D01*
X1151023Y1951146D01*
X1144206Y1930692D01*
X1130569Y1917054D01*
X1116934Y1910237D01*
X1096479Y1910237D01*
X1082842Y1917054D01*
X1069205Y1930692D01*
X942388Y2053419D02*
G01*
X942388Y1910237D01*
X942388Y1985238D02*
G01*
X956025Y1998873D01*
X969660Y2005693D01*
X990114Y2005693D01*
X1003752Y1998873D01*
X1017389Y1985238D01*
X1024206Y1964783D01*
X1024206Y1951146D01*
X1017389Y1930692D01*
X1003752Y1917054D01*
X990114Y1910237D01*
X969660Y1910237D01*
X956025Y1917054D01*
X942388Y1930692D01*
X771933Y2053419D02*
G01*
X771933Y1937509D01*
X765116Y1917054D01*
X751479Y1910237D01*
X737844Y1910237D01*
X792388Y2005693D02*
G01*
X744661Y2005693D01*
X658751Y2005693D02*
G01*
X672388Y1998873D01*
X686026Y1985238D01*
X692843Y1964783D01*
X692843Y1951146D01*
X686026Y1930692D01*
X672388Y1917054D01*
X658751Y1910237D01*
X638296Y1910237D01*
X624662Y1917054D01*
X611024Y1930692D01*
X604207Y1951146D01*
X604207Y1964783D01*
X611024Y1985238D01*
X624662Y1998873D01*
X638296Y2005693D01*
X658751Y2005693D01*
X2727383Y1865863D02*
G01*
X2727383Y1722681D01*
X2727383Y1865863D02*
G01*
X2679656Y1865863D01*
X2659202Y1859046D01*
X2645564Y1845409D01*
X2638747Y1831771D01*
X2631927Y1811317D01*
X2631927Y1777227D01*
X2638747Y1756773D01*
X2645564Y1743135D01*
X2659202Y1729498D01*
X2679656Y1722681D01*
X2727383Y1722681D01*
X2586929Y1838591D02*
G01*
X2573291Y1845409D01*
X2552837Y1865863D01*
X2552837Y1722681D01*
X2402837Y1865863D02*
G01*
X2402837Y1722681D01*
X2402837Y1865863D02*
G01*
X2348293Y1722681D01*
X2293747Y1865863D02*
G01*
X2348293Y1722681D01*
X2293747Y1865863D02*
G01*
X2293747Y1722681D01*
X2248748Y1865863D02*
G01*
X2241928Y1859046D01*
X2235111Y1865863D01*
X2241928Y1872681D01*
X2248748Y1865863D01*
X2241928Y1818137D02*
G01*
X2241928Y1722681D01*
X2190112Y1818137D02*
G01*
X2190112Y1722681D01*
X2190112Y1790862D02*
G01*
X2169657Y1811317D01*
X2156020Y1818137D01*
X2135565Y1818137D01*
X2121928Y1811317D01*
X2115111Y1790862D01*
X2115111Y1722681D01*
X2070112Y1865863D02*
G01*
X2063292Y1859046D01*
X2056475Y1865863D01*
X2063292Y1872681D01*
X2070112Y1865863D01*
X2063292Y1818137D02*
G01*
X2063292Y1722681D01*
X1886021Y1865863D02*
G01*
X1886021Y1749953D01*
X1879203Y1729498D01*
X1865566Y1722681D01*
X1851929Y1722681D01*
X1906475Y1818137D02*
G01*
X1858749Y1818137D01*
X1806930Y1865863D02*
G01*
X1806930Y1722681D01*
X1806930Y1790862D02*
G01*
X1786475Y1811317D01*
X1772838Y1818137D01*
X1752384Y1818137D01*
X1738749Y1811317D01*
X1731929Y1790862D01*
X1731929Y1722681D01*
X1686930Y1818137D02*
G01*
X1686930Y1722681D01*
X1686930Y1777227D02*
G01*
X1680113Y1797682D01*
X1666476Y1811317D01*
X1652838Y1818137D01*
X1632384Y1818137D01*
X1553293Y1818137D02*
G01*
X1566931Y1811317D01*
X1580565Y1797682D01*
X1587385Y1777227D01*
X1587385Y1763590D01*
X1580565Y1743135D01*
X1566931Y1729498D01*
X1553293Y1722681D01*
X1532839Y1722681D01*
X1519204Y1729498D01*
X1505567Y1743135D01*
X1498749Y1763590D01*
X1498749Y1777227D01*
X1505567Y1797682D01*
X1519204Y1811317D01*
X1532839Y1818137D01*
X1553293Y1818137D01*
X1453748Y1818137D02*
G01*
X1453748Y1749953D01*
X1446931Y1729498D01*
X1433294Y1722681D01*
X1412839Y1722681D01*
X1399204Y1729498D01*
X1378750Y1749953D01*
X1378750Y1818137D02*
G01*
X1378750Y1722681D01*
X1251930Y1818137D02*
G01*
X1251930Y1709046D01*
X1258750Y1688592D01*
X1265567Y1681772D01*
X1279204Y1674954D01*
X1299659Y1674954D01*
X1313294Y1681772D01*
X1251930Y1797682D02*
G01*
X1265567Y1811317D01*
X1279204Y1818137D01*
X1299659Y1818137D01*
X1313294Y1811317D01*
X1326931Y1797682D01*
X1333748Y1777227D01*
X1333748Y1763590D01*
X1326931Y1743135D01*
X1313294Y1729498D01*
X1299659Y1722681D01*
X1279204Y1722681D01*
X1265567Y1729498D01*
X1251930Y1743135D01*
X1206931Y1865863D02*
G01*
X1206931Y1722681D01*
X1206931Y1790862D02*
G01*
X1186477Y1811317D01*
X1172839Y1818137D01*
X1152385Y1818137D01*
X1138750Y1811317D01*
X1131930Y1790862D01*
X1131930Y1722681D01*
X981930Y1865863D02*
G01*
X927387Y1722681D01*
X872840Y1865863D02*
G01*
X927387Y1722681D01*
X725568Y1831771D02*
G01*
X732386Y1845409D01*
X746023Y1859046D01*
X759660Y1865863D01*
X786932Y1865863D01*
X800567Y1859046D01*
X814204Y1845409D01*
X821021Y1831771D01*
X827841Y1811317D01*
X827841Y1777227D01*
X821021Y1756773D01*
X814204Y1743135D01*
X800567Y1729498D01*
X786932Y1722681D01*
X759660Y1722681D01*
X746023Y1729498D01*
X732386Y1743135D01*
X725568Y1756773D01*
X578297Y1831771D02*
G01*
X585114Y1845409D01*
X598751Y1859046D01*
X612386Y1865863D01*
X639660Y1865863D01*
X653295Y1859046D01*
X666932Y1845409D01*
X673750Y1831771D01*
X680567Y1811317D01*
X680567Y1777227D01*
X673750Y1756773D01*
X666932Y1743135D01*
X653295Y1729498D01*
X639660Y1722681D01*
X612386Y1722681D01*
X598751Y1729498D01*
X585114Y1743135D01*
X578297Y1756773D01*
D11*
X3316731Y3321557D02*
G01*
X3321050Y3329686D01*
X3329177Y3337813D01*
X3337306Y3342131D01*
X3353561Y3342131D01*
X3361943Y3337813D01*
X3370072Y3329686D01*
X3374136Y3321557D01*
X3378200Y3309365D01*
X3378200Y3288792D01*
X3374136Y3276600D01*
X3370072Y3268471D01*
X3361943Y3260089D01*
X3353561Y3256026D01*
X3337306Y3256026D01*
X3329177Y3260089D01*
X3321050Y3268471D01*
X3316731Y3276600D01*
X3316731Y3288792D01*
X3337306Y3288792D02*
G01*
X3316731Y3288792D01*
X3289808Y3342131D02*
G01*
X3289808Y3256026D01*
X3289808Y3342131D02*
G01*
X3232658Y3256026D01*
X3232658Y3342131D02*
G01*
X3232658Y3256026D01*
X3205479Y3342131D02*
G01*
X3205479Y3256026D01*
X3205479Y3342131D02*
G01*
X3177031Y3342131D01*
X3164586Y3337813D01*
X3156458Y3329686D01*
X3152393Y3321557D01*
X3148329Y3309365D01*
X3148329Y3288792D01*
X3152393Y3276600D01*
X3156458Y3268471D01*
X3164586Y3260089D01*
X3177031Y3256026D01*
X3205479Y3256026D01*
X3581400Y1894331D02*
G01*
X3581400Y1808226D01*
X3581400Y1894331D02*
G01*
X3552697Y1894331D01*
X3540506Y1890013D01*
X3532377Y1881886D01*
X3528313Y1873757D01*
X3524250Y1861565D01*
X3524250Y1840992D01*
X3528313Y1828800D01*
X3532377Y1820671D01*
X3540506Y1812289D01*
X3552697Y1808226D01*
X3581400Y1808226D01*
X3468370Y1894331D02*
G01*
X3468370Y1808226D01*
X3497072Y1894331D02*
G01*
X3439922Y1894331D01*
X3412743Y1894331D02*
G01*
X3412743Y1808226D01*
X3412743Y1894331D02*
G01*
X3375913Y1894331D01*
X3363722Y1890013D01*
X3359658Y1885950D01*
X3355593Y1877821D01*
X3355593Y1869694D01*
X3359658Y1861565D01*
X3363722Y1857502D01*
X3375913Y1853184D01*
X3412743Y1853184D01*
X3384295Y1853184D02*
G01*
X3355593Y1808226D01*
D12*
X427278Y2324100D02*
G01*
X2878378Y2324100D01*
X2878378Y1612900D01*
X427278Y1612900D01*
X427278Y2324100D01*
M02*
