G04 Layer: BottomLayer*
G04 EasyEDA v6.5.40, 2024-02-04 03:55:30*
G04 936758304a9441538e57e2a98c5da18a,153482dac41149f1974aef67bcea995d,10*
G04 Gerber Generator version 0.2*
G04 Scale: 100 percent, Rotated: No, Reflected: No *
G04 Dimensions in millimeters *
G04 leading zeros omitted , absolute positions ,4 integer and 5 decimal *
%FSLAX45Y45*%
%MOMM*%

%AMMACRO1*21,1,$1,$2,0,0,$3*%
%ADD10C,0.2540*%
%ADD11C,0.5080*%
%ADD12C,1.6000*%
%ADD13C,1.8796*%
%ADD14C,2.0000*%
%ADD15C,1.5240*%
%ADD16C,1.7000*%
%ADD17R,1.7000X1.7000*%
%ADD18R,1.5000X1.5000*%
%ADD19O,1.9999959999999999X2.4999949999999997*%
%ADD20MACRO1,2.0015X2.4994X0.0000*%
%ADD21C,1.4000*%
%ADD22C,1.5080*%
%ADD23R,1.5080X1.5080*%
%ADD24C,1.8000*%
%ADD25R,1.8000X1.8000*%
%ADD26C,0.6100*%
%ADD27C,0.0107*%

%LPD*%
G36*
X1010158Y2421991D02*
G01*
X1006246Y2422753D01*
X1002995Y2424988D01*
X1000760Y2428290D01*
X999998Y2432151D01*
X999998Y2699004D01*
X998982Y2699969D01*
X60147Y2699969D01*
X56286Y2700782D01*
X52984Y2702966D01*
X50749Y2706268D01*
X49987Y2710129D01*
X49987Y4939842D01*
X50749Y4943703D01*
X52984Y4947005D01*
X56286Y4949240D01*
X60147Y4950002D01*
X515162Y4950002D01*
X519531Y4948986D01*
X523036Y4946243D01*
X525018Y4942179D01*
X525068Y4937709D01*
X523189Y4933645D01*
X519734Y4930749D01*
X514756Y4928209D01*
X510997Y4925872D01*
X507441Y4923129D01*
X503986Y4919980D01*
X435508Y4851450D01*
X432104Y4849215D01*
X428091Y4848453D01*
X424129Y4849368D01*
X412953Y4854397D01*
X398424Y4858918D01*
X383489Y4861661D01*
X368300Y4862576D01*
X353110Y4861661D01*
X338175Y4858918D01*
X323646Y4854397D01*
X309778Y4848148D01*
X296773Y4840325D01*
X284835Y4830927D01*
X274066Y4820158D01*
X264718Y4808220D01*
X256844Y4795215D01*
X250596Y4781346D01*
X246075Y4766818D01*
X243332Y4751882D01*
X242417Y4736388D01*
X242417Y4687011D01*
X243332Y4671517D01*
X246075Y4656582D01*
X250596Y4642053D01*
X256844Y4628184D01*
X264718Y4615180D01*
X274066Y4603242D01*
X284835Y4592472D01*
X296773Y4583074D01*
X309778Y4575251D01*
X323646Y4569002D01*
X338175Y4564481D01*
X353110Y4561738D01*
X368300Y4560824D01*
X383489Y4561738D01*
X398424Y4564481D01*
X412953Y4569002D01*
X426821Y4575251D01*
X439826Y4583074D01*
X451764Y4592472D01*
X462534Y4603242D01*
X471932Y4615180D01*
X479755Y4628184D01*
X486003Y4642053D01*
X490524Y4656582D01*
X493268Y4671517D01*
X494233Y4687011D01*
X494233Y4736388D01*
X493268Y4751882D01*
X492353Y4756962D01*
X492251Y4760214D01*
X493268Y4763363D01*
X495147Y4766005D01*
X558698Y4829556D01*
X562000Y4831740D01*
X565912Y4832553D01*
X740257Y4832553D01*
X744118Y4831740D01*
X747420Y4829556D01*
X749604Y4826254D01*
X750417Y4822393D01*
X750417Y4587290D01*
X751128Y4580940D01*
X753008Y4575505D01*
X756107Y4570577D01*
X760171Y4566513D01*
X765098Y4563414D01*
X770534Y4561484D01*
X776884Y4560773D01*
X975715Y4560773D01*
X982065Y4561484D01*
X987501Y4563414D01*
X992428Y4566513D01*
X996492Y4570577D01*
X999591Y4575505D01*
X1001521Y4580940D01*
X1002233Y4587290D01*
X1002233Y4822393D01*
X1002995Y4826254D01*
X1005179Y4829556D01*
X1008481Y4831740D01*
X1012393Y4832553D01*
X1497177Y4832553D01*
X1500886Y4831842D01*
X1504086Y4829810D01*
X1506321Y4826762D01*
X1507337Y4823104D01*
X1506880Y4819396D01*
X1505153Y4816043D01*
X1502918Y4813249D01*
X1498498Y4805984D01*
X1496263Y4803394D01*
X1493215Y4801717D01*
X1489811Y4801108D01*
X1428953Y4801108D01*
X1424228Y4800904D01*
X1419809Y4800346D01*
X1415440Y4799330D01*
X1411173Y4798009D01*
X1407058Y4796282D01*
X1403096Y4794250D01*
X1399286Y4791811D01*
X1395730Y4789119D01*
X1392275Y4785918D01*
X255981Y3649624D01*
X252780Y3646170D01*
X250088Y3642614D01*
X247650Y3638804D01*
X245617Y3634841D01*
X243890Y3630726D01*
X242570Y3626459D01*
X241604Y3622090D01*
X240995Y3617671D01*
X240792Y3612946D01*
X240792Y3388055D01*
X240029Y3384194D01*
X237794Y3380892D01*
X234543Y3378657D01*
X230632Y3377895D01*
X217271Y3377895D01*
X210972Y3377184D01*
X205486Y3375304D01*
X200609Y3372205D01*
X196494Y3368090D01*
X193395Y3363214D01*
X191516Y3357727D01*
X190804Y3351428D01*
X190804Y3201771D01*
X191516Y3195472D01*
X193395Y3189986D01*
X196494Y3185109D01*
X200609Y3180994D01*
X205486Y3177895D01*
X210972Y3176016D01*
X217271Y3175304D01*
X366928Y3175304D01*
X373227Y3176016D01*
X378714Y3177895D01*
X383590Y3180994D01*
X387705Y3185109D01*
X390804Y3189986D01*
X392684Y3195472D01*
X393395Y3201771D01*
X393395Y3351428D01*
X392684Y3357727D01*
X390804Y3363214D01*
X387705Y3368090D01*
X383590Y3372205D01*
X378714Y3375304D01*
X373227Y3377184D01*
X366928Y3377895D01*
X353568Y3377895D01*
X349656Y3378657D01*
X346405Y3380892D01*
X344170Y3384194D01*
X343408Y3388055D01*
X343408Y3587699D01*
X344170Y3591610D01*
X346405Y3594912D01*
X987602Y4236110D01*
X991158Y4238447D01*
X995324Y4239107D01*
X999388Y4237990D01*
X1002690Y4235399D01*
X1004620Y4231640D01*
X1007516Y4221022D01*
X1012850Y4208475D01*
X1019759Y4196740D01*
X1028242Y4186021D01*
X1038047Y4176522D01*
X1049020Y4168444D01*
X1060958Y4161891D01*
X1073708Y4157014D01*
X1086967Y4153814D01*
X1100531Y4152493D01*
X1114145Y4152950D01*
X1127607Y4155186D01*
X1140612Y4159250D01*
X1153007Y4164990D01*
X1164488Y4172305D01*
X1174902Y4181094D01*
X1184046Y4191254D01*
X1191768Y4202480D01*
X1197914Y4214622D01*
X1202385Y4227525D01*
X1205128Y4240885D01*
X1206042Y4254500D01*
X1205128Y4268114D01*
X1202385Y4281474D01*
X1200150Y4287977D01*
X1199591Y4291736D01*
X1200404Y4295394D01*
X1202537Y4298492D01*
X1233728Y4329684D01*
X1237030Y4331868D01*
X1240891Y4332681D01*
X2345385Y4332681D01*
X2349246Y4331868D01*
X2352548Y4329684D01*
X2395626Y4286605D01*
X2401874Y4281474D01*
X2408529Y4277918D01*
X2415743Y4275734D01*
X2423769Y4274972D01*
X2661564Y4274972D01*
X2669590Y4275734D01*
X2676804Y4277918D01*
X2683459Y4281474D01*
X2689707Y4286605D01*
X2725928Y4322826D01*
X2729382Y4325112D01*
X2733446Y4325823D01*
X2738120Y4324553D01*
X2751988Y4320032D01*
X2766263Y4317288D01*
X2780792Y4316374D01*
X2795320Y4317288D01*
X2809646Y4320032D01*
X2823464Y4324553D01*
X2836621Y4330750D01*
X2848914Y4338523D01*
X2860141Y4347819D01*
X2870098Y4358436D01*
X2878632Y4370171D01*
X2885643Y4382922D01*
X2891028Y4396486D01*
X2894634Y4410557D01*
X2896463Y4424984D01*
X2896463Y4439564D01*
X2894634Y4453991D01*
X2891028Y4468114D01*
X2885643Y4481626D01*
X2878632Y4494377D01*
X2870098Y4506163D01*
X2860141Y4516780D01*
X2848914Y4526026D01*
X2836621Y4533849D01*
X2823464Y4540046D01*
X2809646Y4544517D01*
X2795320Y4547260D01*
X2780792Y4548174D01*
X2766263Y4547260D01*
X2751988Y4544517D01*
X2738120Y4540046D01*
X2732176Y4537202D01*
X2728214Y4536236D01*
X2724251Y4536897D01*
X2720848Y4539030D01*
X2718511Y4542332D01*
X2717647Y4546295D01*
X2718409Y4550257D01*
X2720644Y4553610D01*
X2862580Y4695494D01*
X2865882Y4697730D01*
X2869742Y4698492D01*
X3296361Y4698492D01*
X3299561Y4697984D01*
X3302406Y4696510D01*
X3304641Y4694174D01*
X3308146Y4689297D01*
X3317036Y4679746D01*
X3327196Y4671466D01*
X3338372Y4664659D01*
X3350412Y4659426D01*
X3363010Y4655921D01*
X3375964Y4654143D01*
X3389020Y4654143D01*
X3402025Y4655921D01*
X3414623Y4659426D01*
X3426612Y4664659D01*
X3437788Y4671466D01*
X3447948Y4679746D01*
X3456889Y4689297D01*
X3464407Y4699965D01*
X3470452Y4711598D01*
X3474821Y4723942D01*
X3477514Y4736744D01*
X3478377Y4749800D01*
X3477514Y4762855D01*
X3474821Y4775657D01*
X3470452Y4788001D01*
X3464407Y4799634D01*
X3456889Y4810302D01*
X3447948Y4819853D01*
X3437788Y4828133D01*
X3426612Y4834940D01*
X3414623Y4840122D01*
X3402025Y4843678D01*
X3389020Y4845456D01*
X3375964Y4845456D01*
X3363010Y4843678D01*
X3350412Y4840122D01*
X3338372Y4834940D01*
X3327196Y4828133D01*
X3317036Y4819853D01*
X3308146Y4810302D01*
X3304641Y4805426D01*
X3302406Y4803089D01*
X3299561Y4801616D01*
X3296361Y4801108D01*
X2844495Y4801108D01*
X2839821Y4800904D01*
X2835402Y4800346D01*
X2831033Y4799330D01*
X2826766Y4798009D01*
X2822600Y4796282D01*
X2818638Y4794250D01*
X2814878Y4791811D01*
X2811322Y4789119D01*
X2807868Y4785918D01*
X2568194Y4546295D01*
X2565146Y4544161D01*
X2561539Y4543298D01*
X2557881Y4543806D01*
X2555595Y4544517D01*
X2541320Y4547260D01*
X2526792Y4548174D01*
X2512263Y4547260D01*
X2497988Y4544517D01*
X2484120Y4540046D01*
X2470962Y4533849D01*
X2458669Y4526026D01*
X2447442Y4516780D01*
X2437485Y4506163D01*
X2428951Y4494377D01*
X2425903Y4488891D01*
X2423668Y4486097D01*
X2420569Y4484268D01*
X2417013Y4483608D01*
X1936800Y4483608D01*
X1932939Y4484370D01*
X1929638Y4486605D01*
X1703730Y4712512D01*
X1701749Y4715256D01*
X1700784Y4718558D01*
X1700987Y4721961D01*
X1703324Y4732121D01*
X1704695Y4746244D01*
X1704238Y4760468D01*
X1701952Y4774488D01*
X1697939Y4788103D01*
X1692148Y4801108D01*
X1684782Y4813249D01*
X1682546Y4816043D01*
X1680819Y4819396D01*
X1680362Y4823104D01*
X1681378Y4826762D01*
X1683613Y4829810D01*
X1686814Y4831842D01*
X1690522Y4832553D01*
X2173020Y4832553D01*
X2176881Y4831740D01*
X2180183Y4829556D01*
X2235250Y4774488D01*
X2237181Y4771796D01*
X2238146Y4768596D01*
X2237994Y4765243D01*
X2237486Y4762855D01*
X2236622Y4749800D01*
X2237486Y4736744D01*
X2240178Y4723942D01*
X2244547Y4711598D01*
X2250592Y4699965D01*
X2258110Y4689297D01*
X2267051Y4679746D01*
X2277211Y4671466D01*
X2288387Y4664659D01*
X2300376Y4659426D01*
X2312974Y4655921D01*
X2325979Y4654143D01*
X2339035Y4654143D01*
X2351989Y4655921D01*
X2364587Y4659426D01*
X2376627Y4664659D01*
X2387803Y4671466D01*
X2397963Y4679746D01*
X2406853Y4689297D01*
X2414422Y4699965D01*
X2420467Y4711598D01*
X2424836Y4723942D01*
X2427478Y4736744D01*
X2428392Y4749800D01*
X2427478Y4762855D01*
X2424836Y4775657D01*
X2420467Y4788001D01*
X2414422Y4799634D01*
X2406853Y4810302D01*
X2397963Y4819853D01*
X2387803Y4828133D01*
X2376627Y4834940D01*
X2364587Y4840122D01*
X2351989Y4843678D01*
X2339035Y4845456D01*
X2325979Y4845456D01*
X2316429Y4844135D01*
X2313279Y4844186D01*
X2310333Y4845202D01*
X2307844Y4847031D01*
X2234895Y4919980D01*
X2231440Y4923129D01*
X2227884Y4925872D01*
X2224176Y4928209D01*
X2219147Y4930749D01*
X2215692Y4933645D01*
X2213813Y4937709D01*
X2213864Y4942179D01*
X2215845Y4946243D01*
X2219401Y4948986D01*
X2223770Y4950002D01*
X3639820Y4950002D01*
X3643731Y4949240D01*
X3647033Y4947005D01*
X3649218Y4943703D01*
X3649979Y4939842D01*
X3649979Y3359658D01*
X3649116Y3355492D01*
X3646576Y3352088D01*
X3642918Y3349955D01*
X3638702Y3349548D01*
X3634638Y3350920D01*
X3631539Y3353765D01*
X3623970Y3364433D01*
X3614064Y3375355D01*
X3602837Y3384956D01*
X3590544Y3393084D01*
X3577336Y3399688D01*
X3563416Y3404615D01*
X3548989Y3407765D01*
X3534308Y3409086D01*
X3519525Y3408679D01*
X3504946Y3406394D01*
X3490772Y3402329D01*
X3477158Y3396589D01*
X3464407Y3389223D01*
X3452622Y3380333D01*
X3442004Y3370072D01*
X3432759Y3358540D01*
X3424986Y3345992D01*
X3418840Y3332581D01*
X3414369Y3318560D01*
X3411626Y3304032D01*
X3410712Y3289300D01*
X3411626Y3274567D01*
X3414369Y3260039D01*
X3418840Y3246018D01*
X3420262Y3242919D01*
X3421176Y3238957D01*
X3420465Y3234893D01*
X3418179Y3231489D01*
X3256076Y3069386D01*
X3253079Y3067304D01*
X3249523Y3066440D01*
X3245104Y3066186D01*
X3230168Y3063443D01*
X3215640Y3058922D01*
X3201771Y3052673D01*
X3188766Y3044799D01*
X3176828Y3035401D01*
X3166059Y3024682D01*
X3156712Y3012694D01*
X3148838Y2999689D01*
X3142589Y2985820D01*
X3138068Y2971342D01*
X3135325Y2956356D01*
X3134410Y2941167D01*
X3135325Y2926029D01*
X3138068Y2911043D01*
X3142589Y2896565D01*
X3148838Y2882696D01*
X3156712Y2869692D01*
X3166059Y2857703D01*
X3176828Y2846984D01*
X3188157Y2838043D01*
X3190849Y2834894D01*
X3192018Y2830880D01*
X3191510Y2826766D01*
X3189376Y2823159D01*
X3185972Y2820771D01*
X3181908Y2819908D01*
X2888691Y2819908D01*
X2884627Y2820771D01*
X2881223Y2823159D01*
X2879090Y2826766D01*
X2878582Y2830880D01*
X2879750Y2834894D01*
X2882442Y2838043D01*
X2893771Y2846984D01*
X2904540Y2857703D01*
X2913888Y2869692D01*
X2921762Y2882696D01*
X2928010Y2896565D01*
X2932531Y2911043D01*
X2935274Y2926029D01*
X2936189Y2941167D01*
X2935274Y2956356D01*
X2932531Y2971342D01*
X2928010Y2985820D01*
X2921762Y2999689D01*
X2913888Y3012694D01*
X2904540Y3024682D01*
X2893771Y3035401D01*
X2881833Y3044799D01*
X2868828Y3052673D01*
X2854960Y3058922D01*
X2840431Y3063443D01*
X2825496Y3066186D01*
X2810306Y3067100D01*
X2795117Y3066186D01*
X2780182Y3063443D01*
X2765653Y3058922D01*
X2751785Y3052673D01*
X2738780Y3044799D01*
X2726842Y3035401D01*
X2716072Y3024682D01*
X2707690Y3013964D01*
X2704744Y3011424D01*
X2701086Y3010204D01*
X2697226Y3010408D01*
X2693670Y3012084D01*
X2691028Y3014929D01*
X2689707Y3018536D01*
X2689301Y3020669D01*
X2685338Y3033623D01*
X2679598Y3045866D01*
X2672334Y3057296D01*
X2663596Y3067608D01*
X2653588Y3076702D01*
X2642412Y3084322D01*
X2630322Y3090468D01*
X2617571Y3094888D01*
X2604312Y3097580D01*
X2590800Y3098495D01*
X2577287Y3097580D01*
X2564028Y3094888D01*
X2551277Y3090468D01*
X2539187Y3084322D01*
X2528011Y3076702D01*
X2518003Y3067608D01*
X2509266Y3057296D01*
X2502001Y3045866D01*
X2496261Y3033623D01*
X2492298Y3020669D01*
X2490012Y3007360D01*
X2489555Y2993796D01*
X2490927Y2980334D01*
X2494076Y2967177D01*
X2498902Y2954578D01*
X2505405Y2942691D01*
X2513431Y2931820D01*
X2522880Y2922066D01*
X2533497Y2913684D01*
X2545130Y2906776D01*
X2557576Y2901543D01*
X2570632Y2897936D01*
X2584043Y2896158D01*
X2597556Y2896158D01*
X2610967Y2897936D01*
X2624023Y2901543D01*
X2636469Y2906776D01*
X2648102Y2913684D01*
X2658719Y2922066D01*
X2667965Y2931617D01*
X2671673Y2934055D01*
X2676042Y2934716D01*
X2680258Y2933395D01*
X2683560Y2930448D01*
X2685288Y2926384D01*
X2688082Y2911043D01*
X2692603Y2896565D01*
X2698851Y2882696D01*
X2706725Y2869692D01*
X2716072Y2857703D01*
X2726842Y2846984D01*
X2738170Y2838043D01*
X2740863Y2834894D01*
X2742031Y2830880D01*
X2741523Y2826766D01*
X2739390Y2823159D01*
X2735986Y2820771D01*
X2731922Y2819908D01*
X1396542Y2819908D01*
X1392631Y2820670D01*
X1389329Y2822905D01*
X1331976Y2880258D01*
X1329588Y2884068D01*
X1329029Y2888488D01*
X1330452Y2892755D01*
X1333601Y2895955D01*
X1337818Y2897530D01*
X1340967Y2897936D01*
X1354023Y2901543D01*
X1366469Y2906776D01*
X1378102Y2913684D01*
X1388719Y2922066D01*
X1398168Y2931820D01*
X1406194Y2942691D01*
X1412697Y2954578D01*
X1417523Y2967177D01*
X1420672Y2980334D01*
X1422044Y2993796D01*
X1421587Y3007360D01*
X1419301Y3020669D01*
X1415338Y3033623D01*
X1409598Y3045866D01*
X1402334Y3057296D01*
X1393596Y3067608D01*
X1383588Y3076702D01*
X1372412Y3084322D01*
X1360322Y3090468D01*
X1347571Y3094888D01*
X1334312Y3097580D01*
X1320800Y3098495D01*
X1307287Y3097580D01*
X1294028Y3094888D01*
X1281277Y3090468D01*
X1269187Y3084322D01*
X1258011Y3076702D01*
X1248003Y3067608D01*
X1239570Y3057652D01*
X1236065Y3054959D01*
X1231747Y3054045D01*
X1227429Y3055010D01*
X1223975Y3057753D01*
X1220724Y3061665D01*
X1121054Y3161385D01*
X1114806Y3166465D01*
X1108151Y3170021D01*
X1100937Y3172206D01*
X1092911Y3173018D01*
X708507Y3173018D01*
X704596Y3173780D01*
X701294Y3176016D01*
X644093Y3233216D01*
X641959Y3236315D01*
X641096Y3240024D01*
X641654Y3243732D01*
X643788Y3249828D01*
X646480Y3263087D01*
X647395Y3276600D01*
X646480Y3290112D01*
X643788Y3303371D01*
X639368Y3316122D01*
X633222Y3328212D01*
X625602Y3339388D01*
X616508Y3349396D01*
X606196Y3358134D01*
X594766Y3365398D01*
X582523Y3371138D01*
X569569Y3375101D01*
X556260Y3377387D01*
X542696Y3377844D01*
X529234Y3376472D01*
X516077Y3373323D01*
X503478Y3368497D01*
X491591Y3361994D01*
X480720Y3353968D01*
X470966Y3344519D01*
X462584Y3333902D01*
X455676Y3322269D01*
X450443Y3309823D01*
X446836Y3296767D01*
X445058Y3283356D01*
X445058Y3269843D01*
X446836Y3256432D01*
X450443Y3243376D01*
X455676Y3230930D01*
X462584Y3219297D01*
X470966Y3208680D01*
X480720Y3199231D01*
X491591Y3191205D01*
X503478Y3184702D01*
X516077Y3179876D01*
X529234Y3176727D01*
X542696Y3175355D01*
X556260Y3175812D01*
X569569Y3178098D01*
X579323Y3181096D01*
X582980Y3181553D01*
X586536Y3180638D01*
X589534Y3178556D01*
X660654Y3107486D01*
X666851Y3102356D01*
X673557Y3098800D01*
X680770Y3096615D01*
X688797Y3095802D01*
X745134Y3095802D01*
X749300Y3094888D01*
X752754Y3092399D01*
X754837Y3088640D01*
X755192Y3084423D01*
X753821Y3080359D01*
X740003Y3067608D01*
X731266Y3057296D01*
X724001Y3045866D01*
X718261Y3033623D01*
X714298Y3020669D01*
X712012Y3007360D01*
X711555Y2993796D01*
X712927Y2980334D01*
X716076Y2967177D01*
X720902Y2954578D01*
X727405Y2942691D01*
X735431Y2931820D01*
X744880Y2922066D01*
X755497Y2913684D01*
X767130Y2906776D01*
X779576Y2901543D01*
X792632Y2897936D01*
X806043Y2896158D01*
X819556Y2896158D01*
X832967Y2897936D01*
X846023Y2901543D01*
X858469Y2906776D01*
X870102Y2913684D01*
X880719Y2922066D01*
X890168Y2931820D01*
X898194Y2942691D01*
X904697Y2954578D01*
X909523Y2967177D01*
X912672Y2980334D01*
X914044Y2993796D01*
X913587Y3007360D01*
X911301Y3020669D01*
X907338Y3033623D01*
X901598Y3045866D01*
X894334Y3057296D01*
X885596Y3067608D01*
X871778Y3080359D01*
X870407Y3084423D01*
X870762Y3088640D01*
X872845Y3092399D01*
X876300Y3094888D01*
X880465Y3095802D01*
X999134Y3095802D01*
X1003300Y3094888D01*
X1006754Y3092399D01*
X1008837Y3088640D01*
X1009192Y3084423D01*
X1007821Y3080359D01*
X994003Y3067608D01*
X985266Y3057296D01*
X978001Y3045866D01*
X972261Y3033623D01*
X968298Y3020669D01*
X966012Y3007360D01*
X965555Y2993796D01*
X966927Y2980334D01*
X970076Y2967177D01*
X974902Y2954578D01*
X981405Y2942691D01*
X989431Y2931820D01*
X998880Y2922066D01*
X1009497Y2913684D01*
X1021130Y2906776D01*
X1033576Y2901543D01*
X1046632Y2897936D01*
X1060043Y2896158D01*
X1073556Y2896158D01*
X1086967Y2897936D01*
X1100023Y2901543D01*
X1112469Y2906776D01*
X1124102Y2913684D01*
X1134719Y2922066D01*
X1144168Y2931820D01*
X1148842Y2938170D01*
X1151534Y2940710D01*
X1154938Y2942082D01*
X1158595Y2942183D01*
X1162050Y2940964D01*
X1164894Y2938576D01*
X1166876Y2936189D01*
X1348689Y2754376D01*
X1354886Y2749245D01*
X1361592Y2745689D01*
X1368806Y2743504D01*
X1376832Y2742692D01*
X3410153Y2742692D01*
X3413912Y2741980D01*
X3417163Y2739898D01*
X3419398Y2736799D01*
X3424986Y2724607D01*
X3432759Y2712059D01*
X3442004Y2700528D01*
X3452622Y2690266D01*
X3464407Y2681376D01*
X3477158Y2674010D01*
X3490772Y2668270D01*
X3505403Y2664053D01*
X3509264Y2662021D01*
X3511854Y2658567D01*
X3512820Y2654300D01*
X3511854Y2650032D01*
X3509264Y2646578D01*
X3505403Y2644546D01*
X3490772Y2640330D01*
X3477158Y2634589D01*
X3464407Y2627223D01*
X3452622Y2618333D01*
X3442004Y2608072D01*
X3432759Y2596540D01*
X3424986Y2583992D01*
X3419398Y2571800D01*
X3417163Y2568702D01*
X3413912Y2566619D01*
X3410153Y2565908D01*
X1291488Y2565908D01*
X1283462Y2565095D01*
X1276248Y2562910D01*
X1269542Y2559354D01*
X1263345Y2554274D01*
X1210208Y2501087D01*
X1207312Y2499106D01*
X1203909Y2498191D01*
X1195832Y2497480D01*
X1186332Y2494940D01*
X1177442Y2490774D01*
X1169416Y2485136D01*
X1162456Y2478176D01*
X1156817Y2470150D01*
X1152652Y2461260D01*
X1150112Y2451760D01*
X1149248Y2441956D01*
X1150061Y2433015D01*
X1149553Y2428900D01*
X1147419Y2425293D01*
X1144016Y2422855D01*
X1139901Y2421991D01*
G37*

%LPC*%
G36*
X2076043Y2896158D02*
G01*
X2089556Y2896158D01*
X2102967Y2897936D01*
X2116023Y2901543D01*
X2128469Y2906776D01*
X2140102Y2913684D01*
X2150719Y2922066D01*
X2160168Y2931820D01*
X2168194Y2942691D01*
X2174697Y2954578D01*
X2179523Y2967177D01*
X2182672Y2980334D01*
X2184044Y2993796D01*
X2183587Y3007360D01*
X2181301Y3020669D01*
X2177338Y3033623D01*
X2171598Y3045866D01*
X2164334Y3057296D01*
X2155596Y3067608D01*
X2145588Y3076702D01*
X2134412Y3084322D01*
X2122322Y3090468D01*
X2109571Y3094888D01*
X2096312Y3097580D01*
X2082800Y3098495D01*
X2069287Y3097580D01*
X2056028Y3094888D01*
X2043277Y3090468D01*
X2031187Y3084322D01*
X2020011Y3076702D01*
X2010003Y3067608D01*
X2001266Y3057296D01*
X1994001Y3045866D01*
X1988261Y3033623D01*
X1984298Y3020669D01*
X1982012Y3007360D01*
X1981555Y2993796D01*
X1982927Y2980334D01*
X1986076Y2967177D01*
X1990902Y2954578D01*
X1997405Y2942691D01*
X2005431Y2931820D01*
X2014880Y2922066D01*
X2025497Y2913684D01*
X2037130Y2906776D01*
X2049576Y2901543D01*
X2062632Y2897936D01*
G37*
G36*
X1822043Y2896158D02*
G01*
X1835556Y2896158D01*
X1848967Y2897936D01*
X1862023Y2901543D01*
X1874469Y2906776D01*
X1886102Y2913684D01*
X1896719Y2922066D01*
X1906168Y2931820D01*
X1914194Y2942691D01*
X1920697Y2954578D01*
X1925523Y2967177D01*
X1928672Y2980334D01*
X1930044Y2993796D01*
X1929587Y3007360D01*
X1927301Y3020669D01*
X1923338Y3033623D01*
X1917598Y3045866D01*
X1910334Y3057296D01*
X1901596Y3067608D01*
X1891588Y3076702D01*
X1880412Y3084322D01*
X1868322Y3090468D01*
X1855571Y3094888D01*
X1842312Y3097580D01*
X1828800Y3098495D01*
X1815287Y3097580D01*
X1802028Y3094888D01*
X1789277Y3090468D01*
X1777187Y3084322D01*
X1766011Y3076702D01*
X1756003Y3067608D01*
X1747266Y3057296D01*
X1740001Y3045866D01*
X1734261Y3033623D01*
X1730298Y3020669D01*
X1728012Y3007360D01*
X1727555Y2993796D01*
X1728927Y2980334D01*
X1732076Y2967177D01*
X1736902Y2954578D01*
X1743405Y2942691D01*
X1751431Y2931820D01*
X1760880Y2922066D01*
X1771497Y2913684D01*
X1783130Y2906776D01*
X1795576Y2901543D01*
X1808632Y2897936D01*
G37*
G36*
X1568043Y2896158D02*
G01*
X1581556Y2896158D01*
X1594967Y2897936D01*
X1608023Y2901543D01*
X1620469Y2906776D01*
X1632102Y2913684D01*
X1642719Y2922066D01*
X1652168Y2931820D01*
X1660194Y2942691D01*
X1666697Y2954578D01*
X1671523Y2967177D01*
X1674672Y2980334D01*
X1676044Y2993796D01*
X1675587Y3007360D01*
X1673301Y3020669D01*
X1669338Y3033623D01*
X1663598Y3045866D01*
X1656334Y3057296D01*
X1647596Y3067608D01*
X1637588Y3076702D01*
X1626412Y3084322D01*
X1614322Y3090468D01*
X1601571Y3094888D01*
X1588312Y3097580D01*
X1574800Y3098495D01*
X1561287Y3097580D01*
X1548028Y3094888D01*
X1535277Y3090468D01*
X1523187Y3084322D01*
X1512011Y3076702D01*
X1502003Y3067608D01*
X1493266Y3057296D01*
X1486001Y3045866D01*
X1480261Y3033623D01*
X1476298Y3020669D01*
X1474012Y3007360D01*
X1473555Y2993796D01*
X1474927Y2980334D01*
X1478076Y2967177D01*
X1482902Y2954578D01*
X1489405Y2942691D01*
X1497431Y2931820D01*
X1506880Y2922066D01*
X1517497Y2913684D01*
X1529130Y2906776D01*
X1541576Y2901543D01*
X1554632Y2897936D01*
G37*
G36*
X2362200Y3246932D02*
G01*
X2376017Y3247796D01*
X2389581Y3250539D01*
X2402738Y3254959D01*
X2415133Y3261106D01*
X2426665Y3268776D01*
X2437079Y3277920D01*
X2446223Y3288334D01*
X2453894Y3299866D01*
X2460040Y3312261D01*
X2464460Y3325418D01*
X2467203Y3338982D01*
X2468067Y3352800D01*
X2467203Y3366617D01*
X2464460Y3380181D01*
X2460040Y3393338D01*
X2453894Y3405733D01*
X2446223Y3417265D01*
X2437079Y3427679D01*
X2426665Y3436823D01*
X2415133Y3444494D01*
X2402738Y3450640D01*
X2389581Y3455060D01*
X2376017Y3457803D01*
X2362200Y3458667D01*
X2348382Y3457803D01*
X2334818Y3455060D01*
X2321661Y3450640D01*
X2309266Y3444494D01*
X2297734Y3436823D01*
X2287320Y3427679D01*
X2278176Y3417265D01*
X2270506Y3405733D01*
X2264359Y3393338D01*
X2259939Y3380181D01*
X2257196Y3366617D01*
X2256332Y3352800D01*
X2257196Y3338982D01*
X2259939Y3325418D01*
X2264359Y3312261D01*
X2270506Y3299866D01*
X2278176Y3288334D01*
X2287320Y3277920D01*
X2297734Y3268776D01*
X2309266Y3261106D01*
X2321661Y3254959D01*
X2334818Y3250539D01*
X2348382Y3247796D01*
G37*
G36*
X1102410Y3269843D02*
G01*
X1115517Y3269843D01*
X1128471Y3271621D01*
X1141069Y3275126D01*
X1153058Y3280359D01*
X1164234Y3287166D01*
X1174394Y3295446D01*
X1183335Y3304997D01*
X1190904Y3315665D01*
X1196898Y3327298D01*
X1201267Y3339642D01*
X1203960Y3352444D01*
X1204823Y3365500D01*
X1203960Y3378555D01*
X1201267Y3391357D01*
X1196898Y3403701D01*
X1190904Y3415334D01*
X1183335Y3426002D01*
X1174394Y3435553D01*
X1164234Y3443833D01*
X1153058Y3450640D01*
X1141069Y3455822D01*
X1128471Y3459378D01*
X1115517Y3461156D01*
X1102410Y3461156D01*
X1089456Y3459378D01*
X1076858Y3455822D01*
X1064869Y3450640D01*
X1053693Y3443833D01*
X1043533Y3435553D01*
X1034592Y3426002D01*
X1027023Y3415334D01*
X1021029Y3403701D01*
X1016660Y3391357D01*
X1013968Y3378555D01*
X1013104Y3365500D01*
X1013968Y3352444D01*
X1016660Y3339642D01*
X1021029Y3327298D01*
X1027023Y3315665D01*
X1034592Y3304997D01*
X1043533Y3295446D01*
X1053693Y3287166D01*
X1064869Y3280359D01*
X1076858Y3275126D01*
X1089456Y3271621D01*
G37*
G36*
X2122373Y3269843D02*
G01*
X2135479Y3269843D01*
X2148433Y3271621D01*
X2161032Y3275126D01*
X2173020Y3280359D01*
X2184196Y3287166D01*
X2194356Y3295446D01*
X2203297Y3304997D01*
X2210866Y3315665D01*
X2216861Y3327298D01*
X2221230Y3339642D01*
X2223922Y3352444D01*
X2224786Y3365500D01*
X2223922Y3378555D01*
X2221230Y3391357D01*
X2220315Y3394049D01*
X2219706Y3397808D01*
X2220569Y3401517D01*
X2222703Y3404615D01*
X2395982Y3577945D01*
X2399385Y3580180D01*
X2403398Y3580892D01*
X2407361Y3580028D01*
X2410663Y3577590D01*
X2412746Y3574135D01*
X2414524Y3569055D01*
X2417622Y3564178D01*
X2421686Y3560064D01*
X2426614Y3557015D01*
X2432050Y3555085D01*
X2438400Y3554374D01*
X2617216Y3554374D01*
X2623566Y3555085D01*
X2629001Y3557015D01*
X2633929Y3560064D01*
X2637993Y3564178D01*
X2641092Y3569055D01*
X2643022Y3574542D01*
X2643733Y3580841D01*
X2643733Y3759708D01*
X2643022Y3766058D01*
X2641396Y3770579D01*
X2640838Y3774389D01*
X2641752Y3778148D01*
X2643987Y3781298D01*
X2647238Y3783380D01*
X2650998Y3784092D01*
X3217621Y3784092D01*
X3221532Y3783329D01*
X3224834Y3781094D01*
X3309874Y3696055D01*
X3312109Y3692753D01*
X3312871Y3688842D01*
X3312871Y3658108D01*
X3313684Y3650081D01*
X3315868Y3642868D01*
X3319424Y3636162D01*
X3324199Y3630320D01*
X3330041Y3625545D01*
X3336747Y3621989D01*
X3347923Y3618687D01*
X3350869Y3616451D01*
X3352800Y3613302D01*
X3353511Y3609644D01*
X3353511Y3583178D01*
X3354222Y3576828D01*
X3356101Y3571392D01*
X3359200Y3566464D01*
X3363264Y3562400D01*
X3368192Y3559301D01*
X3373628Y3557422D01*
X3379978Y3556711D01*
X3528822Y3556711D01*
X3535172Y3557422D01*
X3540607Y3559301D01*
X3545535Y3562400D01*
X3549599Y3566464D01*
X3552698Y3571392D01*
X3554577Y3576828D01*
X3555288Y3583178D01*
X3555288Y3732022D01*
X3554577Y3738372D01*
X3552698Y3743807D01*
X3549599Y3748735D01*
X3545535Y3752799D01*
X3540607Y3755898D01*
X3535172Y3757777D01*
X3528822Y3758488D01*
X3379978Y3758488D01*
X3373628Y3757777D01*
X3367582Y3755694D01*
X3363874Y3755136D01*
X3360165Y3755948D01*
X3357067Y3758082D01*
X3265474Y3849674D01*
X3259277Y3854754D01*
X3252571Y3858310D01*
X3245358Y3860495D01*
X3237331Y3861308D01*
X2234793Y3861308D01*
X2231136Y3861968D01*
X2227986Y3863949D01*
X2225751Y3866896D01*
X2221788Y3874719D01*
X2214067Y3885946D01*
X2204923Y3896106D01*
X2194509Y3904894D01*
X2183028Y3912209D01*
X2170633Y3917950D01*
X2157628Y3922014D01*
X2144166Y3924249D01*
X2130552Y3924706D01*
X2116988Y3923385D01*
X2103678Y3920185D01*
X2090978Y3915308D01*
X2078989Y3908755D01*
X2068017Y3900678D01*
X2058212Y3891178D01*
X2049780Y3880459D01*
X2042820Y3868724D01*
X2037486Y3856177D01*
X2033879Y3843020D01*
X2032101Y3829507D01*
X2032101Y3815892D01*
X2033879Y3802379D01*
X2037486Y3789222D01*
X2042820Y3776675D01*
X2049780Y3764940D01*
X2058212Y3754221D01*
X2068017Y3744722D01*
X2078989Y3736644D01*
X2090978Y3730091D01*
X2103678Y3725214D01*
X2116988Y3722014D01*
X2130552Y3720693D01*
X2144166Y3721150D01*
X2157628Y3723386D01*
X2170633Y3727450D01*
X2183028Y3733190D01*
X2194509Y3740505D01*
X2204923Y3749294D01*
X2214067Y3759454D01*
X2221788Y3770680D01*
X2225751Y3778504D01*
X2227986Y3781450D01*
X2231136Y3783431D01*
X2234793Y3784092D01*
X2404618Y3784092D01*
X2408377Y3783380D01*
X2411628Y3781298D01*
X2413863Y3778148D01*
X2414778Y3774389D01*
X2414219Y3770579D01*
X2412593Y3766058D01*
X2411882Y3759708D01*
X2411882Y3718255D01*
X2411222Y3714597D01*
X2409291Y3711448D01*
X2406294Y3709212D01*
X2395169Y3705910D01*
X2388463Y3702354D01*
X2382621Y3697579D01*
X2377846Y3691737D01*
X2374290Y3685082D01*
X2372106Y3677818D01*
X2371293Y3669792D01*
X2371293Y3666642D01*
X2370531Y3662781D01*
X2368296Y3659479D01*
X2168093Y3459226D01*
X2165146Y3457194D01*
X2161743Y3456279D01*
X2158187Y3456635D01*
X2148433Y3459378D01*
X2135479Y3461156D01*
X2122373Y3461156D01*
X2109419Y3459378D01*
X2096820Y3455822D01*
X2084832Y3450640D01*
X2073605Y3443833D01*
X2063496Y3435553D01*
X2054555Y3426002D01*
X2046986Y3415334D01*
X2040991Y3403701D01*
X2036572Y3391357D01*
X2033930Y3378555D01*
X2033016Y3365500D01*
X2033930Y3352444D01*
X2036572Y3339642D01*
X2040991Y3327298D01*
X2046986Y3315665D01*
X2054555Y3304997D01*
X2063496Y3295446D01*
X2073605Y3287166D01*
X2084832Y3280359D01*
X2096820Y3275126D01*
X2109419Y3271621D01*
G37*
G36*
X1100531Y3720693D02*
G01*
X1114145Y3721150D01*
X1127607Y3723386D01*
X1140612Y3727450D01*
X1153007Y3733190D01*
X1164488Y3740505D01*
X1174902Y3749294D01*
X1184046Y3759454D01*
X1191768Y3770680D01*
X1197914Y3782822D01*
X1202385Y3795725D01*
X1205128Y3809085D01*
X1206042Y3822700D01*
X1205128Y3836314D01*
X1202385Y3849674D01*
X1197914Y3862578D01*
X1191768Y3874719D01*
X1184046Y3885946D01*
X1174902Y3896106D01*
X1164488Y3904894D01*
X1153007Y3912209D01*
X1140612Y3917950D01*
X1127607Y3922014D01*
X1114145Y3924249D01*
X1100531Y3924706D01*
X1086967Y3923385D01*
X1073708Y3920185D01*
X1060958Y3915308D01*
X1049020Y3908755D01*
X1038047Y3900678D01*
X1028242Y3891178D01*
X1019759Y3880459D01*
X1012850Y3868724D01*
X1007516Y3856177D01*
X1003909Y3843020D01*
X1002080Y3829507D01*
X1002080Y3815892D01*
X1003909Y3802379D01*
X1007516Y3789222D01*
X1012850Y3776675D01*
X1019759Y3764940D01*
X1028242Y3754221D01*
X1038047Y3744722D01*
X1049020Y3736644D01*
X1060958Y3730091D01*
X1073708Y3725214D01*
X1086967Y3722014D01*
G37*

%LPD*%
G36*
X60147Y49987D02*
G01*
X56286Y50749D01*
X52984Y52984D01*
X50749Y56286D01*
X49987Y60147D01*
X49987Y989837D01*
X50749Y993749D01*
X52984Y997000D01*
X56286Y999236D01*
X60147Y999998D01*
X998982Y999998D01*
X999998Y1001014D01*
X999998Y1580540D01*
X1000760Y1584452D01*
X1002995Y1587754D01*
X1475486Y2060244D01*
X1478788Y2062429D01*
X1482648Y2063242D01*
X2652166Y2063242D01*
X2655976Y2062480D01*
X2659176Y2060397D01*
X2661412Y2057247D01*
X2662326Y2053488D01*
X2661767Y2049678D01*
X2651506Y2034133D01*
X2645359Y2021738D01*
X2640939Y2008581D01*
X2638196Y1995017D01*
X2637332Y1981200D01*
X2638196Y1967382D01*
X2640939Y1953818D01*
X2645359Y1940661D01*
X2651506Y1928266D01*
X2659176Y1916734D01*
X2668320Y1906320D01*
X2678734Y1897176D01*
X2690266Y1889506D01*
X2698902Y1885238D01*
X2701899Y1882952D01*
X2703880Y1879803D01*
X2704592Y1876094D01*
X2704592Y759968D01*
X2703830Y756107D01*
X2701594Y752805D01*
X2698343Y750570D01*
X2694432Y749808D01*
X2690774Y749808D01*
X2687015Y750519D01*
X2683814Y752602D01*
X2681579Y755700D01*
X2679598Y759866D01*
X2672334Y771296D01*
X2663596Y781608D01*
X2653588Y790702D01*
X2642412Y798322D01*
X2630322Y804468D01*
X2617571Y808888D01*
X2604312Y811580D01*
X2590800Y812495D01*
X2577287Y811580D01*
X2564028Y808888D01*
X2551277Y804468D01*
X2539187Y798322D01*
X2528011Y790702D01*
X2518003Y781608D01*
X2509266Y771296D01*
X2502001Y759866D01*
X2496261Y747623D01*
X2492298Y734669D01*
X2490012Y721360D01*
X2489555Y707796D01*
X2490927Y694334D01*
X2494076Y681177D01*
X2498902Y668578D01*
X2505405Y656691D01*
X2513431Y645820D01*
X2522880Y636066D01*
X2533497Y627684D01*
X2545130Y620776D01*
X2557576Y615543D01*
X2570632Y611936D01*
X2584043Y610158D01*
X2597556Y610158D01*
X2610967Y611936D01*
X2624023Y615543D01*
X2636469Y620776D01*
X2648102Y627684D01*
X2658719Y636066D01*
X2668168Y645820D01*
X2676194Y656691D01*
X2681986Y667308D01*
X2684272Y670102D01*
X2687370Y671931D01*
X2690876Y672592D01*
X2770936Y672592D01*
X2774746Y671830D01*
X2777998Y669747D01*
X2780233Y666546D01*
X2781096Y662787D01*
X2781350Y655878D01*
X2783586Y642416D01*
X2787650Y629412D01*
X2793390Y617016D01*
X2800705Y605536D01*
X2809494Y595122D01*
X2819654Y585978D01*
X2830880Y578256D01*
X2843022Y572109D01*
X2855925Y567639D01*
X2869285Y564946D01*
X2882900Y564032D01*
X2896514Y564946D01*
X2909874Y567639D01*
X2916377Y569925D01*
X2920136Y570433D01*
X2923794Y569620D01*
X2926892Y567486D01*
X2944672Y549706D01*
X2946908Y546404D01*
X2947670Y542544D01*
X2946908Y538632D01*
X2944672Y535330D01*
X2941370Y533146D01*
X2937510Y532384D01*
X1115568Y532384D01*
X1111656Y533146D01*
X1108405Y535330D01*
X1106170Y538632D01*
X1105408Y542544D01*
X1105408Y611073D01*
X1106170Y614934D01*
X1108354Y618236D01*
X1124102Y627684D01*
X1134719Y636066D01*
X1144168Y645820D01*
X1152194Y656691D01*
X1158697Y668578D01*
X1163523Y681177D01*
X1166672Y694334D01*
X1168044Y707796D01*
X1167587Y721360D01*
X1165301Y734669D01*
X1161338Y747623D01*
X1155598Y759866D01*
X1148334Y771296D01*
X1139596Y781608D01*
X1129588Y790702D01*
X1118412Y798322D01*
X1106322Y804468D01*
X1093571Y808888D01*
X1080312Y811580D01*
X1066800Y812495D01*
X1053287Y811580D01*
X1040028Y808888D01*
X1027277Y804468D01*
X1015187Y798322D01*
X1004011Y790702D01*
X994003Y781608D01*
X985266Y771296D01*
X978001Y759866D01*
X972261Y747623D01*
X968298Y734669D01*
X966012Y721360D01*
X965555Y707796D01*
X966927Y694334D01*
X970076Y681177D01*
X974902Y668578D01*
X981405Y656691D01*
X989431Y645820D01*
X998880Y636066D01*
X1009497Y627684D01*
X1025245Y618236D01*
X1027430Y614934D01*
X1028192Y611073D01*
X1028192Y513943D01*
X1027430Y510082D01*
X1025194Y506780D01*
X814019Y295605D01*
X810717Y293370D01*
X806856Y292608D01*
X291287Y292608D01*
X287578Y293319D01*
X284429Y295300D01*
X282143Y298297D01*
X277876Y306933D01*
X270205Y318465D01*
X261061Y328879D01*
X250647Y338023D01*
X239115Y345694D01*
X226720Y351840D01*
X213614Y356260D01*
X199999Y359003D01*
X186182Y359867D01*
X172364Y359003D01*
X158800Y356260D01*
X145694Y351840D01*
X133248Y345694D01*
X121716Y338023D01*
X111302Y328879D01*
X102209Y318465D01*
X94488Y306933D01*
X88392Y294538D01*
X83921Y281381D01*
X81229Y267817D01*
X80314Y254000D01*
X81229Y240182D01*
X83921Y226618D01*
X88392Y213461D01*
X94488Y201066D01*
X102209Y189534D01*
X111302Y179120D01*
X121716Y169976D01*
X133248Y162306D01*
X145694Y156159D01*
X158800Y151739D01*
X172364Y148996D01*
X186182Y148132D01*
X199999Y148996D01*
X213614Y151739D01*
X226720Y156159D01*
X239115Y162306D01*
X250647Y169976D01*
X261061Y179120D01*
X270205Y189534D01*
X277876Y201066D01*
X282194Y209753D01*
X284429Y212750D01*
X287578Y214680D01*
X291287Y215392D01*
X826566Y215392D01*
X834593Y216204D01*
X841806Y218389D01*
X848461Y221945D01*
X854710Y227075D01*
X1079804Y452170D01*
X1083106Y454355D01*
X1087018Y455168D01*
X1687728Y455168D01*
X1691995Y454202D01*
X1695450Y451612D01*
X1697482Y447852D01*
X1697786Y443534D01*
X1696262Y439470D01*
X1693214Y436422D01*
X1690217Y434492D01*
X1686661Y431800D01*
X1683207Y428599D01*
X1631137Y376529D01*
X1628241Y374497D01*
X1624838Y373583D01*
X1621332Y373888D01*
X1615033Y375564D01*
X1600962Y377342D01*
X1586738Y377342D01*
X1572666Y375564D01*
X1558899Y371957D01*
X1545742Y366623D01*
X1533347Y359613D01*
X1521968Y351129D01*
X1511757Y341274D01*
X1502918Y330149D01*
X1495552Y318008D01*
X1489811Y305003D01*
X1485747Y291388D01*
X1483461Y277368D01*
X1483004Y263144D01*
X1484376Y249021D01*
X1487525Y235153D01*
X1492453Y221792D01*
X1499006Y209194D01*
X1507134Y197561D01*
X1516684Y187045D01*
X1527505Y177850D01*
X1539443Y170078D01*
X1552244Y163931D01*
X1565706Y159461D01*
X1579676Y156718D01*
X1593850Y155803D01*
X1608023Y156718D01*
X1621993Y159461D01*
X1635455Y163931D01*
X1648256Y170078D01*
X1660194Y177850D01*
X1671015Y187045D01*
X1680565Y197561D01*
X1688693Y209194D01*
X1695246Y221792D01*
X1700174Y235153D01*
X1703324Y249021D01*
X1704695Y263144D01*
X1704238Y277368D01*
X1701952Y291388D01*
X1701190Y293979D01*
X1700784Y297535D01*
X1701698Y301040D01*
X1703730Y304038D01*
X1737918Y338175D01*
X1741220Y340410D01*
X1745081Y341172D01*
X2318258Y341172D01*
X2322118Y340410D01*
X2325420Y338175D01*
X2379522Y284124D01*
X2381351Y281584D01*
X2382367Y278638D01*
X2382418Y275539D01*
X2380335Y260807D01*
X2380335Y247192D01*
X2382164Y233679D01*
X2385771Y220522D01*
X2391105Y207975D01*
X2398014Y196240D01*
X2406497Y185521D01*
X2416302Y176022D01*
X2427274Y167944D01*
X2439212Y161391D01*
X2451963Y156514D01*
X2465222Y153314D01*
X2478786Y151993D01*
X2492400Y152450D01*
X2505862Y154686D01*
X2518867Y158750D01*
X2531262Y164490D01*
X2542743Y171805D01*
X2553157Y180594D01*
X2562301Y190754D01*
X2570022Y201980D01*
X2576169Y214121D01*
X2580640Y227025D01*
X2583383Y240385D01*
X2584297Y254000D01*
X2583383Y267614D01*
X2580640Y280974D01*
X2576169Y293878D01*
X2570022Y306019D01*
X2562301Y317246D01*
X2553157Y327406D01*
X2542743Y336194D01*
X2531262Y343509D01*
X2518867Y349250D01*
X2505862Y353314D01*
X2492400Y355549D01*
X2478786Y356006D01*
X2465222Y354685D01*
X2461768Y353822D01*
X2458313Y353618D01*
X2455011Y354533D01*
X2452217Y356514D01*
X2380132Y428599D01*
X2376678Y431800D01*
X2373122Y434492D01*
X2370124Y436422D01*
X2367076Y439470D01*
X2365552Y443534D01*
X2365857Y447852D01*
X2367889Y451612D01*
X2371344Y454202D01*
X2375611Y455168D01*
X3252266Y455168D01*
X3256127Y454355D01*
X3259429Y452170D01*
X3413404Y298196D01*
X3415436Y295300D01*
X3416350Y291846D01*
X3415995Y288340D01*
X3412134Y274320D01*
X3410356Y260807D01*
X3410356Y247192D01*
X3412185Y233679D01*
X3415741Y220522D01*
X3421075Y207975D01*
X3428034Y196240D01*
X3436467Y185521D01*
X3446272Y176022D01*
X3457244Y167944D01*
X3469233Y161391D01*
X3481933Y156514D01*
X3495243Y153314D01*
X3508806Y151993D01*
X3522421Y152450D01*
X3535883Y154686D01*
X3548887Y158750D01*
X3561283Y164490D01*
X3572764Y171805D01*
X3583178Y180594D01*
X3592322Y190754D01*
X3600043Y201980D01*
X3606190Y214121D01*
X3610660Y227025D01*
X3613353Y240385D01*
X3614267Y254000D01*
X3613353Y267614D01*
X3610660Y280974D01*
X3606190Y293878D01*
X3600043Y306019D01*
X3592322Y317246D01*
X3583178Y327406D01*
X3572764Y336194D01*
X3561283Y343509D01*
X3548887Y349250D01*
X3535883Y353314D01*
X3522421Y355549D01*
X3508806Y356006D01*
X3495243Y354685D01*
X3481933Y351485D01*
X3478987Y350367D01*
X3475177Y349707D01*
X3471367Y350469D01*
X3468166Y352653D01*
X3309518Y511301D01*
X3307334Y514604D01*
X3306572Y518464D01*
X3307334Y522376D01*
X3309518Y525627D01*
X3312820Y527862D01*
X3316732Y528624D01*
X3405835Y528624D01*
X3413861Y529437D01*
X3421075Y531622D01*
X3427780Y535178D01*
X3433978Y540308D01*
X3461207Y567486D01*
X3464306Y569620D01*
X3467963Y570433D01*
X3471722Y569925D01*
X3478225Y567639D01*
X3491585Y564946D01*
X3505200Y564032D01*
X3518814Y564946D01*
X3532174Y567639D01*
X3545078Y572109D01*
X3557219Y578256D01*
X3568446Y585978D01*
X3578606Y595122D01*
X3587394Y605536D01*
X3594709Y617016D01*
X3600450Y629412D01*
X3604514Y642416D01*
X3606749Y655878D01*
X3607206Y669493D01*
X3605885Y683056D01*
X3602685Y696366D01*
X3597808Y709066D01*
X3591255Y721055D01*
X3583178Y732028D01*
X3573678Y741832D01*
X3562959Y750265D01*
X3551224Y757224D01*
X3538677Y762558D01*
X3525520Y766114D01*
X3512007Y767943D01*
X3498392Y767943D01*
X3484879Y766114D01*
X3471722Y762558D01*
X3459175Y757224D01*
X3447440Y750265D01*
X3436721Y741832D01*
X3427222Y732028D01*
X3419144Y721055D01*
X3412591Y709066D01*
X3407714Y696366D01*
X3404514Y683056D01*
X3403193Y669493D01*
X3403650Y655878D01*
X3405886Y642416D01*
X3409086Y632206D01*
X3409492Y628599D01*
X3408629Y625043D01*
X3406546Y622046D01*
X3393338Y608838D01*
X3390036Y606602D01*
X3386124Y605840D01*
X3290925Y605840D01*
X3286709Y606755D01*
X3283254Y609346D01*
X3281172Y613105D01*
X3280867Y617423D01*
X3282340Y621487D01*
X3283559Y623366D01*
X3289300Y635762D01*
X3293364Y648766D01*
X3295599Y662228D01*
X3296056Y675843D01*
X3294684Y689406D01*
X3291535Y702716D01*
X3290417Y705662D01*
X3289706Y709472D01*
X3290519Y713282D01*
X3292703Y716483D01*
X3328924Y752754D01*
X3334054Y758952D01*
X3337610Y765657D01*
X3339795Y772871D01*
X3340608Y780897D01*
X3340608Y1921764D01*
X3341065Y1924710D01*
X3349040Y1940661D01*
X3353460Y1953818D01*
X3356203Y1967382D01*
X3357067Y1981200D01*
X3356203Y1995017D01*
X3353460Y2008581D01*
X3349040Y2021738D01*
X3342894Y2034133D01*
X3335223Y2045665D01*
X3326079Y2056079D01*
X3315665Y2065223D01*
X3304133Y2072893D01*
X3291738Y2079040D01*
X3278581Y2083460D01*
X3265017Y2086203D01*
X3251200Y2087067D01*
X3237382Y2086203D01*
X3223818Y2083460D01*
X3210661Y2079040D01*
X3198266Y2072893D01*
X3186734Y2065223D01*
X3176320Y2056079D01*
X3167176Y2045665D01*
X3159506Y2034133D01*
X3153359Y2021738D01*
X3148939Y2008581D01*
X3146196Y1995017D01*
X3145332Y1981200D01*
X3146196Y1967382D01*
X3148939Y1953818D01*
X3153359Y1940661D01*
X3159506Y1928266D01*
X3167176Y1916734D01*
X3176320Y1906320D01*
X3186734Y1897176D01*
X3198266Y1889506D01*
X3210661Y1883359D01*
X3223818Y1878939D01*
X3237382Y1876196D01*
X3256635Y1874824D01*
X3260191Y1872691D01*
X3262579Y1869287D01*
X3263392Y1865274D01*
X3263392Y1797608D01*
X3262528Y1793443D01*
X3259988Y1789988D01*
X3256330Y1787906D01*
X3252063Y1787499D01*
X3248050Y1788820D01*
X3240074Y1793544D01*
X3227527Y1798878D01*
X3214370Y1802485D01*
X3200857Y1804314D01*
X3187242Y1804314D01*
X3173730Y1802485D01*
X3160572Y1798878D01*
X3148025Y1793544D01*
X3136290Y1786636D01*
X3125571Y1778152D01*
X3116072Y1768348D01*
X3107994Y1757375D01*
X3101441Y1745437D01*
X3096564Y1732686D01*
X3093364Y1719427D01*
X3091992Y1705864D01*
X3092450Y1692249D01*
X3094736Y1678787D01*
X3098800Y1665782D01*
X3104540Y1653387D01*
X3111855Y1641906D01*
X3120644Y1631492D01*
X3130753Y1622348D01*
X3142030Y1614627D01*
X3154172Y1608480D01*
X3167075Y1604010D01*
X3180435Y1601266D01*
X3194050Y1600352D01*
X3207664Y1601266D01*
X3221024Y1604010D01*
X3233877Y1608480D01*
X3246069Y1614627D01*
X3247491Y1615592D01*
X3251555Y1617218D01*
X3255924Y1617014D01*
X3259785Y1614982D01*
X3262426Y1611477D01*
X3263392Y1607210D01*
X3263392Y800608D01*
X3262629Y796696D01*
X3260394Y793394D01*
X3238246Y771245D01*
X3235350Y769213D01*
X3231896Y768299D01*
X3228340Y768654D01*
X3214370Y772515D01*
X3200857Y774293D01*
X3187242Y774293D01*
X3173730Y772464D01*
X3160572Y768908D01*
X3148025Y763574D01*
X3136290Y756615D01*
X3125571Y748182D01*
X3116072Y738378D01*
X3107994Y727405D01*
X3101441Y715416D01*
X3096564Y702716D01*
X3093364Y689406D01*
X3091992Y675843D01*
X3092450Y662228D01*
X3094736Y648766D01*
X3098800Y635762D01*
X3104540Y623366D01*
X3105759Y621487D01*
X3107232Y617423D01*
X3106928Y613105D01*
X3104845Y609346D01*
X3101390Y606755D01*
X3097174Y605840D01*
X3001975Y605840D01*
X2998063Y606602D01*
X2994761Y608838D01*
X2981553Y622046D01*
X2979470Y625043D01*
X2978607Y628599D01*
X2979013Y632206D01*
X2982214Y642416D01*
X2984449Y655878D01*
X2984906Y669493D01*
X2983585Y683056D01*
X2980385Y696366D01*
X2975508Y709066D01*
X2968955Y721055D01*
X2960878Y732028D01*
X2951378Y741832D01*
X2940659Y750265D01*
X2928924Y757224D01*
X2916377Y762558D01*
X2903220Y766114D01*
X2889707Y767943D01*
X2876092Y767943D01*
X2862580Y766114D01*
X2849422Y762558D01*
X2836875Y757224D01*
X2826766Y751230D01*
X2824276Y750163D01*
X2821584Y749808D01*
X2791968Y749808D01*
X2788056Y750570D01*
X2784805Y752805D01*
X2782570Y756107D01*
X2781808Y759968D01*
X2781808Y1630375D01*
X2782722Y1634591D01*
X2785313Y1638046D01*
X2789123Y1640128D01*
X2793441Y1640433D01*
X2797505Y1638909D01*
X2800705Y1635556D01*
X2809494Y1625142D01*
X2819654Y1615998D01*
X2830880Y1608277D01*
X2843022Y1602130D01*
X2855925Y1597660D01*
X2869285Y1594916D01*
X2882900Y1594002D01*
X2896514Y1594916D01*
X2909874Y1597660D01*
X2922778Y1602130D01*
X2934919Y1608277D01*
X2946146Y1615998D01*
X2956306Y1625142D01*
X2965094Y1635556D01*
X2972409Y1647037D01*
X2978150Y1659432D01*
X2982214Y1672437D01*
X2984449Y1685899D01*
X2984906Y1699514D01*
X2983585Y1713077D01*
X2980385Y1726336D01*
X2975508Y1739087D01*
X2968955Y1751025D01*
X2960878Y1761998D01*
X2951378Y1771802D01*
X2940659Y1780286D01*
X2924454Y1789938D01*
X2922270Y1793239D01*
X2921508Y1797100D01*
X2921508Y2028748D01*
X2920695Y2036775D01*
X2918510Y2043988D01*
X2914954Y2050643D01*
X2909824Y2056892D01*
X2851912Y2114854D01*
X2849676Y2118156D01*
X2848914Y2122017D01*
X2848914Y2164232D01*
X2849626Y2167991D01*
X2851759Y2171242D01*
X2854909Y2173478D01*
X2868828Y2179726D01*
X2881833Y2187600D01*
X2893771Y2196998D01*
X2904540Y2207717D01*
X2913888Y2219706D01*
X2921762Y2232710D01*
X2928010Y2246579D01*
X2932531Y2261057D01*
X2935274Y2276043D01*
X2936189Y2291181D01*
X2935274Y2306370D01*
X2932531Y2321356D01*
X2928010Y2335834D01*
X2921762Y2349703D01*
X2913888Y2362708D01*
X2906014Y2372766D01*
X2904134Y2376830D01*
X2904134Y2381351D01*
X2906115Y2385415D01*
X2909620Y2388209D01*
X2914040Y2389225D01*
X3156559Y2389225D01*
X3160979Y2388209D01*
X3164484Y2385415D01*
X3166465Y2381351D01*
X3166465Y2376830D01*
X3164586Y2372766D01*
X3156712Y2362708D01*
X3148838Y2349703D01*
X3142589Y2335834D01*
X3138068Y2321356D01*
X3135325Y2306370D01*
X3134410Y2291181D01*
X3135325Y2276043D01*
X3138068Y2261057D01*
X3142589Y2246579D01*
X3148838Y2232710D01*
X3156712Y2219706D01*
X3166059Y2207717D01*
X3176828Y2196998D01*
X3188766Y2187600D01*
X3201771Y2179726D01*
X3215640Y2173478D01*
X3230168Y2168956D01*
X3245104Y2166213D01*
X3260293Y2165299D01*
X3275482Y2166213D01*
X3290417Y2168956D01*
X3304946Y2173478D01*
X3318814Y2179726D01*
X3331819Y2187600D01*
X3343757Y2196998D01*
X3354527Y2207717D01*
X3363874Y2219706D01*
X3371748Y2232710D01*
X3377996Y2246579D01*
X3382518Y2261057D01*
X3385261Y2276043D01*
X3386175Y2291181D01*
X3385261Y2306370D01*
X3382518Y2321356D01*
X3377996Y2335834D01*
X3371748Y2349754D01*
X3370834Y2353665D01*
X3371545Y2357628D01*
X3373678Y2360980D01*
X3376980Y2363266D01*
X3380943Y2364079D01*
X3384854Y2363317D01*
X3388207Y2361133D01*
X3418179Y2331110D01*
X3420465Y2327706D01*
X3421176Y2323642D01*
X3420262Y2319680D01*
X3418840Y2316581D01*
X3414369Y2302560D01*
X3411626Y2288032D01*
X3410712Y2273300D01*
X3411626Y2258568D01*
X3414369Y2244039D01*
X3418840Y2230018D01*
X3424986Y2216607D01*
X3432759Y2204059D01*
X3442004Y2192528D01*
X3452622Y2182266D01*
X3464407Y2173376D01*
X3477158Y2166010D01*
X3490772Y2160270D01*
X3505403Y2156053D01*
X3509264Y2154021D01*
X3511854Y2150567D01*
X3512820Y2146300D01*
X3511854Y2142032D01*
X3509264Y2138578D01*
X3505403Y2136546D01*
X3490772Y2132330D01*
X3477158Y2126589D01*
X3464407Y2119223D01*
X3452622Y2110333D01*
X3442004Y2100072D01*
X3432759Y2088540D01*
X3424986Y2075992D01*
X3418840Y2062581D01*
X3414369Y2048560D01*
X3411626Y2034032D01*
X3410712Y2019300D01*
X3411626Y2004568D01*
X3414369Y1990039D01*
X3418840Y1976018D01*
X3424986Y1962607D01*
X3432759Y1950059D01*
X3442004Y1938528D01*
X3452622Y1928266D01*
X3464407Y1919376D01*
X3477158Y1912010D01*
X3490772Y1906270D01*
X3504946Y1902206D01*
X3519525Y1899920D01*
X3534308Y1899462D01*
X3548989Y1900834D01*
X3563416Y1903984D01*
X3577336Y1908911D01*
X3590544Y1915515D01*
X3602837Y1923643D01*
X3614064Y1933244D01*
X3623970Y1944166D01*
X3631539Y1954834D01*
X3634638Y1957679D01*
X3638702Y1959051D01*
X3642918Y1958644D01*
X3646576Y1956511D01*
X3649116Y1953107D01*
X3649979Y1948942D01*
X3649979Y60147D01*
X3649218Y56286D01*
X3647033Y52984D01*
X3643731Y50749D01*
X3639820Y49987D01*
G37*

%LPC*%
G36*
X2330043Y610158D02*
G01*
X2343556Y610158D01*
X2356967Y611936D01*
X2370023Y615543D01*
X2382469Y620776D01*
X2394102Y627684D01*
X2404719Y636066D01*
X2414168Y645820D01*
X2422194Y656691D01*
X2428697Y668578D01*
X2433523Y681177D01*
X2436672Y694334D01*
X2438044Y707796D01*
X2437587Y721360D01*
X2435301Y734669D01*
X2431338Y747623D01*
X2425598Y759866D01*
X2418334Y771296D01*
X2409596Y781608D01*
X2399588Y790702D01*
X2388412Y798322D01*
X2376322Y804468D01*
X2363571Y808888D01*
X2350312Y811580D01*
X2336800Y812495D01*
X2323287Y811580D01*
X2310028Y808888D01*
X2297277Y804468D01*
X2285187Y798322D01*
X2274011Y790702D01*
X2264003Y781608D01*
X2255266Y771296D01*
X2248001Y759866D01*
X2242261Y747623D01*
X2238298Y734669D01*
X2236012Y721360D01*
X2235555Y707796D01*
X2236927Y694334D01*
X2240076Y681177D01*
X2244902Y668578D01*
X2251405Y656691D01*
X2259431Y645820D01*
X2268880Y636066D01*
X2279497Y627684D01*
X2291130Y620776D01*
X2303576Y615543D01*
X2316632Y611936D01*
G37*
G36*
X2076043Y610158D02*
G01*
X2089556Y610158D01*
X2102967Y611936D01*
X2116023Y615543D01*
X2128469Y620776D01*
X2140102Y627684D01*
X2150719Y636066D01*
X2160168Y645820D01*
X2168194Y656691D01*
X2174697Y668578D01*
X2179523Y681177D01*
X2182672Y694334D01*
X2184044Y707796D01*
X2183587Y721360D01*
X2181301Y734669D01*
X2177338Y747623D01*
X2171598Y759866D01*
X2164334Y771296D01*
X2155596Y781608D01*
X2145588Y790702D01*
X2134412Y798322D01*
X2122322Y804468D01*
X2109571Y808888D01*
X2096312Y811580D01*
X2082800Y812495D01*
X2069287Y811580D01*
X2056028Y808888D01*
X2043277Y804468D01*
X2031187Y798322D01*
X2020011Y790702D01*
X2010003Y781608D01*
X2001266Y771296D01*
X1994001Y759866D01*
X1988261Y747623D01*
X1984298Y734669D01*
X1982012Y721360D01*
X1981555Y707796D01*
X1982927Y694334D01*
X1986076Y681177D01*
X1990902Y668578D01*
X1997405Y656691D01*
X2005431Y645820D01*
X2014880Y636066D01*
X2025497Y627684D01*
X2037130Y620776D01*
X2049576Y615543D01*
X2062632Y611936D01*
G37*
G36*
X1568043Y610158D02*
G01*
X1581556Y610158D01*
X1594967Y611936D01*
X1608023Y615543D01*
X1620469Y620776D01*
X1632102Y627684D01*
X1642719Y636066D01*
X1652168Y645820D01*
X1660194Y656691D01*
X1666697Y668578D01*
X1671523Y681177D01*
X1674672Y694334D01*
X1676044Y707796D01*
X1675587Y721360D01*
X1673301Y734669D01*
X1669338Y747623D01*
X1663598Y759866D01*
X1656334Y771296D01*
X1647596Y781608D01*
X1637588Y790702D01*
X1626412Y798322D01*
X1614322Y804468D01*
X1601571Y808888D01*
X1588312Y811580D01*
X1574800Y812495D01*
X1561287Y811580D01*
X1548028Y808888D01*
X1535277Y804468D01*
X1523187Y798322D01*
X1512011Y790702D01*
X1502003Y781608D01*
X1493266Y771296D01*
X1486001Y759866D01*
X1480261Y747623D01*
X1476298Y734669D01*
X1474012Y721360D01*
X1473555Y707796D01*
X1474927Y694334D01*
X1478076Y681177D01*
X1482902Y668578D01*
X1489405Y656691D01*
X1497431Y645820D01*
X1506880Y636066D01*
X1517497Y627684D01*
X1529130Y620776D01*
X1541576Y615543D01*
X1554632Y611936D01*
G37*
G36*
X1822043Y610158D02*
G01*
X1835556Y610158D01*
X1848967Y611936D01*
X1862023Y615543D01*
X1874469Y620776D01*
X1886102Y627684D01*
X1896719Y636066D01*
X1906168Y645820D01*
X1914194Y656691D01*
X1920697Y668578D01*
X1925523Y681177D01*
X1928672Y694334D01*
X1930044Y707796D01*
X1929587Y721360D01*
X1927301Y734669D01*
X1923338Y747623D01*
X1917598Y759866D01*
X1910334Y771296D01*
X1901596Y781608D01*
X1891588Y790702D01*
X1880412Y798322D01*
X1868322Y804468D01*
X1855571Y808888D01*
X1842312Y811580D01*
X1828800Y812495D01*
X1815287Y811580D01*
X1802028Y808888D01*
X1789277Y804468D01*
X1777187Y798322D01*
X1766011Y790702D01*
X1756003Y781608D01*
X1747266Y771296D01*
X1740001Y759866D01*
X1734261Y747623D01*
X1730298Y734669D01*
X1728012Y721360D01*
X1727555Y707796D01*
X1728927Y694334D01*
X1732076Y681177D01*
X1736902Y668578D01*
X1743405Y656691D01*
X1751431Y645820D01*
X1760880Y636066D01*
X1771497Y627684D01*
X1783130Y620776D01*
X1795576Y615543D01*
X1808632Y611936D01*
G37*
G36*
X1314043Y610158D02*
G01*
X1327556Y610158D01*
X1340967Y611936D01*
X1354023Y615543D01*
X1366469Y620776D01*
X1378102Y627684D01*
X1388719Y636066D01*
X1398168Y645820D01*
X1406194Y656691D01*
X1412697Y668578D01*
X1417523Y681177D01*
X1420672Y694334D01*
X1422044Y707796D01*
X1421587Y721360D01*
X1419301Y734669D01*
X1415338Y747623D01*
X1409598Y759866D01*
X1402334Y771296D01*
X1393596Y781608D01*
X1383588Y790702D01*
X1372412Y798322D01*
X1360322Y804468D01*
X1347571Y808888D01*
X1334312Y811580D01*
X1320800Y812495D01*
X1307287Y811580D01*
X1294028Y808888D01*
X1281277Y804468D01*
X1269187Y798322D01*
X1258011Y790702D01*
X1248003Y781608D01*
X1239266Y771296D01*
X1232001Y759866D01*
X1226261Y747623D01*
X1222298Y734669D01*
X1220012Y721360D01*
X1219555Y707796D01*
X1220927Y694334D01*
X1224076Y681177D01*
X1228902Y668578D01*
X1235405Y656691D01*
X1243431Y645820D01*
X1252880Y636066D01*
X1263497Y627684D01*
X1275130Y620776D01*
X1287576Y615543D01*
X1300632Y611936D01*
G37*
G36*
X806043Y610158D02*
G01*
X819556Y610158D01*
X832967Y611936D01*
X846023Y615543D01*
X858469Y620776D01*
X870102Y627684D01*
X880719Y636066D01*
X890168Y645820D01*
X898194Y656691D01*
X904697Y668578D01*
X909523Y681177D01*
X912672Y694334D01*
X914044Y707796D01*
X913587Y721360D01*
X911301Y734669D01*
X907338Y747623D01*
X901598Y759866D01*
X894334Y771296D01*
X885596Y781608D01*
X875588Y790702D01*
X864412Y798322D01*
X852322Y804468D01*
X839571Y808888D01*
X826312Y811580D01*
X812800Y812495D01*
X799287Y811580D01*
X786028Y808888D01*
X773277Y804468D01*
X761187Y798322D01*
X750011Y790702D01*
X740003Y781608D01*
X731266Y771296D01*
X724001Y759866D01*
X718261Y747623D01*
X714298Y734669D01*
X712012Y721360D01*
X711555Y707796D01*
X712927Y694334D01*
X716076Y681177D01*
X720902Y668578D01*
X727405Y656691D01*
X735431Y645820D01*
X744880Y636066D01*
X755497Y627684D01*
X767130Y620776D01*
X779576Y615543D01*
X792632Y611936D01*
G37*
G36*
X3505200Y1594002D02*
G01*
X3518814Y1594916D01*
X3532174Y1597660D01*
X3545078Y1602130D01*
X3557219Y1608277D01*
X3568446Y1615998D01*
X3578606Y1625142D01*
X3587394Y1635556D01*
X3594709Y1647037D01*
X3600450Y1659432D01*
X3604514Y1672437D01*
X3606749Y1685899D01*
X3607206Y1699514D01*
X3605885Y1713077D01*
X3602685Y1726336D01*
X3597808Y1739087D01*
X3591255Y1751025D01*
X3583178Y1761998D01*
X3573678Y1771802D01*
X3562959Y1780286D01*
X3551224Y1787194D01*
X3538677Y1792528D01*
X3525520Y1796135D01*
X3512007Y1797964D01*
X3498392Y1797964D01*
X3484879Y1796135D01*
X3471722Y1792528D01*
X3459175Y1787194D01*
X3447440Y1780286D01*
X3436721Y1771802D01*
X3427222Y1761998D01*
X3419144Y1751025D01*
X3412591Y1739087D01*
X3407714Y1726336D01*
X3404514Y1713077D01*
X3403193Y1699514D01*
X3403650Y1685899D01*
X3405886Y1672437D01*
X3409950Y1659432D01*
X3415690Y1647037D01*
X3423005Y1635556D01*
X3431794Y1625142D01*
X3441954Y1615998D01*
X3453180Y1608277D01*
X3465322Y1602130D01*
X3478225Y1597660D01*
X3491585Y1594916D01*
G37*

%LPD*%
D10*
X2810306Y2101827D02*
G01*
X2810306Y2291209D01*
X2882900Y1696112D02*
G01*
X2882900Y2029233D01*
X2810306Y2101827D01*
X2810306Y2101827D02*
G01*
X1462455Y2101827D01*
X911352Y1550723D01*
X3530600Y2527302D02*
G01*
X1290980Y2527302D01*
X1205636Y2441958D01*
X3530600Y2273302D02*
G01*
X3376091Y2427810D01*
X1539214Y2427810D01*
X1494789Y2383386D01*
X966088Y2383386D01*
X911352Y2438123D01*
X3194050Y672442D02*
G01*
X3302000Y780392D01*
X3302000Y1930402D01*
X3251200Y1981202D01*
X3530600Y3289302D02*
G01*
X3260293Y3018995D01*
X3260293Y2941195D01*
D11*
X2332507Y4749802D02*
G01*
X2198471Y4883838D01*
X540435Y4883838D01*
X368300Y4711702D01*
D10*
X2133955Y3822702D02*
G01*
X3237839Y3822702D01*
X3351479Y3709062D01*
X3351479Y3657602D01*
X3454400Y3657602D02*
G01*
X3351479Y3657602D01*
X1066800Y711202D02*
G01*
X1066800Y493753D01*
X186207Y254002D02*
G01*
X827049Y254002D01*
X1066800Y493753D01*
X1066800Y493753D02*
G01*
X3272459Y493753D01*
X3512210Y254002D01*
X2409901Y3670302D02*
G01*
X2409901Y3646451D01*
X2128951Y3365502D01*
X2527808Y3670302D02*
G01*
X2409901Y3670302D01*
X546100Y3276602D02*
G01*
X688289Y3134413D01*
X1093393Y3134413D01*
X1193800Y3034007D01*
X1193800Y2963826D01*
X1376324Y2781302D01*
X3530600Y2781302D01*
X3505200Y666092D02*
G01*
X3406343Y567235D01*
X2981756Y567235D01*
X2882900Y666092D01*
X2743200Y711202D02*
G01*
X2743200Y1981202D01*
X2590800Y711202D02*
G01*
X2743200Y711202D01*
X2743200Y711202D02*
G01*
X2837789Y711202D01*
X2882900Y666092D01*
X2780791Y4432302D02*
G01*
X2662047Y4313557D01*
X2423286Y4313557D01*
X2365578Y4371266D01*
X1220698Y4371266D01*
X1103934Y4254502D01*
D11*
X2526791Y4432302D02*
G01*
X2844291Y4749802D01*
X3382492Y4749802D01*
X2482189Y254002D02*
G01*
X2343708Y392483D01*
X1719630Y392483D01*
X1593850Y266702D01*
X292100Y3276602D02*
G01*
X292100Y3613177D01*
X1428724Y4749802D01*
X1593850Y4749802D01*
X1593850Y4749802D02*
G01*
X1911350Y4432302D01*
X2526791Y4432302D01*
X2336800Y2997202D02*
G01*
X2692400Y3352802D01*
X2870200Y3352802D01*
X1236218Y254002D02*
G01*
X1357350Y132869D01*
X1651203Y132869D01*
X1722246Y203913D01*
X1722246Y266702D01*
X1847850Y266702D02*
G01*
X1722246Y266702D01*
X800100Y3276602D02*
G01*
X868730Y3207971D01*
X2126030Y3207971D01*
X2336800Y2997202D01*
X3084779Y3657602D02*
G01*
X3072079Y3670302D01*
X2781808Y3670302D01*
X3200400Y3657602D02*
G01*
X3084779Y3657602D01*
D12*
G01*
X2743200Y1981200D03*
G01*
X3251200Y1981200D03*
D13*
G01*
X3530600Y2019300D03*
G01*
X3530600Y2273300D03*
G01*
X3530600Y2527300D03*
G01*
X3530600Y2781300D03*
G01*
X3530600Y3035300D03*
G01*
X3530600Y3289300D03*
D14*
G01*
X2810306Y2941193D03*
G01*
X2810306Y2291206D03*
G01*
X3260293Y2291206D03*
G01*
X3260293Y2941193D03*
D15*
G01*
X2882900Y1696110D03*
G01*
X2882900Y666089D03*
G01*
X3505200Y1696110D03*
G01*
X3505200Y666089D03*
G01*
X3194050Y1702460D03*
G01*
X3194050Y672439D03*
D12*
G01*
X2362200Y3352800D03*
G01*
X2870200Y3352800D03*
D16*
G01*
X1593850Y4749800D03*
D17*
G01*
X1847850Y4749800D03*
D16*
G01*
X1593850Y266700D03*
D17*
G01*
X1847850Y266700D03*
D18*
G01*
X3200400Y3657600D03*
G01*
X3454400Y3657600D03*
D19*
G01*
X622300Y4711700D03*
G01*
X368300Y4711700D03*
D20*
G01*
X876302Y4711697D03*
D15*
G01*
X2482189Y254000D03*
G01*
X3512210Y254000D03*
D12*
G01*
X186207Y254000D03*
G01*
X1236218Y254000D03*
D15*
G01*
X1103934Y3822700D03*
G01*
X2133955Y3822700D03*
D21*
G01*
X1108938Y3365500D03*
G01*
X2128951Y3365500D03*
D15*
G01*
X1103934Y4254500D03*
G01*
X2133955Y4254500D03*
D21*
G01*
X2332507Y4749800D03*
G01*
X3382492Y4749800D03*
D22*
G01*
X2590800Y2997200D03*
G01*
X2590800Y711200D03*
G01*
X812800Y2997200D03*
G01*
X1066800Y2997200D03*
G01*
X1320800Y2997200D03*
G01*
X1574800Y2997200D03*
G01*
X1828800Y2997200D03*
G01*
X2082800Y2997200D03*
G01*
X2336800Y2997200D03*
G01*
X812800Y711200D03*
G01*
X1066800Y711200D03*
G01*
X1320800Y711200D03*
G01*
X1574800Y711200D03*
G01*
X1828800Y711200D03*
G01*
X2082800Y711200D03*
G01*
X2336800Y711200D03*
D23*
G01*
X292100Y3276600D03*
D22*
G01*
X546100Y3276600D03*
G01*
X800100Y3276600D03*
D24*
G01*
X2781808Y3670300D03*
G01*
X2780791Y4432300D03*
G01*
X2526791Y4432300D03*
D25*
G01*
X2527808Y3670300D03*
D26*
G01*
X911352Y2438120D03*
G01*
X1205636Y2441955D03*
G01*
X911352Y1550720D03*
M02*
