G04 Layer: TopLayer*
G04 EasyEDA v6.5.40, 2024-02-04 03:55:30*
G04 936758304a9441538e57e2a98c5da18a,153482dac41149f1974aef67bcea995d,10*
G04 Gerber Generator version 0.2*
G04 Scale: 100 percent, Rotated: No, Reflected: No *
G04 Dimensions in millimeters *
G04 leading zeros omitted , absolute positions ,4 integer and 5 decimal *
%FSLAX45Y45*%
%MOMM*%

%AMMACRO1*4,1,40,-0.4763,0,-0.1588,0.635,0.2223,0.635,0.2223,0.635,0.2223,0.635,0.2457,0.6339,0.2689,0.6307,0.2918,0.6253,0.314,0.6179,0.3355,0.6084,0.356,0.597,0.3753,0.5837,0.3934,0.5687,0.41,0.5521,0.4249,0.5341,0.4382,0.5147,0.4496,0.4942,0.4591,0.4727,0.4665,0.4505,0.4719,0.4277,0.4752,0.4044,0.4763,0.381,0.4763,-0.4445,0.4696,-0.4663,0.4609,-0.4875,0.4504,-0.5078,0.4382,-0.5271,0.4242,-0.5452,0.4087,-0.5619,0.3917,-0.5773,0.3734,-0.591,0.3539,-0.603,0.3335,-0.6132,0.3122,-0.6215,0.2903,-0.6279,0.2678,-0.6323,0.2451,-0.6347,0.2223,-0.635,-0.1588,-0.635,-0.4763,0,-0.4763,0,0*%
%AMMACRO2*4,1,39,0.4445,0.635,-0.1905,0.635,-0.2139,0.6339,-0.2372,0.6307,-0.26,0.6253,-0.2822,0.6179,-0.3037,0.6084,-0.3242,0.597,-0.3436,0.5837,-0.3616,0.5687,-0.3782,0.5521,-0.3932,0.5341,-0.4065,0.5147,-0.4179,0.4942,-0.4274,0.4727,-0.4348,0.4505,-0.4402,0.4277,-0.4434,0.4044,-0.4445,0.381,-0.4445,-0.381,-0.4434,-0.4044,-0.4402,-0.4277,-0.4348,-0.4505,-0.4274,-0.4727,-0.4179,-0.4942,-0.4065,-0.5147,-0.3932,-0.5341,-0.3782,-0.5521,-0.3616,-0.5687,-0.3436,-0.5837,-0.3242,-0.597,-0.3037,-0.6084,-0.2822,-0.6179,-0.26,-0.6253,-0.2372,-0.6307,-0.2139,-0.6339,-0.1905,-0.635,0.4445,-0.635,0.127,0,0.4445,0.635,0*%
%AMMACRO3*21,1,$1,$2,0,0,$3*%
%ADD10C,0.2540*%
%ADD11C,0.5080*%
%ADD12MACRO1*%
%ADD13MACRO2*%
%ADD14R,1.4000X2.5000*%
%ADD15R,1.7000X1.4000*%
%ADD16C,1.6000*%
%ADD17C,1.8796*%
%ADD18C,2.0000*%
%ADD19C,1.5240*%
%ADD20C,1.7000*%
%ADD21R,1.7000X1.7000*%
%ADD22R,1.5000X1.5000*%
%ADD23O,1.9999959999999999X2.4999949999999997*%
%ADD24MACRO3,2.0015X2.4994X0.0000*%
%ADD25C,1.4000*%
%ADD26C,1.5080*%
%ADD27R,1.5080X1.5080*%
%ADD28C,1.8000*%
%ADD29R,1.8000X1.8000*%
%ADD30C,0.6100*%
%ADD31C,0.0148*%

%LPD*%
G36*
X2562504Y1290828D02*
G01*
X2558643Y1291590D01*
X2555341Y1293774D01*
X2553106Y1297076D01*
X2552344Y1300988D01*
X2552344Y1423670D01*
X2551633Y1429969D01*
X2549702Y1435455D01*
X2546654Y1440332D01*
X2542540Y1444447D01*
X2540762Y1445564D01*
X2537815Y1448409D01*
X2536190Y1452118D01*
X2536190Y1456232D01*
X2537815Y1459941D01*
X2540762Y1462786D01*
X2542387Y1463802D01*
X2546502Y1467916D01*
X2549550Y1472793D01*
X2551480Y1478280D01*
X2552192Y1484579D01*
X2552192Y1623466D01*
X2551480Y1629765D01*
X2549550Y1635251D01*
X2546502Y1640128D01*
X2542387Y1644243D01*
X2540609Y1645361D01*
X2537663Y1648155D01*
X2536088Y1651914D01*
X2536088Y1655978D01*
X2537663Y1659737D01*
X2540609Y1662531D01*
X2542438Y1663700D01*
X2546553Y1667764D01*
X2549601Y1672691D01*
X2551531Y1678127D01*
X2552242Y1684477D01*
X2552242Y1823313D01*
X2551531Y1829663D01*
X2549601Y1835099D01*
X2546553Y1840026D01*
X2542438Y1844090D01*
X2540508Y1845310D01*
X2537561Y1848154D01*
X2535936Y1851914D01*
X2535936Y1855978D01*
X2537561Y1859737D01*
X2540508Y1862531D01*
X2542438Y1863750D01*
X2546553Y1867865D01*
X2549601Y1872742D01*
X2551531Y1878228D01*
X2552242Y1884527D01*
X2552242Y2023414D01*
X2551531Y2029714D01*
X2549601Y2035200D01*
X2546553Y2040077D01*
X2542438Y2044192D01*
X2540609Y2045309D01*
X2537663Y2048154D01*
X2536088Y2051913D01*
X2536088Y2055977D01*
X2537663Y2059736D01*
X2540609Y2062530D01*
X2542438Y2063699D01*
X2546553Y2067763D01*
X2549601Y2072690D01*
X2551531Y2078126D01*
X2552242Y2084476D01*
X2552242Y2223312D01*
X2551531Y2229662D01*
X2549601Y2235098D01*
X2546553Y2240026D01*
X2542438Y2244090D01*
X2540609Y2245258D01*
X2537663Y2248103D01*
X2536037Y2251811D01*
X2536037Y2255926D01*
X2537663Y2259634D01*
X2540609Y2262479D01*
X2542540Y2263698D01*
X2546604Y2267762D01*
X2550363Y2273858D01*
X2552801Y2276551D01*
X2556052Y2278227D01*
X2559659Y2278684D01*
X2563215Y2277770D01*
X2566212Y2275738D01*
X2738272Y2103678D01*
X2740406Y2100478D01*
X2741218Y2096719D01*
X2740558Y2092909D01*
X2738577Y2089607D01*
X2735478Y2087321D01*
X2731719Y2086356D01*
X2729382Y2086203D01*
X2715818Y2083460D01*
X2702661Y2079040D01*
X2690266Y2072893D01*
X2678734Y2065223D01*
X2668320Y2056079D01*
X2659176Y2045665D01*
X2651506Y2034133D01*
X2645359Y2021738D01*
X2640939Y2008581D01*
X2638196Y1995017D01*
X2637332Y1981200D01*
X2638196Y1967382D01*
X2640939Y1953818D01*
X2645359Y1940661D01*
X2651506Y1928266D01*
X2659176Y1916734D01*
X2668320Y1906320D01*
X2678734Y1897176D01*
X2690266Y1889506D01*
X2702661Y1883359D01*
X2715818Y1878939D01*
X2729382Y1876196D01*
X2743200Y1875332D01*
X2757017Y1876196D01*
X2770581Y1878939D01*
X2783738Y1883359D01*
X2796133Y1889506D01*
X2807665Y1897176D01*
X2818079Y1906320D01*
X2827223Y1916734D01*
X2834894Y1928266D01*
X2841040Y1940661D01*
X2845460Y1953818D01*
X2848203Y1967382D01*
X2848356Y1969719D01*
X2849321Y1973478D01*
X2851607Y1976577D01*
X2854909Y1978558D01*
X2858719Y1979218D01*
X2862478Y1978406D01*
X2865678Y1976272D01*
X3095396Y1746504D01*
X3097580Y1743303D01*
X3098393Y1739493D01*
X3097682Y1735683D01*
X3096564Y1732686D01*
X3093364Y1719427D01*
X3091992Y1705864D01*
X3092450Y1692249D01*
X3094736Y1678787D01*
X3098800Y1665782D01*
X3104540Y1653387D01*
X3111855Y1641906D01*
X3120644Y1631492D01*
X3130753Y1622348D01*
X3142030Y1614627D01*
X3154172Y1608480D01*
X3167075Y1604010D01*
X3180435Y1601266D01*
X3194050Y1600352D01*
X3207664Y1601266D01*
X3221024Y1604010D01*
X3233877Y1608480D01*
X3246069Y1614627D01*
X3257296Y1622348D01*
X3267405Y1631492D01*
X3276244Y1641906D01*
X3283559Y1653387D01*
X3289300Y1665782D01*
X3293364Y1678787D01*
X3295599Y1692249D01*
X3296056Y1705864D01*
X3294684Y1719427D01*
X3291535Y1732686D01*
X3286658Y1745437D01*
X3280105Y1757375D01*
X3272028Y1768348D01*
X3262528Y1778152D01*
X3251809Y1786636D01*
X3240074Y1793544D01*
X3227527Y1798878D01*
X3214370Y1802485D01*
X3200857Y1804314D01*
X3187242Y1804314D01*
X3173730Y1802485D01*
X3159760Y1798624D01*
X3156204Y1798320D01*
X3152800Y1799234D01*
X3149854Y1801266D01*
X2803144Y2147976D01*
X2801010Y2151176D01*
X2800197Y2154936D01*
X2800858Y2158746D01*
X2802890Y2162048D01*
X2805988Y2164334D01*
X2809748Y2165299D01*
X2825496Y2166213D01*
X2840431Y2168956D01*
X2854960Y2173478D01*
X2868828Y2179726D01*
X2881833Y2187600D01*
X2893771Y2196998D01*
X2904540Y2207717D01*
X2913888Y2219706D01*
X2921762Y2232710D01*
X2928010Y2246579D01*
X2932531Y2261057D01*
X2935274Y2276043D01*
X2936189Y2291181D01*
X2935274Y2306370D01*
X2932531Y2321356D01*
X2928010Y2335834D01*
X2921762Y2349703D01*
X2913888Y2362708D01*
X2904540Y2374696D01*
X2893771Y2385415D01*
X2881833Y2394813D01*
X2868828Y2402687D01*
X2854909Y2408936D01*
X2851759Y2411171D01*
X2849626Y2414422D01*
X2848914Y2418181D01*
X2848914Y2814218D01*
X2849626Y2817977D01*
X2851759Y2821228D01*
X2854909Y2823464D01*
X2868828Y2829712D01*
X2881833Y2837586D01*
X2893771Y2846984D01*
X2904540Y2857703D01*
X2913888Y2869692D01*
X2921762Y2882696D01*
X2928010Y2896565D01*
X2932531Y2911043D01*
X2935274Y2926029D01*
X2936189Y2941167D01*
X2935274Y2956356D01*
X2932531Y2971342D01*
X2928010Y2985820D01*
X2921762Y2999689D01*
X2913888Y3012694D01*
X2904540Y3024682D01*
X2893771Y3035401D01*
X2881833Y3044799D01*
X2868828Y3052673D01*
X2854960Y3058922D01*
X2840431Y3063443D01*
X2825496Y3066186D01*
X2810306Y3067100D01*
X2795117Y3066186D01*
X2780182Y3063443D01*
X2765653Y3058922D01*
X2751785Y3052673D01*
X2738780Y3044799D01*
X2726842Y3035401D01*
X2716072Y3024682D01*
X2707690Y3013964D01*
X2704744Y3011424D01*
X2701086Y3010204D01*
X2697226Y3010408D01*
X2693670Y3012084D01*
X2691028Y3014929D01*
X2689707Y3018536D01*
X2689301Y3020669D01*
X2686304Y3030423D01*
X2685846Y3034080D01*
X2686761Y3037636D01*
X2688844Y3040634D01*
X2737815Y3089605D01*
X2741117Y3091789D01*
X2744978Y3092602D01*
X2882849Y3092602D01*
X2890875Y3093364D01*
X2898089Y3095548D01*
X2904794Y3099104D01*
X2910992Y3104235D01*
X3330448Y3523691D01*
X3335578Y3529888D01*
X3339134Y3536594D01*
X3341319Y3543808D01*
X3342081Y3551834D01*
X3342081Y3559048D01*
X3342894Y3562959D01*
X3345078Y3566210D01*
X3348380Y3568446D01*
X3352292Y3569208D01*
X3356152Y3568446D01*
X3359454Y3566210D01*
X3363264Y3562400D01*
X3368192Y3559301D01*
X3373628Y3557422D01*
X3379978Y3556711D01*
X3528822Y3556711D01*
X3535172Y3557422D01*
X3540607Y3559301D01*
X3545535Y3562400D01*
X3549599Y3566464D01*
X3552698Y3571392D01*
X3554577Y3576828D01*
X3555288Y3583178D01*
X3555288Y3732022D01*
X3554577Y3738372D01*
X3552698Y3743807D01*
X3549599Y3748735D01*
X3545535Y3752799D01*
X3540607Y3755898D01*
X3535172Y3757777D01*
X3528822Y3758488D01*
X3379978Y3758488D01*
X3373628Y3757777D01*
X3368192Y3755898D01*
X3363264Y3752799D01*
X3359454Y3748989D01*
X3356152Y3746754D01*
X3352292Y3745992D01*
X3348380Y3746754D01*
X3345078Y3748989D01*
X3342894Y3752240D01*
X3342081Y3756151D01*
X3342081Y3919829D01*
X3342894Y3923741D01*
X3345078Y3927043D01*
X3417824Y3999788D01*
X3422954Y4006037D01*
X3426510Y4012692D01*
X3428695Y4019905D01*
X3429508Y4027932D01*
X3429508Y4236821D01*
X3430219Y4240479D01*
X3432200Y4243679D01*
X3435248Y4245965D01*
X3437483Y4247032D01*
X3443935Y4251045D01*
X3448913Y4255109D01*
X3453942Y4260545D01*
X3457651Y4265828D01*
X3461105Y4272483D01*
X3462629Y4276547D01*
X3464153Y4282541D01*
X3464458Y4286605D01*
X3464458Y4368495D01*
X3464051Y4374946D01*
X3463239Y4379620D01*
X3462070Y4384141D01*
X3460445Y4388612D01*
X3458362Y4392930D01*
X3455974Y4396943D01*
X3453180Y4400804D01*
X3450082Y4404360D01*
X3446627Y4407611D01*
X3442919Y4410557D01*
X3438956Y4413097D01*
X3434740Y4415332D01*
X3430320Y4417110D01*
X3425901Y4418431D01*
X3419195Y4419701D01*
X3412794Y4420108D01*
X3375609Y4420108D01*
X3369360Y4419396D01*
X3363925Y4417568D01*
X3359708Y4414926D01*
X3356203Y4413554D01*
X3352393Y4413605D01*
X3348939Y4414977D01*
X3345332Y4417263D01*
X3342792Y4419549D01*
X3341166Y4422495D01*
X3340608Y4425848D01*
X3340608Y4631131D01*
X3341370Y4635042D01*
X3343605Y4638344D01*
X3357829Y4652568D01*
X3360318Y4654397D01*
X3363264Y4655413D01*
X3366414Y4655464D01*
X3375964Y4654143D01*
X3389020Y4654143D01*
X3402025Y4655921D01*
X3414623Y4659426D01*
X3426612Y4664659D01*
X3437788Y4671466D01*
X3447948Y4679746D01*
X3456889Y4689297D01*
X3464407Y4699965D01*
X3470452Y4711598D01*
X3474821Y4723942D01*
X3477514Y4736744D01*
X3478377Y4749800D01*
X3477514Y4762855D01*
X3474821Y4775657D01*
X3470452Y4788001D01*
X3464407Y4799634D01*
X3456889Y4810302D01*
X3447948Y4819853D01*
X3437788Y4828133D01*
X3426612Y4834940D01*
X3414623Y4840122D01*
X3402025Y4843678D01*
X3389020Y4845456D01*
X3375964Y4845456D01*
X3363010Y4843678D01*
X3350412Y4840122D01*
X3338372Y4834940D01*
X3327196Y4828133D01*
X3317036Y4819853D01*
X3308146Y4810302D01*
X3300577Y4799634D01*
X3294532Y4788001D01*
X3290163Y4775657D01*
X3287522Y4762855D01*
X3286607Y4749800D01*
X3287522Y4736744D01*
X3287979Y4734356D01*
X3288131Y4731004D01*
X3287166Y4727803D01*
X3285236Y4725111D01*
X3253181Y4693056D01*
X3249980Y4689602D01*
X3247288Y4686046D01*
X3244850Y4682236D01*
X3242818Y4678273D01*
X3241090Y4674158D01*
X3239770Y4669891D01*
X3238804Y4665522D01*
X3238195Y4661103D01*
X3237992Y4656378D01*
X3237992Y4413250D01*
X3237280Y4409490D01*
X3235198Y4406239D01*
X3231388Y4402277D01*
X3228492Y4398568D01*
X3225952Y4394606D01*
X3223717Y4390390D01*
X3221939Y4386021D01*
X3220618Y4381601D01*
X3219348Y4374845D01*
X3218942Y4368495D01*
X3218942Y4292904D01*
X3219348Y4286453D01*
X3220110Y4281779D01*
X3221329Y4277258D01*
X3222955Y4272788D01*
X3224987Y4268470D01*
X3227374Y4264456D01*
X3230168Y4260596D01*
X3233318Y4257040D01*
X3236772Y4253788D01*
X3240481Y4250842D01*
X3244443Y4248302D01*
X3248660Y4246067D01*
X3253028Y4244289D01*
X3257448Y4242968D01*
X3264204Y4241698D01*
X3270554Y4241292D01*
X3333140Y4241292D01*
X3340912Y4242257D01*
X3345129Y4241850D01*
X3348888Y4239768D01*
X3351377Y4236313D01*
X3352292Y4232148D01*
X3352292Y4047642D01*
X3351529Y4043781D01*
X3349294Y4040479D01*
X3276549Y3967683D01*
X3271418Y3961485D01*
X3267862Y3954830D01*
X3265678Y3947566D01*
X3264865Y3939540D01*
X3264865Y3571544D01*
X3264103Y3567633D01*
X3261918Y3564331D01*
X2870352Y3172764D01*
X2867050Y3170580D01*
X2863138Y3169818D01*
X2725267Y3169818D01*
X2717241Y3169005D01*
X2710027Y3166821D01*
X2703372Y3163265D01*
X2697124Y3158134D01*
X2634183Y3095193D01*
X2631084Y3093059D01*
X2627376Y3092196D01*
X2623667Y3092754D01*
X2617571Y3094888D01*
X2604312Y3097580D01*
X2590800Y3098495D01*
X2577287Y3097580D01*
X2564028Y3094888D01*
X2551277Y3090468D01*
X2539187Y3084322D01*
X2528011Y3076702D01*
X2518003Y3067608D01*
X2509266Y3057296D01*
X2502001Y3045866D01*
X2496261Y3033623D01*
X2492298Y3020669D01*
X2490012Y3007360D01*
X2489555Y2993796D01*
X2490927Y2980334D01*
X2494076Y2967177D01*
X2498902Y2954578D01*
X2505405Y2942691D01*
X2513431Y2931820D01*
X2522880Y2922066D01*
X2533497Y2913684D01*
X2545130Y2906776D01*
X2557576Y2901543D01*
X2570632Y2897936D01*
X2584043Y2896158D01*
X2597556Y2896158D01*
X2610967Y2897936D01*
X2624023Y2901543D01*
X2636469Y2906776D01*
X2648102Y2913684D01*
X2658719Y2922066D01*
X2667965Y2931617D01*
X2671673Y2934055D01*
X2676042Y2934716D01*
X2680258Y2933395D01*
X2683560Y2930448D01*
X2685288Y2926384D01*
X2688082Y2911043D01*
X2692603Y2896565D01*
X2698851Y2882696D01*
X2706725Y2869692D01*
X2716072Y2857703D01*
X2726842Y2846984D01*
X2738780Y2837586D01*
X2751785Y2829712D01*
X2765704Y2823464D01*
X2768854Y2821228D01*
X2770987Y2817977D01*
X2771698Y2814218D01*
X2771698Y2418181D01*
X2770987Y2414422D01*
X2768854Y2411171D01*
X2765704Y2408936D01*
X2751785Y2402687D01*
X2738780Y2394813D01*
X2726842Y2385415D01*
X2716072Y2374696D01*
X2706725Y2362708D01*
X2698851Y2349703D01*
X2692603Y2335834D01*
X2688082Y2321356D01*
X2685338Y2306370D01*
X2684373Y2290622D01*
X2683408Y2286863D01*
X2681122Y2283764D01*
X2677820Y2281732D01*
X2674061Y2281072D01*
X2670251Y2281885D01*
X2667050Y2284069D01*
X2597404Y2353716D01*
X2595168Y2357018D01*
X2594406Y2360930D01*
X2594406Y2448102D01*
X2593594Y2456129D01*
X2591409Y2463393D01*
X2587853Y2470048D01*
X2582722Y2476246D01*
X2576068Y2482951D01*
X2569819Y2488082D01*
X2563164Y2491638D01*
X2555951Y2493822D01*
X2547924Y2494635D01*
X2260142Y2494635D01*
X2256282Y2495397D01*
X2252980Y2497582D01*
X2250744Y2500884D01*
X2249982Y2504795D01*
X2249982Y2699004D01*
X2249017Y2699969D01*
X2217420Y2699969D01*
X2213508Y2700782D01*
X2210206Y2702966D01*
X2208022Y2706268D01*
X2207260Y2710129D01*
X2207260Y2733649D01*
X2206548Y2739948D01*
X2204618Y2745435D01*
X2201519Y2750312D01*
X2197455Y2754426D01*
X2192528Y2757525D01*
X2187092Y2759405D01*
X2180793Y2760116D01*
X2086356Y2760116D01*
X2082495Y2760878D01*
X2079193Y2763113D01*
X2077008Y2766415D01*
X2076196Y2770276D01*
X2077008Y2774188D01*
X2079193Y2777490D01*
X2253996Y2952292D01*
X2259126Y2958490D01*
X2262682Y2965196D01*
X2264867Y2972409D01*
X2265629Y2980436D01*
X2265629Y3197453D01*
X2266442Y3201314D01*
X2268626Y3204616D01*
X2315210Y3251200D01*
X2318258Y3253282D01*
X2321915Y3254146D01*
X2325624Y3253638D01*
X2334818Y3250539D01*
X2348382Y3247796D01*
X2362200Y3246932D01*
X2376017Y3247796D01*
X2389581Y3250539D01*
X2402738Y3254959D01*
X2415133Y3261106D01*
X2426665Y3268776D01*
X2437079Y3277920D01*
X2446223Y3288334D01*
X2453894Y3299866D01*
X2460040Y3312261D01*
X2464460Y3325418D01*
X2467203Y3338982D01*
X2468067Y3352800D01*
X2467203Y3366617D01*
X2464460Y3380181D01*
X2460040Y3393338D01*
X2453894Y3405733D01*
X2446223Y3417265D01*
X2437079Y3427679D01*
X2426665Y3436823D01*
X2415133Y3444494D01*
X2402738Y3450640D01*
X2389581Y3455060D01*
X2376017Y3457803D01*
X2362200Y3458667D01*
X2348382Y3457803D01*
X2334818Y3455060D01*
X2321661Y3450640D01*
X2309266Y3444494D01*
X2297734Y3436823D01*
X2287320Y3427679D01*
X2278176Y3417265D01*
X2270506Y3405733D01*
X2264359Y3393338D01*
X2259939Y3380181D01*
X2257196Y3366617D01*
X2256332Y3352800D01*
X2257196Y3338982D01*
X2259939Y3325418D01*
X2263038Y3316224D01*
X2263546Y3312515D01*
X2262682Y3308908D01*
X2260600Y3305810D01*
X2200097Y3245307D01*
X2194966Y3239058D01*
X2191410Y3232404D01*
X2189226Y3225190D01*
X2188413Y3217164D01*
X2188413Y3054350D01*
X2187498Y3050082D01*
X2184908Y3046628D01*
X2181148Y3044596D01*
X2176830Y3044291D01*
X2172766Y3045815D01*
X2169718Y3048863D01*
X2164334Y3057296D01*
X2155596Y3067608D01*
X2145588Y3076702D01*
X2134412Y3084322D01*
X2122322Y3090468D01*
X2109571Y3094888D01*
X2096312Y3097580D01*
X2082800Y3098495D01*
X2069287Y3097580D01*
X2056028Y3094888D01*
X2043277Y3090468D01*
X2031187Y3084322D01*
X2020011Y3076702D01*
X2010003Y3067608D01*
X2001266Y3057296D01*
X1994001Y3045866D01*
X1988261Y3033623D01*
X1984298Y3020669D01*
X1982012Y3007360D01*
X1981555Y2993796D01*
X1982927Y2980334D01*
X1986076Y2967177D01*
X1990902Y2954578D01*
X1997405Y2942691D01*
X2005431Y2931820D01*
X2014880Y2922066D01*
X2025497Y2913684D01*
X2037130Y2906776D01*
X2049576Y2901543D01*
X2062632Y2897936D01*
X2066798Y2897378D01*
X2071014Y2895803D01*
X2074113Y2892602D01*
X2075586Y2888386D01*
X2075027Y2883916D01*
X2072639Y2880106D01*
X1982470Y2789936D01*
X1977339Y2783738D01*
X1973783Y2777083D01*
X1970532Y2765856D01*
X1968296Y2762910D01*
X1965096Y2760929D01*
X1961438Y2760268D01*
X1841906Y2760268D01*
X1835607Y2759557D01*
X1830120Y2757627D01*
X1825243Y2754579D01*
X1821129Y2750464D01*
X1819910Y2748534D01*
X1817116Y2745587D01*
X1813356Y2743962D01*
X1809292Y2743962D01*
X1805533Y2745587D01*
X1802688Y2748534D01*
X1801520Y2750362D01*
X1797456Y2754477D01*
X1792528Y2757576D01*
X1787093Y2759456D01*
X1780793Y2760167D01*
X1641906Y2760167D01*
X1635607Y2759456D01*
X1630121Y2757576D01*
X1625244Y2754477D01*
X1621129Y2750362D01*
X1619910Y2748432D01*
X1617116Y2745486D01*
X1613357Y2743911D01*
X1609293Y2743911D01*
X1605534Y2745486D01*
X1602689Y2748432D01*
X1601520Y2750312D01*
X1597456Y2754426D01*
X1592529Y2757474D01*
X1587093Y2759405D01*
X1580743Y2760116D01*
X1441907Y2760116D01*
X1435608Y2759405D01*
X1430121Y2757474D01*
X1425244Y2754426D01*
X1421130Y2750312D01*
X1419961Y2748432D01*
X1417167Y2745486D01*
X1413408Y2743911D01*
X1409344Y2743911D01*
X1405585Y2745486D01*
X1402740Y2748432D01*
X1401521Y2750362D01*
X1397457Y2754477D01*
X1392529Y2757576D01*
X1387094Y2759456D01*
X1380744Y2760167D01*
X1360119Y2760167D01*
X1356207Y2760929D01*
X1352956Y2763164D01*
X1350721Y2766466D01*
X1349959Y2770327D01*
X1349959Y2893060D01*
X1350721Y2896920D01*
X1352905Y2900222D01*
X1356156Y2902407D01*
X1366469Y2906776D01*
X1378102Y2913684D01*
X1388719Y2922066D01*
X1398168Y2931820D01*
X1406194Y2942691D01*
X1412697Y2954578D01*
X1417523Y2967177D01*
X1420672Y2980334D01*
X1422044Y2993796D01*
X1421587Y3007360D01*
X1419301Y3020669D01*
X1415338Y3033623D01*
X1409598Y3045866D01*
X1402334Y3057296D01*
X1393596Y3067608D01*
X1383588Y3076702D01*
X1372412Y3084322D01*
X1360322Y3090468D01*
X1347571Y3094888D01*
X1334312Y3097580D01*
X1320800Y3098495D01*
X1307287Y3097580D01*
X1294028Y3094888D01*
X1287932Y3092754D01*
X1284224Y3092196D01*
X1280515Y3093059D01*
X1277416Y3095193D01*
X1150518Y3222091D01*
X1148334Y3225393D01*
X1147572Y3229254D01*
X1147572Y3271316D01*
X1148130Y3274720D01*
X1149807Y3277717D01*
X1152448Y3280003D01*
X1164285Y3287166D01*
X1174394Y3295446D01*
X1183335Y3304997D01*
X1190904Y3315665D01*
X1196898Y3327298D01*
X1201267Y3339642D01*
X1203960Y3352444D01*
X1204823Y3365500D01*
X1203960Y3378555D01*
X1201267Y3391357D01*
X1196898Y3403701D01*
X1190904Y3415334D01*
X1183335Y3426002D01*
X1174394Y3435553D01*
X1164285Y3443833D01*
X1152448Y3450996D01*
X1149807Y3453282D01*
X1148130Y3456279D01*
X1147572Y3459683D01*
X1147572Y3724148D01*
X1148130Y3727500D01*
X1149756Y3730447D01*
X1152245Y3732733D01*
X1164488Y3740505D01*
X1174902Y3749294D01*
X1184046Y3759454D01*
X1191768Y3770680D01*
X1197914Y3782822D01*
X1202385Y3795725D01*
X1205128Y3809085D01*
X1206042Y3822700D01*
X1205128Y3836314D01*
X1202385Y3849674D01*
X1197914Y3862578D01*
X1191768Y3874719D01*
X1184046Y3885946D01*
X1174902Y3896106D01*
X1164488Y3904894D01*
X1153007Y3912209D01*
X1140612Y3917950D01*
X1127607Y3922014D01*
X1114145Y3924249D01*
X1100531Y3924706D01*
X1086967Y3923385D01*
X1073708Y3920185D01*
X1060958Y3915308D01*
X1049020Y3908755D01*
X1038047Y3900678D01*
X1028242Y3891178D01*
X1019759Y3880459D01*
X1012850Y3868724D01*
X1007516Y3856177D01*
X1003909Y3843020D01*
X1002080Y3829507D01*
X1002080Y3815892D01*
X1003909Y3802379D01*
X1007516Y3789222D01*
X1012850Y3776675D01*
X1019759Y3764940D01*
X1028242Y3754221D01*
X1038047Y3744722D01*
X1049020Y3736644D01*
X1060958Y3730091D01*
X1063802Y3729024D01*
X1067257Y3726840D01*
X1069543Y3723487D01*
X1070356Y3719525D01*
X1070356Y3459683D01*
X1069746Y3456279D01*
X1068070Y3453282D01*
X1065428Y3450996D01*
X1053693Y3443833D01*
X1043533Y3435553D01*
X1034592Y3426002D01*
X1027023Y3415334D01*
X1021029Y3403701D01*
X1016660Y3391357D01*
X1013968Y3378555D01*
X1013104Y3365500D01*
X1013968Y3352444D01*
X1016660Y3339642D01*
X1021029Y3327298D01*
X1027023Y3315665D01*
X1034592Y3304997D01*
X1043533Y3295446D01*
X1053693Y3287166D01*
X1065428Y3280003D01*
X1068070Y3277717D01*
X1069746Y3274720D01*
X1070305Y3271316D01*
X1070356Y3209544D01*
X1071118Y3201517D01*
X1073302Y3194304D01*
X1076858Y3187649D01*
X1081989Y3181400D01*
X1222756Y3040634D01*
X1224838Y3037636D01*
X1225753Y3034080D01*
X1225296Y3030423D01*
X1222298Y3020669D01*
X1220012Y3007360D01*
X1219555Y2993796D01*
X1220927Y2980334D01*
X1224076Y2967177D01*
X1228902Y2954578D01*
X1235405Y2942691D01*
X1243431Y2931820D01*
X1252880Y2922066D01*
X1263497Y2913684D01*
X1267764Y2911144D01*
X1270406Y2908909D01*
X1272133Y2905861D01*
X1272743Y2902407D01*
X1272743Y2770327D01*
X1271981Y2766466D01*
X1269746Y2763164D01*
X1266494Y2760929D01*
X1262583Y2760167D01*
X1241907Y2760167D01*
X1235608Y2759456D01*
X1230122Y2757576D01*
X1225245Y2754477D01*
X1221130Y2750362D01*
X1219911Y2748483D01*
X1217117Y2745536D01*
X1213358Y2743911D01*
X1209294Y2743911D01*
X1205534Y2745536D01*
X1202740Y2748483D01*
X1201521Y2750362D01*
X1197457Y2754477D01*
X1192530Y2757525D01*
X1187094Y2759456D01*
X1180744Y2760167D01*
X1041908Y2760167D01*
X1035608Y2759456D01*
X1030122Y2757525D01*
X1025245Y2754477D01*
X1021130Y2750362D01*
X1019962Y2748483D01*
X1017117Y2745536D01*
X1013409Y2743911D01*
X1009294Y2743911D01*
X1005586Y2745536D01*
X1002741Y2748483D01*
X1001521Y2750362D01*
X997458Y2754477D01*
X992530Y2757576D01*
X987094Y2759456D01*
X980744Y2760167D01*
X841908Y2760167D01*
X835609Y2759456D01*
X830122Y2757576D01*
X825246Y2754477D01*
X821131Y2750362D01*
X818032Y2745486D01*
X816152Y2739999D01*
X815441Y2733700D01*
X815441Y2710129D01*
X814679Y2706268D01*
X812444Y2702966D01*
X809142Y2700782D01*
X805281Y2699969D01*
X353568Y2699969D01*
X349656Y2700782D01*
X346405Y2702966D01*
X344170Y2706268D01*
X343408Y2710129D01*
X343408Y3165144D01*
X344170Y3169005D01*
X346405Y3172307D01*
X349656Y3174542D01*
X353568Y3175304D01*
X366928Y3175304D01*
X373227Y3176016D01*
X378714Y3177895D01*
X383590Y3180994D01*
X387705Y3185109D01*
X390804Y3189986D01*
X392684Y3195472D01*
X393395Y3201771D01*
X393395Y3351428D01*
X392684Y3357727D01*
X390804Y3363214D01*
X387705Y3368090D01*
X383590Y3372205D01*
X378714Y3375304D01*
X373227Y3377184D01*
X366928Y3377895D01*
X217271Y3377895D01*
X210972Y3377184D01*
X205486Y3375304D01*
X200609Y3372205D01*
X196494Y3368090D01*
X193395Y3363214D01*
X191516Y3357727D01*
X190804Y3351428D01*
X190804Y3201771D01*
X191516Y3195472D01*
X193395Y3189986D01*
X196494Y3185109D01*
X200609Y3180994D01*
X205486Y3177895D01*
X210972Y3176016D01*
X217271Y3175304D01*
X230632Y3175304D01*
X234543Y3174542D01*
X237794Y3172307D01*
X240029Y3169005D01*
X240792Y3165144D01*
X240792Y2710129D01*
X240029Y2706268D01*
X237794Y2702966D01*
X234543Y2700782D01*
X230632Y2699969D01*
X60147Y2699969D01*
X56286Y2700782D01*
X52984Y2702966D01*
X50749Y2706268D01*
X49987Y2710129D01*
X49987Y4939842D01*
X50749Y4943703D01*
X52984Y4947005D01*
X56286Y4949240D01*
X60147Y4950002D01*
X3639820Y4950002D01*
X3643731Y4949240D01*
X3647033Y4947005D01*
X3649218Y4943703D01*
X3649979Y4939842D01*
X3649979Y3359658D01*
X3649116Y3355492D01*
X3646576Y3352088D01*
X3642918Y3349955D01*
X3638702Y3349548D01*
X3634638Y3350920D01*
X3631539Y3353765D01*
X3623970Y3364433D01*
X3614064Y3375355D01*
X3602837Y3384956D01*
X3590544Y3393084D01*
X3577336Y3399688D01*
X3563416Y3404615D01*
X3548989Y3407765D01*
X3534308Y3409086D01*
X3519525Y3408679D01*
X3504946Y3406394D01*
X3490772Y3402329D01*
X3477158Y3396589D01*
X3464407Y3389223D01*
X3452622Y3380333D01*
X3442004Y3370072D01*
X3432759Y3358540D01*
X3424986Y3345992D01*
X3418840Y3332581D01*
X3414369Y3318560D01*
X3411626Y3304032D01*
X3410712Y3289300D01*
X3411626Y3274567D01*
X3414369Y3260039D01*
X3418840Y3246018D01*
X3424986Y3232607D01*
X3432759Y3220059D01*
X3442004Y3208528D01*
X3452622Y3198266D01*
X3464407Y3189376D01*
X3477158Y3182010D01*
X3490772Y3176270D01*
X3505403Y3172053D01*
X3509264Y3170021D01*
X3511854Y3166567D01*
X3512820Y3162300D01*
X3511854Y3158032D01*
X3509264Y3154578D01*
X3505403Y3152546D01*
X3490772Y3148330D01*
X3477158Y3142589D01*
X3464407Y3135223D01*
X3452622Y3126333D01*
X3442004Y3116072D01*
X3432759Y3104540D01*
X3424986Y3091992D01*
X3418840Y3078581D01*
X3414369Y3064560D01*
X3411626Y3050032D01*
X3410712Y3035300D01*
X3411626Y3020568D01*
X3414369Y3006039D01*
X3418840Y2992018D01*
X3424986Y2978607D01*
X3432759Y2966059D01*
X3442004Y2954528D01*
X3452622Y2944266D01*
X3464407Y2935376D01*
X3477158Y2928010D01*
X3490772Y2922270D01*
X3505403Y2918053D01*
X3509264Y2916021D01*
X3511854Y2912567D01*
X3512820Y2908300D01*
X3511854Y2904032D01*
X3509264Y2900578D01*
X3505403Y2898546D01*
X3490772Y2894330D01*
X3477158Y2888589D01*
X3464407Y2881223D01*
X3452622Y2872333D01*
X3442004Y2862072D01*
X3432759Y2850540D01*
X3424986Y2837992D01*
X3418840Y2824581D01*
X3414369Y2810560D01*
X3411626Y2796032D01*
X3410712Y2781300D01*
X3411626Y2766568D01*
X3414369Y2752039D01*
X3418840Y2738018D01*
X3424986Y2724607D01*
X3432759Y2712059D01*
X3442004Y2700528D01*
X3452622Y2690266D01*
X3464407Y2681376D01*
X3477158Y2674010D01*
X3490772Y2668270D01*
X3505403Y2664053D01*
X3509264Y2662021D01*
X3511854Y2658567D01*
X3512820Y2654300D01*
X3511854Y2650032D01*
X3509264Y2646578D01*
X3505403Y2644546D01*
X3490772Y2640330D01*
X3477158Y2634589D01*
X3464407Y2627223D01*
X3452622Y2618333D01*
X3442004Y2608072D01*
X3432759Y2596540D01*
X3424986Y2583992D01*
X3418840Y2570581D01*
X3414369Y2556560D01*
X3411626Y2542032D01*
X3410712Y2527300D01*
X3411626Y2512568D01*
X3414369Y2498039D01*
X3418840Y2484018D01*
X3424986Y2470607D01*
X3432759Y2458059D01*
X3442004Y2446528D01*
X3452622Y2436266D01*
X3464407Y2427376D01*
X3477158Y2420010D01*
X3490772Y2414270D01*
X3505403Y2410053D01*
X3509264Y2408021D01*
X3511854Y2404567D01*
X3512820Y2400300D01*
X3511854Y2396032D01*
X3509264Y2392578D01*
X3505403Y2390546D01*
X3490772Y2386330D01*
X3477158Y2380589D01*
X3464407Y2373223D01*
X3452622Y2364333D01*
X3442004Y2354072D01*
X3432759Y2342540D01*
X3424986Y2329992D01*
X3418840Y2316581D01*
X3414369Y2302560D01*
X3411626Y2288032D01*
X3410712Y2273300D01*
X3411626Y2258568D01*
X3414369Y2244039D01*
X3418840Y2230018D01*
X3424986Y2216607D01*
X3432759Y2204059D01*
X3442004Y2192528D01*
X3452622Y2182266D01*
X3464407Y2173376D01*
X3477158Y2166010D01*
X3490772Y2160270D01*
X3505403Y2156053D01*
X3509264Y2154021D01*
X3511854Y2150567D01*
X3512820Y2146300D01*
X3511854Y2142032D01*
X3509264Y2138578D01*
X3505403Y2136546D01*
X3490772Y2132330D01*
X3477158Y2126589D01*
X3464407Y2119223D01*
X3452622Y2110333D01*
X3442004Y2100072D01*
X3432759Y2088540D01*
X3424986Y2075992D01*
X3418840Y2062581D01*
X3414369Y2048560D01*
X3411626Y2034032D01*
X3410712Y2019300D01*
X3411626Y2004568D01*
X3414369Y1990039D01*
X3418840Y1976018D01*
X3424986Y1962607D01*
X3432759Y1950059D01*
X3442004Y1938528D01*
X3452622Y1928266D01*
X3464407Y1919376D01*
X3477158Y1912010D01*
X3490772Y1906270D01*
X3504946Y1902206D01*
X3519525Y1899920D01*
X3534308Y1899462D01*
X3548989Y1900834D01*
X3563416Y1903984D01*
X3577336Y1908911D01*
X3590544Y1915515D01*
X3599434Y1921408D01*
X3603498Y1922983D01*
X3607815Y1922678D01*
X3611676Y1920646D01*
X3614267Y1917141D01*
X3615232Y1912924D01*
X3615232Y1747012D01*
X3614216Y1742643D01*
X3611524Y1739138D01*
X3607562Y1737156D01*
X3603142Y1737004D01*
X3599078Y1738782D01*
X3596132Y1742084D01*
X3591255Y1751025D01*
X3583178Y1761998D01*
X3573678Y1771802D01*
X3562959Y1780286D01*
X3551224Y1787194D01*
X3538677Y1792528D01*
X3525520Y1796135D01*
X3512007Y1797964D01*
X3498392Y1797964D01*
X3484879Y1796135D01*
X3471722Y1792528D01*
X3459175Y1787194D01*
X3447440Y1780286D01*
X3436721Y1771802D01*
X3427222Y1761998D01*
X3419144Y1751025D01*
X3412591Y1739087D01*
X3407714Y1726336D01*
X3404514Y1713077D01*
X3403193Y1699514D01*
X3403650Y1685899D01*
X3405886Y1672437D01*
X3409035Y1662226D01*
X3409492Y1658620D01*
X3408629Y1655064D01*
X3406546Y1652066D01*
X3048254Y1293774D01*
X3044952Y1291590D01*
X3041091Y1290828D01*
G37*

%LPC*%
G36*
X2882900Y1594002D02*
G01*
X2896514Y1594916D01*
X2909874Y1597660D01*
X2922778Y1602130D01*
X2934919Y1608277D01*
X2946146Y1615998D01*
X2956306Y1625142D01*
X2965094Y1635556D01*
X2972409Y1647037D01*
X2978150Y1659432D01*
X2982214Y1672437D01*
X2984449Y1685899D01*
X2984906Y1699514D01*
X2983585Y1713077D01*
X2980385Y1726336D01*
X2975508Y1739087D01*
X2968955Y1751025D01*
X2960878Y1761998D01*
X2951378Y1771802D01*
X2940659Y1780286D01*
X2928924Y1787194D01*
X2916377Y1792528D01*
X2903220Y1796135D01*
X2889707Y1797964D01*
X2876092Y1797964D01*
X2862580Y1796135D01*
X2849422Y1792528D01*
X2836875Y1787194D01*
X2825140Y1780286D01*
X2814421Y1771802D01*
X2804922Y1761998D01*
X2796844Y1751025D01*
X2790291Y1739087D01*
X2785414Y1726336D01*
X2782214Y1713077D01*
X2780893Y1699514D01*
X2781350Y1685899D01*
X2783586Y1672437D01*
X2787650Y1659432D01*
X2793390Y1647037D01*
X2800705Y1635556D01*
X2809494Y1625142D01*
X2819654Y1615998D01*
X2830880Y1608277D01*
X2843022Y1602130D01*
X2855925Y1597660D01*
X2869285Y1594916D01*
G37*
G36*
X3251200Y1875332D02*
G01*
X3265017Y1876196D01*
X3278581Y1878939D01*
X3291738Y1883359D01*
X3304133Y1889506D01*
X3315665Y1897176D01*
X3326079Y1906320D01*
X3335223Y1916734D01*
X3342894Y1928266D01*
X3349040Y1940661D01*
X3353460Y1953818D01*
X3356203Y1967382D01*
X3357067Y1981200D01*
X3356203Y1995017D01*
X3353460Y2008581D01*
X3349040Y2021738D01*
X3342894Y2034133D01*
X3335223Y2045665D01*
X3326079Y2056079D01*
X3315665Y2065223D01*
X3304133Y2072893D01*
X3295497Y2077161D01*
X3292500Y2079447D01*
X3290519Y2082596D01*
X3289808Y2086305D01*
X3289808Y2161286D01*
X3290722Y2165502D01*
X3293211Y2168906D01*
X3296970Y2170988D01*
X3304946Y2173478D01*
X3318814Y2179726D01*
X3331819Y2187600D01*
X3343757Y2196998D01*
X3354527Y2207717D01*
X3363874Y2219706D01*
X3371748Y2232710D01*
X3377996Y2246579D01*
X3382518Y2261057D01*
X3385261Y2276043D01*
X3386175Y2291181D01*
X3385261Y2306370D01*
X3382518Y2321356D01*
X3377996Y2335834D01*
X3371748Y2349703D01*
X3363874Y2362708D01*
X3354527Y2374696D01*
X3343757Y2385415D01*
X3331819Y2394813D01*
X3318814Y2402687D01*
X3304895Y2408936D01*
X3301746Y2411171D01*
X3299612Y2414422D01*
X3298901Y2418181D01*
X3298901Y2814218D01*
X3299612Y2817977D01*
X3301746Y2821228D01*
X3304895Y2823464D01*
X3318814Y2829712D01*
X3331819Y2837586D01*
X3343757Y2846984D01*
X3354527Y2857703D01*
X3363874Y2869692D01*
X3371748Y2882696D01*
X3377996Y2896565D01*
X3382518Y2911043D01*
X3385261Y2926029D01*
X3386175Y2941167D01*
X3385261Y2956356D01*
X3382518Y2971342D01*
X3377996Y2985820D01*
X3371748Y2999689D01*
X3363874Y3012694D01*
X3354527Y3024682D01*
X3343757Y3035401D01*
X3331819Y3044799D01*
X3318814Y3052673D01*
X3304946Y3058922D01*
X3290417Y3063443D01*
X3275482Y3066186D01*
X3260293Y3067100D01*
X3245104Y3066186D01*
X3230168Y3063443D01*
X3215640Y3058922D01*
X3201771Y3052673D01*
X3188766Y3044799D01*
X3176828Y3035401D01*
X3166059Y3024682D01*
X3156712Y3012694D01*
X3148838Y2999689D01*
X3142589Y2985820D01*
X3138068Y2971342D01*
X3135325Y2956356D01*
X3134410Y2941167D01*
X3135325Y2926029D01*
X3138068Y2911043D01*
X3142589Y2896565D01*
X3148838Y2882696D01*
X3156712Y2869692D01*
X3166059Y2857703D01*
X3176828Y2846984D01*
X3188766Y2837586D01*
X3201771Y2829712D01*
X3215690Y2823464D01*
X3218840Y2821228D01*
X3220974Y2817977D01*
X3221685Y2814218D01*
X3221685Y2418181D01*
X3220974Y2414422D01*
X3218840Y2411171D01*
X3215690Y2408936D01*
X3201771Y2402687D01*
X3188766Y2394813D01*
X3176828Y2385415D01*
X3166059Y2374696D01*
X3156712Y2362708D01*
X3148838Y2349703D01*
X3142589Y2335834D01*
X3138068Y2321356D01*
X3135325Y2306370D01*
X3134410Y2291181D01*
X3135325Y2276043D01*
X3138068Y2261057D01*
X3142589Y2246579D01*
X3148838Y2232710D01*
X3156712Y2219706D01*
X3166059Y2207717D01*
X3176828Y2196998D01*
X3188766Y2187600D01*
X3201771Y2179726D01*
X3206597Y2177592D01*
X3209747Y2175357D01*
X3211880Y2172106D01*
X3212592Y2168296D01*
X3212592Y2086305D01*
X3211880Y2082596D01*
X3209899Y2079447D01*
X3206902Y2077161D01*
X3198266Y2072893D01*
X3186734Y2065223D01*
X3176320Y2056079D01*
X3167176Y2045665D01*
X3159506Y2034133D01*
X3153359Y2021738D01*
X3148939Y2008581D01*
X3146196Y1995017D01*
X3145332Y1981200D01*
X3146196Y1967382D01*
X3148939Y1953818D01*
X3153359Y1940661D01*
X3159506Y1928266D01*
X3167176Y1916734D01*
X3176320Y1906320D01*
X3186734Y1897176D01*
X3198266Y1889506D01*
X3210661Y1883359D01*
X3223818Y1878939D01*
X3237382Y1876196D01*
G37*
G36*
X1060043Y2896158D02*
G01*
X1073556Y2896158D01*
X1086967Y2897936D01*
X1100023Y2901543D01*
X1112469Y2906776D01*
X1124102Y2913684D01*
X1134719Y2922066D01*
X1144168Y2931820D01*
X1152194Y2942691D01*
X1158697Y2954578D01*
X1163523Y2967177D01*
X1166672Y2980334D01*
X1168044Y2993796D01*
X1167587Y3007360D01*
X1165301Y3020669D01*
X1161338Y3033623D01*
X1155598Y3045866D01*
X1148334Y3057296D01*
X1139596Y3067608D01*
X1129588Y3076702D01*
X1118412Y3084322D01*
X1106322Y3090468D01*
X1093571Y3094888D01*
X1080312Y3097580D01*
X1066800Y3098495D01*
X1053287Y3097580D01*
X1040028Y3094888D01*
X1027277Y3090468D01*
X1015187Y3084322D01*
X1004011Y3076702D01*
X994003Y3067608D01*
X985266Y3057296D01*
X978001Y3045866D01*
X972261Y3033623D01*
X968298Y3020669D01*
X966012Y3007360D01*
X965555Y2993796D01*
X966927Y2980334D01*
X970076Y2967177D01*
X974902Y2954578D01*
X981405Y2942691D01*
X989431Y2931820D01*
X998880Y2922066D01*
X1009497Y2913684D01*
X1021130Y2906776D01*
X1033576Y2901543D01*
X1046632Y2897936D01*
G37*
G36*
X1568043Y2896158D02*
G01*
X1581556Y2896158D01*
X1594967Y2897936D01*
X1608023Y2901543D01*
X1620469Y2906776D01*
X1632102Y2913684D01*
X1642719Y2922066D01*
X1652168Y2931820D01*
X1660194Y2942691D01*
X1666697Y2954578D01*
X1671523Y2967177D01*
X1674672Y2980334D01*
X1676044Y2993796D01*
X1675587Y3007360D01*
X1673301Y3020669D01*
X1669338Y3033623D01*
X1663598Y3045866D01*
X1656334Y3057296D01*
X1647596Y3067608D01*
X1637588Y3076702D01*
X1626412Y3084322D01*
X1614322Y3090468D01*
X1601571Y3094888D01*
X1588312Y3097580D01*
X1574800Y3098495D01*
X1561287Y3097580D01*
X1548028Y3094888D01*
X1535277Y3090468D01*
X1523187Y3084322D01*
X1512011Y3076702D01*
X1502003Y3067608D01*
X1493266Y3057296D01*
X1486001Y3045866D01*
X1480261Y3033623D01*
X1476298Y3020669D01*
X1474012Y3007360D01*
X1473555Y2993796D01*
X1474927Y2980334D01*
X1478076Y2967177D01*
X1482902Y2954578D01*
X1489405Y2942691D01*
X1497431Y2931820D01*
X1506880Y2922066D01*
X1517497Y2913684D01*
X1529130Y2906776D01*
X1541576Y2901543D01*
X1554632Y2897936D01*
G37*
G36*
X1822043Y2896158D02*
G01*
X1835556Y2896158D01*
X1848967Y2897936D01*
X1862023Y2901543D01*
X1874469Y2906776D01*
X1886102Y2913684D01*
X1896719Y2922066D01*
X1906168Y2931820D01*
X1914194Y2942691D01*
X1920697Y2954578D01*
X1925523Y2967177D01*
X1928672Y2980334D01*
X1930044Y2993796D01*
X1929587Y3007360D01*
X1927301Y3020669D01*
X1923338Y3033623D01*
X1917598Y3045866D01*
X1910334Y3057296D01*
X1901596Y3067608D01*
X1891588Y3076702D01*
X1880412Y3084322D01*
X1868322Y3090468D01*
X1855571Y3094888D01*
X1842312Y3097580D01*
X1828800Y3098495D01*
X1815287Y3097580D01*
X1802028Y3094888D01*
X1789277Y3090468D01*
X1777187Y3084322D01*
X1766011Y3076702D01*
X1756003Y3067608D01*
X1747266Y3057296D01*
X1740001Y3045866D01*
X1734261Y3033623D01*
X1730298Y3020669D01*
X1728012Y3007360D01*
X1727555Y2993796D01*
X1728927Y2980334D01*
X1732076Y2967177D01*
X1736902Y2954578D01*
X1743405Y2942691D01*
X1751431Y2931820D01*
X1760880Y2922066D01*
X1771497Y2913684D01*
X1783130Y2906776D01*
X1795576Y2901543D01*
X1808632Y2897936D01*
G37*
G36*
X806043Y2896158D02*
G01*
X819556Y2896158D01*
X832967Y2897936D01*
X846023Y2901543D01*
X858469Y2906776D01*
X870102Y2913684D01*
X880719Y2922066D01*
X890168Y2931820D01*
X898194Y2942691D01*
X904697Y2954578D01*
X909523Y2967177D01*
X912672Y2980334D01*
X914044Y2993796D01*
X913587Y3007360D01*
X911301Y3020669D01*
X907338Y3033623D01*
X901598Y3045866D01*
X894334Y3057296D01*
X885596Y3067608D01*
X875588Y3076702D01*
X864412Y3084322D01*
X852322Y3090468D01*
X839571Y3094888D01*
X826312Y3097580D01*
X812800Y3098495D01*
X799287Y3097580D01*
X786028Y3094888D01*
X773277Y3090468D01*
X761187Y3084322D01*
X750011Y3076702D01*
X740003Y3067608D01*
X731266Y3057296D01*
X724001Y3045866D01*
X718261Y3033623D01*
X714298Y3020669D01*
X712012Y3007360D01*
X711555Y2993796D01*
X712927Y2980334D01*
X716076Y2967177D01*
X720902Y2954578D01*
X727405Y2942691D01*
X735431Y2931820D01*
X744880Y2922066D01*
X755497Y2913684D01*
X767130Y2906776D01*
X779576Y2901543D01*
X792632Y2897936D01*
G37*
G36*
X542696Y3175355D02*
G01*
X556260Y3175812D01*
X569569Y3178098D01*
X582523Y3182061D01*
X594766Y3187801D01*
X606196Y3195066D01*
X616508Y3203803D01*
X625602Y3213811D01*
X633222Y3224987D01*
X639368Y3237077D01*
X643788Y3249828D01*
X646480Y3263087D01*
X647395Y3276600D01*
X646480Y3290112D01*
X643788Y3303371D01*
X639368Y3316122D01*
X633222Y3328212D01*
X625602Y3339388D01*
X616508Y3349396D01*
X606196Y3358134D01*
X594766Y3365398D01*
X582523Y3371138D01*
X569569Y3375101D01*
X556260Y3377387D01*
X542696Y3377844D01*
X529234Y3376472D01*
X516077Y3373323D01*
X503478Y3368497D01*
X491591Y3361994D01*
X480720Y3353968D01*
X470966Y3344519D01*
X462584Y3333902D01*
X455676Y3322269D01*
X450443Y3309823D01*
X446836Y3296767D01*
X445058Y3283356D01*
X445058Y3269843D01*
X446836Y3256432D01*
X450443Y3243376D01*
X455676Y3230930D01*
X462584Y3219297D01*
X470966Y3208680D01*
X480720Y3199231D01*
X491591Y3191205D01*
X503478Y3184702D01*
X516077Y3179876D01*
X529234Y3176727D01*
G37*
G36*
X2122373Y3269843D02*
G01*
X2135479Y3269843D01*
X2148433Y3271621D01*
X2161032Y3275126D01*
X2173020Y3280359D01*
X2184196Y3287166D01*
X2194356Y3295446D01*
X2203297Y3304997D01*
X2210866Y3315665D01*
X2216861Y3327298D01*
X2221230Y3339642D01*
X2223922Y3352444D01*
X2224786Y3365500D01*
X2223922Y3378555D01*
X2221230Y3391357D01*
X2216861Y3403701D01*
X2210866Y3415334D01*
X2203297Y3426002D01*
X2194356Y3435553D01*
X2184196Y3443833D01*
X2173020Y3450640D01*
X2161032Y3455822D01*
X2148433Y3459378D01*
X2135479Y3461156D01*
X2122373Y3461156D01*
X2109419Y3459378D01*
X2096820Y3455822D01*
X2084832Y3450640D01*
X2073605Y3443833D01*
X2063496Y3435553D01*
X2054555Y3426002D01*
X2046986Y3415334D01*
X2040991Y3403701D01*
X2036572Y3391357D01*
X2033930Y3378555D01*
X2033016Y3365500D01*
X2033930Y3352444D01*
X2036572Y3339642D01*
X2040991Y3327298D01*
X2046986Y3315665D01*
X2054555Y3304997D01*
X2063496Y3295446D01*
X2073605Y3287166D01*
X2084832Y3280359D01*
X2096820Y3275126D01*
X2109419Y3271621D01*
G37*
G36*
X2438400Y3554374D02*
G01*
X2617216Y3554374D01*
X2623566Y3555085D01*
X2629001Y3557015D01*
X2633929Y3560064D01*
X2637993Y3564178D01*
X2641092Y3569055D01*
X2643022Y3574542D01*
X2643733Y3580841D01*
X2643733Y3759708D01*
X2643022Y3766058D01*
X2641092Y3771493D01*
X2637993Y3776421D01*
X2633929Y3780485D01*
X2629001Y3783584D01*
X2623566Y3785463D01*
X2617216Y3786174D01*
X2438400Y3786174D01*
X2432050Y3785463D01*
X2426614Y3783584D01*
X2421686Y3780485D01*
X2417622Y3776421D01*
X2414524Y3771493D01*
X2412593Y3766058D01*
X2411882Y3759708D01*
X2411882Y3580841D01*
X2412593Y3574542D01*
X2414524Y3569055D01*
X2417622Y3564178D01*
X2421686Y3560064D01*
X2426614Y3557015D01*
X2432050Y3555085D01*
G37*
G36*
X2130552Y3720693D02*
G01*
X2144166Y3721150D01*
X2157628Y3723386D01*
X2170633Y3727450D01*
X2183028Y3733190D01*
X2194509Y3740505D01*
X2204923Y3749294D01*
X2214067Y3759454D01*
X2221788Y3770680D01*
X2227935Y3782822D01*
X2232406Y3795725D01*
X2235098Y3809085D01*
X2236012Y3822700D01*
X2235098Y3836314D01*
X2232406Y3849674D01*
X2227935Y3862578D01*
X2221788Y3874719D01*
X2214067Y3885946D01*
X2204923Y3896106D01*
X2194509Y3904894D01*
X2183028Y3912209D01*
X2170633Y3917950D01*
X2157628Y3922014D01*
X2144166Y3924249D01*
X2130552Y3924706D01*
X2116988Y3923385D01*
X2103678Y3920185D01*
X2090978Y3915308D01*
X2078989Y3908755D01*
X2068017Y3900678D01*
X2058212Y3891178D01*
X2049780Y3880459D01*
X2042820Y3868724D01*
X2037486Y3856177D01*
X2033879Y3843020D01*
X2032101Y3829507D01*
X2032101Y3815892D01*
X2033879Y3802379D01*
X2037486Y3789222D01*
X2042820Y3776675D01*
X2049780Y3764940D01*
X2058212Y3754221D01*
X2068017Y3744722D01*
X2078989Y3736644D01*
X2090978Y3730091D01*
X2103678Y3725214D01*
X2116988Y3722014D01*
G37*
G36*
X1100531Y4152493D02*
G01*
X1114145Y4152950D01*
X1127607Y4155186D01*
X1140612Y4159250D01*
X1153007Y4164990D01*
X1164488Y4172305D01*
X1174902Y4181094D01*
X1184046Y4191254D01*
X1191768Y4202480D01*
X1197914Y4214622D01*
X1202385Y4227525D01*
X1205128Y4240885D01*
X1206042Y4254500D01*
X1205128Y4268114D01*
X1202385Y4281474D01*
X1197914Y4294378D01*
X1191768Y4306519D01*
X1184046Y4317746D01*
X1174902Y4327906D01*
X1164488Y4336694D01*
X1153007Y4344009D01*
X1140612Y4349750D01*
X1127607Y4353814D01*
X1114145Y4356049D01*
X1100531Y4356506D01*
X1086967Y4355185D01*
X1073708Y4351985D01*
X1070711Y4350867D01*
X1066901Y4350156D01*
X1063091Y4350969D01*
X1059891Y4353153D01*
X917905Y4495139D01*
X915669Y4498441D01*
X914908Y4502353D01*
X914908Y4550613D01*
X915669Y4554524D01*
X917905Y4557826D01*
X921156Y4560011D01*
X925068Y4560773D01*
X975715Y4560773D01*
X982065Y4561484D01*
X987501Y4563414D01*
X992428Y4566513D01*
X996492Y4570577D01*
X999591Y4575505D01*
X1001521Y4580940D01*
X1002233Y4587290D01*
X1002233Y4836109D01*
X1001521Y4842459D01*
X999591Y4847894D01*
X996492Y4852822D01*
X992428Y4856886D01*
X987501Y4859985D01*
X982065Y4861915D01*
X975715Y4862626D01*
X776884Y4862626D01*
X770534Y4861915D01*
X765098Y4859985D01*
X760171Y4856886D01*
X756107Y4852822D01*
X753008Y4847894D01*
X751128Y4842459D01*
X750417Y4836109D01*
X750417Y4587290D01*
X751128Y4580940D01*
X753008Y4575505D01*
X756107Y4570577D01*
X760171Y4566513D01*
X765098Y4563414D01*
X770534Y4561484D01*
X776884Y4560773D01*
X827532Y4560773D01*
X831443Y4560011D01*
X834694Y4557826D01*
X836930Y4554524D01*
X837692Y4550613D01*
X837692Y4482642D01*
X838504Y4474616D01*
X840689Y4467402D01*
X844245Y4460697D01*
X849376Y4454499D01*
X1005128Y4298696D01*
X1007160Y4295800D01*
X1008075Y4292346D01*
X1007770Y4288790D01*
X1003909Y4274820D01*
X1002080Y4261307D01*
X1002080Y4247692D01*
X1003909Y4234180D01*
X1007516Y4221022D01*
X1012850Y4208475D01*
X1019759Y4196740D01*
X1028242Y4186021D01*
X1038047Y4176522D01*
X1049020Y4168444D01*
X1060958Y4161891D01*
X1073708Y4157014D01*
X1086967Y4153814D01*
G37*
G36*
X2526792Y4316374D02*
G01*
X2541320Y4317288D01*
X2555595Y4320032D01*
X2569464Y4324553D01*
X2582621Y4330750D01*
X2594914Y4338523D01*
X2606141Y4347819D01*
X2616098Y4358436D01*
X2624632Y4370171D01*
X2631643Y4382922D01*
X2637028Y4396486D01*
X2640634Y4410557D01*
X2642463Y4424984D01*
X2642463Y4439564D01*
X2640634Y4453991D01*
X2637028Y4468114D01*
X2631643Y4481626D01*
X2624632Y4494377D01*
X2616098Y4506163D01*
X2606141Y4516780D01*
X2594914Y4526026D01*
X2582621Y4533849D01*
X2569464Y4540046D01*
X2555595Y4544517D01*
X2541320Y4547260D01*
X2526792Y4548174D01*
X2512263Y4547260D01*
X2497988Y4544517D01*
X2484120Y4540046D01*
X2470962Y4533849D01*
X2458669Y4526026D01*
X2447442Y4516780D01*
X2437485Y4506163D01*
X2428951Y4494377D01*
X2421940Y4481626D01*
X2416556Y4468114D01*
X2412949Y4453991D01*
X2411120Y4439564D01*
X2411120Y4424984D01*
X2412949Y4410557D01*
X2416556Y4396486D01*
X2421940Y4382922D01*
X2428951Y4370171D01*
X2437485Y4358436D01*
X2447442Y4347819D01*
X2458669Y4338523D01*
X2470962Y4330750D01*
X2484120Y4324553D01*
X2497988Y4320032D01*
X2512263Y4317288D01*
G37*
G36*
X2780792Y4316374D02*
G01*
X2795320Y4317288D01*
X2809646Y4320032D01*
X2823464Y4324553D01*
X2836621Y4330750D01*
X2848914Y4338523D01*
X2860141Y4347819D01*
X2870098Y4358436D01*
X2878632Y4370171D01*
X2885643Y4382922D01*
X2891028Y4396486D01*
X2894634Y4410557D01*
X2896463Y4424984D01*
X2896463Y4439564D01*
X2894634Y4453991D01*
X2891028Y4468114D01*
X2885643Y4481626D01*
X2878632Y4494377D01*
X2870098Y4506163D01*
X2860141Y4516780D01*
X2848914Y4526026D01*
X2836621Y4533849D01*
X2823464Y4540046D01*
X2809646Y4544517D01*
X2795320Y4547260D01*
X2780792Y4548174D01*
X2766263Y4547260D01*
X2751988Y4544517D01*
X2738120Y4540046D01*
X2724962Y4533849D01*
X2712669Y4526026D01*
X2701493Y4516780D01*
X2691485Y4506163D01*
X2682951Y4494377D01*
X2675940Y4481626D01*
X2670606Y4468114D01*
X2666949Y4453991D01*
X2665120Y4439564D01*
X2665120Y4424984D01*
X2666949Y4410557D01*
X2670606Y4396486D01*
X2675940Y4382922D01*
X2682951Y4370171D01*
X2691485Y4358436D01*
X2701493Y4347819D01*
X2712669Y4338523D01*
X2724962Y4330750D01*
X2738120Y4324553D01*
X2751988Y4320032D01*
X2766263Y4317288D01*
G37*
G36*
X368300Y4560824D02*
G01*
X383489Y4561738D01*
X398424Y4564481D01*
X412953Y4569002D01*
X426821Y4575251D01*
X439826Y4583074D01*
X451764Y4592472D01*
X462534Y4603242D01*
X471932Y4615180D01*
X479755Y4628184D01*
X486003Y4642053D01*
X490524Y4656582D01*
X493268Y4671517D01*
X494233Y4687011D01*
X494233Y4736388D01*
X493268Y4751882D01*
X490524Y4766818D01*
X486003Y4781346D01*
X479755Y4795215D01*
X471932Y4808220D01*
X462534Y4820158D01*
X451764Y4830927D01*
X439826Y4840325D01*
X426821Y4848148D01*
X412953Y4854397D01*
X398424Y4858918D01*
X383489Y4861661D01*
X368300Y4862576D01*
X353110Y4861661D01*
X338175Y4858918D01*
X323646Y4854397D01*
X309778Y4848148D01*
X296773Y4840325D01*
X284835Y4830927D01*
X274066Y4820158D01*
X264718Y4808220D01*
X256844Y4795215D01*
X250596Y4781346D01*
X246075Y4766818D01*
X243332Y4751882D01*
X242417Y4736388D01*
X242417Y4687011D01*
X243332Y4671517D01*
X246075Y4656582D01*
X250596Y4642053D01*
X256844Y4628184D01*
X264718Y4615180D01*
X274066Y4603242D01*
X284835Y4592472D01*
X296773Y4583074D01*
X309778Y4575251D01*
X323646Y4569002D01*
X338175Y4564481D01*
X353110Y4561738D01*
G37*
G36*
X1593850Y4638903D02*
G01*
X1608023Y4639818D01*
X1621993Y4642561D01*
X1635455Y4647031D01*
X1648256Y4653178D01*
X1660194Y4660950D01*
X1671015Y4670145D01*
X1680565Y4680661D01*
X1688693Y4692294D01*
X1695246Y4704892D01*
X1700174Y4718253D01*
X1703324Y4732121D01*
X1704695Y4746244D01*
X1704238Y4760468D01*
X1701952Y4774488D01*
X1697939Y4788103D01*
X1692148Y4801108D01*
X1684782Y4813249D01*
X1675942Y4824374D01*
X1665732Y4834229D01*
X1654352Y4842713D01*
X1641957Y4849723D01*
X1628800Y4855057D01*
X1615033Y4858664D01*
X1600962Y4860442D01*
X1586738Y4860442D01*
X1572666Y4858664D01*
X1558899Y4855057D01*
X1545742Y4849723D01*
X1533347Y4842713D01*
X1521968Y4834229D01*
X1511757Y4824374D01*
X1502918Y4813249D01*
X1495552Y4801108D01*
X1489811Y4788103D01*
X1485747Y4774488D01*
X1483461Y4760468D01*
X1483004Y4746244D01*
X1484376Y4732121D01*
X1487525Y4718253D01*
X1492453Y4704892D01*
X1499006Y4692294D01*
X1507134Y4680661D01*
X1516684Y4670145D01*
X1527505Y4660950D01*
X1539443Y4653178D01*
X1552244Y4647031D01*
X1565706Y4642561D01*
X1579676Y4639818D01*
G37*
G36*
X2325979Y4654143D02*
G01*
X2339035Y4654143D01*
X2351989Y4655921D01*
X2364587Y4659426D01*
X2376627Y4664659D01*
X2387803Y4671466D01*
X2397963Y4679746D01*
X2406853Y4689297D01*
X2414422Y4699965D01*
X2420467Y4711598D01*
X2424836Y4723942D01*
X2427478Y4736744D01*
X2428392Y4749800D01*
X2427478Y4762855D01*
X2424836Y4775657D01*
X2420467Y4788001D01*
X2414422Y4799634D01*
X2406853Y4810302D01*
X2397963Y4819853D01*
X2387803Y4828133D01*
X2376627Y4834940D01*
X2364587Y4840122D01*
X2351989Y4843678D01*
X2339035Y4845456D01*
X2325979Y4845456D01*
X2312974Y4843678D01*
X2300376Y4840122D01*
X2288387Y4834940D01*
X2277211Y4828133D01*
X2267051Y4819853D01*
X2258110Y4810302D01*
X2250592Y4799634D01*
X2244547Y4788001D01*
X2240178Y4775657D01*
X2237486Y4762855D01*
X2236622Y4749800D01*
X2237486Y4736744D01*
X2240178Y4723942D01*
X2244547Y4711598D01*
X2250592Y4699965D01*
X2258110Y4689297D01*
X2267051Y4679746D01*
X2277211Y4671466D01*
X2288387Y4664659D01*
X2300376Y4659426D01*
X2312974Y4655921D01*
G37*

%LPD*%
G36*
X1469491Y49987D02*
G01*
X1465122Y51003D01*
X1461617Y53746D01*
X1459585Y57759D01*
X1459534Y62230D01*
X1461363Y66294D01*
X1464767Y69189D01*
X1468120Y70916D01*
X1471930Y73304D01*
X1475486Y76047D01*
X1478940Y79197D01*
X1556410Y156667D01*
X1559052Y158597D01*
X1562252Y159562D01*
X1565503Y159461D01*
X1579676Y156718D01*
X1593850Y155803D01*
X1608023Y156718D01*
X1621993Y159461D01*
X1635455Y163931D01*
X1648256Y170078D01*
X1660194Y177850D01*
X1671015Y187045D01*
X1680565Y197561D01*
X1688693Y209194D01*
X1695246Y221792D01*
X1700174Y235153D01*
X1703324Y249021D01*
X1704695Y263144D01*
X1704238Y277368D01*
X1701952Y291388D01*
X1697939Y305003D01*
X1692148Y318008D01*
X1684782Y330149D01*
X1675942Y341274D01*
X1665732Y351129D01*
X1654352Y359613D01*
X1641957Y366623D01*
X1628800Y371957D01*
X1615033Y375564D01*
X1600962Y377342D01*
X1586738Y377342D01*
X1572666Y375564D01*
X1558899Y371957D01*
X1545742Y366623D01*
X1533347Y359613D01*
X1521968Y351129D01*
X1511757Y341274D01*
X1502918Y330149D01*
X1495552Y318008D01*
X1489811Y305003D01*
X1485747Y291388D01*
X1483461Y277368D01*
X1483004Y263144D01*
X1484376Y249021D01*
X1486712Y238861D01*
X1486916Y235458D01*
X1485950Y232156D01*
X1483969Y229412D01*
X1424228Y169621D01*
X1420926Y167436D01*
X1417015Y166674D01*
X1203198Y166674D01*
X1199286Y167436D01*
X1195984Y169621D01*
X765352Y600303D01*
X763117Y603605D01*
X762355Y607517D01*
X763168Y611378D01*
X765352Y614680D01*
X768705Y616864D01*
X772566Y617626D01*
X776478Y616813D01*
X779576Y615543D01*
X792632Y611936D01*
X806043Y610158D01*
X819556Y610158D01*
X832967Y611936D01*
X846023Y615543D01*
X858469Y620776D01*
X870102Y627684D01*
X880719Y636066D01*
X890168Y645820D01*
X898194Y656691D01*
X904697Y668578D01*
X909523Y681177D01*
X912672Y694334D01*
X914044Y707796D01*
X913587Y721360D01*
X911301Y734669D01*
X907338Y747623D01*
X901598Y759866D01*
X894334Y771296D01*
X885596Y781608D01*
X875588Y790702D01*
X864412Y798322D01*
X852322Y804468D01*
X839571Y808888D01*
X826312Y811580D01*
X812800Y812495D01*
X799287Y811580D01*
X786028Y808888D01*
X773277Y804468D01*
X761187Y798322D01*
X750011Y790702D01*
X740003Y781608D01*
X731266Y771296D01*
X724001Y759866D01*
X718261Y747623D01*
X714298Y734669D01*
X712012Y721360D01*
X711555Y707796D01*
X712927Y694334D01*
X716076Y681177D01*
X718667Y674471D01*
X719328Y670610D01*
X718464Y666750D01*
X716229Y663549D01*
X712978Y661416D01*
X709117Y660654D01*
X705256Y661466D01*
X702005Y663651D01*
X382981Y982675D01*
X380746Y985926D01*
X379984Y989837D01*
X380746Y993749D01*
X382981Y997000D01*
X386283Y999236D01*
X390144Y999998D01*
X805281Y999998D01*
X809142Y999236D01*
X812444Y997000D01*
X814679Y993749D01*
X815441Y989837D01*
X815441Y974598D01*
X816152Y968298D01*
X818032Y962812D01*
X821131Y957935D01*
X825246Y953820D01*
X830122Y950772D01*
X835609Y948842D01*
X841908Y948131D01*
X980744Y948131D01*
X987094Y948842D01*
X992530Y950772D01*
X997458Y953820D01*
X1001521Y957935D01*
X1002741Y959815D01*
X1005535Y962761D01*
X1009294Y964387D01*
X1013358Y964387D01*
X1017117Y962761D01*
X1019962Y959815D01*
X1021130Y957935D01*
X1025245Y953820D01*
X1030122Y950772D01*
X1035608Y948842D01*
X1041908Y948131D01*
X1062583Y948131D01*
X1066495Y947369D01*
X1069746Y945184D01*
X1071981Y941882D01*
X1072743Y937971D01*
X1072743Y822401D01*
X1072032Y818641D01*
X1070000Y815441D01*
X1066952Y813206D01*
X1063244Y812241D01*
X1053287Y811580D01*
X1040028Y808888D01*
X1027277Y804468D01*
X1015187Y798322D01*
X1004011Y790702D01*
X994003Y781608D01*
X985266Y771296D01*
X978001Y759866D01*
X972261Y747623D01*
X968298Y734669D01*
X966012Y721360D01*
X965555Y707796D01*
X966927Y694334D01*
X970076Y681177D01*
X974902Y668578D01*
X981405Y656691D01*
X989431Y645820D01*
X998880Y636066D01*
X1009497Y627684D01*
X1021130Y620776D01*
X1033576Y615543D01*
X1046632Y611936D01*
X1060043Y610158D01*
X1073556Y610158D01*
X1086967Y611936D01*
X1100023Y615543D01*
X1112469Y620776D01*
X1124102Y627684D01*
X1134719Y636066D01*
X1144168Y645820D01*
X1152194Y656691D01*
X1158697Y668578D01*
X1163523Y681177D01*
X1166672Y694334D01*
X1168044Y707796D01*
X1167587Y721360D01*
X1165301Y734669D01*
X1161338Y747623D01*
X1155598Y759866D01*
X1151534Y766267D01*
X1150366Y768858D01*
X1149959Y771702D01*
X1149959Y937971D01*
X1150721Y941882D01*
X1152956Y945184D01*
X1156208Y947369D01*
X1160119Y948131D01*
X1180744Y948131D01*
X1187094Y948842D01*
X1192530Y950772D01*
X1197457Y953820D01*
X1201521Y957935D01*
X1202740Y959815D01*
X1205534Y962761D01*
X1209294Y964387D01*
X1213358Y964387D01*
X1217117Y962761D01*
X1219962Y959815D01*
X1221130Y957935D01*
X1225245Y953820D01*
X1230122Y950772D01*
X1235608Y948842D01*
X1241907Y948131D01*
X1380744Y948131D01*
X1387094Y948842D01*
X1392529Y950772D01*
X1397457Y953820D01*
X1401521Y957935D01*
X1402740Y959815D01*
X1405534Y962761D01*
X1409293Y964387D01*
X1413357Y964387D01*
X1417116Y962761D01*
X1419961Y959815D01*
X1421130Y957935D01*
X1425244Y953820D01*
X1430121Y950772D01*
X1435608Y948842D01*
X1441907Y948131D01*
X1580743Y948131D01*
X1587093Y948842D01*
X1592529Y950772D01*
X1597456Y953820D01*
X1601520Y957935D01*
X1602740Y959815D01*
X1605534Y962761D01*
X1609293Y964387D01*
X1613357Y964387D01*
X1617116Y962761D01*
X1619961Y959815D01*
X1621129Y957935D01*
X1625244Y953820D01*
X1630121Y950772D01*
X1635607Y948842D01*
X1641906Y948131D01*
X1780793Y948131D01*
X1787093Y948842D01*
X1792528Y950772D01*
X1797456Y953820D01*
X1801520Y957935D01*
X1802739Y959815D01*
X1805533Y962761D01*
X1809292Y964387D01*
X1813356Y964387D01*
X1817116Y962761D01*
X1819960Y959815D01*
X1821129Y957935D01*
X1825243Y953820D01*
X1830120Y950772D01*
X1835607Y948842D01*
X1841906Y948131D01*
X1980793Y948131D01*
X1987092Y948842D01*
X1992528Y950772D01*
X1997456Y953820D01*
X2001520Y957935D01*
X2002739Y959815D01*
X2005533Y962761D01*
X2009292Y964387D01*
X2013356Y964387D01*
X2017115Y962761D01*
X2019960Y959815D01*
X2021128Y957935D01*
X2025243Y953820D01*
X2030120Y950772D01*
X2035606Y948842D01*
X2041906Y948131D01*
X2180793Y948131D01*
X2187092Y948842D01*
X2192528Y950772D01*
X2197455Y953820D01*
X2201519Y957935D01*
X2202738Y959866D01*
X2205583Y962812D01*
X2209342Y964437D01*
X2213406Y964437D01*
X2217166Y962812D01*
X2219960Y959866D01*
X2221128Y958037D01*
X2225243Y953922D01*
X2230120Y950823D01*
X2235606Y948944D01*
X2241905Y948232D01*
X2263343Y948232D01*
X2267000Y947521D01*
X2270201Y945591D01*
X2272436Y942644D01*
X2275687Y931468D01*
X2279243Y924763D01*
X2284069Y918921D01*
X2289911Y914146D01*
X2296566Y910590D01*
X2303780Y908405D01*
X2311806Y907592D01*
X2335580Y907592D01*
X2339492Y906830D01*
X2342794Y904595D01*
X2492756Y754634D01*
X2494838Y751636D01*
X2495753Y748080D01*
X2495296Y744423D01*
X2492298Y734669D01*
X2490012Y721360D01*
X2489555Y707796D01*
X2490927Y694334D01*
X2494076Y681177D01*
X2498902Y668578D01*
X2505405Y656691D01*
X2513431Y645820D01*
X2522880Y636066D01*
X2533497Y627684D01*
X2545130Y620776D01*
X2557576Y615543D01*
X2570632Y611936D01*
X2584043Y610158D01*
X2597556Y610158D01*
X2610967Y611936D01*
X2624023Y615543D01*
X2636469Y620776D01*
X2648102Y627684D01*
X2658719Y636066D01*
X2668168Y645820D01*
X2676194Y656691D01*
X2682697Y668578D01*
X2687523Y681177D01*
X2690672Y694334D01*
X2692044Y707796D01*
X2691587Y721360D01*
X2689301Y734669D01*
X2685338Y747623D01*
X2679598Y759866D01*
X2672334Y771296D01*
X2663596Y781608D01*
X2653588Y790702D01*
X2642412Y798322D01*
X2630322Y804468D01*
X2617571Y808888D01*
X2604312Y811580D01*
X2590800Y812495D01*
X2577287Y811580D01*
X2564028Y808888D01*
X2557932Y806754D01*
X2554224Y806196D01*
X2550515Y807059D01*
X2547416Y809193D01*
X2406142Y950468D01*
X2403754Y954227D01*
X2403195Y958697D01*
X2406548Y968400D01*
X2407259Y974699D01*
X2407259Y1203452D01*
X2408021Y1207312D01*
X2410206Y1210614D01*
X2413508Y1212799D01*
X2417419Y1213612D01*
X3060801Y1213612D01*
X3068828Y1214374D01*
X3076041Y1216558D01*
X3082696Y1220114D01*
X3088944Y1225245D01*
X3461207Y1597507D01*
X3464306Y1599641D01*
X3467963Y1600454D01*
X3471722Y1599895D01*
X3478225Y1597660D01*
X3491585Y1594916D01*
X3505200Y1594002D01*
X3518814Y1594916D01*
X3532174Y1597660D01*
X3545078Y1602130D01*
X3557219Y1608277D01*
X3568446Y1615998D01*
X3578606Y1625142D01*
X3587394Y1635556D01*
X3594709Y1647037D01*
X3595827Y1649425D01*
X3598113Y1652574D01*
X3601465Y1654657D01*
X3605276Y1655318D01*
X3609086Y1654454D01*
X3612337Y1652270D01*
X3614470Y1648968D01*
X3615232Y1645157D01*
X3615232Y834898D01*
X3614420Y831037D01*
X3612235Y827735D01*
X3549396Y764895D01*
X3546500Y762863D01*
X3543046Y761949D01*
X3539490Y762304D01*
X3525520Y766165D01*
X3512007Y767943D01*
X3498392Y767943D01*
X3484879Y766114D01*
X3471722Y762558D01*
X3459175Y757224D01*
X3447440Y750265D01*
X3436721Y741832D01*
X3427222Y732028D01*
X3419144Y721055D01*
X3412591Y709066D01*
X3407714Y696366D01*
X3404514Y683056D01*
X3403193Y669493D01*
X3403650Y655878D01*
X3405886Y642416D01*
X3409950Y629412D01*
X3415690Y617016D01*
X3423005Y605536D01*
X3431794Y595122D01*
X3441954Y585978D01*
X3453180Y578256D01*
X3465322Y572109D01*
X3478225Y567639D01*
X3491585Y564946D01*
X3505200Y564032D01*
X3518814Y564946D01*
X3532174Y567639D01*
X3545078Y572109D01*
X3557219Y578256D01*
X3568446Y585978D01*
X3578606Y595122D01*
X3587394Y605536D01*
X3594709Y617016D01*
X3600450Y629412D01*
X3604514Y642416D01*
X3606749Y655878D01*
X3607206Y669493D01*
X3605885Y683056D01*
X3602685Y696366D01*
X3601567Y699312D01*
X3600856Y703122D01*
X3601669Y706932D01*
X3603853Y710133D01*
X3632657Y738936D01*
X3635959Y741121D01*
X3639820Y741934D01*
X3643731Y741121D01*
X3647033Y738936D01*
X3649218Y735634D01*
X3649979Y731774D01*
X3649979Y60147D01*
X3649218Y56286D01*
X3647033Y52984D01*
X3643731Y50749D01*
X3639820Y49987D01*
G37*

%LPC*%
G36*
X3508806Y151993D02*
G01*
X3522421Y152450D01*
X3535883Y154686D01*
X3548887Y158750D01*
X3561283Y164490D01*
X3572764Y171805D01*
X3583178Y180594D01*
X3592322Y190754D01*
X3600043Y201980D01*
X3606190Y214121D01*
X3610660Y227025D01*
X3613353Y240385D01*
X3614267Y254000D01*
X3613353Y267614D01*
X3610660Y280974D01*
X3606190Y293878D01*
X3600043Y306019D01*
X3592322Y317246D01*
X3583178Y327406D01*
X3572764Y336194D01*
X3561283Y343509D01*
X3548887Y349250D01*
X3535883Y353314D01*
X3522421Y355549D01*
X3508806Y356006D01*
X3495243Y354685D01*
X3481933Y351485D01*
X3469233Y346608D01*
X3457244Y340055D01*
X3446272Y331978D01*
X3436467Y322478D01*
X3428034Y311759D01*
X3421075Y300024D01*
X3415741Y287477D01*
X3412185Y274320D01*
X3410356Y260807D01*
X3410356Y247192D01*
X3412185Y233679D01*
X3415741Y220522D01*
X3421075Y207975D01*
X3428034Y196240D01*
X3436467Y185521D01*
X3446272Y176022D01*
X3457244Y167944D01*
X3469233Y161391D01*
X3481933Y156514D01*
X3495243Y153314D01*
G37*
G36*
X2478786Y151993D02*
G01*
X2492400Y152450D01*
X2505862Y154686D01*
X2518867Y158750D01*
X2531262Y164490D01*
X2542743Y171805D01*
X2553157Y180594D01*
X2562301Y190754D01*
X2570022Y201980D01*
X2576169Y214121D01*
X2580640Y227025D01*
X2583383Y240385D01*
X2584297Y254000D01*
X2583383Y267614D01*
X2580640Y280974D01*
X2576169Y293878D01*
X2570022Y306019D01*
X2562301Y317246D01*
X2553157Y327406D01*
X2542743Y336194D01*
X2531262Y343509D01*
X2518867Y349250D01*
X2505862Y353314D01*
X2492400Y355549D01*
X2478786Y356006D01*
X2465222Y354685D01*
X2451963Y351485D01*
X2439212Y346608D01*
X2427274Y340055D01*
X2416302Y331978D01*
X2406497Y322478D01*
X2398014Y311759D01*
X2391105Y300024D01*
X2385771Y287477D01*
X2382164Y274320D01*
X2380335Y260807D01*
X2380335Y247192D01*
X2382164Y233679D01*
X2385771Y220522D01*
X2391105Y207975D01*
X2398014Y196240D01*
X2406497Y185521D01*
X2416302Y176022D01*
X2427274Y167944D01*
X2439212Y161391D01*
X2451963Y156514D01*
X2465222Y153314D01*
G37*
G36*
X2882900Y564032D02*
G01*
X2896514Y564946D01*
X2909874Y567639D01*
X2922778Y572109D01*
X2934919Y578256D01*
X2946146Y585978D01*
X2956306Y595122D01*
X2965094Y605536D01*
X2972409Y617016D01*
X2978150Y629412D01*
X2982214Y642416D01*
X2984449Y655878D01*
X2984906Y669493D01*
X2983585Y683056D01*
X2980385Y696366D01*
X2975508Y709066D01*
X2968955Y721055D01*
X2960878Y732028D01*
X2951378Y741832D01*
X2940659Y750265D01*
X2928924Y757224D01*
X2916377Y762558D01*
X2903220Y766114D01*
X2889707Y767943D01*
X2876092Y767943D01*
X2862580Y766114D01*
X2849422Y762558D01*
X2836875Y757224D01*
X2825140Y750265D01*
X2814421Y741832D01*
X2804922Y732028D01*
X2796844Y721055D01*
X2790291Y709066D01*
X2785414Y696366D01*
X2782214Y683056D01*
X2780893Y669493D01*
X2781350Y655878D01*
X2783586Y642416D01*
X2787650Y629412D01*
X2793390Y617016D01*
X2800705Y605536D01*
X2809494Y595122D01*
X2819654Y585978D01*
X2830880Y578256D01*
X2843022Y572109D01*
X2855925Y567639D01*
X2869285Y564946D01*
G37*
G36*
X3194050Y570382D02*
G01*
X3207664Y571296D01*
X3221024Y573989D01*
X3233877Y578459D01*
X3246069Y584606D01*
X3257296Y592328D01*
X3267405Y601472D01*
X3276244Y611886D01*
X3283559Y623366D01*
X3289300Y635762D01*
X3293364Y648766D01*
X3295599Y662228D01*
X3296056Y675843D01*
X3294684Y689406D01*
X3291535Y702716D01*
X3286658Y715416D01*
X3280105Y727405D01*
X3272028Y738378D01*
X3262528Y748182D01*
X3251809Y756615D01*
X3240074Y763574D01*
X3227527Y768908D01*
X3214370Y772464D01*
X3200857Y774293D01*
X3187242Y774293D01*
X3173730Y772464D01*
X3160572Y768908D01*
X3148025Y763574D01*
X3136290Y756615D01*
X3125571Y748182D01*
X3116072Y738378D01*
X3107994Y727405D01*
X3101441Y715416D01*
X3096564Y702716D01*
X3093364Y689406D01*
X3091992Y675843D01*
X3092450Y662228D01*
X3094736Y648766D01*
X3098800Y635762D01*
X3104540Y623366D01*
X3111855Y611886D01*
X3120644Y601472D01*
X3130753Y592328D01*
X3142030Y584606D01*
X3154172Y578459D01*
X3167075Y573989D01*
X3180435Y571296D01*
G37*
G36*
X2330043Y610158D02*
G01*
X2343556Y610158D01*
X2356967Y611936D01*
X2370023Y615543D01*
X2382469Y620776D01*
X2394102Y627684D01*
X2404719Y636066D01*
X2414168Y645820D01*
X2422194Y656691D01*
X2428697Y668578D01*
X2433523Y681177D01*
X2436672Y694334D01*
X2438044Y707796D01*
X2437587Y721360D01*
X2435301Y734669D01*
X2431338Y747623D01*
X2425598Y759866D01*
X2418334Y771296D01*
X2409596Y781608D01*
X2399588Y790702D01*
X2388412Y798322D01*
X2376322Y804468D01*
X2363571Y808888D01*
X2350312Y811580D01*
X2336800Y812495D01*
X2323287Y811580D01*
X2310028Y808888D01*
X2297277Y804468D01*
X2285187Y798322D01*
X2274011Y790702D01*
X2264003Y781608D01*
X2255266Y771296D01*
X2248001Y759866D01*
X2242261Y747623D01*
X2238298Y734669D01*
X2236012Y721360D01*
X2235555Y707796D01*
X2236927Y694334D01*
X2240076Y681177D01*
X2244902Y668578D01*
X2251405Y656691D01*
X2259431Y645820D01*
X2268880Y636066D01*
X2279497Y627684D01*
X2291130Y620776D01*
X2303576Y615543D01*
X2316632Y611936D01*
G37*
G36*
X2076043Y610158D02*
G01*
X2089556Y610158D01*
X2102967Y611936D01*
X2116023Y615543D01*
X2128469Y620776D01*
X2140102Y627684D01*
X2150719Y636066D01*
X2160168Y645820D01*
X2168194Y656691D01*
X2174697Y668578D01*
X2179523Y681177D01*
X2182672Y694334D01*
X2184044Y707796D01*
X2183587Y721360D01*
X2181301Y734669D01*
X2177338Y747623D01*
X2171598Y759866D01*
X2164334Y771296D01*
X2155596Y781608D01*
X2145588Y790702D01*
X2134412Y798322D01*
X2122322Y804468D01*
X2109571Y808888D01*
X2096312Y811580D01*
X2082800Y812495D01*
X2069287Y811580D01*
X2056028Y808888D01*
X2043277Y804468D01*
X2031187Y798322D01*
X2020011Y790702D01*
X2010003Y781608D01*
X2001266Y771296D01*
X1994001Y759866D01*
X1988261Y747623D01*
X1984298Y734669D01*
X1982012Y721360D01*
X1981555Y707796D01*
X1982927Y694334D01*
X1986076Y681177D01*
X1990902Y668578D01*
X1997405Y656691D01*
X2005431Y645820D01*
X2014880Y636066D01*
X2025497Y627684D01*
X2037130Y620776D01*
X2049576Y615543D01*
X2062632Y611936D01*
G37*
G36*
X1568043Y610158D02*
G01*
X1581556Y610158D01*
X1594967Y611936D01*
X1608023Y615543D01*
X1620469Y620776D01*
X1632102Y627684D01*
X1642719Y636066D01*
X1652168Y645820D01*
X1660194Y656691D01*
X1666697Y668578D01*
X1671523Y681177D01*
X1674672Y694334D01*
X1676044Y707796D01*
X1675587Y721360D01*
X1673301Y734669D01*
X1669338Y747623D01*
X1663598Y759866D01*
X1656334Y771296D01*
X1647596Y781608D01*
X1637588Y790702D01*
X1626412Y798322D01*
X1614322Y804468D01*
X1601571Y808888D01*
X1588312Y811580D01*
X1574800Y812495D01*
X1561287Y811580D01*
X1548028Y808888D01*
X1535277Y804468D01*
X1523187Y798322D01*
X1512011Y790702D01*
X1502003Y781608D01*
X1493266Y771296D01*
X1486001Y759866D01*
X1480261Y747623D01*
X1476298Y734669D01*
X1474012Y721360D01*
X1473555Y707796D01*
X1474927Y694334D01*
X1478076Y681177D01*
X1482902Y668578D01*
X1489405Y656691D01*
X1497431Y645820D01*
X1506880Y636066D01*
X1517497Y627684D01*
X1529130Y620776D01*
X1541576Y615543D01*
X1554632Y611936D01*
G37*
G36*
X1822043Y610158D02*
G01*
X1835556Y610158D01*
X1848967Y611936D01*
X1862023Y615543D01*
X1874469Y620776D01*
X1886102Y627684D01*
X1896719Y636066D01*
X1906168Y645820D01*
X1914194Y656691D01*
X1920697Y668578D01*
X1925523Y681177D01*
X1928672Y694334D01*
X1930044Y707796D01*
X1929587Y721360D01*
X1927301Y734669D01*
X1923338Y747623D01*
X1917598Y759866D01*
X1910334Y771296D01*
X1901596Y781608D01*
X1891588Y790702D01*
X1880412Y798322D01*
X1868322Y804468D01*
X1855571Y808888D01*
X1842312Y811580D01*
X1828800Y812495D01*
X1815287Y811580D01*
X1802028Y808888D01*
X1789277Y804468D01*
X1777187Y798322D01*
X1766011Y790702D01*
X1756003Y781608D01*
X1747266Y771296D01*
X1740001Y759866D01*
X1734261Y747623D01*
X1730298Y734669D01*
X1728012Y721360D01*
X1727555Y707796D01*
X1728927Y694334D01*
X1732076Y681177D01*
X1736902Y668578D01*
X1743405Y656691D01*
X1751431Y645820D01*
X1760880Y636066D01*
X1771497Y627684D01*
X1783130Y620776D01*
X1795576Y615543D01*
X1808632Y611936D01*
G37*
G36*
X1314043Y610158D02*
G01*
X1327556Y610158D01*
X1340967Y611936D01*
X1354023Y615543D01*
X1366469Y620776D01*
X1378102Y627684D01*
X1388719Y636066D01*
X1398168Y645820D01*
X1406194Y656691D01*
X1412697Y668578D01*
X1417523Y681177D01*
X1420672Y694334D01*
X1422044Y707796D01*
X1421587Y721360D01*
X1419301Y734669D01*
X1415338Y747623D01*
X1409598Y759866D01*
X1402334Y771296D01*
X1393596Y781608D01*
X1383588Y790702D01*
X1372412Y798322D01*
X1360322Y804468D01*
X1347571Y808888D01*
X1334312Y811580D01*
X1320800Y812495D01*
X1307287Y811580D01*
X1294028Y808888D01*
X1281277Y804468D01*
X1269187Y798322D01*
X1258011Y790702D01*
X1248003Y781608D01*
X1239266Y771296D01*
X1232001Y759866D01*
X1226261Y747623D01*
X1222298Y734669D01*
X1220012Y721360D01*
X1219555Y707796D01*
X1220927Y694334D01*
X1224076Y681177D01*
X1228902Y668578D01*
X1235405Y656691D01*
X1243431Y645820D01*
X1252880Y636066D01*
X1263497Y627684D01*
X1275130Y620776D01*
X1287576Y615543D01*
X1300632Y611936D01*
G37*

%LPD*%
D10*
X2111324Y2456309D02*
G01*
X2111629Y2456004D01*
X2548407Y2456004D01*
X2555798Y2448613D01*
X2555798Y2340714D01*
X3194050Y1702462D01*
X2111324Y2609217D02*
G01*
X2111324Y2456309D01*
X1511350Y1099060D02*
G01*
X1511350Y1251968D01*
X2810306Y2291209D02*
G01*
X2810306Y2941195D01*
X911352Y1550723D02*
G01*
X911352Y1099060D01*
X1111351Y2609242D02*
G01*
X1111351Y2456334D01*
X1111351Y2456334D02*
G01*
X1191260Y2456334D01*
X1205636Y2441958D01*
X911352Y2609268D02*
G01*
X911352Y2456360D01*
X911352Y2456360D02*
G01*
X911352Y2438123D01*
X3260293Y2941195D02*
G01*
X3260293Y2291209D01*
X3260293Y2291209D02*
G01*
X3251200Y2282116D01*
X3251200Y1981202D01*
X2590800Y2997202D02*
G01*
X2724784Y3131187D01*
X2883357Y3131187D01*
X3303498Y3551328D01*
X3303498Y3940050D01*
X3390900Y4027451D01*
X3390900Y4330702D01*
X1311351Y2609268D02*
G01*
X1311351Y2987753D01*
X1320800Y2997202D01*
X1320800Y2997202D02*
G01*
X1108938Y3209063D01*
X1108938Y3365502D01*
X1108938Y3365502D02*
G01*
X1108938Y3817698D01*
X1103934Y3822702D01*
X1066800Y711202D02*
G01*
X1111351Y755754D01*
X1111351Y1099060D01*
X1111351Y1099060D02*
G01*
X1111351Y1574675D01*
X2009419Y2472743D01*
X2009419Y2762303D01*
X2227046Y2979930D01*
X2227046Y3217649D01*
X2362200Y3352802D01*
X2311323Y946203D02*
G01*
X2355799Y946203D01*
X2590800Y711202D01*
X2311323Y1099136D02*
G01*
X2311323Y946203D01*
X3530600Y2781302D02*
G01*
X3653815Y2658087D01*
X3653815Y814707D01*
X3505200Y666092D01*
X1103934Y4254502D02*
G01*
X876300Y4482137D01*
X876300Y4711702D01*
D11*
X3382492Y4749802D02*
G01*
X3289300Y4656609D01*
X3289300Y4330702D01*
X1593850Y266702D02*
G01*
X1442491Y115343D01*
X1177721Y115343D01*
X292100Y1000965D01*
X292100Y3276602D01*
X2311323Y2609065D02*
G01*
X2311323Y2971726D01*
X2336800Y2997202D01*
X2781808Y3670302D02*
G01*
X2870200Y3581910D01*
X2870200Y3352802D01*
X2133955Y4254502D02*
G01*
X2197608Y4254502D01*
X2781808Y3670302D01*
X1236218Y254002D02*
G01*
X939800Y550420D01*
X939800Y766701D01*
X695528Y1010973D01*
X695528Y3172030D01*
X800100Y3276602D01*
X1847850Y4749802D02*
G01*
X1847850Y4540608D01*
X2133955Y4254502D01*
X1722246Y4749802D02*
G01*
X1722246Y4812591D01*
X1657375Y4877462D01*
X735431Y4877462D01*
X622300Y4764331D01*
X622300Y4711702D01*
X1847850Y4749802D02*
G01*
X1722246Y4749802D01*
D10*
X1511350Y1251968D02*
G01*
X1511579Y1252197D01*
X3061284Y1252197D01*
X3505200Y1696112D01*
D12*
G01*
X3390900Y4330700D03*
D13*
G01*
X3289300Y4330700D03*
D14*
G01*
X911352Y2609265D03*
G01*
X1111351Y2609240D03*
G01*
X1311351Y2609265D03*
G01*
X1511350Y2609189D03*
G01*
X1711350Y2609265D03*
G01*
X1911350Y2609342D03*
G01*
X2111324Y2609214D03*
G01*
X2311323Y2609062D03*
D15*
G01*
X2441422Y2353868D03*
G01*
X2441346Y2153869D03*
G01*
X2441346Y1953945D03*
G01*
X2441346Y1753870D03*
G01*
X2441295Y1553997D03*
G01*
X2441447Y1354201D03*
D14*
G01*
X2311323Y1099134D03*
G01*
X2111324Y1099057D03*
G01*
X1911350Y1099057D03*
G01*
X1711350Y1099057D03*
G01*
X1511350Y1099057D03*
G01*
X1311351Y1099057D03*
G01*
X1111351Y1099057D03*
G01*
X911352Y1099057D03*
D16*
G01*
X2743200Y1981200D03*
G01*
X3251200Y1981200D03*
D17*
G01*
X3530600Y2019300D03*
G01*
X3530600Y2273300D03*
G01*
X3530600Y2527300D03*
G01*
X3530600Y2781300D03*
G01*
X3530600Y3035300D03*
G01*
X3530600Y3289300D03*
D18*
G01*
X2810306Y2941193D03*
G01*
X2810306Y2291206D03*
G01*
X3260293Y2291206D03*
G01*
X3260293Y2941193D03*
D19*
G01*
X2882900Y1696110D03*
G01*
X2882900Y666089D03*
G01*
X3505200Y1696110D03*
G01*
X3505200Y666089D03*
G01*
X3194050Y1702460D03*
G01*
X3194050Y672439D03*
D16*
G01*
X2362200Y3352800D03*
G01*
X2870200Y3352800D03*
D20*
G01*
X1593850Y4749800D03*
D21*
G01*
X1847850Y4749800D03*
D20*
G01*
X1593850Y266700D03*
D21*
G01*
X1847850Y266700D03*
D22*
G01*
X3200400Y3657600D03*
G01*
X3454400Y3657600D03*
D23*
G01*
X622300Y4711700D03*
G01*
X368300Y4711700D03*
D24*
G01*
X876302Y4711697D03*
D19*
G01*
X2482189Y254000D03*
G01*
X3512210Y254000D03*
D16*
G01*
X186207Y254000D03*
G01*
X1236218Y254000D03*
D19*
G01*
X1103934Y3822700D03*
G01*
X2133955Y3822700D03*
D25*
G01*
X1108938Y3365500D03*
G01*
X2128951Y3365500D03*
D19*
G01*
X1103934Y4254500D03*
G01*
X2133955Y4254500D03*
D25*
G01*
X2332507Y4749800D03*
G01*
X3382492Y4749800D03*
D26*
G01*
X2590800Y2997200D03*
G01*
X2590800Y711200D03*
G01*
X812800Y2997200D03*
G01*
X1066800Y2997200D03*
G01*
X1320800Y2997200D03*
G01*
X1574800Y2997200D03*
G01*
X1828800Y2997200D03*
G01*
X2082800Y2997200D03*
G01*
X2336800Y2997200D03*
G01*
X812800Y711200D03*
G01*
X1066800Y711200D03*
G01*
X1320800Y711200D03*
G01*
X1574800Y711200D03*
G01*
X1828800Y711200D03*
G01*
X2082800Y711200D03*
G01*
X2336800Y711200D03*
D27*
G01*
X292100Y3276600D03*
D26*
G01*
X546100Y3276600D03*
G01*
X800100Y3276600D03*
D28*
G01*
X2781808Y3670300D03*
G01*
X2780791Y4432300D03*
G01*
X2526791Y4432300D03*
D29*
G01*
X2527808Y3670300D03*
D30*
G01*
X911352Y2438120D03*
G01*
X1205636Y2441955D03*
G01*
X911352Y1550720D03*
M02*
