G04 Layer: BottomSolderMaskLayer*
G04 EasyEDA v6.5.40, 2024-02-04 03:55:30*
G04 936758304a9441538e57e2a98c5da18a,153482dac41149f1974aef67bcea995d,10*
G04 Gerber Generator version 0.2*
G04 Scale: 100 percent, Rotated: No, Reflected: No *
G04 Dimensions in millimeters *
G04 leading zeros omitted , absolute positions ,4 integer and 5 decimal *
%FSLAX45Y45*%
%MOMM*%

%AMMACRO1*1,1,$1,$2,$3*1,1,$1,$4,$5*1,1,$1,0-$2,0-$3*1,1,$1,0-$4,0-$5*20,1,$1,$2,$3,$4,$5,0*20,1,$1,$4,$5,0-$2,0-$3,0*20,1,$1,0-$2,0-$3,0-$4,0-$5,0*20,1,$1,0-$4,0-$5,$2,$3,0*4,1,4,$2,$3,$4,$5,0-$2,0-$3,0-$4,0-$5,$2,$3,0*%
%ADD10C,1.7016*%
%ADD11C,2.0828*%
%ADD12C,2.1016*%
%ADD13C,1.6256*%
%ADD14C,1.8016*%
%ADD15MACRO1,0.1016X0.85X0.85X0.85X-0.85*%
%ADD16MACRO1,0.1016X0.75X-0.75X-0.75X-0.75*%
%ADD17O,2.101596X2.601595*%
%ADD18MACRO1,0.1016X1.0008X-1.2497X-1.0008X-1.2497*%
%ADD19C,1.5016*%
%ADD20C,1.6080*%
%ADD21MACRO1,0.1016X-0.754X0.754X0.754X0.754*%
%ADD22C,1.6096*%
%ADD23C,1.9016*%
%ADD24MACRO1,0.1016X0.9X-0.9X-0.9X-0.9*%

%LPD*%
D10*
G01*
X2743200Y1981200D03*
G01*
X3251200Y1981200D03*
D11*
G01*
X3530600Y2019300D03*
G01*
X3530600Y2273300D03*
G01*
X3530600Y2527300D03*
G01*
X3530600Y2781300D03*
G01*
X3530600Y3035300D03*
G01*
X3530600Y3289300D03*
D12*
G01*
X2810306Y2941193D03*
G01*
X2810306Y2291206D03*
G01*
X3260293Y2291206D03*
G01*
X3260293Y2941193D03*
D13*
G01*
X2882900Y1696110D03*
G01*
X2882900Y666089D03*
G01*
X3505200Y1696110D03*
G01*
X3505200Y666089D03*
G01*
X3194050Y1702460D03*
G01*
X3194050Y672439D03*
D10*
G01*
X2362200Y3352800D03*
G01*
X2870200Y3352800D03*
D14*
G01*
X1593850Y4749800D03*
D15*
G01*
X1847848Y4749798D03*
D14*
G01*
X1593850Y266700D03*
D15*
G01*
X1847848Y266698D03*
D16*
G01*
X3200400Y3657600D03*
G01*
X3454400Y3657600D03*
D17*
G01*
X622300Y4711700D03*
G01*
X368300Y4711700D03*
D18*
G01*
X876302Y4711697D03*
D13*
G01*
X2482189Y254000D03*
G01*
X3512210Y254000D03*
D10*
G01*
X186207Y254000D03*
G01*
X1236218Y254000D03*
D13*
G01*
X1103934Y3822700D03*
G01*
X2133955Y3822700D03*
D19*
G01*
X1108938Y3365500D03*
G01*
X2128951Y3365500D03*
D13*
G01*
X1103934Y4254500D03*
G01*
X2133955Y4254500D03*
D19*
G01*
X2332507Y4749800D03*
G01*
X3382492Y4749800D03*
D20*
G01*
X2590800Y2997200D03*
G01*
X2590800Y711200D03*
G01*
X812800Y2997200D03*
G01*
X1066800Y2997200D03*
G01*
X1320800Y2997200D03*
G01*
X1574800Y2997200D03*
G01*
X1828800Y2997200D03*
G01*
X2082800Y2997200D03*
G01*
X2336800Y2997200D03*
G01*
X812800Y711200D03*
G01*
X1066800Y711200D03*
G01*
X1320800Y711200D03*
G01*
X1574800Y711200D03*
G01*
X1828800Y711200D03*
G01*
X2082800Y711200D03*
G01*
X2336800Y711200D03*
D21*
G01*
X292100Y3276600D03*
D22*
G01*
X546100Y3276600D03*
G01*
X800100Y3276600D03*
D23*
G01*
X2781808Y3670300D03*
G01*
X2780791Y4432300D03*
G01*
X2526791Y4432300D03*
D24*
G01*
X2527805Y3670292D03*
M02*
